<?xml version="1.0" encoding="utf-8" standalone="no"?>
<!DOCTYPE svg PUBLIC "-//W3C//DTD SVG 1.1//EN"
  "http://www.w3.org/Graphics/SVG/1.1/DTD/svg11.dtd">
<svg xmlns:xlink="http://www.w3.org/1999/xlink" width="460.8pt" height="345.6pt" viewBox="0 0 460.8 345.6" xmlns="http://www.w3.org/2000/svg" version="1.1">
 <metadata>
  <rdf:RDF xmlns:dc="http://purl.org/dc/elements/1.1/" xmlns:cc="http://creativecommons.org/ns#" xmlns:rdf="http://www.w3.org/1999/02/22-rdf-syntax-ns#">
   <cc:Work>
    <dc:type rdf:resource="http://purl.org/dc/dcmitype/StillImage"/>
    <dc:date>2023-09-01T22:05:02.080278</dc:date>
    <dc:format>image/svg+xml</dc:format>
    <dc:creator>
     <cc:Agent>
      <dc:title>Matplotlib v3.7.0, https://matplotlib.org/</dc:title>
     </cc:Agent>
    </dc:creator>
   </cc:Work>
  </rdf:RDF>
 </metadata>
 <defs>
  <style type="text/css">*{stroke-linejoin: round; stroke-linecap: butt}</style>
 </defs>
 <g id="figure_1">
  <g id="patch_1">
   <path d="M 0 345.6 
L 460.8 345.6 
L 460.8 0 
L 0 0 
z
" style="fill: #ffffff"/>
  </g>
  <g id="axes_1">
   <g id="patch_2">
    <path d="M 57.6 307.584 
L 414.72 307.584 
L 414.72 41.472 
L 57.6 41.472 
z
" style="fill: #ffffff"/>
   </g>
   <g id="matplotlib.axis_1">
    <g id="xtick_1">
     <g id="line2d_1">
      <defs>
       <path id="m4e5a9dda75" d="M 0 0 
L 0 3.5 
" style="stroke: #000000; stroke-width: 0.8"/>
      </defs>
      <g>
       <use xlink:href="#m4e5a9dda75" x="72.421941" y="307.584" style="stroke: #000000; stroke-width: 0.8"/>
      </g>
     </g>
     <g id="text_1">
      <!-- 0 -->
      <g transform="translate(69.240691 322.182437) scale(0.1 -0.1)">
       <defs>
        <path id="DejaVuSans-30" d="M 2034 4250 
Q 1547 4250 1301 3770 
Q 1056 3291 1056 2328 
Q 1056 1369 1301 889 
Q 1547 409 2034 409 
Q 2525 409 2770 889 
Q 3016 1369 3016 2328 
Q 3016 3291 2770 3770 
Q 2525 4250 2034 4250 
z
M 2034 4750 
Q 2819 4750 3233 4129 
Q 3647 3509 3647 2328 
Q 3647 1150 3233 529 
Q 2819 -91 2034 -91 
Q 1250 -91 836 529 
Q 422 1150 422 2328 
Q 422 3509 836 4129 
Q 1250 4750 2034 4750 
z
" transform="scale(0.015625)"/>
       </defs>
       <use xlink:href="#DejaVuSans-30"/>
      </g>
     </g>
    </g>
    <g id="xtick_2">
     <g id="line2d_2">
      <g>
       <use xlink:href="#m4e5a9dda75" x="140.881553" y="307.584" style="stroke: #000000; stroke-width: 0.8"/>
      </g>
     </g>
     <g id="text_2">
      <!-- l/5 -->
      <g transform="translate(134.626865 322.182437) scale(0.1 -0.1)">
       <defs>
        <path id="DejaVuSans-6c" d="M 603 4863 
L 1178 4863 
L 1178 0 
L 603 0 
L 603 4863 
z
" transform="scale(0.015625)"/>
        <path id="DejaVuSans-2f" d="M 1625 4666 
L 2156 4666 
L 531 -594 
L 0 -594 
L 1625 4666 
z
" transform="scale(0.015625)"/>
        <path id="DejaVuSans-35" d="M 691 4666 
L 3169 4666 
L 3169 4134 
L 1269 4134 
L 1269 2991 
Q 1406 3038 1543 3061 
Q 1681 3084 1819 3084 
Q 2600 3084 3056 2656 
Q 3513 2228 3513 1497 
Q 3513 744 3044 326 
Q 2575 -91 1722 -91 
Q 1428 -91 1123 -41 
Q 819 9 494 109 
L 494 744 
Q 775 591 1075 516 
Q 1375 441 1709 441 
Q 2250 441 2565 725 
Q 2881 1009 2881 1497 
Q 2881 1984 2565 2268 
Q 2250 2553 1709 2553 
Q 1456 2553 1204 2497 
Q 953 2441 691 2322 
L 691 4666 
z
" transform="scale(0.015625)"/>
       </defs>
       <use xlink:href="#DejaVuSans-6c"/>
       <use xlink:href="#DejaVuSans-2f" x="27.783203"/>
       <use xlink:href="#DejaVuSans-35" x="61.474609"/>
      </g>
     </g>
    </g>
    <g id="xtick_3">
     <g id="line2d_3">
      <g>
       <use xlink:href="#m4e5a9dda75" x="209.341164" y="307.584" style="stroke: #000000; stroke-width: 0.8"/>
      </g>
     </g>
     <g id="text_3">
      <!-- 2l/5 -->
      <g transform="translate(199.905227 322.182437) scale(0.1 -0.1)">
       <defs>
        <path id="DejaVuSans-32" d="M 1228 531 
L 3431 531 
L 3431 0 
L 469 0 
L 469 531 
Q 828 903 1448 1529 
Q 2069 2156 2228 2338 
Q 2531 2678 2651 2914 
Q 2772 3150 2772 3378 
Q 2772 3750 2511 3984 
Q 2250 4219 1831 4219 
Q 1534 4219 1204 4116 
Q 875 4013 500 3803 
L 500 4441 
Q 881 4594 1212 4672 
Q 1544 4750 1819 4750 
Q 2544 4750 2975 4387 
Q 3406 4025 3406 3419 
Q 3406 3131 3298 2873 
Q 3191 2616 2906 2266 
Q 2828 2175 2409 1742 
Q 1991 1309 1228 531 
z
" transform="scale(0.015625)"/>
       </defs>
       <use xlink:href="#DejaVuSans-32"/>
       <use xlink:href="#DejaVuSans-6c" x="63.623047"/>
       <use xlink:href="#DejaVuSans-2f" x="91.40625"/>
       <use xlink:href="#DejaVuSans-35" x="125.097656"/>
      </g>
     </g>
    </g>
    <g id="xtick_4">
     <g id="line2d_4">
      <g>
       <use xlink:href="#m4e5a9dda75" x="277.800776" y="307.584" style="stroke: #000000; stroke-width: 0.8"/>
      </g>
     </g>
     <g id="text_4">
      <!-- 3l/5 -->
      <g transform="translate(268.364839 322.182437) scale(0.1 -0.1)">
       <defs>
        <path id="DejaVuSans-33" d="M 2597 2516 
Q 3050 2419 3304 2112 
Q 3559 1806 3559 1356 
Q 3559 666 3084 287 
Q 2609 -91 1734 -91 
Q 1441 -91 1130 -33 
Q 819 25 488 141 
L 488 750 
Q 750 597 1062 519 
Q 1375 441 1716 441 
Q 2309 441 2620 675 
Q 2931 909 2931 1356 
Q 2931 1769 2642 2001 
Q 2353 2234 1838 2234 
L 1294 2234 
L 1294 2753 
L 1863 2753 
Q 2328 2753 2575 2939 
Q 2822 3125 2822 3475 
Q 2822 3834 2567 4026 
Q 2313 4219 1838 4219 
Q 1578 4219 1281 4162 
Q 984 4106 628 3988 
L 628 4550 
Q 988 4650 1302 4700 
Q 1616 4750 1894 4750 
Q 2613 4750 3031 4423 
Q 3450 4097 3450 3541 
Q 3450 3153 3228 2886 
Q 3006 2619 2597 2516 
z
" transform="scale(0.015625)"/>
       </defs>
       <use xlink:href="#DejaVuSans-33"/>
       <use xlink:href="#DejaVuSans-6c" x="63.623047"/>
       <use xlink:href="#DejaVuSans-2f" x="91.40625"/>
       <use xlink:href="#DejaVuSans-35" x="125.097656"/>
      </g>
     </g>
    </g>
    <g id="xtick_5">
     <g id="line2d_5">
      <g>
       <use xlink:href="#m4e5a9dda75" x="346.260388" y="307.584" style="stroke: #000000; stroke-width: 0.8"/>
      </g>
     </g>
     <g id="text_5">
      <!-- 4l/5 -->
      <g transform="translate(336.824451 322.182437) scale(0.1 -0.1)">
       <defs>
        <path id="DejaVuSans-34" d="M 2419 4116 
L 825 1625 
L 2419 1625 
L 2419 4116 
z
M 2253 4666 
L 3047 4666 
L 3047 1625 
L 3713 1625 
L 3713 1100 
L 3047 1100 
L 3047 0 
L 2419 0 
L 2419 1100 
L 313 1100 
L 313 1709 
L 2253 4666 
z
" transform="scale(0.015625)"/>
       </defs>
       <use xlink:href="#DejaVuSans-34"/>
       <use xlink:href="#DejaVuSans-6c" x="63.623047"/>
       <use xlink:href="#DejaVuSans-2f" x="91.40625"/>
       <use xlink:href="#DejaVuSans-35" x="125.097656"/>
      </g>
     </g>
    </g>
    <g id="xtick_6">
     <g id="line2d_6">
      <g>
       <use xlink:href="#m4e5a9dda75" x="414.72" y="307.584" style="stroke: #000000; stroke-width: 0.8"/>
      </g>
     </g>
     <g id="text_6">
      <!-- l -->
      <g transform="translate(413.330938 322.182437) scale(0.1 -0.1)">
       <use xlink:href="#DejaVuSans-6c"/>
      </g>
     </g>
    </g>
    <g id="text_7">
     <!-- r -->
     <g transform="translate(234.104531 335.860562) scale(0.1 -0.1)">
      <defs>
       <path id="DejaVuSans-72" d="M 2631 2963 
Q 2534 3019 2420 3045 
Q 2306 3072 2169 3072 
Q 1681 3072 1420 2755 
Q 1159 2438 1159 1844 
L 1159 0 
L 581 0 
L 581 3500 
L 1159 3500 
L 1159 2956 
Q 1341 3275 1631 3429 
Q 1922 3584 2338 3584 
Q 2397 3584 2469 3576 
Q 2541 3569 2628 3553 
L 2631 2963 
z
" transform="scale(0.015625)"/>
      </defs>
      <use xlink:href="#DejaVuSans-72"/>
     </g>
    </g>
   </g>
   <g id="matplotlib.axis_2">
    <g id="ytick_1">
     <g id="line2d_7">
      <defs>
       <path id="m7d13b88606" d="M 0 0 
L -3.5 0 
" style="stroke: #000000; stroke-width: 0.8"/>
      </defs>
      <g>
       <use xlink:href="#m7d13b88606" x="57.6" y="295.488" style="stroke: #000000; stroke-width: 0.8"/>
      </g>
     </g>
     <g id="text_8">
      <!-- 0.0 -->
      <g transform="translate(34.696875 299.287219) scale(0.1 -0.1)">
       <defs>
        <path id="DejaVuSans-2e" d="M 684 794 
L 1344 794 
L 1344 0 
L 684 0 
L 684 794 
z
" transform="scale(0.015625)"/>
       </defs>
       <use xlink:href="#DejaVuSans-30"/>
       <use xlink:href="#DejaVuSans-2e" x="63.623047"/>
       <use xlink:href="#DejaVuSans-30" x="95.410156"/>
      </g>
     </g>
    </g>
    <g id="ytick_2">
     <g id="line2d_8">
      <g>
       <use xlink:href="#m7d13b88606" x="57.6" y="256.985236" style="stroke: #000000; stroke-width: 0.8"/>
      </g>
     </g>
     <g id="text_9">
      <!-- 0.5 -->
      <g transform="translate(34.696875 260.784455) scale(0.1 -0.1)">
       <use xlink:href="#DejaVuSans-30"/>
       <use xlink:href="#DejaVuSans-2e" x="63.623047"/>
       <use xlink:href="#DejaVuSans-35" x="95.410156"/>
      </g>
     </g>
    </g>
    <g id="ytick_3">
     <g id="line2d_9">
      <g>
       <use xlink:href="#m7d13b88606" x="57.6" y="218.482472" style="stroke: #000000; stroke-width: 0.8"/>
      </g>
     </g>
     <g id="text_10">
      <!-- 1.0 -->
      <g transform="translate(34.696875 222.281691) scale(0.1 -0.1)">
       <defs>
        <path id="DejaVuSans-31" d="M 794 531 
L 1825 531 
L 1825 4091 
L 703 3866 
L 703 4441 
L 1819 4666 
L 2450 4666 
L 2450 531 
L 3481 531 
L 3481 0 
L 794 0 
L 794 531 
z
" transform="scale(0.015625)"/>
       </defs>
       <use xlink:href="#DejaVuSans-31"/>
       <use xlink:href="#DejaVuSans-2e" x="63.623047"/>
       <use xlink:href="#DejaVuSans-30" x="95.410156"/>
      </g>
     </g>
    </g>
    <g id="ytick_4">
     <g id="line2d_10">
      <g>
       <use xlink:href="#m7d13b88606" x="57.6" y="179.979709" style="stroke: #000000; stroke-width: 0.8"/>
      </g>
     </g>
     <g id="text_11">
      <!-- 1.5 -->
      <g transform="translate(34.696875 183.778927) scale(0.1 -0.1)">
       <use xlink:href="#DejaVuSans-31"/>
       <use xlink:href="#DejaVuSans-2e" x="63.623047"/>
       <use xlink:href="#DejaVuSans-35" x="95.410156"/>
      </g>
     </g>
    </g>
    <g id="ytick_5">
     <g id="line2d_11">
      <g>
       <use xlink:href="#m7d13b88606" x="57.6" y="141.476945" style="stroke: #000000; stroke-width: 0.8"/>
      </g>
     </g>
     <g id="text_12">
      <!-- 2.0 -->
      <g transform="translate(34.696875 145.276163) scale(0.1 -0.1)">
       <use xlink:href="#DejaVuSans-32"/>
       <use xlink:href="#DejaVuSans-2e" x="63.623047"/>
       <use xlink:href="#DejaVuSans-30" x="95.410156"/>
      </g>
     </g>
    </g>
    <g id="ytick_6">
     <g id="line2d_12">
      <g>
       <use xlink:href="#m7d13b88606" x="57.6" y="102.974181" style="stroke: #000000; stroke-width: 0.8"/>
      </g>
     </g>
     <g id="text_13">
      <!-- 2.5 -->
      <g transform="translate(34.696875 106.7734) scale(0.1 -0.1)">
       <use xlink:href="#DejaVuSans-32"/>
       <use xlink:href="#DejaVuSans-2e" x="63.623047"/>
       <use xlink:href="#DejaVuSans-35" x="95.410156"/>
      </g>
     </g>
    </g>
    <g id="ytick_7">
     <g id="line2d_13">
      <g>
       <use xlink:href="#m7d13b88606" x="57.6" y="64.471417" style="stroke: #000000; stroke-width: 0.8"/>
      </g>
     </g>
     <g id="text_14">
      <!-- 3.0 -->
      <g transform="translate(34.696875 68.270636) scale(0.1 -0.1)">
       <use xlink:href="#DejaVuSans-33"/>
       <use xlink:href="#DejaVuSans-2e" x="63.623047"/>
       <use xlink:href="#DejaVuSans-30" x="95.410156"/>
      </g>
     </g>
    </g>
    <g id="text_15">
     <!-- Area(r) -->
     <g transform="translate(28.617187 191.988937) rotate(-90) scale(0.1 -0.1)">
      <defs>
       <path id="DejaVuSans-41" d="M 2188 4044 
L 1331 1722 
L 3047 1722 
L 2188 4044 
z
M 1831 4666 
L 2547 4666 
L 4325 0 
L 3669 0 
L 3244 1197 
L 1141 1197 
L 716 0 
L 50 0 
L 1831 4666 
z
" transform="scale(0.015625)"/>
       <path id="DejaVuSans-65" d="M 3597 1894 
L 3597 1613 
L 953 1613 
Q 991 1019 1311 708 
Q 1631 397 2203 397 
Q 2534 397 2845 478 
Q 3156 559 3463 722 
L 3463 178 
Q 3153 47 2828 -22 
Q 2503 -91 2169 -91 
Q 1331 -91 842 396 
Q 353 884 353 1716 
Q 353 2575 817 3079 
Q 1281 3584 2069 3584 
Q 2775 3584 3186 3129 
Q 3597 2675 3597 1894 
z
M 3022 2063 
Q 3016 2534 2758 2815 
Q 2500 3097 2075 3097 
Q 1594 3097 1305 2825 
Q 1016 2553 972 2059 
L 3022 2063 
z
" transform="scale(0.015625)"/>
       <path id="DejaVuSans-61" d="M 2194 1759 
Q 1497 1759 1228 1600 
Q 959 1441 959 1056 
Q 959 750 1161 570 
Q 1363 391 1709 391 
Q 2188 391 2477 730 
Q 2766 1069 2766 1631 
L 2766 1759 
L 2194 1759 
z
M 3341 1997 
L 3341 0 
L 2766 0 
L 2766 531 
Q 2569 213 2275 61 
Q 1981 -91 1556 -91 
Q 1019 -91 701 211 
Q 384 513 384 1019 
Q 384 1609 779 1909 
Q 1175 2209 1959 2209 
L 2766 2209 
L 2766 2266 
Q 2766 2663 2505 2880 
Q 2244 3097 1772 3097 
Q 1472 3097 1187 3025 
Q 903 2953 641 2809 
L 641 3341 
Q 956 3463 1253 3523 
Q 1550 3584 1831 3584 
Q 2591 3584 2966 3190 
Q 3341 2797 3341 1997 
z
" transform="scale(0.015625)"/>
       <path id="DejaVuSans-28" d="M 1984 4856 
Q 1566 4138 1362 3434 
Q 1159 2731 1159 2009 
Q 1159 1288 1364 580 
Q 1569 -128 1984 -844 
L 1484 -844 
Q 1016 -109 783 600 
Q 550 1309 550 2009 
Q 550 2706 781 3412 
Q 1013 4119 1484 4856 
L 1984 4856 
z
" transform="scale(0.015625)"/>
       <path id="DejaVuSans-29" d="M 513 4856 
L 1013 4856 
Q 1481 4119 1714 3412 
Q 1947 2706 1947 2009 
Q 1947 1309 1714 600 
Q 1481 -109 1013 -844 
L 513 -844 
Q 928 -128 1133 580 
Q 1338 1288 1338 2009 
Q 1338 2731 1133 3434 
Q 928 4138 513 4856 
z
" transform="scale(0.015625)"/>
      </defs>
      <use xlink:href="#DejaVuSans-41"/>
      <use xlink:href="#DejaVuSans-72" x="68.408203"/>
      <use xlink:href="#DejaVuSans-65" x="107.271484"/>
      <use xlink:href="#DejaVuSans-61" x="168.794922"/>
      <use xlink:href="#DejaVuSans-28" x="230.074219"/>
      <use xlink:href="#DejaVuSans-72" x="269.087891"/>
      <use xlink:href="#DejaVuSans-29" x="310.201172"/>
     </g>
    </g>
   </g>
   <g id="line2d_14">
    <path d="M 72.421941 295.488 
L 74.150719 295.463317 
L 75.879497 295.389267 
L 77.608275 295.265851 
L 79.337053 295.093069 
L 81.065831 294.87092 
L 82.794609 294.599405 
L 84.523387 294.278523 
L 86.252165 293.908275 
L 87.980943 293.488661 
L 89.709722 293.01968 
L 91.4385 292.501333 
L 93.167278 291.93362 
L 94.896056 291.31654 
L 96.624834 290.650094 
L 98.353612 289.934281 
L 100.08239 289.169102 
L 101.811168 288.354556 
L 103.539946 287.490645 
L 105.268724 286.577366 
L 106.997502 285.614722 
L 108.72628 284.602711 
L 110.455058 283.541333 
L 112.183837 282.43059 
L 113.912615 281.270479 
L 115.641393 280.061003 
L 117.370171 278.80216 
L 119.098949 277.49395 
L 120.827727 276.136375 
L 122.556505 274.729433 
L 124.285283 273.273124 
L 126.014061 271.767449 
L 127.742839 270.212408 
L 129.471617 268.608 
L 131.200395 266.954226 
L 132.929173 265.251085 
L 134.657952 263.498579 
L 136.38673 261.696705 
L 138.115508 259.845466 
L 139.844286 257.94486 
L 141.573064 255.994887 
L 143.301842 253.995548 
L 145.03062 251.946843 
L 146.759398 249.848771 
L 148.488176 247.701333 
L 150.216954 245.504529 
L 151.945732 243.258358 
L 153.67451 240.962821 
L 155.403288 238.617917 
L 157.132067 236.223647 
L 158.860845 233.780011 
L 160.589623 231.287008 
L 162.318401 228.744639 
L 164.047179 226.152904 
L 165.775957 223.511802 
L 167.504735 220.821333 
L 169.233513 218.081499 
L 170.962291 215.292298 
L 172.691069 212.45373 
L 174.419847 209.565796 
L 176.148625 206.628496 
L 177.877403 203.641829 
L 179.606182 200.605796 
L 181.33496 197.520397 
L 183.063738 194.385631 
L 184.792516 191.201499 
L 186.521294 187.968 
L 188.250072 184.685135 
L 189.97885 181.352904 
L 191.707628 177.971306 
L 193.436406 174.540342 
L 195.165184 171.060011 
L 196.893962 167.530314 
L 198.62274 163.951251 
L 200.351518 160.322821 
L 202.080297 156.645025 
L 203.809075 152.917862 
L 205.537853 149.141333 
L 207.266631 145.315438 
L 208.995409 141.440176 
L 210.724187 137.515548 
L 212.452965 133.541554 
L 214.181743 129.518193 
L 215.910521 125.445466 
L 217.639299 121.323372 
L 219.368077 117.151912 
L 221.096855 112.931085 
L 222.825633 108.660893 
L 224.554412 104.341333 
L 226.28319 99.972408 
L 228.011968 95.554116 
L 229.740746 91.086457 
L 231.469524 86.569433 
L 233.198302 82.003041 
L 234.92708 77.387284 
L 236.655858 72.72216 
L 238.384636 68.007669 
L 240.113414 63.243813 
L 241.842192 58.43059 
L 243.57097 53.568 
" clip-path="url(#pca68beb90b)" style="fill: none; stroke: #0072bd; stroke-width: 1.5; stroke-linecap: square"/>
   </g>
   <g id="line2d_15">
    <path d="M 243.57097 53.568 
L 244.287054 54.588657 
L 245.003137 55.626254 
L 245.71922 56.680791 
L 246.435304 57.752268 
L 247.151387 58.840685 
L 247.86747 59.946042 
L 248.583554 61.068338 
L 249.299637 62.207574 
L 250.01572 63.363751 
L 250.731804 64.536867 
L 251.447887 65.726923 
L 252.16397 66.933918 
L 252.880054 68.157854 
L 253.596137 69.39873 
L 254.31222 70.656545 
L 255.028304 71.9313 
L 255.744387 73.222995 
L 256.46047 74.53163 
L 257.176554 75.857205 
L 257.892637 77.19972 
L 258.60872 78.559175 
L 259.324804 79.935569 
L 260.040887 81.328903 
L 260.75697 82.739178 
L 261.473054 84.166392 
L 262.189137 85.610546 
L 262.90522 87.071639 
L 263.621303 88.549673 
L 264.337387 90.044647 
L 265.05347 91.55656 
L 265.769553 93.085413 
L 266.485637 94.631206 
L 267.20172 96.193939 
L 267.917803 97.773612 
L 268.633887 99.370225 
L 269.34997 100.983778 
L 270.066053 102.61427 
L 270.782137 104.261703 
L 271.49822 105.926075 
L 272.214303 107.607387 
L 272.930387 109.305639 
L 273.64647 111.020831 
L 274.362553 112.752962 
L 275.078637 114.502034 
L 275.79472 116.268045 
L 276.510803 118.050997 
L 277.226887 119.850888 
L 277.94297 121.667719 
L 278.659053 123.50149 
L 279.375137 125.3522 
L 280.09122 127.219851 
L 280.807303 129.104441 
L 281.523387 131.005972 
L 282.23947 132.924442 
L 282.955553 134.859852 
L 283.671637 136.812202 
L 284.38772 138.781492 
L 285.103803 140.767722 
L 285.819887 142.770891 
L 286.53597 144.791001 
L 287.252053 146.82805 
L 287.968137 148.882039 
L 288.68422 150.952968 
L 289.400303 153.040837 
L 290.116387 155.145646 
L 290.83247 157.267394 
L 291.548553 159.406083 
L 292.264637 161.561711 
L 292.98072 163.73428 
L 293.696803 165.923788 
L 294.412887 168.130236 
L 295.12897 170.353623 
L 295.845053 172.593951 
L 296.561136 174.851219 
L 297.27722 177.125426 
L 297.993303 179.416573 
L 298.709386 181.724661 
L 299.42547 184.049688 
L 300.141553 186.391655 
L 300.857636 188.750561 
L 301.57372 191.126408 
L 302.289803 193.519195 
L 303.005886 195.928921 
L 303.72197 198.355587 
L 304.438053 200.799193 
L 305.154136 203.259739 
L 305.87022 205.737225 
L 306.586303 208.231651 
L 307.302386 210.743016 
L 308.01847 213.271322 
L 308.734553 215.816567 
L 309.450636 218.378752 
L 310.16672 220.957877 
L 310.882803 223.553942 
L 311.598886 226.166947 
L 312.31497 228.796892 
L 313.031053 231.443776 
L 313.747136 234.107601 
L 314.46322 236.788365 
" clip-path="url(#pca68beb90b)" style="fill: none; stroke: #0072bd; stroke-width: 1.5; stroke-linecap: square"/>
   </g>
   <g id="line2d_16">
    <path d="M 314.46322 236.788365 
L 315.01269 238.668341 
L 315.56216 240.40192 
L 316.11163 242.043483 
L 316.6611 243.61239 
L 317.21057 245.119804 
L 317.76004 246.57324 
L 318.30951 247.978202 
L 318.85898 249.338942 
L 319.40845 250.658873 
L 319.95792 251.940809 
L 320.50739 253.187124 
L 321.05686 254.399852 
L 321.60633 255.580759 
L 322.1558 256.7314 
L 322.705271 257.853154 
L 323.254741 258.947255 
L 323.804211 260.014816 
L 324.353681 261.056847 
L 324.903151 262.074269 
L 325.452621 263.067924 
L 326.002091 264.03859 
L 326.551561 264.986984 
L 327.101031 265.913772 
L 327.650501 266.819572 
L 328.199971 267.704963 
L 328.749441 268.570485 
L 329.298911 269.416644 
L 329.848381 270.243917 
L 330.397851 271.052753 
L 330.947321 271.843575 
L 331.496792 272.616784 
L 332.046262 273.372758 
L 332.595732 274.111857 
L 333.145202 274.834423 
L 333.694672 275.54078 
L 334.244142 276.231239 
L 334.793612 276.906094 
L 335.343082 277.565628 
L 335.892552 278.210109 
L 336.442022 278.839796 
L 336.991492 279.454934 
L 337.540962 280.055762 
L 338.090432 280.642505 
L 338.639902 281.215383 
L 339.189372 281.774604 
L 339.738842 282.320369 
L 340.288313 282.852874 
L 340.837783 283.372305 
L 341.387253 283.878841 
L 341.936723 284.372657 
L 342.486193 284.85392 
L 343.035663 285.322793 
L 343.585133 285.779431 
L 344.134603 286.223985 
L 344.684073 286.656603 
L 345.233543 287.077425 
L 345.783013 287.486588 
L 346.332483 287.884226 
L 346.881953 288.270466 
L 347.431423 288.645434 
L 347.980893 289.00925 
L 348.530363 289.362032 
L 349.079834 289.703893 
L 349.629304 290.034945 
L 350.178774 290.355295 
L 350.728244 290.665047 
L 351.277714 290.964303 
L 351.827184 291.253161 
L 352.376654 291.531718 
L 352.926124 291.800068 
L 353.475594 292.0583 
L 354.025064 292.306504 
L 354.574534 292.544766 
L 355.124004 292.77317 
L 355.673474 292.991799 
L 356.222944 293.200731 
L 356.772414 293.400045 
L 357.321884 293.589817 
L 357.871354 293.770121 
L 358.420825 293.941029 
L 358.970295 294.102612 
L 359.519765 294.254939 
L 360.069235 294.398078 
L 360.618705 294.532093 
L 361.168175 294.657049 
L 361.717645 294.773009 
L 362.267115 294.880034 
L 362.816585 294.978185 
L 363.366055 295.067519 
L 363.915525 295.148095 
L 364.464995 295.219968 
L 365.014465 295.283193 
L 365.563935 295.337824 
L 366.113405 295.383914 
L 366.662875 295.421513 
L 367.212346 295.450672 
L 367.761816 295.471441 
L 368.311286 295.483868 
L 368.860756 295.488 
" clip-path="url(#pca68beb90b)" style="fill: none; stroke: #0072bd; stroke-width: 1.5; stroke-linecap: square"/>
   </g>
   <g id="patch_3">
    <path d="M 57.6 307.584 
L 57.6 41.472 
" style="fill: none; stroke: #000000; stroke-width: 0.8; stroke-linejoin: miter; stroke-linecap: square"/>
   </g>
   <g id="patch_4">
    <path d="M 414.72 307.584 
L 414.72 41.472 
" style="fill: none; stroke: #000000; stroke-width: 0.8; stroke-linejoin: miter; stroke-linecap: square"/>
   </g>
   <g id="patch_5">
    <path d="M 57.6 307.584 
L 414.72 307.584 
" style="fill: none; stroke: #000000; stroke-width: 0.8; stroke-linejoin: miter; stroke-linecap: square"/>
   </g>
   <g id="patch_6">
    <path d="M 57.6 41.472 
L 414.72 41.472 
" style="fill: none; stroke: #000000; stroke-width: 0.8; stroke-linejoin: miter; stroke-linecap: square"/>
   </g>
  </g>
 </g>
 <defs>
  <clipPath id="pca68beb90b">
   <rect x="57.6" y="41.472" width="357.12" height="266.112"/>
  </clipPath>
 </defs>
</svg>
