<?xml version="1.0" encoding="utf-8" standalone="no"?>
<!DOCTYPE svg PUBLIC "-//W3C//DTD SVG 1.1//EN"
  "http://www.w3.org/Graphics/SVG/1.1/DTD/svg11.dtd">
<svg xmlns:xlink="http://www.w3.org/1999/xlink" width="216pt" height="216pt" viewBox="0 0 216 216" xmlns="http://www.w3.org/2000/svg" version="1.1">
 <metadata>
  <rdf:RDF xmlns:dc="http://purl.org/dc/elements/1.1/" xmlns:cc="http://creativecommons.org/ns#" xmlns:rdf="http://www.w3.org/1999/02/22-rdf-syntax-ns#">
   <cc:Work>
    <dc:type rdf:resource="http://purl.org/dc/dcmitype/StillImage"/>
    <dc:date>2023-10-28T14:42:36.038620</dc:date>
    <dc:format>image/svg+xml</dc:format>
    <dc:creator>
     <cc:Agent>
      <dc:title>Matplotlib v3.7.0, https://matplotlib.org/</dc:title>
     </cc:Agent>
    </dc:creator>
   </cc:Work>
  </rdf:RDF>
 </metadata>
 <defs>
  <style type="text/css">*{stroke-linejoin: round; stroke-linecap: butt}</style>
 </defs>
 <g id="figure_1">
  <g id="patch_1">
   <path d="M 0 216 
L 216 216 
L 216 0 
L 0 0 
z
" style="fill: #ffffff"/>
  </g>
  <g id="axes_1">
   <g id="patch_2">
    <path d="M 181.815 108 
C 181.815 98.708539 179.984785 89.507425 176.429096 80.923234 
C 172.873408 72.339043 167.661396 64.538715 161.09134 57.96866 
C 154.521285 51.398604 146.720957 46.186592 138.136766 42.630904 
C 129.552575 39.075215 120.351461 37.245 111.06 37.245 
C 101.768539 37.245 92.567425 39.075215 83.983234 42.630904 
C 75.399043 46.186592 67.598715 51.398604 61.02866 57.96866 
C 54.458604 64.538715 49.246592 72.339043 45.690904 80.923234 
C 42.135215 89.507425 40.305 98.708539 40.305 108 
C 40.305 117.291461 42.135215 126.492575 45.690904 135.076766 
C 49.246592 143.660957 54.458604 151.461285 61.02866 158.03134 
C 67.598715 164.601396 75.399043 169.813408 83.983234 173.369096 
C 92.567425 176.924785 101.768539 178.755 111.06 178.755 
C 120.351461 178.755 129.552575 176.924785 138.136766 173.369096 
C 146.720957 169.813408 154.521285 164.601396 161.09134 158.03134 
C 167.661396 151.461285 172.873408 143.660957 176.429096 135.076766 
C 179.984785 126.492575 181.815 117.291461 181.815 108 
M 111.06 108 
C 111.06 108 111.06 108 111.06 108 
C 111.06 108 111.06 108 111.06 108 
C 111.06 108 111.06 108 111.06 108 
C 111.06 108 111.06 108 111.06 108 
C 111.06 108 111.06 108 111.06 108 
C 111.06 108 111.06 108 111.06 108 
C 111.06 108 111.06 108 111.06 108 
C 111.06 108 111.06 108 111.06 108 
C 111.06 108 111.06 108 111.06 108 
C 111.06 108 111.06 108 111.06 108 
C 111.06 108 111.06 108 111.06 108 
C 111.06 108 111.06 108 111.06 108 
C 111.06 108 111.06 108 111.06 108 
C 111.06 108 111.06 108 111.06 108 
C 111.06 108 111.06 108 111.06 108 
C 111.06 108 111.06 108 111.06 108 
z
" style="fill: #eaeaf2"/>
   </g>
   <g id="matplotlib.axis_1">
    <g id="xtick_1">
     <g id="line2d_1">
      <path d="M 111.06 108 
L 181.815 108 
" clip-path="url(#p9fdb877487)" style="fill: none; stroke: #ffffff; stroke-linecap: round"/>
     </g>
     <g id="text_1">
      <!-- 0° -->
      <g style="fill: #262626" transform="translate(193.057344 110.843672) scale(0.11 -0.11)">
       <defs>
        <path id="ArialMT-30" d="M 266 2259 
Q 266 3072 433 3567 
Q 600 4063 929 4331 
Q 1259 4600 1759 4600 
Q 2128 4600 2406 4451 
Q 2684 4303 2865 4023 
Q 3047 3744 3150 3342 
Q 3253 2941 3253 2259 
Q 3253 1453 3087 958 
Q 2922 463 2592 192 
Q 2263 -78 1759 -78 
Q 1097 -78 719 397 
Q 266 969 266 2259 
z
M 844 2259 
Q 844 1131 1108 757 
Q 1372 384 1759 384 
Q 2147 384 2411 759 
Q 2675 1134 2675 2259 
Q 2675 3391 2411 3762 
Q 2147 4134 1753 4134 
Q 1366 4134 1134 3806 
Q 844 3388 844 2259 
z
" transform="scale(0.015625)"/>
        <path id="ArialMT-b0" d="M 400 3794 
Q 400 4153 654 4406 
Q 909 4659 1266 4659 
Q 1628 4659 1881 4406 
Q 2134 4153 2134 3794 
Q 2134 3434 1879 3179 
Q 1625 2925 1266 2925 
Q 909 2925 654 3178 
Q 400 3431 400 3794 
z
M 741 3794 
Q 741 3575 895 3420 
Q 1050 3266 1269 3266 
Q 1484 3266 1639 3420 
Q 1794 3575 1794 3794 
Q 1794 4013 1639 4167 
Q 1484 4322 1269 4322 
Q 1050 4322 895 4167 
Q 741 4013 741 3794 
z
" transform="scale(0.015625)"/>
       </defs>
       <use xlink:href="#ArialMT-30"/>
       <use xlink:href="#ArialMT-b0" x="55.615234"/>
      </g>
     </g>
    </g>
    <g id="xtick_2">
     <g id="line2d_2">
      <path d="M 111.06 108 
L 161.09134 57.96866 
" clip-path="url(#p9fdb877487)" style="fill: none; stroke: #ffffff; stroke-linecap: round"/>
     </g>
     <g id="text_2">
      <!-- 45° -->
      <g style="fill: #262626" transform="translate(164.44243 49.14507) scale(0.11 -0.11)">
       <defs>
        <path id="ArialMT-34" d="M 2069 0 
L 2069 1097 
L 81 1097 
L 81 1613 
L 2172 4581 
L 2631 4581 
L 2631 1613 
L 3250 1613 
L 3250 1097 
L 2631 1097 
L 2631 0 
L 2069 0 
z
M 2069 1613 
L 2069 3678 
L 634 1613 
L 2069 1613 
z
" transform="scale(0.015625)"/>
        <path id="ArialMT-35" d="M 266 1200 
L 856 1250 
Q 922 819 1161 601 
Q 1400 384 1738 384 
Q 2144 384 2425 690 
Q 2706 997 2706 1503 
Q 2706 1984 2436 2262 
Q 2166 2541 1728 2541 
Q 1456 2541 1237 2417 
Q 1019 2294 894 2097 
L 366 2166 
L 809 4519 
L 3088 4519 
L 3088 3981 
L 1259 3981 
L 1013 2750 
Q 1425 3038 1878 3038 
Q 2478 3038 2890 2622 
Q 3303 2206 3303 1553 
Q 3303 931 2941 478 
Q 2500 -78 1738 -78 
Q 1113 -78 717 272 
Q 322 622 266 1200 
z
" transform="scale(0.015625)"/>
       </defs>
       <use xlink:href="#ArialMT-34"/>
       <use xlink:href="#ArialMT-35" x="55.615234"/>
       <use xlink:href="#ArialMT-b0" x="111.230469"/>
      </g>
     </g>
    </g>
    <g id="xtick_3">
     <g id="line2d_3">
      <path d="M 111.06 108 
L 111.06 37.245 
" clip-path="url(#p9fdb877487)" style="fill: none; stroke: #ffffff; stroke-linecap: round"/>
     </g>
     <g id="text_3">
      <!-- 90° -->
      <g style="fill: #262626" transform="translate(102.743828 23.588672) scale(0.11 -0.11)">
       <defs>
        <path id="ArialMT-39" d="M 350 1059 
L 891 1109 
Q 959 728 1153 556 
Q 1347 384 1650 384 
Q 1909 384 2104 503 
Q 2300 622 2425 820 
Q 2550 1019 2634 1356 
Q 2719 1694 2719 2044 
Q 2719 2081 2716 2156 
Q 2547 1888 2255 1720 
Q 1963 1553 1622 1553 
Q 1053 1553 659 1965 
Q 266 2378 266 3053 
Q 266 3750 677 4175 
Q 1088 4600 1706 4600 
Q 2153 4600 2523 4359 
Q 2894 4119 3086 3673 
Q 3278 3228 3278 2384 
Q 3278 1506 3087 986 
Q 2897 466 2520 194 
Q 2144 -78 1638 -78 
Q 1100 -78 759 220 
Q 419 519 350 1059 
z
M 2653 3081 
Q 2653 3566 2395 3850 
Q 2138 4134 1775 4134 
Q 1400 4134 1122 3828 
Q 844 3522 844 3034 
Q 844 2597 1108 2323 
Q 1372 2050 1759 2050 
Q 2150 2050 2401 2323 
Q 2653 2597 2653 3081 
z
" transform="scale(0.015625)"/>
       </defs>
       <use xlink:href="#ArialMT-39"/>
       <use xlink:href="#ArialMT-30" x="55.615234"/>
       <use xlink:href="#ArialMT-b0" x="111.230469"/>
      </g>
     </g>
    </g>
    <g id="xtick_4">
     <g id="line2d_4">
      <path d="M 111.06 108 
L 61.02866 57.96866 
" clip-path="url(#p9fdb877487)" style="fill: none; stroke: #ffffff; stroke-linecap: round"/>
     </g>
     <g id="text_4">
      <!-- 135° -->
      <g style="fill: #262626" transform="translate(37.98671 49.14507) scale(0.11 -0.11)">
       <defs>
        <path id="ArialMT-31" d="M 2384 0 
L 1822 0 
L 1822 3584 
Q 1619 3391 1289 3197 
Q 959 3003 697 2906 
L 697 3450 
Q 1169 3672 1522 3987 
Q 1875 4303 2022 4600 
L 2384 4600 
L 2384 0 
z
" transform="scale(0.015625)"/>
        <path id="ArialMT-33" d="M 269 1209 
L 831 1284 
Q 928 806 1161 595 
Q 1394 384 1728 384 
Q 2125 384 2398 659 
Q 2672 934 2672 1341 
Q 2672 1728 2419 1979 
Q 2166 2231 1775 2231 
Q 1616 2231 1378 2169 
L 1441 2663 
Q 1497 2656 1531 2656 
Q 1891 2656 2178 2843 
Q 2466 3031 2466 3422 
Q 2466 3731 2256 3934 
Q 2047 4138 1716 4138 
Q 1388 4138 1169 3931 
Q 950 3725 888 3313 
L 325 3413 
Q 428 3978 793 4289 
Q 1159 4600 1703 4600 
Q 2078 4600 2393 4439 
Q 2709 4278 2876 4000 
Q 3044 3722 3044 3409 
Q 3044 3113 2884 2869 
Q 2725 2625 2413 2481 
Q 2819 2388 3044 2092 
Q 3269 1797 3269 1353 
Q 3269 753 2831 336 
Q 2394 -81 1725 -81 
Q 1122 -81 723 278 
Q 325 638 269 1209 
z
" transform="scale(0.015625)"/>
       </defs>
       <use xlink:href="#ArialMT-31"/>
       <use xlink:href="#ArialMT-33" x="55.615234"/>
       <use xlink:href="#ArialMT-35" x="111.230469"/>
       <use xlink:href="#ArialMT-b0" x="166.845703"/>
      </g>
     </g>
    </g>
    <g id="xtick_5">
     <g id="line2d_5">
      <path d="M 111.06 108 
L 40.305 108 
" clip-path="url(#p9fdb877487)" style="fill: none; stroke: #ffffff; stroke-linecap: round"/>
     </g>
     <g id="text_5">
      <!-- 180° -->
      <g style="fill: #262626" transform="translate(12.430312 110.843672) scale(0.11 -0.11)">
       <defs>
        <path id="ArialMT-38" d="M 1131 2484 
Q 781 2613 612 2850 
Q 444 3088 444 3419 
Q 444 3919 803 4259 
Q 1163 4600 1759 4600 
Q 2359 4600 2725 4251 
Q 3091 3903 3091 3403 
Q 3091 3084 2923 2848 
Q 2756 2613 2416 2484 
Q 2838 2347 3058 2040 
Q 3278 1734 3278 1309 
Q 3278 722 2862 322 
Q 2447 -78 1769 -78 
Q 1091 -78 675 323 
Q 259 725 259 1325 
Q 259 1772 486 2073 
Q 713 2375 1131 2484 
z
M 1019 3438 
Q 1019 3113 1228 2906 
Q 1438 2700 1772 2700 
Q 2097 2700 2305 2904 
Q 2513 3109 2513 3406 
Q 2513 3716 2298 3927 
Q 2084 4138 1766 4138 
Q 1444 4138 1231 3931 
Q 1019 3725 1019 3438 
z
M 838 1322 
Q 838 1081 952 856 
Q 1066 631 1291 507 
Q 1516 384 1775 384 
Q 2178 384 2440 643 
Q 2703 903 2703 1303 
Q 2703 1709 2433 1975 
Q 2163 2241 1756 2241 
Q 1359 2241 1098 1978 
Q 838 1716 838 1322 
z
" transform="scale(0.015625)"/>
       </defs>
       <use xlink:href="#ArialMT-31"/>
       <use xlink:href="#ArialMT-38" x="55.615234"/>
       <use xlink:href="#ArialMT-30" x="111.230469"/>
       <use xlink:href="#ArialMT-b0" x="166.845703"/>
      </g>
     </g>
    </g>
    <g id="xtick_6">
     <g id="line2d_6">
      <path d="M 111.06 108 
L 61.02866 158.03134 
" clip-path="url(#p9fdb877487)" style="fill: none; stroke: #ffffff; stroke-linecap: round"/>
     </g>
     <g id="text_6">
      <!-- 225° -->
      <g style="fill: #262626" transform="translate(37.98671 172.542274) scale(0.11 -0.11)">
       <defs>
        <path id="ArialMT-32" d="M 3222 541 
L 3222 0 
L 194 0 
Q 188 203 259 391 
Q 375 700 629 1000 
Q 884 1300 1366 1694 
Q 2113 2306 2375 2664 
Q 2638 3022 2638 3341 
Q 2638 3675 2398 3904 
Q 2159 4134 1775 4134 
Q 1369 4134 1125 3890 
Q 881 3647 878 3216 
L 300 3275 
Q 359 3922 746 4261 
Q 1134 4600 1788 4600 
Q 2447 4600 2831 4234 
Q 3216 3869 3216 3328 
Q 3216 3053 3103 2787 
Q 2991 2522 2730 2228 
Q 2469 1934 1863 1422 
Q 1356 997 1212 845 
Q 1069 694 975 541 
L 3222 541 
z
" transform="scale(0.015625)"/>
       </defs>
       <use xlink:href="#ArialMT-32"/>
       <use xlink:href="#ArialMT-32" x="55.615234"/>
       <use xlink:href="#ArialMT-35" x="111.230469"/>
       <use xlink:href="#ArialMT-b0" x="166.845703"/>
      </g>
     </g>
    </g>
    <g id="xtick_7">
     <g id="line2d_7">
      <path d="M 111.06 108 
L 111.06 178.755 
" clip-path="url(#p9fdb877487)" style="fill: none; stroke: #ffffff; stroke-linecap: round"/>
     </g>
     <g id="text_7">
      <!-- 270° -->
      <g style="fill: #262626" transform="translate(99.685313 198.098672) scale(0.11 -0.11)">
       <defs>
        <path id="ArialMT-37" d="M 303 3981 
L 303 4522 
L 3269 4522 
L 3269 4084 
Q 2831 3619 2401 2847 
Q 1972 2075 1738 1259 
Q 1569 684 1522 0 
L 944 0 
Q 953 541 1156 1306 
Q 1359 2072 1739 2783 
Q 2119 3494 2547 3981 
L 303 3981 
z
" transform="scale(0.015625)"/>
       </defs>
       <use xlink:href="#ArialMT-32"/>
       <use xlink:href="#ArialMT-37" x="55.615234"/>
       <use xlink:href="#ArialMT-30" x="111.230469"/>
       <use xlink:href="#ArialMT-b0" x="166.845703"/>
      </g>
     </g>
    </g>
    <g id="xtick_8">
     <g id="line2d_8">
      <path d="M 111.06 108 
L 161.09134 158.03134 
" clip-path="url(#p9fdb877487)" style="fill: none; stroke: #ffffff; stroke-linecap: round"/>
     </g>
     <g id="text_8">
      <!-- 315° -->
      <g style="fill: #262626" transform="translate(161.383915 172.542274) scale(0.11 -0.11)">
       <use xlink:href="#ArialMT-33"/>
       <use xlink:href="#ArialMT-31" x="55.615234"/>
       <use xlink:href="#ArialMT-35" x="111.230469"/>
       <use xlink:href="#ArialMT-b0" x="166.845703"/>
      </g>
     </g>
    </g>
   </g>
   <g id="matplotlib.axis_2">
    <g id="ytick_1">
     <g id="line2d_9">
      <path d="M 124.868548 108 
C 124.868548 106.186678 124.511363 104.390988 123.817435 102.715697 
C 123.123507 101.040406 122.10633 99.518094 120.824118 98.235882 
C 119.541906 96.95367 118.019594 95.936493 116.344303 95.242565 
C 114.669012 94.548637 112.873322 94.191452 111.06 94.191452 
C 109.246678 94.191452 107.450988 94.548637 105.775697 95.242565 
C 104.100406 95.936493 102.578094 96.95367 101.295882 98.235882 
C 100.01367 99.518094 98.996493 101.040406 98.302565 102.715697 
C 97.608637 104.390988 97.251452 106.186678 97.251452 108 
C 97.251452 109.813322 97.608637 111.609012 98.302565 113.284303 
C 98.996493 114.959594 100.01367 116.481906 101.295882 117.764118 
C 102.578094 119.04633 104.100406 120.063507 105.775697 120.757435 
C 107.450988 121.451363 109.246678 121.808548 111.06 121.808548 
C 112.873322 121.808548 114.669012 121.451363 116.344303 120.757435 
C 118.019594 120.063507 119.541906 119.04633 120.824118 117.764118 
C 122.10633 116.481906 123.123507 114.959594 123.817435 113.284303 
C 124.511363 111.609012 124.868548 109.813322 124.868548 108 
" clip-path="url(#p9fdb877487)" style="fill: none; stroke: #ffffff; stroke-linecap: round"/>
     </g>
    </g>
    <g id="ytick_2">
     <g id="line2d_10">
      <path d="M 138.677096 108 
C 138.677096 104.373356 137.962726 100.781977 136.57487 97.431395 
C 135.187013 94.080813 133.15266 91.036189 130.588236 88.471764 
C 128.023811 85.90734 124.979187 83.872987 121.628605 82.48513 
C 118.278023 81.097274 114.686644 80.382904 111.06 80.382904 
C 107.433356 80.382904 103.841977 81.097274 100.491395 82.48513 
C 97.140813 83.872987 94.096189 85.90734 91.531764 88.471764 
C 88.96734 91.036189 86.932987 94.080813 85.54513 97.431395 
C 84.157274 100.781977 83.442904 104.373356 83.442904 108 
C 83.442904 111.626644 84.157274 115.218023 85.54513 118.568605 
C 86.932987 121.919187 88.96734 124.963811 91.531764 127.528236 
C 94.096189 130.09266 97.140813 132.127013 100.491395 133.51487 
C 103.841977 134.902726 107.433356 135.617096 111.06 135.617096 
C 114.686644 135.617096 118.278023 134.902726 121.628605 133.51487 
C 124.979187 132.127013 128.023811 130.09266 130.588236 127.528236 
C 133.15266 124.963811 135.187013 121.919187 136.57487 118.568605 
C 137.962726 115.218023 138.677096 111.626644 138.677096 108 
" clip-path="url(#p9fdb877487)" style="fill: none; stroke: #ffffff; stroke-linecap: round"/>
     </g>
    </g>
    <g id="ytick_3">
     <g id="line2d_11">
      <path d="M 152.485644 108 
C 152.485644 102.560034 151.414089 97.172965 149.332305 92.147092 
C 147.25052 87.121219 144.19899 82.554283 140.352354 78.707646 
C 136.505717 74.86101 131.938781 71.80948 126.912908 69.727695 
C 121.887035 67.645911 116.499966 66.574356 111.06 66.574356 
C 105.620034 66.574356 100.232965 67.645911 95.207092 69.727695 
C 90.181219 71.80948 85.614283 74.86101 81.767646 78.707646 
C 77.92101 82.554283 74.86948 87.121219 72.787695 92.147092 
C 70.705911 97.172965 69.634356 102.560034 69.634356 108 
C 69.634356 113.439966 70.705911 118.827035 72.787695 123.852908 
C 74.86948 128.878781 77.92101 133.445717 81.767646 137.292354 
C 85.614283 141.13899 90.181219 144.19052 95.207092 146.272305 
C 100.232965 148.354089 105.620034 149.425644 111.06 149.425644 
C 116.499966 149.425644 121.887035 148.354089 126.912908 146.272305 
C 131.938781 144.19052 136.505717 141.13899 140.352354 137.292354 
C 144.19899 133.445717 147.25052 128.878781 149.332305 123.852908 
C 151.414089 118.827035 152.485644 113.439966 152.485644 108 
" clip-path="url(#p9fdb877487)" style="fill: none; stroke: #ffffff; stroke-linecap: round"/>
     </g>
    </g>
    <g id="ytick_4">
     <g id="line2d_12">
      <path d="M 166.294192 108 
C 166.294192 100.746712 164.865453 93.563954 162.08974 86.86279 
C 159.314027 80.161626 155.245321 74.072377 150.116472 68.943528 
C 144.987623 63.814679 138.898374 59.745973 132.19721 56.97026 
C 125.496046 54.194547 118.313288 52.765808 111.06 52.765808 
C 103.806712 52.765808 96.623954 54.194547 89.92279 56.97026 
C 83.221626 59.745973 77.132377 63.814679 72.003528 68.943528 
C 66.874679 74.072377 62.805973 80.161626 60.03026 86.86279 
C 57.254547 93.563954 55.825808 100.746712 55.825808 108 
C 55.825808 115.253288 57.254547 122.436046 60.03026 129.13721 
C 62.805973 135.838374 66.874679 141.927623 72.003528 147.056472 
C 77.132377 152.185321 83.221626 156.254027 89.92279 159.02974 
C 96.623954 161.805453 103.806712 163.234192 111.06 163.234192 
C 118.313288 163.234192 125.496046 161.805453 132.19721 159.02974 
C 138.898374 156.254027 144.987623 152.185321 150.116472 147.056472 
C 155.245321 141.927623 159.314027 135.838374 162.08974 129.13721 
C 164.865453 122.436046 166.294192 115.253288 166.294192 108 
" clip-path="url(#p9fdb877487)" style="fill: none; stroke: #ffffff; stroke-linecap: round"/>
     </g>
    </g>
    <g id="ytick_5">
     <g id="line2d_13">
      <path d="M 180.10274 108 
C 180.10274 98.93339 178.316816 89.954942 174.847174 81.578487 
C 171.377533 73.202032 166.291651 65.590471 159.88059 59.17941 
C 153.469529 52.768349 145.857968 47.682467 137.481513 44.212826 
C 129.105058 40.743184 120.12661 38.95726 111.06 38.95726 
C 101.99339 38.95726 93.014942 40.743184 84.638487 44.212826 
C 76.262032 47.682467 68.650471 52.768349 62.23941 59.17941 
C 55.828349 65.590471 50.742467 73.202032 47.272826 81.578487 
C 43.803184 89.954942 42.01726 98.93339 42.01726 108 
C 42.01726 117.06661 43.803184 126.045058 47.272826 134.421513 
C 50.742467 142.797968 55.828349 150.409529 62.23941 156.82059 
C 68.650471 163.231651 76.262032 168.317533 84.638487 171.787174 
C 93.014942 175.256816 101.99339 177.04274 111.06 177.04274 
C 120.12661 177.04274 129.105058 175.256816 137.481513 171.787174 
C 145.857968 168.317533 153.469529 163.231651 159.88059 156.82059 
C 166.291651 150.409529 171.377533 142.797968 174.847174 134.421513 
C 178.316816 126.045058 180.10274 117.06661 180.10274 108 
" clip-path="url(#p9fdb877487)" style="fill: none; stroke: #ffffff; stroke-linecap: round"/>
     </g>
    </g>
   </g>
   <g id="patch_3">
    <path d="M 111.06 108 
C 111.06 108 111.06 108 111.06 108 
C 111.06 108 111.06 108 111.06 108 
L 57.591706 111.413832 
C 57.555966 110.854075 57.52902 110.293792 57.510875 109.733189 
C 57.49273 109.172586 57.48339 108.611733 57.482858 108.050836 
z
" clip-path="url(#p9fdb877487)" style="fill: #4c72b0; stroke: #ffffff; stroke-linejoin: miter"/>
   </g>
   <g id="patch_4">
    <path d="M 111.06 108 
C 111.06 108 111.06 108 111.06 108 
C 111.06 108 111.06 108 111.06 108 
L 46.405048 116.227597 
C 46.318914 115.550728 46.243414 114.872547 46.178577 114.193307 
C 46.113739 113.514067 46.059572 112.83385 46.016096 112.152909 
z
" clip-path="url(#p9fdb877487)" style="fill: #4c72b0; stroke: #ffffff; stroke-linejoin: miter"/>
   </g>
   <g id="patch_5">
    <path d="M 111.06 108 
C 111.06 108 111.06 108 111.06 108 
C 111.06 108 111.06 108 111.06 108 
L 58.983259 117.982238 
C 58.878756 117.437049 58.78282 116.890253 58.695487 116.342052 
C 58.608155 115.79385 58.529436 115.244311 58.459361 114.693638 
z
" clip-path="url(#p9fdb877487)" style="fill: #4c72b0; stroke: #ffffff; stroke-linejoin: miter"/>
   </g>
   <g id="patch_6">
    <path d="M 111.06 108 
C 111.06 108 111.06 108 111.06 108 
C 111.06 108 111.06 108 111.06 108 
L 54.89873 122.471917 
C 54.747224 121.883967 54.604961 121.293675 54.471992 120.701258 
C 54.339023 120.108841 54.215366 119.514373 54.101065 118.918073 
z
" clip-path="url(#p9fdb877487)" style="fill: #4c72b0; stroke: #ffffff; stroke-linejoin: miter"/>
   </g>
   <g id="patch_7">
    <path d="M 111.06 108 
C 111.06 108 111.06 108 111.06 108 
C 111.06 108 111.06 108 111.06 108 
L 63.795344 123.401727 
C 63.634104 122.906916 63.480644 122.409603 63.335021 121.909973 
C 63.189399 121.410343 63.051631 120.908457 62.921769 120.4045 
z
" clip-path="url(#p9fdb877487)" style="fill: #4c72b0; stroke: #ffffff; stroke-linejoin: miter"/>
   </g>
   <g id="patch_8">
    <path d="M 111.06 108 
C 111.06 108 111.06 108 111.06 108 
C 111.06 108 111.06 108 111.06 108 
L 54.587632 130.413366 
C 54.352988 129.82216 54.127642 129.227305 53.911678 128.629023 
C 53.695714 128.03074 53.489158 127.429103 53.292087 126.824333 
z
" clip-path="url(#p9fdb877487)" style="fill: #4c72b0; stroke: #ffffff; stroke-linejoin: miter"/>
   </g>
   <g id="patch_9">
    <path d="M 111.06 108 
C 111.06 108 111.06 108 111.06 108 
C 111.06 108 111.06 108 111.06 108 
L 60.602154 131.793762 
C 60.353058 131.265522 60.112273 130.733402 59.879888 130.1976 
C 59.647502 129.661798 59.423545 129.12238 59.208099 128.579545 
z
" clip-path="url(#p9fdb877487)" style="fill: #4c72b0; stroke: #ffffff; stroke-linejoin: miter"/>
   </g>
   <g id="patch_10">
    <path d="M 111.06 108 
C 111.06 108 111.06 108 111.06 108 
C 111.06 108 111.06 108 111.06 108 
L 65.581888 133.048798 
C 65.319653 132.57269 65.064911 132.092494 64.817756 131.608386 
C 64.570601 131.124278 64.331064 130.63632 64.099232 130.14469 
z
" clip-path="url(#p9fdb877487)" style="fill: #4c72b0; stroke: #ffffff; stroke-linejoin: miter"/>
   </g>
   <g id="patch_11">
    <path d="M 111.06 108 
C 111.06 108 111.06 108 111.06 108 
C 111.06 108 111.06 108 111.06 108 
L 67.710042 135.557792 
C 67.421541 135.103963 67.140184 134.645632 66.866076 134.182968 
C 66.591968 133.720304 66.325142 133.253365 66.065697 132.782322 
z
" clip-path="url(#p9fdb877487)" style="fill: #4c72b0; stroke: #ffffff; stroke-linejoin: miter"/>
   </g>
   <g id="patch_12">
    <path d="M 111.06 108 
C 111.06 108 111.06 108 111.06 108 
C 111.06 108 111.06 108 111.06 108 
L 69.525363 138.224571 
C 69.208944 137.789747 68.899372 137.349981 68.596762 136.905435 
C 68.294153 136.46089 67.998543 136.01162 67.710042 135.557792 
z
" clip-path="url(#p9fdb877487)" style="fill: #4c72b0; stroke: #ffffff; stroke-linejoin: miter"/>
   </g>
   <g id="patch_13">
    <path d="M 111.06 108 
C 111.06 108 111.06 108 111.06 108 
C 111.06 108 111.06 108 111.06 108 
L 69.377861 142.534084 
C 69.016326 142.097716 68.661665 141.655698 68.31401 141.208192 
C 67.966355 140.760686 67.625749 140.307749 67.292318 139.849548 
z
" clip-path="url(#p9fdb877487)" style="fill: #4c72b0; stroke: #ffffff; stroke-linejoin: miter"/>
   </g>
   <g id="patch_14">
    <path d="M 111.06 108 
C 111.06 108 111.06 108 111.06 108 
C 111.06 108 111.06 108 111.06 108 
L 65.189893 151.136687 
C 64.738298 150.656475 64.294271 150.169201 63.857977 149.675046 
C 63.421683 149.18089 62.993176 148.679914 62.572614 148.172302 
z
" clip-path="url(#p9fdb877487)" style="fill: #4c72b0; stroke: #ffffff; stroke-linejoin: miter"/>
   </g>
   <g id="patch_15">
    <path d="M 111.06 108 
C 111.06 108 111.06 108 111.06 108 
C 111.06 108 111.06 108 111.06 108 
L 79.322802 141.843848 
C 78.968493 141.511593 78.619423 141.173794 78.275721 140.830577 
C 77.932019 140.48736 77.593729 140.138767 77.260974 139.784927 
z
" clip-path="url(#p9fdb877487)" style="fill: #4c72b0; stroke: #ffffff; stroke-linejoin: miter"/>
   </g>
   <g id="patch_16">
    <path d="M 111.06 108 
C 111.06 108 111.06 108 111.06 108 
C 111.06 108 111.06 108 111.06 108 
L 72.363316 154.84073 
C 71.872943 154.435616 71.388962 154.022827 70.911551 153.602515 
C 70.434141 153.182203 69.96336 152.75442 69.499384 152.319324 
z
" clip-path="url(#p9fdb877487)" style="fill: #4c72b0; stroke: #ffffff; stroke-linejoin: miter"/>
   </g>
   <g id="patch_17">
    <path d="M 111.06 108 
C 111.06 108 111.06 108 111.06 108 
C 111.06 108 111.06 108 111.06 108 
L 78.62352 152.706719 
C 78.155488 152.367143 77.692817 152.020239 77.235678 151.666134 
C 76.77854 151.312029 76.32699 150.950767 75.881196 150.582482 
z
" clip-path="url(#p9fdb877487)" style="fill: #4c72b0; stroke: #ffffff; stroke-linejoin: miter"/>
   </g>
   <g id="patch_18">
    <path d="M 111.06 108 
C 111.06 108 111.06 108 111.06 108 
C 111.06 108 111.06 108 111.06 108 
L 76.76318 162.119369 
C 76.196608 161.760318 75.635708 161.392391 75.080689 161.015726 
C 74.52567 160.63906 73.976601 160.253702 73.433683 159.859794 
z
" clip-path="url(#p9fdb877487)" style="fill: #4c72b0; stroke: #ffffff; stroke-linejoin: miter"/>
   </g>
   <g id="patch_19">
    <path d="M 111.06 108 
C 111.06 108 111.06 108 111.06 108 
C 111.06 108 111.06 108 111.06 108 
L 85.543819 154.481787 
C 85.057203 154.214659 84.574813 153.939907 84.096826 153.65763 
C 83.618838 153.375354 83.145313 153.08559 82.676425 152.788444 
z
" clip-path="url(#p9fdb877487)" style="fill: #4c72b0; stroke: #ffffff; stroke-linejoin: miter"/>
   </g>
   <g id="patch_20">
    <path d="M 111.06 108 
C 111.06 108 111.06 108 111.06 108 
C 111.06 108 111.06 108 111.06 108 
L 86.163085 160.990947 
C 85.608326 160.730302 85.057694 160.460962 84.511392 160.183026 
C 83.965091 159.90509 83.423188 159.618593 82.885883 159.323639 
z
" clip-path="url(#p9fdb877487)" style="fill: #4c72b0; stroke: #ffffff; stroke-linejoin: miter"/>
   </g>
   <g id="patch_21">
    <path d="M 111.06 108 
C 111.06 108 111.06 108 111.06 108 
C 111.06 108 111.06 108 111.06 108 
L 91.365782 157.826203 
C 90.844154 157.620025 90.325796 157.405669 89.810899 157.183213 
C 89.296003 156.960758 88.784631 156.73023 88.276974 156.491716 
z
" clip-path="url(#p9fdb877487)" style="fill: #4c72b0; stroke: #ffffff; stroke-linejoin: miter"/>
   </g>
   <g id="patch_22">
    <path d="M 111.06 108 
C 111.06 108 111.06 108 111.06 108 
C 111.06 108 111.06 108 111.06 108 
L 94.191487 160.014979 
C 93.646945 159.838383 93.10521 159.653247 92.566482 159.45964 
C 92.027753 159.266032 91.492099 159.063976 90.959715 158.853548 
z
" clip-path="url(#p9fdb877487)" style="fill: #4c72b0; stroke: #ffffff; stroke-linejoin: miter"/>
   </g>
   <g id="patch_23">
    <path d="M 111.06 108 
C 111.06 108 111.06 108 111.06 108 
C 111.06 108 111.06 108 111.06 108 
L 97.352717 161.506321 
C 96.792563 161.36282 96.234696 161.210532 95.679323 161.049512 
C 95.123951 160.888493 94.571141 160.718762 94.021098 160.540383 
z
" clip-path="url(#p9fdb877487)" style="fill: #4c72b0; stroke: #ffffff; stroke-linejoin: miter"/>
   </g>
   <g id="patch_24">
    <path d="M 111.06 108 
C 111.06 108 111.06 108 111.06 108 
C 111.06 108 111.06 108 111.06 108 
L 100.428751 163.889062 
C 99.843652 163.777764 99.260336 163.657285 98.67902 163.527669 
C 98.097703 163.398053 97.518458 163.259316 96.941499 163.11151 
z
" clip-path="url(#p9fdb877487)" style="fill: #4c72b0; stroke: #ffffff; stroke-linejoin: miter"/>
   </g>
   <g id="patch_25">
    <path d="M 111.06 108 
C 111.06 108 111.06 108 111.06 108 
C 111.06 108 111.06 108 111.06 108 
L 104.647455 158.965969 
C 104.113895 158.898836 103.581422 158.823329 103.050234 158.739476 
C 102.519045 158.655622 101.989205 158.563432 101.460911 158.462939 
z
" clip-path="url(#p9fdb877487)" style="fill: #4c72b0; stroke: #ffffff; stroke-linejoin: miter"/>
   </g>
   <g id="patch_26">
    <path d="M 111.06 108 
C 111.06 108 111.06 108 111.06 108 
C 111.06 108 111.06 108 111.06 108 
L 107.583961 163.678133 
C 107.00107 163.641743 106.418786 163.596201 105.837325 163.541525 
C 105.255863 163.486849 104.675296 163.423046 104.095839 163.350138 
z
" clip-path="url(#p9fdb877487)" style="fill: #4c72b0; stroke: #ffffff; stroke-linejoin: miter"/>
   </g>
   <g id="patch_27">
    <path d="M 111.06 108 
C 111.06 108 111.06 108 111.06 108 
C 111.06 108 111.06 108 111.06 108 
L 111.080686 152.739691 
C 110.612309 152.739907 110.143957 152.732769 109.675803 152.718278 
C 109.20765 152.703787 108.739753 152.681945 108.272286 152.65276 
z
" clip-path="url(#p9fdb877487)" style="fill: #4c72b0; stroke: #ffffff; stroke-linejoin: miter"/>
   </g>
   <g id="patch_28">
    <path d="M 111.06 108 
C 111.06 108 111.06 108 111.06 108 
C 111.06 108 111.06 108 111.06 108 
L 114.552599 163.123658 
C 113.975512 163.160222 113.397887 163.187722 112.819937 163.206146 
C 112.241986 163.224571 111.663782 163.233919 111.085539 163.234186 
z
" clip-path="url(#p9fdb877487)" style="fill: #4c72b0; stroke: #ffffff; stroke-linejoin: miter"/>
   </g>
   <g id="patch_29">
    <path d="M 111.06 108 
C 111.06 108 111.06 108 111.06 108 
C 111.06 108 111.06 108 111.06 108 
L 116.964001 154.57636 
C 116.476396 154.638169 115.98785 154.692316 115.498544 154.738783 
C 115.009238 154.78525 114.519233 154.82403 114.028709 154.85511 
z
" clip-path="url(#p9fdb877487)" style="fill: #4c72b0; stroke: #ffffff; stroke-linejoin: miter"/>
   </g>
   <g id="patch_30">
    <path d="M 111.06 108 
C 111.06 108 111.06 108 111.06 108 
C 111.06 108 111.06 108 111.06 108 
L 123.091257 170.931922 
C 122.432426 171.057877 121.771658 171.173478 121.109197 171.278682 
C 120.446736 171.383887 119.782663 171.478682 119.117225 171.563032 
z
" clip-path="url(#p9fdb877487)" style="fill: #4c72b0; stroke: #ffffff; stroke-linejoin: miter"/>
   </g>
   <g id="patch_31">
    <path d="M 111.06 108 
C 111.06 108 111.06 108 111.06 108 
C 111.06 108 111.06 108 111.06 108 
L 122.478108 152.399707 
C 122.013289 152.519242 121.546623 152.631471 121.07828 152.736352 
C 120.609938 152.841233 120.139977 152.938753 119.668572 153.028875 
z
" clip-path="url(#p9fdb877487)" style="fill: #4c72b0; stroke: #ffffff; stroke-linejoin: miter"/>
   </g>
   <g id="patch_32">
    <path d="M 111.06 108 
C 111.06 108 111.06 108 111.06 108 
C 111.06 108 111.06 108 111.06 108 
L 130.197978 166.827556 
C 129.582116 167.02791 128.963145 167.218581 128.341294 167.399498 
C 127.719444 167.580415 127.094791 167.751556 126.467567 167.912857 
z
" clip-path="url(#p9fdb877487)" style="fill: #4c72b0; stroke: #ffffff; stroke-linejoin: miter"/>
   </g>
   <g id="patch_33">
    <path d="M 111.06 108 
C 111.06 108 111.06 108 111.06 108 
C 111.06 108 111.06 108 111.06 108 
L 130.800286 157.80797 
C 130.278849 158.01463 129.754199 158.213089 129.22653 158.403273 
C 128.69886 158.593458 128.168237 158.775344 127.634856 158.948865 
z
" clip-path="url(#p9fdb877487)" style="fill: #4c72b0; stroke: #ffffff; stroke-linejoin: miter"/>
   </g>
   <g id="patch_34">
    <path d="M 111.06 108 
C 111.06 108 111.06 108 111.06 108 
C 111.06 108 111.06 108 111.06 108 
L 135.064552 158.969112 
C 134.530959 159.220415 133.993452 159.463323 133.452232 159.697746 
C 132.911011 159.932169 132.366142 160.158078 131.817826 160.375391 
z
" clip-path="url(#p9fdb877487)" style="fill: #4c72b0; stroke: #ffffff; stroke-linejoin: miter"/>
   </g>
   <g id="patch_35">
    <path d="M 111.06 108 
C 111.06 108 111.06 108 111.06 108 
C 111.06 108 111.06 108 111.06 108 
L 141.145254 162.685139 
C 140.572758 163.0001 139.995352 163.306051 139.413248 163.60288 
C 138.831144 163.899708 138.244415 164.187378 137.653278 164.465781 
z
" clip-path="url(#p9fdb877487)" style="fill: #4c72b0; stroke: #ffffff; stroke-linejoin: miter"/>
   </g>
   <g id="patch_36">
    <path d="M 111.06 108 
C 111.06 108 111.06 108 111.06 108 
C 111.06 108 111.06 108 111.06 108 
L 139.48498 152.762177 
C 139.016367 153.059757 138.54311 153.349959 138.065384 153.632677 
C 137.587658 153.915395 137.105522 154.190594 136.619154 154.458171 
z
" clip-path="url(#p9fdb877487)" style="fill: #4c72b0; stroke: #ffffff; stroke-linejoin: miter"/>
   </g>
   <g id="patch_37">
    <path d="M 111.06 108 
C 111.06 108 111.06 108 111.06 108 
C 111.06 108 111.06 108 111.06 108 
L 141.264362 149.549335 
C 140.829384 149.865543 140.389467 150.174901 139.944775 150.477294 
C 139.500082 150.779687 139.050668 151.075079 138.5967 151.363359 
z
" clip-path="url(#p9fdb877487)" style="fill: #4c72b0; stroke: #ffffff; stroke-linejoin: miter"/>
   </g>
   <g id="patch_38">
    <path d="M 111.06 108 
C 111.06 108 111.06 108 111.06 108 
C 111.06 108 111.06 108 111.06 108 
L 146.630348 150.975432 
C 146.18044 151.347816 145.724713 151.713112 145.263334 152.071185 
C 144.801955 152.429258 144.334982 152.780063 143.862586 153.123472 
z
" clip-path="url(#p9fdb877487)" style="fill: #4c72b0; stroke: #ffffff; stroke-linejoin: miter"/>
   </g>
   <g id="patch_39">
    <path d="M 111.06 108 
C 111.06 108 111.06 108 111.06 108 
C 111.06 108 111.06 108 111.06 108 
L 148.87962 148.255339 
C 148.458189 148.65127 148.030567 149.04056 147.596911 149.423063 
C 147.163255 149.805566 146.723619 150.181235 146.278166 150.549932 
z
" clip-path="url(#p9fdb877487)" style="fill: #4c72b0; stroke: #ffffff; stroke-linejoin: miter"/>
   </g>
   <g id="patch_40">
    <path d="M 111.06 108 
C 111.06 108 111.06 108 111.06 108 
C 111.06 108 111.06 108 111.06 108 
L 157.372696 151.47227 
C 156.917587 151.957115 156.454893 152.434784 155.984784 152.905099 
C 155.514675 153.375414 155.037209 153.838318 154.552563 154.29364 
z
" clip-path="url(#p9fdb877487)" style="fill: #4c72b0; stroke: #ffffff; stroke-linejoin: miter"/>
   </g>
   <g id="patch_41">
    <path d="M 111.06 108 
C 111.06 108 111.06 108 111.06 108 
C 111.06 108 111.06 108 111.06 108 
L 149.368827 139.679563 
C 149.037175 140.080616 148.699246 140.476437 148.355164 140.866878 
C 148.011083 141.257319 147.660891 141.642333 147.304719 142.021777 
z
" clip-path="url(#p9fdb877487)" style="fill: #4c72b0; stroke: #ffffff; stroke-linejoin: miter"/>
   </g>
   <g id="patch_42">
    <path d="M 111.06 108 
C 111.06 108 111.06 108 111.06 108 
C 111.06 108 111.06 108 111.06 108 
L 159.773118 143.379465 
C 159.402733 143.88944 159.024361 144.393567 158.638144 144.891661 
C 158.251928 145.389754 157.857913 145.881751 157.456246 146.367471 
z
" clip-path="url(#p9fdb877487)" style="fill: #4c72b0; stroke: #ffffff; stroke-linejoin: miter"/>
   </g>
   <g id="patch_43">
    <path d="M 111.06 108 
C 111.06 108 111.06 108 111.06 108 
C 111.06 108 111.06 108 111.06 108 
L 165.629081 142.619032 
C 165.266656 143.190313 164.895282 143.755868 164.515097 144.315486 
C 164.134913 144.875105 163.745963 145.428719 163.348393 145.976123 
z
" clip-path="url(#p9fdb877487)" style="fill: #4c72b0; stroke: #ffffff; stroke-linejoin: miter"/>
   </g>
   <g id="patch_44">
    <path d="M 111.06 108 
C 111.06 108 111.06 108 111.06 108 
C 111.06 108 111.06 108 111.06 108 
L 163.338039 136.731139 
C 163.037254 137.278435 162.727894 137.820974 162.410072 138.358555 
C 162.09225 138.896137 161.766005 139.428694 161.431459 139.95603 
z
" clip-path="url(#p9fdb877487)" style="fill: #4c72b0; stroke: #ffffff; stroke-linejoin: miter"/>
   </g>
   <g id="patch_45">
    <path d="M 111.06 108 
C 111.06 108 111.06 108 111.06 108 
C 111.06 108 111.06 108 111.06 108 
L 163.539029 132.687571 
C 163.280576 133.236971 163.013511 133.782279 162.737934 134.323292 
C 162.462357 134.864306 162.178301 135.400959 161.885872 135.933052 
z
" clip-path="url(#p9fdb877487)" style="fill: #4c72b0; stroke: #ffffff; stroke-linejoin: miter"/>
   </g>
   <g id="patch_46">
    <path d="M 111.06 108 
C 111.06 108 111.06 108 111.06 108 
C 111.06 108 111.06 108 111.06 108 
L 157.281603 126.295474 
C 157.090069 126.779365 156.890947 127.260219 156.684313 127.737858 
C 156.477678 128.215496 156.263556 128.68986 156.042025 129.160775 
z
" clip-path="url(#p9fdb877487)" style="fill: #4c72b0; stroke: #ffffff; stroke-linejoin: miter"/>
   </g>
   <g id="patch_47">
    <path d="M 111.06 108 
C 111.06 108 111.06 108 111.06 108 
C 111.06 108 111.06 108 111.06 108 
L 168.319975 126.600261 
C 168.12525 127.199712 167.921123 127.796069 167.707671 128.389111 
C 167.494218 128.982152 167.271466 129.571805 167.039497 130.157852 
z
" clip-path="url(#p9fdb877487)" style="fill: #4c72b0; stroke: #ffffff; stroke-linejoin: miter"/>
   </g>
   <g id="patch_48">
    <path d="M 111.06 108 
C 111.06 108 111.06 108 111.06 108 
C 111.06 108 111.06 108 111.06 108 
L 161.884664 121.046645 
C 161.748079 121.578726 161.603148 122.108629 161.449922 122.636158 
C 161.296697 123.163688 161.135198 123.688778 160.965483 124.211236 
z
" clip-path="url(#p9fdb877487)" style="fill: #4c72b0; stroke: #ffffff; stroke-linejoin: miter"/>
   </g>
   <g id="patch_49">
    <path d="M 111.06 108 
C 111.06 108 111.06 108 111.06 108 
C 111.06 108 111.06 108 111.06 108 
L 170.199255 119.279316 
C 170.081173 119.898441 169.953375 120.515675 169.815909 121.130787 
C 169.678444 121.7459 169.531327 122.358816 169.374614 122.969308 
z
" clip-path="url(#p9fdb877487)" style="fill: #4c72b0; stroke: #ffffff; stroke-linejoin: miter"/>
   </g>
   <g id="patch_50">
    <path d="M 111.06 108 
C 111.06 108 111.06 108 111.06 108 
C 111.06 108 111.06 108 111.06 108 
L 169.146682 115.33718 
C 169.069869 115.945287 168.983512 116.552149 168.887642 117.157544 
C 168.791772 117.762938 168.686402 118.36679 168.571569 118.968876 
z
" clip-path="url(#p9fdb877487)" style="fill: #4c72b0; stroke: #ffffff; stroke-linejoin: miter"/>
   </g>
   <g id="patch_51">
    <path d="M 111.06 108 
C 111.06 108 111.06 108 111.06 108 
C 111.06 108 111.06 108 111.06 108 
L 170.595199 111.745915 
C 170.555983 112.369186 170.506982 112.991802 170.448214 113.613534 
C 170.389446 114.235267 170.320919 114.856037 170.242657 115.475618 
z
" clip-path="url(#p9fdb877487)" style="fill: #4c72b0; stroke: #ffffff; stroke-linejoin: miter"/>
   </g>
   <g id="patch_52">
    <path d="M 111.06 108 
C 111.06 108 111.06 108 111.06 108 
C 111.06 108 111.06 108 111.06 108 
L 158.561405 108.001145 
C 158.561393 108.498435 158.553572 108.995694 158.537945 109.492738 
C 158.522317 109.989782 158.498886 110.48655 158.467658 110.982858 
z
" clip-path="url(#p9fdb877487)" style="fill: #4c72b0; stroke: #ffffff; stroke-linejoin: miter"/>
   </g>
   <g id="patch_53">
    <path d="M 111.06 108 
C 111.06 108 111.06 108 111.06 108 
C 111.06 108 111.06 108 111.06 108 
L 168.390365 104.395587 
C 168.428099 104.995775 168.456407 105.596519 168.475276 106.197597 
C 168.494145 106.798674 168.503574 107.400011 168.50356 108.001385 
z
" clip-path="url(#p9fdb877487)" style="fill: #4c72b0; stroke: #ffffff; stroke-linejoin: miter"/>
   </g>
   <g id="patch_54">
    <path d="M 111.06 108 
C 111.06 108 111.06 108 111.06 108 
C 111.06 108 111.06 108 111.06 108 
L 162.571145 101.495927 
C 162.639236 102.035195 162.698854 102.575498 162.749977 103.116638 
C 162.801101 103.657778 162.843724 104.199687 162.87783 104.742165 
z
" clip-path="url(#p9fdb877487)" style="fill: #4c72b0; stroke: #ffffff; stroke-linejoin: miter"/>
   </g>
   <g id="patch_55">
    <path d="M 111.06 108 
C 111.06 108 111.06 108 111.06 108 
C 111.06 108 111.06 108 111.06 108 
L 168.029531 97.137351 
C 168.143251 97.733762 168.247599 98.331922 168.342536 98.93161 
C 168.437472 99.531297 168.522986 100.132439 168.599045 100.734812 
z
" clip-path="url(#p9fdb877487)" style="fill: #4c72b0; stroke: #ffffff; stroke-linejoin: miter"/>
   </g>
   <g id="patch_56">
    <path d="M 111.06 108 
C 111.06 108 111.06 108 111.06 108 
C 111.06 108 111.06 108 111.06 108 
L 176.330376 91.248508 
C 176.505747 91.93182 176.670376 92.617844 176.824203 93.306326 
C 176.978031 93.994808 177.121037 94.685663 177.253169 95.378636 
z
" clip-path="url(#p9fdb877487)" style="fill: #4c72b0; stroke: #ffffff; stroke-linejoin: miter"/>
   </g>
   <g id="patch_57">
    <path d="M 111.06 108 
C 111.06 108 111.06 108 111.06 108 
C 111.06 108 111.06 108 111.06 108 
L 160.440935 91.961789 
C 160.608839 92.478755 160.768613 92.998327 160.9202 93.52031 
C 161.071787 94.042294 161.215168 94.566626 161.35029 95.093113 
z
" clip-path="url(#p9fdb877487)" style="fill: #4c72b0; stroke: #ffffff; stroke-linejoin: miter"/>
   </g>
   <g id="patch_58">
    <path d="M 111.06 108 
C 111.06 108 111.06 108 111.06 108 
C 111.06 108 111.06 108 111.06 108 
L 157.796068 89.503496 
C 157.989707 89.992774 158.175651 90.485062 158.35383 90.980179 
C 158.53201 91.475295 158.702403 91.973179 158.864948 92.473647 
z
" clip-path="url(#p9fdb877487)" style="fill: #4c72b0; stroke: #ffffff; stroke-linejoin: miter"/>
   </g>
   <g id="patch_59">
    <path d="M 111.06 108 
C 111.06 108 111.06 108 111.06 108 
C 111.06 108 111.06 108 111.06 108 
L 157.042668 86.371202 
C 157.269099 86.852593 157.487956 87.337509 157.699159 87.825772 
C 157.910362 88.314035 158.113884 88.805584 158.309651 89.300238 
z
" clip-path="url(#p9fdb877487)" style="fill: #4c72b0; stroke: #ffffff; stroke-linejoin: miter"/>
   </g>
   <g id="patch_60">
    <path d="M 111.06 108 
C 111.06 108 111.06 108 111.06 108 
C 111.06 108 111.06 108 111.06 108 
L 155.594324 83.527473 
C 155.850526 83.9937 156.09939 84.463922 156.340826 84.937965 
C 156.582261 85.412008 156.816237 85.889812 157.042668 86.371202 
z
" clip-path="url(#p9fdb877487)" style="fill: #4c72b0; stroke: #ffffff; stroke-linejoin: miter"/>
   </g>
   <g id="patch_61">
    <path d="M 111.06 108 
C 111.06 108 111.06 108 111.06 108 
C 111.06 108 111.06 108 111.06 108 
L 152.571083 81.667865 
C 152.846753 82.102443 153.115581 82.541322 153.377469 82.984342 
C 153.639356 83.427361 153.894271 83.874466 154.142118 84.32549 
z
" clip-path="url(#p9fdb877487)" style="fill: #4c72b0; stroke: #ffffff; stroke-linejoin: miter"/>
   </g>
   <g id="patch_62">
    <path d="M 111.06 108 
C 111.06 108 111.06 108 111.06 108 
C 111.06 108 111.06 108 111.06 108 
L 162.903299 70.350958 
C 163.297445 70.893703 163.683043 71.442604 164.059952 71.997458 
C 164.436861 72.552311 164.805033 73.11305 165.164333 73.679465 
z
" clip-path="url(#p9fdb877487)" style="fill: #4c72b0; stroke: #ffffff; stroke-linejoin: miter"/>
   </g>
   <g id="patch_63">
    <path d="M 111.06 108 
C 111.06 108 111.06 108 111.06 108 
C 111.06 108 111.06 108 111.06 108 
L 155.755413 71.042664 
C 156.142317 71.510578 156.52185 71.984539 156.893871 72.464371 
C 157.265891 72.944204 157.630354 73.429849 157.987124 73.921126 
z
" clip-path="url(#p9fdb877487)" style="fill: #4c72b0; stroke: #ffffff; stroke-linejoin: miter"/>
   </g>
   <g id="patch_64">
    <path d="M 111.06 108 
C 111.06 108 111.06 108 111.06 108 
C 111.06 108 111.06 108 111.06 108 
L 150.930995 70.577968 
C 151.322764 70.995375 151.707955 71.418909 152.086424 71.848412 
C 152.464893 72.277916 152.836594 72.713336 153.201389 73.154512 
z
" clip-path="url(#p9fdb877487)" style="fill: #4c72b0; stroke: #ffffff; stroke-linejoin: miter"/>
   </g>
   <g id="patch_65">
    <path d="M 111.06 108 
C 111.06 108 111.06 108 111.06 108 
C 111.06 108 111.06 108 111.06 108 
L 154.933011 61.305922 
C 155.421848 61.765226 155.903444 62.232179 156.377618 62.706606 
C 156.851792 63.181034 157.318487 63.662879 157.777529 64.151962 
z
" clip-path="url(#p9fdb877487)" style="fill: #4c72b0; stroke: #ffffff; stroke-linejoin: miter"/>
   </g>
   <g id="patch_66">
    <path d="M 111.06 108 
C 111.06 108 111.06 108 111.06 108 
C 111.06 108 111.06 108 111.06 108 
L 149.802239 61.196942 
C 150.292218 61.602533 150.775797 62.015792 151.252799 62.436569 
C 151.7298 62.857345 152.200164 63.285586 152.663717 63.721133 
z
" clip-path="url(#p9fdb877487)" style="fill: #4c72b0; stroke: #ffffff; stroke-linejoin: miter"/>
   </g>
   <g id="patch_67">
    <path d="M 111.06 108 
C 111.06 108 111.06 108 111.06 108 
C 111.06 108 111.06 108 111.06 108 
L 139.317567 69.132629 
C 139.724467 69.428456 140.126697 69.730655 140.524108 70.039113 
C 140.921518 70.347571 141.314061 70.662251 141.701589 70.983036 
z
" clip-path="url(#p9fdb877487)" style="fill: #4c72b0; stroke: #ffffff; stroke-linejoin: miter"/>
   </g>
   <g id="patch_68">
    <path d="M 111.06 108 
C 111.06 108 111.06 108 111.06 108 
C 111.06 108 111.06 108 111.06 108 
L 139.487138 63.239193 
C 139.955737 63.536796 140.419633 63.841738 140.878655 64.153908 
C 141.337678 64.466078 141.79177 64.785437 142.240764 65.111867 
z
" clip-path="url(#p9fdb877487)" style="fill: #4c72b0; stroke: #ffffff; stroke-linejoin: miter"/>
   </g>
   <g id="patch_69">
    <path d="M 111.06 108 
C 111.06 108 111.06 108 111.06 108 
C 111.06 108 111.06 108 111.06 108 
L 141.680419 52.348459 
C 142.263032 52.669022 142.840576 52.998715 143.412835 53.337415 
C 143.985095 53.676115 144.552001 54.023781 145.113343 54.380284 
z
" clip-path="url(#p9fdb877487)" style="fill: #4c72b0; stroke: #ffffff; stroke-linejoin: miter"/>
   </g>
   <g id="patch_70">
    <path d="M 111.06 108 
C 111.06 108 111.06 108 111.06 108 
C 111.06 108 111.06 108 111.06 108 
L 136.714549 53.534244 
C 137.284748 53.80282 137.850694 54.080334 138.412179 54.366682 
C 138.973663 54.653031 139.530616 54.948179 140.082832 55.252017 
z
" clip-path="url(#p9fdb877487)" style="fill: #4c72b0; stroke: #ffffff; stroke-linejoin: miter"/>
   </g>
   <g id="patch_71">
    <path d="M 111.06 108 
C 111.06 108 111.06 108 111.06 108 
C 111.06 108 111.06 108 111.06 108 
L 129.58149 61.273828 
C 130.070664 61.467729 130.556763 61.669299 131.039607 61.878465 
C 131.52245 62.08763 132.00198 62.304365 132.478018 62.528589 
z
" clip-path="url(#p9fdb877487)" style="fill: #4c72b0; stroke: #ffffff; stroke-linejoin: miter"/>
   </g>
   <g id="patch_72">
    <path d="M 111.06 108 
C 111.06 108 111.06 108 111.06 108 
C 111.06 108 111.06 108 111.06 108 
L 125.415611 63.880025 
C 125.8775 64.030313 126.337002 64.187845 126.793944 64.352563 
C 127.250887 64.517281 127.705215 64.689164 128.15676 64.868149 
z
" clip-path="url(#p9fdb877487)" style="fill: #4c72b0; stroke: #ffffff; stroke-linejoin: miter"/>
   </g>
   <g id="patch_73">
    <path d="M 111.06 108 
C 111.06 108 111.06 108 111.06 108 
C 111.06 108 111.06 108 111.06 108 
L 121.379501 67.880281 
C 121.799512 67.988315 122.217801 68.102938 122.634213 68.224108 
C 123.050625 68.345278 123.465108 68.472979 123.87751 68.607165 
z
" clip-path="url(#p9fdb877487)" style="fill: #4c72b0; stroke: #ffffff; stroke-linejoin: miter"/>
   </g>
   <g id="patch_74">
    <path d="M 111.06 108 
C 111.06 108 111.06 108 111.06 108 
C 111.06 108 111.06 108 111.06 108 
L 120.91567 56.461401 
C 121.455224 56.564579 121.993126 56.676224 122.529175 56.796295 
C 123.065224 56.916365 123.599354 57.044845 124.131368 57.181689 
z
" clip-path="url(#p9fdb877487)" style="fill: #4c72b0; stroke: #ffffff; stroke-linejoin: miter"/>
   </g>
   <g id="patch_75">
    <path d="M 111.06 108 
C 111.06 108 111.06 108 111.06 108 
C 111.06 108 111.06 108 111.06 108 
L 118.008526 53.204617 
C 118.582175 53.277361 119.154648 53.359109 119.725731 53.44983 
C 120.296814 53.540551 120.866437 53.640234 121.434389 53.748843 
z
" clip-path="url(#p9fdb877487)" style="fill: #4c72b0; stroke: #ffffff; stroke-linejoin: miter"/>
   </g>
   <g id="patch_76">
    <path d="M 111.06 108 
C 111.06 108 111.06 108 111.06 108 
C 111.06 108 111.06 108 111.06 108 
L 114.799924 49.017866 
C 115.417405 49.057019 116.034233 49.105866 116.65018 49.164389 
C 117.266127 49.222913 117.881117 49.291105 118.494922 49.368941 
z
" clip-path="url(#p9fdb877487)" style="fill: #4c72b0; stroke: #ffffff; stroke-linejoin: miter"/>
   </g>
   <g id="patch_77">
    <path d="M 111.06 108 
C 111.06 108 111.06 108 111.06 108 
C 111.06 108 111.06 108 111.06 108 
L 111.088483 52.213473 
C 111.67251 52.213772 112.256495 52.223241 112.840224 52.241878 
C 113.423953 52.260515 114.007353 52.288317 114.590209 52.325275 
z
" clip-path="url(#p9fdb877487)" style="fill: #4c72b0; stroke: #ffffff; stroke-linejoin: miter"/>
   </g>
   <g id="patch_78">
    <path d="M 111.06 108 
C 111.06 108 111.06 108 111.06 108 
C 111.06 108 111.06 108 111.06 108 
L 107.999321 58.936943 
C 108.51296 58.904901 109.02707 58.880927 109.541462 58.865029 
C 110.055853 58.849132 110.570462 58.841313 111.085099 58.841575 
z
" clip-path="url(#p9fdb877487)" style="fill: #4c72b0; stroke: #ffffff; stroke-linejoin: miter"/>
   </g>
   <g id="patch_79">
    <path d="M 111.06 108 
C 111.06 108 111.06 108 111.06 108 
C 111.06 108 111.06 108 111.06 108 
L 104.305284 54.293599 
C 104.867534 54.222885 105.430859 54.161003 105.995052 54.107979 
C 106.559244 54.054954 107.124235 54.010792 107.689815 53.97551 
z
" clip-path="url(#p9fdb877487)" style="fill: #4c72b0; stroke: #ffffff; stroke-linejoin: miter"/>
   </g>
   <g id="patch_80">
    <path d="M 111.06 108 
C 111.06 108 111.06 108 111.06 108 
C 111.06 108 111.06 108 111.06 108 
L 101.360154 56.993981 
C 101.894134 56.892434 102.429675 56.799278 102.966579 56.714548 
C 103.503484 56.629819 104.041686 56.553526 104.580987 56.485697 
z
" clip-path="url(#p9fdb877487)" style="fill: #4c72b0; stroke: #ffffff; stroke-linejoin: miter"/>
   </g>
   <g id="patch_81">
    <path d="M 111.06 108 
C 111.06 108 111.06 108 111.06 108 
C 111.06 108 111.06 108 111.06 108 
L 96.395968 50.74753 
C 96.995341 50.594013 97.597088 50.449917 98.200986 50.315297 
C 98.804884 50.180677 99.410859 50.055548 100.018686 49.939957 
z
" clip-path="url(#p9fdb877487)" style="fill: #4c72b0; stroke: #ffffff; stroke-linejoin: miter"/>
   </g>
   <g id="patch_82">
    <path d="M 111.06 108 
C 111.06 108 111.06 108 111.06 108 
C 111.06 108 111.06 108 111.06 108 
L 95.045813 58.611268 
C 95.562861 58.443617 96.08251 58.284095 96.604568 58.132762 
C 97.126625 57.981428 97.651027 57.838303 98.177579 57.703437 
z
" clip-path="url(#p9fdb877487)" style="fill: #4c72b0; stroke: #ffffff; stroke-linejoin: miter"/>
   </g>
   <g id="patch_83">
    <path d="M 111.06 108 
C 111.06 108 111.06 108 111.06 108 
C 111.06 108 111.06 108 111.06 108 
L 89.541108 53.54971 
C 90.111145 53.324429 90.684685 53.108115 91.261515 52.900845 
C 91.838346 52.693576 92.418395 52.495378 93.001449 52.306324 
z
" clip-path="url(#p9fdb877487)" style="fill: #4c72b0; stroke: #ffffff; stroke-linejoin: miter"/>
   </g>
   <g id="patch_84">
    <path d="M 111.06 108 
C 111.06 108 111.06 108 111.06 108 
C 111.06 108 111.06 108 111.06 108 
L 88.279312 59.507186 
C 88.786981 59.268696 89.298363 59.038193 89.813271 58.815762 
C 90.328178 58.593331 90.846546 58.379 91.368184 58.172847 
z
" clip-path="url(#p9fdb877487)" style="fill: #4c72b0; stroke: #ffffff; stroke-linejoin: miter"/>
   </g>
   <g id="patch_85">
    <path d="M 111.06 108 
C 111.06 108 111.06 108 111.06 108 
C 111.06 108 111.06 108 111.06 108 
L 88.469532 66.843162 
C 88.900401 66.606664 89.334957 66.376946 89.773039 66.154094 
C 90.211122 65.931242 90.652677 65.715283 91.097542 65.506297 
z
" clip-path="url(#p9fdb877487)" style="fill: #4c72b0; stroke: #ffffff; stroke-linejoin: miter"/>
   </g>
   <g id="patch_86">
    <path d="M 111.06 108 
C 111.06 108 111.06 108 111.06 108 
C 111.06 108 111.06 108 111.06 108 
L 82.087305 62.277067 
C 82.565976 61.973753 83.04938 61.677975 83.53734 61.389842 
C 84.025299 61.101709 84.517753 60.821256 85.014519 60.548587 
z
" clip-path="url(#p9fdb877487)" style="fill: #4c72b0; stroke: #ffffff; stroke-linejoin: miter"/>
   </g>
   <g id="patch_87">
    <path d="M 111.06 108 
C 111.06 108 111.06 108 111.06 108 
C 111.06 108 111.06 108 111.06 108 
L 73.436183 56.138392 
C 73.97912 55.74451 74.528208 55.359179 75.083245 54.98254 
C 75.638282 54.605901 76.199199 54.238002 76.76579 53.878977 
z
" clip-path="url(#p9fdb877487)" style="fill: #4c72b0; stroke: #ffffff; stroke-linejoin: miter"/>
   </g>
   <g id="patch_88">
    <path d="M 111.06 108 
C 111.06 108 111.06 108 111.06 108 
C 111.06 108 111.06 108 111.06 108 
L 78.345622 68.396715 
C 78.760227 68.05423 79.180184 67.718276 79.605339 67.388979 
C 80.030493 67.059682 80.460793 66.737082 80.896078 66.421297 
z
" clip-path="url(#p9fdb877487)" style="fill: #4c72b0; stroke: #ffffff; stroke-linejoin: miter"/>
   </g>
   <g id="patch_89">
    <path d="M 111.06 108 
C 111.06 108 111.06 108 111.06 108 
C 111.06 108 111.06 108 111.06 108 
L 70.634934 64.887436 
C 71.086277 64.464228 71.544238 64.048134 72.008648 63.639307 
C 72.473057 63.23048 72.943858 62.828972 73.420877 62.43493 
z
" clip-path="url(#p9fdb877487)" style="fill: #4c72b0; stroke: #ffffff; stroke-linejoin: miter"/>
   </g>
   <g id="patch_90">
    <path d="M 111.06 108 
C 111.06 108 111.06 108 111.06 108 
C 111.06 108 111.06 108 111.06 108 
L 65.996675 65.617925 
C 66.440371 65.146159 66.891448 64.68139 67.349738 64.22379 
C 67.808029 63.766189 68.273478 63.315814 68.745912 62.87283 
z
" clip-path="url(#p9fdb877487)" style="fill: #4c72b0; stroke: #ffffff; stroke-linejoin: miter"/>
   </g>
   <g id="patch_91">
    <path d="M 111.06 108 
C 111.06 108 111.06 108 111.06 108 
C 111.06 108 111.06 108 111.06 108 
L 70.655459 74.521134 
C 71.005948 74.098141 71.363057 73.680678 71.726655 73.268899 
C 72.090253 72.85712 72.460295 72.451077 72.836644 72.050918 
z
" clip-path="url(#p9fdb877487)" style="fill: #4c72b0; stroke: #ffffff; stroke-linejoin: miter"/>
   </g>
   <g id="patch_92">
    <path d="M 111.06 108 
C 111.06 108 111.06 108 111.06 108 
C 111.06 108 111.06 108 111.06 108 
L 65.060887 74.523258 
C 65.411353 74.041696 65.76936 73.565666 66.134775 73.095347 
C 66.50019 72.625027 66.872968 72.160474 67.252971 71.701861 
z
" clip-path="url(#p9fdb877487)" style="fill: #4c72b0; stroke: #ffffff; stroke-linejoin: miter"/>
   </g>
   <g id="patch_93">
    <path d="M 111.06 108 
C 111.06 108 111.06 108 111.06 108 
C 111.06 108 111.06 108 111.06 108 
L 70.508056 82.218175 
C 70.777965 81.793639 71.054524 81.373368 71.33763 80.957516 
C 71.620736 80.541665 71.910355 80.130285 72.20638 79.723528 
z
" clip-path="url(#p9fdb877487)" style="fill: #4c72b0; stroke: #ffffff; stroke-linejoin: miter"/>
   </g>
   <g id="patch_94">
    <path d="M 111.06 108 
C 111.06 108 111.06 108 111.06 108 
C 111.06 108 111.06 108 111.06 108 
L 63.164111 81.61651 
C 63.440318 81.11509 63.724383 80.618039 64.016199 80.12554 
C 64.308015 79.633041 64.607548 79.145155 64.914685 78.662062 
z
" clip-path="url(#p9fdb877487)" style="fill: #4c72b0; stroke: #ffffff; stroke-linejoin: miter"/>
   </g>
   <g id="patch_95">
    <path d="M 111.06 108 
C 111.06 108 111.06 108 111.06 108 
C 111.06 108 111.06 108 111.06 108 
L 52.110589 80.198505 
C 52.401642 79.581367 52.702367 78.968837 53.012655 78.361142 
C 53.322943 77.753448 53.642754 77.150663 53.971971 76.553012 
z
" clip-path="url(#p9fdb877487)" style="fill: #4c72b0; stroke: #ffffff; stroke-linejoin: miter"/>
   </g>
   <g id="patch_96">
    <path d="M 111.06 108 
C 111.06 108 111.06 108 111.06 108 
C 111.06 108 111.06 108 111.06 108 
L 61.775967 88.436868 
C 61.980773 87.920916 62.193668 87.408212 62.414574 86.898946 
C 62.63548 86.389679 62.864369 85.883913 63.101157 85.381835 
z
" clip-path="url(#p9fdb877487)" style="fill: #4c72b0; stroke: #ffffff; stroke-linejoin: miter"/>
   </g>
   <g id="patch_97">
    <path d="M 111.06 108 
C 111.06 108 111.06 108 111.06 108 
C 111.06 108 111.06 108 111.06 108 
L 57.494231 90.542127 
C 57.676997 89.981349 57.868557 89.423477 58.068842 88.868715 
C 58.269126 88.313953 58.47811 87.762371 58.695715 87.214172 
z
" clip-path="url(#p9fdb877487)" style="fill: #4c72b0; stroke: #ffffff; stroke-linejoin: miter"/>
   </g>
   <g id="patch_98">
    <path d="M 111.06 108 
C 111.06 108 111.06 108 111.06 108 
C 111.06 108 111.06 108 111.06 108 
L 63.992092 95.868886 
C 64.119092 95.376135 64.253822 94.885408 64.396232 94.396888 
C 64.538642 93.908367 64.688715 93.422113 64.846396 92.938305 
z
" clip-path="url(#p9fdb877487)" style="fill: #4c72b0; stroke: #ffffff; stroke-linejoin: miter"/>
   </g>
   <g id="patch_99">
    <path d="M 111.06 108 
C 111.06 108 111.06 108 111.06 108 
C 111.06 108 111.06 108 111.06 108 
L 57.356357 97.703228 
C 57.464154 97.141008 57.580772 96.580514 57.70617 96.021956 
C 57.831567 95.463398 57.965728 94.906843 58.108603 94.352497 
z
" clip-path="url(#p9fdb877487)" style="fill: #4c72b0; stroke: #ffffff; stroke-linejoin: miter"/>
   </g>
   <g id="patch_100">
    <path d="M 111.06 108 
C 111.06 108 111.06 108 111.06 108 
C 111.06 108 111.06 108 111.06 108 
L 55.172164 100.885315 
C 55.246647 100.300228 55.330314 99.716347 55.423133 99.133888 
C 55.515952 98.551428 55.617911 97.970462 55.728974 97.391205 
z
" clip-path="url(#p9fdb877487)" style="fill: #4c72b0; stroke: #ffffff; stroke-linejoin: miter"/>
   </g>
   <g id="patch_101">
    <path d="M 111.06 108 
C 111.06 108 111.06 108 111.06 108 
C 111.06 108 111.06 108 111.06 108 
L 55.938217 104.477928 
C 55.975089 103.900861 56.021021 103.324408 56.075996 102.748784 
C 56.130971 102.173159 56.194981 101.598433 56.268004 101.024819 
z
" clip-path="url(#p9fdb877487)" style="fill: #4c72b0; stroke: #ffffff; stroke-linejoin: miter"/>
   </g>
   <g id="patch_102">
    <path d="M 111.06 108 
C 111.06 108 111.06 108 111.06 108 
C 111.06 108 111.06 108 111.06 108 
L 63.558618 107.952639 
C 63.559114 107.455349 63.567419 106.958098 63.58353 106.461069 
C 63.599641 105.964041 63.623556 105.467296 63.655266 104.971018 
z
" clip-path="url(#p9fdb877487)" style="fill: #4c72b0; stroke: #ffffff; stroke-linejoin: miter"/>
   </g>
   <g id="patch_103">
    <path d="M 181.815 108 
C 181.815 98.708539 179.984785 89.507425 176.429096 80.923234 
C 172.873408 72.339043 167.661396 64.538715 161.09134 57.96866 
C 154.521285 51.398604 146.720957 46.186592 138.136766 42.630904 
C 129.552575 39.075215 120.351461 37.245 111.06 37.245 
C 101.768539 37.245 92.567425 39.075215 83.983234 42.630904 
C 75.399043 46.186592 67.598715 51.398604 61.02866 57.96866 
C 54.458604 64.538715 49.246592 72.339043 45.690904 80.923234 
C 42.135215 89.507425 40.305 98.708539 40.305 108 
C 40.305 117.291461 42.135215 126.492575 45.690904 135.076766 
C 49.246592 143.660957 54.458604 151.461285 61.02866 158.03134 
C 67.598715 164.601396 75.399043 169.813408 83.983234 173.369096 
C 92.567425 176.924785 101.768539 178.755 111.06 178.755 
C 120.351461 178.755 129.552575 176.924785 138.136766 173.369096 
C 146.720957 169.813408 154.521285 164.601396 161.09134 158.03134 
C 167.661396 151.461285 172.873408 143.660957 176.429096 135.076766 
C 179.984785 126.492575 181.815 117.291461 181.815 108 
" style="fill: none; stroke: #ffffff; stroke-width: 1.25; stroke-linejoin: miter; stroke-linecap: square"/>
   </g>
  </g>
 </g>
 <defs>
  <clipPath id="p9fdb877487">
   <path d="M 181.815 108 
C 181.815 98.708539 179.984785 89.507425 176.429096 80.923234 
C 172.873408 72.339043 167.661396 64.538715 161.09134 57.96866 
C 154.521285 51.398604 146.720957 46.186592 138.136766 42.630904 
C 129.552575 39.075215 120.351461 37.245 111.06 37.245 
C 101.768539 37.245 92.567425 39.075215 83.983234 42.630904 
C 75.399043 46.186592 67.598715 51.398604 61.02866 57.96866 
C 54.458604 64.538715 49.246592 72.339043 45.690904 80.923234 
C 42.135215 89.507425 40.305 98.708539 40.305 108 
C 40.305 117.291461 42.135215 126.492575 45.690904 135.076766 
C 49.246592 143.660957 54.458604 151.461285 61.02866 158.03134 
C 67.598715 164.601396 75.399043 169.813408 83.983234 173.369096 
C 92.567425 176.924785 101.768539 178.755 111.06 178.755 
C 120.351461 178.755 129.552575 176.924785 138.136766 173.369096 
C 146.720957 169.813408 154.521285 164.601396 161.09134 158.03134 
C 167.661396 151.461285 172.873408 143.660957 176.429096 135.076766 
C 179.984785 126.492575 181.815 117.291461 181.815 108 
M 111.06 108 
C 111.06 108 111.06 108 111.06 108 
C 111.06 108 111.06 108 111.06 108 
C 111.06 108 111.06 108 111.06 108 
C 111.06 108 111.06 108 111.06 108 
C 111.06 108 111.06 108 111.06 108 
C 111.06 108 111.06 108 111.06 108 
C 111.06 108 111.06 108 111.06 108 
C 111.06 108 111.06 108 111.06 108 
C 111.06 108 111.06 108 111.06 108 
C 111.06 108 111.06 108 111.06 108 
C 111.06 108 111.06 108 111.06 108 
C 111.06 108 111.06 108 111.06 108 
C 111.06 108 111.06 108 111.06 108 
C 111.06 108 111.06 108 111.06 108 
C 111.06 108 111.06 108 111.06 108 
C 111.06 108 111.06 108 111.06 108 
z
"/>
  </clipPath>
 </defs>
</svg>
