<?xml version="1.0" encoding="utf-8" standalone="no"?>
<!DOCTYPE svg PUBLIC "-//W3C//DTD SVG 1.1//EN"
  "http://www.w3.org/Graphics/SVG/1.1/DTD/svg11.dtd">
<svg xmlns:xlink="http://www.w3.org/1999/xlink" width="216pt" height="216pt" viewBox="0 0 216 216" xmlns="http://www.w3.org/2000/svg" version="1.1">
 <metadata>
  <rdf:RDF xmlns:dc="http://purl.org/dc/elements/1.1/" xmlns:cc="http://creativecommons.org/ns#" xmlns:rdf="http://www.w3.org/1999/02/22-rdf-syntax-ns#">
   <cc:Work>
    <dc:type rdf:resource="http://purl.org/dc/dcmitype/StillImage"/>
    <dc:date>2023-10-28T14:21:47.824191</dc:date>
    <dc:format>image/svg+xml</dc:format>
    <dc:creator>
     <cc:Agent>
      <dc:title>Matplotlib v3.7.0, https://matplotlib.org/</dc:title>
     </cc:Agent>
    </dc:creator>
   </cc:Work>
  </rdf:RDF>
 </metadata>
 <defs>
  <style type="text/css">*{stroke-linejoin: round; stroke-linecap: butt}</style>
 </defs>
 <g id="figure_1">
  <g id="patch_1">
   <path d="M 0 216 
L 216 216 
L 216 0 
L 0 0 
z
" style="fill: #ffffff"/>
  </g>
  <g id="axes_1">
   <g id="patch_2">
    <path d="M 49.77 168.66 
L 175.335 168.66 
L 175.335 41.07 
L 49.77 41.07 
z
" style="fill: #eaeaf2"/>
   </g>
   <g id="matplotlib.axis_1">
    <g id="xtick_1">
     <g id="line2d_1">
      <path d="M 55.468572 168.66 
L 55.468572 41.07 
" clip-path="url(#pb7c9c12fa7)" style="fill: none; stroke: #ffffff; stroke-linecap: round"/>
     </g>
     <g id="text_1">
      <!-- −1 -->
      <g style="fill: #262626" transform="translate(49.197713 186.033594) scale(0.11 -0.11)">
       <defs>
        <path id="ArialMT-2212" d="M 3381 1997 
L 356 1997 
L 356 2522 
L 3381 2522 
L 3381 1997 
z
" transform="scale(0.015625)"/>
        <path id="ArialMT-31" d="M 2384 0 
L 1822 0 
L 1822 3584 
Q 1619 3391 1289 3197 
Q 959 3003 697 2906 
L 697 3450 
Q 1169 3672 1522 3987 
Q 1875 4303 2022 4600 
L 2384 4600 
L 2384 0 
z
" transform="scale(0.015625)"/>
       </defs>
       <use xlink:href="#ArialMT-2212"/>
       <use xlink:href="#ArialMT-31" x="58.398438"/>
      </g>
     </g>
    </g>
    <g id="xtick_2">
     <g id="line2d_2">
      <path d="M 112.548762 168.66 
L 112.548762 41.07 
" clip-path="url(#pb7c9c12fa7)" style="fill: none; stroke: #ffffff; stroke-linecap: round"/>
     </g>
     <g id="text_2">
      <!-- 0 -->
      <g style="fill: #262626" transform="translate(109.490246 186.033594) scale(0.11 -0.11)">
       <defs>
        <path id="ArialMT-30" d="M 266 2259 
Q 266 3072 433 3567 
Q 600 4063 929 4331 
Q 1259 4600 1759 4600 
Q 2128 4600 2406 4451 
Q 2684 4303 2865 4023 
Q 3047 3744 3150 3342 
Q 3253 2941 3253 2259 
Q 3253 1453 3087 958 
Q 2922 463 2592 192 
Q 2263 -78 1759 -78 
Q 1097 -78 719 397 
Q 266 969 266 2259 
z
M 844 2259 
Q 844 1131 1108 757 
Q 1372 384 1759 384 
Q 2147 384 2411 759 
Q 2675 1134 2675 2259 
Q 2675 3391 2411 3762 
Q 2147 4134 1753 4134 
Q 1366 4134 1134 3806 
Q 844 3388 844 2259 
z
" transform="scale(0.015625)"/>
       </defs>
       <use xlink:href="#ArialMT-30"/>
      </g>
     </g>
    </g>
    <g id="xtick_3">
     <g id="line2d_3">
      <path d="M 169.628952 168.66 
L 169.628952 41.07 
" clip-path="url(#pb7c9c12fa7)" style="fill: none; stroke: #ffffff; stroke-linecap: round"/>
     </g>
     <g id="text_3">
      <!-- 1 -->
      <g style="fill: #262626" transform="translate(166.570436 186.033594) scale(0.11 -0.11)">
       <use xlink:href="#ArialMT-31"/>
      </g>
     </g>
    </g>
    <g id="text_4">
     <!-- cos(θ) -->
     <g style="fill: #262626" transform="translate(95.88375 200.955469) scale(0.12 -0.12)">
      <defs>
       <path id="ArialMT-63" d="M 2588 1216 
L 3141 1144 
Q 3050 572 2676 248 
Q 2303 -75 1759 -75 
Q 1078 -75 664 370 
Q 250 816 250 1647 
Q 250 2184 428 2587 
Q 606 2991 970 3192 
Q 1334 3394 1763 3394 
Q 2303 3394 2647 3120 
Q 2991 2847 3088 2344 
L 2541 2259 
Q 2463 2594 2264 2762 
Q 2066 2931 1784 2931 
Q 1359 2931 1093 2626 
Q 828 2322 828 1663 
Q 828 994 1084 691 
Q 1341 388 1753 388 
Q 2084 388 2306 591 
Q 2528 794 2588 1216 
z
" transform="scale(0.015625)"/>
       <path id="ArialMT-6f" d="M 213 1659 
Q 213 2581 725 3025 
Q 1153 3394 1769 3394 
Q 2453 3394 2887 2945 
Q 3322 2497 3322 1706 
Q 3322 1066 3130 698 
Q 2938 331 2570 128 
Q 2203 -75 1769 -75 
Q 1072 -75 642 372 
Q 213 819 213 1659 
z
M 791 1659 
Q 791 1022 1069 705 
Q 1347 388 1769 388 
Q 2188 388 2466 706 
Q 2744 1025 2744 1678 
Q 2744 2294 2464 2611 
Q 2184 2928 1769 2928 
Q 1347 2928 1069 2612 
Q 791 2297 791 1659 
z
" transform="scale(0.015625)"/>
       <path id="ArialMT-73" d="M 197 991 
L 753 1078 
Q 800 744 1014 566 
Q 1228 388 1613 388 
Q 2000 388 2187 545 
Q 2375 703 2375 916 
Q 2375 1106 2209 1216 
Q 2094 1291 1634 1406 
Q 1016 1563 777 1677 
Q 538 1791 414 1992 
Q 291 2194 291 2438 
Q 291 2659 392 2848 
Q 494 3038 669 3163 
Q 800 3259 1026 3326 
Q 1253 3394 1513 3394 
Q 1903 3394 2198 3281 
Q 2494 3169 2634 2976 
Q 2775 2784 2828 2463 
L 2278 2388 
Q 2241 2644 2061 2787 
Q 1881 2931 1553 2931 
Q 1166 2931 1000 2803 
Q 834 2675 834 2503 
Q 834 2394 903 2306 
Q 972 2216 1119 2156 
Q 1203 2125 1616 2013 
Q 2213 1853 2448 1751 
Q 2684 1650 2818 1456 
Q 2953 1263 2953 975 
Q 2953 694 2789 445 
Q 2625 197 2315 61 
Q 2006 -75 1616 -75 
Q 969 -75 630 194 
Q 291 463 197 991 
z
" transform="scale(0.015625)"/>
       <path id="ArialMT-28" d="M 1497 -1347 
Q 1031 -759 709 28 
Q 388 816 388 1659 
Q 388 2403 628 3084 
Q 909 3875 1497 4659 
L 1900 4659 
Q 1522 4009 1400 3731 
Q 1209 3300 1100 2831 
Q 966 2247 966 1656 
Q 966 153 1900 -1347 
L 1497 -1347 
z
" transform="scale(0.015625)"/>
       <path id="ArialMT-3b8" d="M 288 2291 
Q 288 4659 1781 4659 
Q 3275 4659 3275 2291 
Q 3275 -75 1781 -75 
Q 288 -75 288 2291 
z
M 869 2519 
L 2694 2519 
Q 2663 3497 2413 3847 
Q 2163 4197 1775 4197 
Q 903 4197 869 2519 
z
M 2694 2066 
L 869 2066 
Q 903 388 1781 388 
Q 2663 388 2694 2066 
z
" transform="scale(0.015625)"/>
       <path id="ArialMT-29" d="M 791 -1347 
L 388 -1347 
Q 1322 153 1322 1656 
Q 1322 2244 1188 2822 
Q 1081 3291 891 3722 
Q 769 4003 388 4659 
L 791 4659 
Q 1378 3875 1659 3084 
Q 1900 2403 1900 1659 
Q 1900 816 1576 28 
Q 1253 -759 791 -1347 
z
" transform="scale(0.015625)"/>
      </defs>
      <use xlink:href="#ArialMT-63"/>
      <use xlink:href="#ArialMT-6f" x="50"/>
      <use xlink:href="#ArialMT-73" x="105.615234"/>
      <use xlink:href="#ArialMT-28" x="155.615234"/>
      <use xlink:href="#ArialMT-3b8" x="188.916016"/>
      <use xlink:href="#ArialMT-29" x="244.53125"/>
     </g>
    </g>
   </g>
   <g id="matplotlib.axis_2">
    <g id="ytick_1">
     <g id="line2d_4">
      <path d="M 49.77 141.789686 
L 175.335 141.789686 
" clip-path="url(#pb7c9c12fa7)" style="fill: none; stroke: #ffffff; stroke-linecap: round"/>
     </g>
     <g id="text_5">
      <!-- −2 -->
      <g style="fill: #262626" transform="translate(27.728281 145.726483) scale(0.11 -0.11)">
       <defs>
        <path id="ArialMT-32" d="M 3222 541 
L 3222 0 
L 194 0 
Q 188 203 259 391 
Q 375 700 629 1000 
Q 884 1300 1366 1694 
Q 2113 2306 2375 2664 
Q 2638 3022 2638 3341 
Q 2638 3675 2398 3904 
Q 2159 4134 1775 4134 
Q 1369 4134 1125 3890 
Q 881 3647 878 3216 
L 300 3275 
Q 359 3922 746 4261 
Q 1134 4600 1788 4600 
Q 2447 4600 2831 4234 
Q 3216 3869 3216 3328 
Q 3216 3053 3103 2787 
Q 2991 2522 2730 2228 
Q 2469 1934 1863 1422 
Q 1356 997 1212 845 
Q 1069 694 975 541 
L 3222 541 
z
" transform="scale(0.015625)"/>
       </defs>
       <use xlink:href="#ArialMT-2212"/>
       <use xlink:href="#ArialMT-32" x="58.398438"/>
      </g>
     </g>
    </g>
    <g id="ytick_2">
     <g id="line2d_5">
      <path d="M 49.77 104.864889 
L 175.335 104.864889 
" clip-path="url(#pb7c9c12fa7)" style="fill: none; stroke: #ffffff; stroke-linecap: round"/>
     </g>
     <g id="text_6">
      <!-- 0 -->
      <g style="fill: #262626" transform="translate(34.152969 108.801686) scale(0.11 -0.11)">
       <use xlink:href="#ArialMT-30"/>
      </g>
     </g>
    </g>
    <g id="ytick_3">
     <g id="line2d_6">
      <path d="M 49.77 67.940093 
L 175.335 67.940093 
" clip-path="url(#pb7c9c12fa7)" style="fill: none; stroke: #ffffff; stroke-linecap: round"/>
     </g>
     <g id="text_7">
      <!-- 2 -->
      <g style="fill: #262626" transform="translate(34.152969 71.87689) scale(0.11 -0.11)">
       <use xlink:href="#ArialMT-32"/>
      </g>
     </g>
    </g>
    <g id="text_8">
     <!-- φ -->
     <g style="fill: #262626" transform="translate(21.343281 108.755625) rotate(-90) scale(0.12 -0.12)">
      <defs>
       <path id="ArialMT-3c6" d="M 1559 3384 
L 1450 2897 
Q 803 2681 803 1766 
Q 803 1281 1058 901 
Q 1313 522 1819 413 
L 1819 2475 
Q 1819 2806 1866 2986 
Q 1913 3166 2080 3280 
Q 2247 3394 2534 3394 
Q 2981 3394 3261 3212 
Q 3541 3031 3734 2640 
Q 3928 2250 3928 1800 
Q 3928 1425 3775 1048 
Q 3622 672 3278 356 
Q 2934 41 2375 -78 
L 2375 -1272 
L 1819 -1272 
L 1819 -78 
Q 1238 -78 731 431 
Q 225 941 225 1741 
Q 225 2481 629 2939 
Q 1034 3397 1559 3384 
z
M 2375 438 
Q 2772 509 3055 881 
Q 3338 1253 3338 1856 
Q 3338 2416 3131 2672 
Q 2925 2928 2694 2928 
Q 2528 2928 2451 2814 
Q 2375 2700 2375 2313 
L 2375 438 
z
" transform="scale(0.015625)"/>
      </defs>
      <use xlink:href="#ArialMT-3c6"/>
     </g>
    </g>
   </g>
   <g id="QuadMesh_1">
    <path d="M 55.4775 162.860455 
L 61.185 162.860455 
L 61.185 157.58814 
L 55.4775 157.58814 
L 55.4775 162.860455 
" clip-path="url(#pb7c9c12fa7)" style="fill: #87a4de"/>
    <path d="M 61.185 162.860455 
L 66.8925 162.860455 
L 66.8925 157.58814 
L 61.185 157.58814 
L 61.185 162.860455 
" clip-path="url(#pb7c9c12fa7)" style="fill: #8da8df"/>
    <path d="M 66.8925 162.860455 
L 72.6 162.860455 
L 72.6 157.58814 
L 66.8925 157.58814 
L 66.8925 162.860455 
" clip-path="url(#pb7c9c12fa7)" style="fill: #6590d9"/>
    <path d="M 72.6 162.860455 
L 78.3075 162.860455 
L 78.3075 157.58814 
L 72.6 157.58814 
L 72.6 162.860455 
" clip-path="url(#pb7c9c12fa7)" style="fill: #628ed8"/>
    <path d="M 78.3075 162.860455 
L 84.015 162.860455 
L 84.015 157.58814 
L 78.3075 157.58814 
L 78.3075 162.860455 
" clip-path="url(#pb7c9c12fa7)" style="fill: #91aadf"/>
    <path d="M 84.015 162.860455 
L 89.7225 162.860455 
L 89.7225 157.58814 
L 84.015 157.58814 
L 84.015 162.860455 
" clip-path="url(#pb7c9c12fa7)" style="fill: #8da8df"/>
    <path d="M 89.7225 162.860455 
L 95.43 162.860455 
L 95.43 157.58814 
L 89.7225 157.58814 
L 89.7225 162.860455 
" clip-path="url(#pb7c9c12fa7)" style="fill: #8aa6df"/>
    <path d="M 95.43 162.860455 
L 101.1375 162.860455 
L 101.1375 157.58814 
L 95.43 157.58814 
L 95.43 162.860455 
" clip-path="url(#pb7c9c12fa7)" style="fill: #80a0de"/>
    <path d="M 101.1375 162.860455 
L 106.845 162.860455 
L 106.845 157.58814 
L 101.1375 157.58814 
L 101.1375 162.860455 
" clip-path="url(#pb7c9c12fa7)" style="fill: #94acdf"/>
    <path d="M 106.845 162.860455 
L 112.5525 162.860455 
L 112.5525 157.58814 
L 106.845 157.58814 
L 106.845 162.860455 
" clip-path="url(#pb7c9c12fa7)" style="fill: #94acdf"/>
    <path d="M 112.5525 162.860455 
L 118.26 162.860455 
L 118.26 157.58814 
L 112.5525 157.58814 
L 112.5525 162.860455 
" clip-path="url(#pb7c9c12fa7)" style="fill: #94acdf"/>
    <path d="M 118.26 162.860455 
L 123.9675 162.860455 
L 123.9675 157.58814 
L 118.26 157.58814 
L 118.26 162.860455 
" clip-path="url(#pb7c9c12fa7)" style="fill: #94acdf"/>
    <path d="M 123.9675 162.860455 
L 129.675 162.860455 
L 129.675 157.58814 
L 123.9675 157.58814 
L 123.9675 162.860455 
" clip-path="url(#pb7c9c12fa7)" style="fill: #87a4de"/>
    <path d="M 129.675 162.860455 
L 135.3825 162.860455 
L 135.3825 157.58814 
L 129.675 157.58814 
L 129.675 162.860455 
" clip-path="url(#pb7c9c12fa7)" style="fill: #80a0de"/>
    <path d="M 135.3825 162.860455 
L 141.09 162.860455 
L 141.09 157.58814 
L 135.3825 157.58814 
L 135.3825 162.860455 
" clip-path="url(#pb7c9c12fa7)" style="fill: #84a2de"/>
    <path d="M 141.09 162.860455 
L 146.7975 162.860455 
L 146.7975 157.58814 
L 141.09 157.58814 
L 141.09 162.860455 
" clip-path="url(#pb7c9c12fa7)" style="fill: #87a4de"/>
    <path d="M 146.7975 162.860455 
L 152.505 162.860455 
L 152.505 157.58814 
L 146.7975 157.58814 
L 146.7975 162.860455 
" clip-path="url(#pb7c9c12fa7)" style="fill: #779adc"/>
    <path d="M 152.505 162.860455 
L 158.2125 162.860455 
L 158.2125 157.58814 
L 152.505 157.58814 
L 152.505 162.860455 
" clip-path="url(#pb7c9c12fa7)" style="fill: #567bb9"/>
    <path d="M 158.2125 162.860455 
L 163.92 162.860455 
L 163.92 157.58814 
L 158.2125 157.58814 
L 158.2125 162.860455 
" clip-path="url(#pb7c9c12fa7)" style="fill: #97aee0"/>
    <path d="M 163.92 162.860455 
L 169.6275 162.860455 
L 169.6275 157.58814 
L 163.92 157.58814 
L 163.92 162.860455 
" clip-path="url(#pb7c9c12fa7)" style="fill: #9ab0e0"/>
    <path d="M 55.4775 157.58814 
L 61.185 157.58814 
L 61.185 152.315826 
L 55.4775 152.315826 
L 55.4775 157.58814 
" clip-path="url(#pb7c9c12fa7)" style="fill: #9ab0e0"/>
    <path d="M 61.185 157.58814 
L 66.8925 157.58814 
L 66.8925 152.315826 
L 61.185 152.315826 
L 61.185 157.58814 
" clip-path="url(#pb7c9c12fa7)" style="fill: #7a9cdd"/>
    <path d="M 66.8925 157.58814 
L 72.6 157.58814 
L 72.6 152.315826 
L 66.8925 152.315826 
L 66.8925 157.58814 
" clip-path="url(#pb7c9c12fa7)" style="fill: #5e8ad3"/>
    <path d="M 72.6 157.58814 
L 78.3075 157.58814 
L 78.3075 152.315826 
L 72.6 152.315826 
L 72.6 157.58814 
" clip-path="url(#pb7c9c12fa7)" style="fill: #5c87cd"/>
    <path d="M 78.3075 157.58814 
L 84.015 157.58814 
L 84.015 152.315826 
L 78.3075 152.315826 
L 78.3075 157.58814 
" clip-path="url(#pb7c9c12fa7)" style="fill: #5f8dd7"/>
    <path d="M 84.015 157.58814 
L 89.7225 157.58814 
L 89.7225 152.315826 
L 84.015 152.315826 
L 84.015 157.58814 
" clip-path="url(#pb7c9c12fa7)" style="fill: #779adc"/>
    <path d="M 89.7225 157.58814 
L 95.43 157.58814 
L 95.43 152.315826 
L 89.7225 152.315826 
L 89.7225 157.58814 
" clip-path="url(#pb7c9c12fa7)" style="fill: #7096db"/>
    <path d="M 95.43 157.58814 
L 101.1375 157.58814 
L 101.1375 152.315826 
L 95.43 152.315826 
L 95.43 157.58814 
" clip-path="url(#pb7c9c12fa7)" style="fill: #87a4de"/>
    <path d="M 101.1375 157.58814 
L 106.845 157.58814 
L 106.845 152.315826 
L 101.1375 152.315826 
L 101.1375 157.58814 
" clip-path="url(#pb7c9c12fa7)" style="fill: #9db2e0"/>
    <path d="M 106.845 157.58814 
L 112.5525 157.58814 
L 112.5525 152.315826 
L 106.845 152.315826 
L 106.845 157.58814 
" clip-path="url(#pb7c9c12fa7)" style="fill: #84a2de"/>
    <path d="M 112.5525 157.58814 
L 118.26 157.58814 
L 118.26 152.315826 
L 112.5525 152.315826 
L 112.5525 157.58814 
" clip-path="url(#pb7c9c12fa7)" style="fill: #8da8df"/>
    <path d="M 118.26 157.58814 
L 123.9675 157.58814 
L 123.9675 152.315826 
L 118.26 152.315826 
L 118.26 157.58814 
" clip-path="url(#pb7c9c12fa7)" style="fill: #7096db"/>
    <path d="M 123.9675 157.58814 
L 129.675 157.58814 
L 129.675 152.315826 
L 123.9675 152.315826 
L 123.9675 157.58814 
" clip-path="url(#pb7c9c12fa7)" style="fill: #84a2de"/>
    <path d="M 129.675 157.58814 
L 135.3825 157.58814 
L 135.3825 152.315826 
L 129.675 152.315826 
L 129.675 157.58814 
" clip-path="url(#pb7c9c12fa7)" style="fill: #80a0de"/>
    <path d="M 135.3825 157.58814 
L 141.09 157.58814 
L 141.09 152.315826 
L 135.3825 152.315826 
L 135.3825 157.58814 
" clip-path="url(#pb7c9c12fa7)" style="fill: #5d88d0"/>
    <path d="M 141.09 157.58814 
L 146.7975 157.58814 
L 146.7975 152.315826 
L 141.09 152.315826 
L 141.09 157.58814 
" clip-path="url(#pb7c9c12fa7)" style="fill: #7096db"/>
    <path d="M 146.7975 157.58814 
L 152.505 157.58814 
L 152.505 152.315826 
L 146.7975 152.315826 
L 146.7975 157.58814 
" clip-path="url(#pb7c9c12fa7)" style="fill: #5e8ad3"/>
    <path d="M 152.505 157.58814 
L 158.2125 157.58814 
L 158.2125 152.315826 
L 152.505 152.315826 
L 152.505 157.58814 
" clip-path="url(#pb7c9c12fa7)" style="fill: #6c94da"/>
    <path d="M 158.2125 157.58814 
L 163.92 157.58814 
L 163.92 152.315826 
L 158.2125 152.315826 
L 158.2125 157.58814 
" clip-path="url(#pb7c9c12fa7)" style="fill: #7096db"/>
    <path d="M 163.92 157.58814 
L 169.6275 157.58814 
L 169.6275 152.315826 
L 163.92 152.315826 
L 163.92 157.58814 
" clip-path="url(#pb7c9c12fa7)" style="fill: #8da8df"/>
    <path d="M 55.4775 152.315826 
L 61.185 152.315826 
L 61.185 147.043512 
L 55.4775 147.043512 
L 55.4775 152.315826 
" clip-path="url(#pb7c9c12fa7)" style="fill: #87a4de"/>
    <path d="M 61.185 152.315826 
L 66.8925 152.315826 
L 66.8925 147.043512 
L 61.185 147.043512 
L 61.185 152.315826 
" clip-path="url(#pb7c9c12fa7)" style="fill: #91aadf"/>
    <path d="M 66.8925 152.315826 
L 72.6 152.315826 
L 72.6 147.043512 
L 66.8925 147.043512 
L 66.8925 152.315826 
" clip-path="url(#pb7c9c12fa7)" style="fill: #567bb9"/>
    <path d="M 72.6 152.315826 
L 78.3075 152.315826 
L 78.3075 147.043512 
L 72.6 147.043512 
L 72.6 152.315826 
" clip-path="url(#pb7c9c12fa7)" style="fill: #5373ab"/>
    <path d="M 78.3075 152.315826 
L 84.015 152.315826 
L 84.015 147.043512 
L 78.3075 147.043512 
L 78.3075 152.315826 
" clip-path="url(#pb7c9c12fa7)" style="fill: #5373ab"/>
    <path d="M 84.015 152.315826 
L 89.7225 152.315826 
L 89.7225 147.043512 
L 84.015 147.043512 
L 84.015 152.315826 
" clip-path="url(#pb7c9c12fa7)" style="fill: #5d88d0"/>
    <path d="M 89.7225 152.315826 
L 95.43 152.315826 
L 95.43 147.043512 
L 89.7225 147.043512 
L 89.7225 152.315826 
" clip-path="url(#pb7c9c12fa7)" style="fill: #5577b2"/>
    <path d="M 95.43 152.315826 
L 101.1375 152.315826 
L 101.1375 147.043512 
L 95.43 147.043512 
L 95.43 152.315826 
" clip-path="url(#pb7c9c12fa7)" style="fill: #5d88d0"/>
    <path d="M 101.1375 152.315826 
L 106.845 152.315826 
L 106.845 147.043512 
L 101.1375 147.043512 
L 101.1375 152.315826 
" clip-path="url(#pb7c9c12fa7)" style="fill: #577dbd"/>
    <path d="M 106.845 152.315826 
L 112.5525 152.315826 
L 112.5525 147.043512 
L 106.845 147.043512 
L 106.845 152.315826 
" clip-path="url(#pb7c9c12fa7)" style="fill: #779adc"/>
    <path d="M 112.5525 152.315826 
L 118.26 152.315826 
L 118.26 147.043512 
L 112.5525 147.043512 
L 112.5525 152.315826 
" clip-path="url(#pb7c9c12fa7)" style="fill: #7d9edd"/>
    <path d="M 118.26 152.315826 
L 123.9675 152.315826 
L 123.9675 147.043512 
L 118.26 147.043512 
L 118.26 152.315826 
" clip-path="url(#pb7c9c12fa7)" style="fill: #5b85ca"/>
    <path d="M 123.9675 152.315826 
L 129.675 152.315826 
L 129.675 147.043512 
L 123.9675 147.043512 
L 123.9675 152.315826 
" clip-path="url(#pb7c9c12fa7)" style="fill: #628ed8"/>
    <path d="M 129.675 152.315826 
L 135.3825 152.315826 
L 135.3825 147.043512 
L 129.675 147.043512 
L 129.675 152.315826 
" clip-path="url(#pb7c9c12fa7)" style="fill: #5577b2"/>
    <path d="M 135.3825 152.315826 
L 141.09 152.315826 
L 141.09 147.043512 
L 135.3825 147.043512 
L 135.3825 152.315826 
" clip-path="url(#pb7c9c12fa7)" style="fill: #5981c3"/>
    <path d="M 141.09 152.315826 
L 146.7975 152.315826 
L 146.7975 147.043512 
L 141.09 147.043512 
L 141.09 152.315826 
" clip-path="url(#pb7c9c12fa7)" style="fill: #516c9d"/>
    <path d="M 146.7975 152.315826 
L 152.505 152.315826 
L 152.505 147.043512 
L 146.7975 147.043512 
L 146.7975 152.315826 
" clip-path="url(#pb7c9c12fa7)" style="fill: #5373ab"/>
    <path d="M 152.505 152.315826 
L 158.2125 152.315826 
L 158.2125 147.043512 
L 152.505 147.043512 
L 152.505 152.315826 
" clip-path="url(#pb7c9c12fa7)" style="fill: #6590d9"/>
    <path d="M 158.2125 152.315826 
L 163.92 152.315826 
L 163.92 147.043512 
L 158.2125 147.043512 
L 158.2125 152.315826 
" clip-path="url(#pb7c9c12fa7)" style="fill: #8aa6df"/>
    <path d="M 163.92 152.315826 
L 169.6275 152.315826 
L 169.6275 147.043512 
L 163.92 147.043512 
L 163.92 152.315826 
" clip-path="url(#pb7c9c12fa7)" style="fill: #7a9cdd"/>
    <path d="M 55.4775 147.043512 
L 61.185 147.043512 
L 61.185 141.771198 
L 55.4775 141.771198 
L 55.4775 147.043512 
" clip-path="url(#pb7c9c12fa7)" style="fill: #94acdf"/>
    <path d="M 61.185 147.043512 
L 66.8925 147.043512 
L 66.8925 141.771198 
L 61.185 141.771198 
L 61.185 147.043512 
" clip-path="url(#pb7c9c12fa7)" style="fill: #87a4de"/>
    <path d="M 66.8925 147.043512 
L 72.6 147.043512 
L 72.6 141.771198 
L 66.8925 141.771198 
L 66.8925 147.043512 
" clip-path="url(#pb7c9c12fa7)" style="fill: #5e8ad3"/>
    <path d="M 72.6 147.043512 
L 78.3075 147.043512 
L 78.3075 141.771198 
L 72.6 141.771198 
L 72.6 147.043512 
" clip-path="url(#pb7c9c12fa7)" style="fill: #567bb9"/>
    <path d="M 78.3075 147.043512 
L 84.015 147.043512 
L 84.015 141.771198 
L 78.3075 141.771198 
L 78.3075 147.043512 
" clip-path="url(#pb7c9c12fa7)" style="fill: #577dbd"/>
    <path d="M 84.015 147.043512 
L 89.7225 147.043512 
L 89.7225 141.771198 
L 84.015 141.771198 
L 84.015 147.043512 
" clip-path="url(#pb7c9c12fa7)" style="fill: #5577b2"/>
    <path d="M 89.7225 147.043512 
L 95.43 147.043512 
L 95.43 141.771198 
L 89.7225 141.771198 
L 89.7225 147.043512 
" clip-path="url(#pb7c9c12fa7)" style="fill: #6590d9"/>
    <path d="M 95.43 147.043512 
L 101.1375 147.043512 
L 101.1375 141.771198 
L 95.43 141.771198 
L 95.43 147.043512 
" clip-path="url(#pb7c9c12fa7)" style="fill: #5f8dd7"/>
    <path d="M 101.1375 147.043512 
L 106.845 147.043512 
L 106.845 141.771198 
L 101.1375 141.771198 
L 101.1375 147.043512 
" clip-path="url(#pb7c9c12fa7)" style="fill: #6c94da"/>
    <path d="M 106.845 147.043512 
L 112.5525 147.043512 
L 112.5525 141.771198 
L 106.845 141.771198 
L 106.845 147.043512 
" clip-path="url(#pb7c9c12fa7)" style="fill: #7a9cdd"/>
    <path d="M 112.5525 147.043512 
L 118.26 147.043512 
L 118.26 141.771198 
L 112.5525 141.771198 
L 112.5525 147.043512 
" clip-path="url(#pb7c9c12fa7)" style="fill: #7a9cdd"/>
    <path d="M 118.26 147.043512 
L 123.9675 147.043512 
L 123.9675 141.771198 
L 118.26 141.771198 
L 118.26 147.043512 
" clip-path="url(#pb7c9c12fa7)" style="fill: #7398dc"/>
    <path d="M 123.9675 147.043512 
L 129.675 147.043512 
L 129.675 141.771198 
L 123.9675 141.771198 
L 123.9675 147.043512 
" clip-path="url(#pb7c9c12fa7)" style="fill: #87a4de"/>
    <path d="M 129.675 147.043512 
L 135.3825 147.043512 
L 135.3825 141.771198 
L 129.675 141.771198 
L 129.675 147.043512 
" clip-path="url(#pb7c9c12fa7)" style="fill: #779adc"/>
    <path d="M 135.3825 147.043512 
L 141.09 147.043512 
L 141.09 141.771198 
L 135.3825 141.771198 
L 135.3825 147.043512 
" clip-path="url(#pb7c9c12fa7)" style="fill: #6c94da"/>
    <path d="M 141.09 147.043512 
L 146.7975 147.043512 
L 146.7975 141.771198 
L 141.09 141.771198 
L 141.09 147.043512 
" clip-path="url(#pb7c9c12fa7)" style="fill: #5475af"/>
    <path d="M 146.7975 147.043512 
L 152.505 147.043512 
L 152.505 141.771198 
L 146.7975 141.771198 
L 146.7975 147.043512 
" clip-path="url(#pb7c9c12fa7)" style="fill: #5475af"/>
    <path d="M 152.505 147.043512 
L 158.2125 147.043512 
L 158.2125 141.771198 
L 152.505 141.771198 
L 152.505 147.043512 
" clip-path="url(#pb7c9c12fa7)" style="fill: #7d9edd"/>
    <path d="M 158.2125 147.043512 
L 163.92 147.043512 
L 163.92 141.771198 
L 158.2125 141.771198 
L 158.2125 147.043512 
" clip-path="url(#pb7c9c12fa7)" style="fill: #7096db"/>
    <path d="M 163.92 147.043512 
L 169.6275 147.043512 
L 169.6275 141.771198 
L 163.92 141.771198 
L 163.92 147.043512 
" clip-path="url(#pb7c9c12fa7)" style="fill: #91aadf"/>
    <path d="M 55.4775 141.771198 
L 61.185 141.771198 
L 61.185 136.498884 
L 55.4775 136.498884 
L 55.4775 141.771198 
" clip-path="url(#pb7c9c12fa7)" style="fill: #8aa6df"/>
    <path d="M 61.185 141.771198 
L 66.8925 141.771198 
L 66.8925 136.498884 
L 61.185 136.498884 
L 61.185 141.771198 
" clip-path="url(#pb7c9c12fa7)" style="fill: #7a9cdd"/>
    <path d="M 66.8925 141.771198 
L 72.6 141.771198 
L 72.6 136.498884 
L 66.8925 136.498884 
L 66.8925 141.771198 
" clip-path="url(#pb7c9c12fa7)" style="fill: #6c94da"/>
    <path d="M 72.6 141.771198 
L 78.3075 141.771198 
L 78.3075 136.498884 
L 72.6 136.498884 
L 72.6 141.771198 
" clip-path="url(#pb7c9c12fa7)" style="fill: #5b85ca"/>
    <path d="M 78.3075 141.771198 
L 84.015 141.771198 
L 84.015 136.498884 
L 78.3075 136.498884 
L 78.3075 141.771198 
" clip-path="url(#pb7c9c12fa7)" style="fill: #7a9cdd"/>
    <path d="M 84.015 141.771198 
L 89.7225 141.771198 
L 89.7225 136.498884 
L 84.015 136.498884 
L 84.015 141.771198 
" clip-path="url(#pb7c9c12fa7)" style="fill: #8aa6df"/>
    <path d="M 89.7225 141.771198 
L 95.43 141.771198 
L 95.43 136.498884 
L 89.7225 136.498884 
L 89.7225 141.771198 
" clip-path="url(#pb7c9c12fa7)" style="fill: #97aee0"/>
    <path d="M 95.43 141.771198 
L 101.1375 141.771198 
L 101.1375 136.498884 
L 95.43 136.498884 
L 95.43 141.771198 
" clip-path="url(#pb7c9c12fa7)" style="fill: #91aadf"/>
    <path d="M 101.1375 141.771198 
L 106.845 141.771198 
L 106.845 136.498884 
L 101.1375 136.498884 
L 101.1375 141.771198 
" clip-path="url(#pb7c9c12fa7)" style="fill: #aabae1"/>
    <path d="M 106.845 141.771198 
L 112.5525 141.771198 
L 112.5525 136.498884 
L 106.845 136.498884 
L 106.845 141.771198 
" clip-path="url(#pb7c9c12fa7)" style="fill: #97aee0"/>
    <path d="M 112.5525 141.771198 
L 118.26 141.771198 
L 118.26 136.498884 
L 112.5525 136.498884 
L 112.5525 141.771198 
" clip-path="url(#pb7c9c12fa7)" style="fill: #87a4de"/>
    <path d="M 118.26 141.771198 
L 123.9675 141.771198 
L 123.9675 136.498884 
L 118.26 136.498884 
L 118.26 141.771198 
" clip-path="url(#pb7c9c12fa7)" style="fill: #91aadf"/>
    <path d="M 123.9675 141.771198 
L 129.675 141.771198 
L 129.675 136.498884 
L 123.9675 136.498884 
L 123.9675 141.771198 
" clip-path="url(#pb7c9c12fa7)" style="fill: #8aa6df"/>
    <path d="M 129.675 141.771198 
L 135.3825 141.771198 
L 135.3825 136.498884 
L 129.675 136.498884 
L 129.675 141.771198 
" clip-path="url(#pb7c9c12fa7)" style="fill: #7a9cdd"/>
    <path d="M 135.3825 141.771198 
L 141.09 141.771198 
L 141.09 136.498884 
L 135.3825 136.498884 
L 135.3825 141.771198 
" clip-path="url(#pb7c9c12fa7)" style="fill: #7096db"/>
    <path d="M 141.09 141.771198 
L 146.7975 141.771198 
L 146.7975 136.498884 
L 141.09 136.498884 
L 141.09 141.771198 
" clip-path="url(#pb7c9c12fa7)" style="fill: #5d88d0"/>
    <path d="M 146.7975 141.771198 
L 152.505 141.771198 
L 152.505 136.498884 
L 146.7975 136.498884 
L 146.7975 141.771198 
" clip-path="url(#pb7c9c12fa7)" style="fill: #6590d9"/>
    <path d="M 152.505 141.771198 
L 158.2125 141.771198 
L 158.2125 136.498884 
L 152.505 136.498884 
L 152.505 141.771198 
" clip-path="url(#pb7c9c12fa7)" style="fill: #5e8ad3"/>
    <path d="M 158.2125 141.771198 
L 163.92 141.771198 
L 163.92 136.498884 
L 158.2125 136.498884 
L 158.2125 141.771198 
" clip-path="url(#pb7c9c12fa7)" style="fill: #84a2de"/>
    <path d="M 163.92 141.771198 
L 169.6275 141.771198 
L 169.6275 136.498884 
L 163.92 136.498884 
L 163.92 141.771198 
" clip-path="url(#pb7c9c12fa7)" style="fill: #91aadf"/>
    <path d="M 55.4775 136.498884 
L 61.185 136.498884 
L 61.185 131.22657 
L 55.4775 131.22657 
L 55.4775 136.498884 
" clip-path="url(#pb7c9c12fa7)" style="fill: #91aadf"/>
    <path d="M 61.185 136.498884 
L 66.8925 136.498884 
L 66.8925 131.22657 
L 61.185 131.22657 
L 61.185 136.498884 
" clip-path="url(#pb7c9c12fa7)" style="fill: #8da8df"/>
    <path d="M 66.8925 136.498884 
L 72.6 136.498884 
L 72.6 131.22657 
L 66.8925 131.22657 
L 66.8925 136.498884 
" clip-path="url(#pb7c9c12fa7)" style="fill: #628ed8"/>
    <path d="M 72.6 136.498884 
L 78.3075 136.498884 
L 78.3075 131.22657 
L 72.6 131.22657 
L 72.6 136.498884 
" clip-path="url(#pb7c9c12fa7)" style="fill: #6590d9"/>
    <path d="M 78.3075 136.498884 
L 84.015 136.498884 
L 84.015 131.22657 
L 78.3075 131.22657 
L 78.3075 136.498884 
" clip-path="url(#pb7c9c12fa7)" style="fill: #7d9edd"/>
    <path d="M 84.015 136.498884 
L 89.7225 136.498884 
L 89.7225 131.22657 
L 84.015 131.22657 
L 84.015 136.498884 
" clip-path="url(#pb7c9c12fa7)" style="fill: #91aadf"/>
    <path d="M 89.7225 136.498884 
L 95.43 136.498884 
L 95.43 131.22657 
L 89.7225 131.22657 
L 89.7225 136.498884 
" clip-path="url(#pb7c9c12fa7)" style="fill: #7d9edd"/>
    <path d="M 95.43 136.498884 
L 101.1375 136.498884 
L 101.1375 131.22657 
L 95.43 131.22657 
L 95.43 136.498884 
" clip-path="url(#pb7c9c12fa7)" style="fill: #84a2de"/>
    <path d="M 101.1375 136.498884 
L 106.845 136.498884 
L 106.845 131.22657 
L 101.1375 131.22657 
L 101.1375 136.498884 
" clip-path="url(#pb7c9c12fa7)" style="fill: #87a4de"/>
    <path d="M 106.845 136.498884 
L 112.5525 136.498884 
L 112.5525 131.22657 
L 106.845 131.22657 
L 106.845 136.498884 
" clip-path="url(#pb7c9c12fa7)" style="fill: #9ab0e0"/>
    <path d="M 112.5525 136.498884 
L 118.26 136.498884 
L 118.26 131.22657 
L 112.5525 131.22657 
L 112.5525 136.498884 
" clip-path="url(#pb7c9c12fa7)" style="fill: #9db2e0"/>
    <path d="M 118.26 136.498884 
L 123.9675 136.498884 
L 123.9675 131.22657 
L 118.26 131.22657 
L 118.26 136.498884 
" clip-path="url(#pb7c9c12fa7)" style="fill: #97aee0"/>
    <path d="M 123.9675 136.498884 
L 129.675 136.498884 
L 129.675 131.22657 
L 123.9675 131.22657 
L 123.9675 136.498884 
" clip-path="url(#pb7c9c12fa7)" style="fill: #8aa6df"/>
    <path d="M 129.675 136.498884 
L 135.3825 136.498884 
L 135.3825 131.22657 
L 129.675 131.22657 
L 129.675 136.498884 
" clip-path="url(#pb7c9c12fa7)" style="fill: #7a9cdd"/>
    <path d="M 135.3825 136.498884 
L 141.09 136.498884 
L 141.09 131.22657 
L 135.3825 131.22657 
L 135.3825 136.498884 
" clip-path="url(#pb7c9c12fa7)" style="fill: #87a4de"/>
    <path d="M 141.09 136.498884 
L 146.7975 136.498884 
L 146.7975 131.22657 
L 141.09 131.22657 
L 141.09 136.498884 
" clip-path="url(#pb7c9c12fa7)" style="fill: #80a0de"/>
    <path d="M 146.7975 136.498884 
L 152.505 136.498884 
L 152.505 131.22657 
L 146.7975 131.22657 
L 146.7975 136.498884 
" clip-path="url(#pb7c9c12fa7)" style="fill: #5a83c6"/>
    <path d="M 152.505 136.498884 
L 158.2125 136.498884 
L 158.2125 131.22657 
L 152.505 131.22657 
L 152.505 136.498884 
" clip-path="url(#pb7c9c12fa7)" style="fill: #6c94da"/>
    <path d="M 158.2125 136.498884 
L 163.92 136.498884 
L 163.92 131.22657 
L 158.2125 131.22657 
L 158.2125 136.498884 
" clip-path="url(#pb7c9c12fa7)" style="fill: #7398dc"/>
    <path d="M 163.92 136.498884 
L 169.6275 136.498884 
L 169.6275 131.22657 
L 163.92 131.22657 
L 163.92 136.498884 
" clip-path="url(#pb7c9c12fa7)" style="fill: #87a4de"/>
    <path d="M 55.4775 131.22657 
L 61.185 131.22657 
L 61.185 125.954256 
L 55.4775 125.954256 
L 55.4775 131.22657 
" clip-path="url(#pb7c9c12fa7)" style="fill: #84a2de"/>
    <path d="M 61.185 131.22657 
L 66.8925 131.22657 
L 66.8925 125.954256 
L 61.185 125.954256 
L 61.185 131.22657 
" clip-path="url(#pb7c9c12fa7)" style="fill: #8aa6df"/>
    <path d="M 66.8925 131.22657 
L 72.6 131.22657 
L 72.6 125.954256 
L 66.8925 125.954256 
L 66.8925 131.22657 
" clip-path="url(#pb7c9c12fa7)" style="fill: #7398dc"/>
    <path d="M 72.6 131.22657 
L 78.3075 131.22657 
L 78.3075 125.954256 
L 72.6 125.954256 
L 72.6 131.22657 
" clip-path="url(#pb7c9c12fa7)" style="fill: #5a83c6"/>
    <path d="M 78.3075 131.22657 
L 84.015 131.22657 
L 84.015 125.954256 
L 78.3075 125.954256 
L 78.3075 131.22657 
" clip-path="url(#pb7c9c12fa7)" style="fill: #80a0de"/>
    <path d="M 84.015 131.22657 
L 89.7225 131.22657 
L 89.7225 125.954256 
L 84.015 125.954256 
L 84.015 131.22657 
" clip-path="url(#pb7c9c12fa7)" style="fill: #7d9edd"/>
    <path d="M 89.7225 131.22657 
L 95.43 131.22657 
L 95.43 125.954256 
L 89.7225 125.954256 
L 89.7225 131.22657 
" clip-path="url(#pb7c9c12fa7)" style="fill: #7096db"/>
    <path d="M 95.43 131.22657 
L 101.1375 131.22657 
L 101.1375 125.954256 
L 95.43 125.954256 
L 95.43 131.22657 
" clip-path="url(#pb7c9c12fa7)" style="fill: #87a4de"/>
    <path d="M 101.1375 131.22657 
L 106.845 131.22657 
L 106.845 125.954256 
L 101.1375 125.954256 
L 101.1375 131.22657 
" clip-path="url(#pb7c9c12fa7)" style="fill: #8da8df"/>
    <path d="M 106.845 131.22657 
L 112.5525 131.22657 
L 112.5525 125.954256 
L 106.845 125.954256 
L 106.845 131.22657 
" clip-path="url(#pb7c9c12fa7)" style="fill: #9ab0e0"/>
    <path d="M 112.5525 131.22657 
L 118.26 131.22657 
L 118.26 125.954256 
L 112.5525 125.954256 
L 112.5525 131.22657 
" clip-path="url(#pb7c9c12fa7)" style="fill: #8da8df"/>
    <path d="M 118.26 131.22657 
L 123.9675 131.22657 
L 123.9675 125.954256 
L 118.26 125.954256 
L 118.26 131.22657 
" clip-path="url(#pb7c9c12fa7)" style="fill: #9ab0e0"/>
    <path d="M 123.9675 131.22657 
L 129.675 131.22657 
L 129.675 125.954256 
L 123.9675 125.954256 
L 123.9675 131.22657 
" clip-path="url(#pb7c9c12fa7)" style="fill: #94acdf"/>
    <path d="M 129.675 131.22657 
L 135.3825 131.22657 
L 135.3825 125.954256 
L 129.675 125.954256 
L 129.675 131.22657 
" clip-path="url(#pb7c9c12fa7)" style="fill: #6c94da"/>
    <path d="M 135.3825 131.22657 
L 141.09 131.22657 
L 141.09 125.954256 
L 135.3825 125.954256 
L 135.3825 131.22657 
" clip-path="url(#pb7c9c12fa7)" style="fill: #97aee0"/>
    <path d="M 141.09 131.22657 
L 146.7975 131.22657 
L 146.7975 125.954256 
L 141.09 125.954256 
L 141.09 131.22657 
" clip-path="url(#pb7c9c12fa7)" style="fill: #6590d9"/>
    <path d="M 146.7975 131.22657 
L 152.505 131.22657 
L 152.505 125.954256 
L 146.7975 125.954256 
L 146.7975 131.22657 
" clip-path="url(#pb7c9c12fa7)" style="fill: #5981c3"/>
    <path d="M 152.505 131.22657 
L 158.2125 131.22657 
L 158.2125 125.954256 
L 152.505 125.954256 
L 152.505 131.22657 
" clip-path="url(#pb7c9c12fa7)" style="fill: #80a0de"/>
    <path d="M 158.2125 131.22657 
L 163.92 131.22657 
L 163.92 125.954256 
L 158.2125 125.954256 
L 158.2125 131.22657 
" clip-path="url(#pb7c9c12fa7)" style="fill: #8aa6df"/>
    <path d="M 163.92 131.22657 
L 169.6275 131.22657 
L 169.6275 125.954256 
L 163.92 125.954256 
L 163.92 131.22657 
" clip-path="url(#pb7c9c12fa7)" style="fill: #8da8df"/>
    <path d="M 55.4775 125.954256 
L 61.185 125.954256 
L 61.185 120.681942 
L 55.4775 120.681942 
L 55.4775 125.954256 
" clip-path="url(#pb7c9c12fa7)" style="fill: #9db2e0"/>
    <path d="M 61.185 125.954256 
L 66.8925 125.954256 
L 66.8925 120.681942 
L 61.185 120.681942 
L 61.185 125.954256 
" clip-path="url(#pb7c9c12fa7)" style="fill: #7a9cdd"/>
    <path d="M 66.8925 125.954256 
L 72.6 125.954256 
L 72.6 120.681942 
L 66.8925 120.681942 
L 66.8925 125.954256 
" clip-path="url(#pb7c9c12fa7)" style="fill: #7096db"/>
    <path d="M 72.6 125.954256 
L 78.3075 125.954256 
L 78.3075 120.681942 
L 72.6 120.681942 
L 72.6 125.954256 
" clip-path="url(#pb7c9c12fa7)" style="fill: #516c9d"/>
    <path d="M 78.3075 125.954256 
L 84.015 125.954256 
L 84.015 120.681942 
L 78.3075 120.681942 
L 78.3075 125.954256 
" clip-path="url(#pb7c9c12fa7)" style="fill: #5679b6"/>
    <path d="M 84.015 125.954256 
L 89.7225 125.954256 
L 89.7225 120.681942 
L 84.015 120.681942 
L 84.015 125.954256 
" clip-path="url(#pb7c9c12fa7)" style="fill: #5f8dd7"/>
    <path d="M 89.7225 125.954256 
L 95.43 125.954256 
L 95.43 120.681942 
L 89.7225 120.681942 
L 89.7225 125.954256 
" clip-path="url(#pb7c9c12fa7)" style="fill: #5f8dd7"/>
    <path d="M 95.43 125.954256 
L 101.1375 125.954256 
L 101.1375 120.681942 
L 95.43 120.681942 
L 95.43 125.954256 
" clip-path="url(#pb7c9c12fa7)" style="fill: #628ed8"/>
    <path d="M 101.1375 125.954256 
L 106.845 125.954256 
L 106.845 120.681942 
L 101.1375 120.681942 
L 101.1375 125.954256 
" clip-path="url(#pb7c9c12fa7)" style="fill: #80a0de"/>
    <path d="M 106.845 125.954256 
L 112.5525 125.954256 
L 112.5525 120.681942 
L 106.845 120.681942 
L 106.845 125.954256 
" clip-path="url(#pb7c9c12fa7)" style="fill: #8aa6df"/>
    <path d="M 112.5525 125.954256 
L 118.26 125.954256 
L 118.26 120.681942 
L 112.5525 120.681942 
L 112.5525 125.954256 
" clip-path="url(#pb7c9c12fa7)" style="fill: #8da8df"/>
    <path d="M 118.26 125.954256 
L 123.9675 125.954256 
L 123.9675 120.681942 
L 118.26 120.681942 
L 118.26 125.954256 
" clip-path="url(#pb7c9c12fa7)" style="fill: #84a2de"/>
    <path d="M 123.9675 125.954256 
L 129.675 125.954256 
L 129.675 120.681942 
L 123.9675 120.681942 
L 123.9675 125.954256 
" clip-path="url(#pb7c9c12fa7)" style="fill: #5d88d0"/>
    <path d="M 129.675 125.954256 
L 135.3825 125.954256 
L 135.3825 120.681942 
L 129.675 120.681942 
L 129.675 125.954256 
" clip-path="url(#pb7c9c12fa7)" style="fill: #628ed8"/>
    <path d="M 135.3825 125.954256 
L 141.09 125.954256 
L 141.09 120.681942 
L 135.3825 120.681942 
L 135.3825 125.954256 
" clip-path="url(#pb7c9c12fa7)" style="fill: #5c87cd"/>
    <path d="M 141.09 125.954256 
L 146.7975 125.954256 
L 146.7975 120.681942 
L 141.09 120.681942 
L 141.09 125.954256 
" clip-path="url(#pb7c9c12fa7)" style="fill: #5981c3"/>
    <path d="M 146.7975 125.954256 
L 152.505 125.954256 
L 152.505 120.681942 
L 146.7975 120.681942 
L 146.7975 125.954256 
" clip-path="url(#pb7c9c12fa7)" style="fill: #5981c3"/>
    <path d="M 152.505 125.954256 
L 158.2125 125.954256 
L 158.2125 120.681942 
L 152.505 120.681942 
L 152.505 125.954256 
" clip-path="url(#pb7c9c12fa7)" style="fill: #5f8dd7"/>
    <path d="M 158.2125 125.954256 
L 163.92 125.954256 
L 163.92 120.681942 
L 158.2125 120.681942 
L 158.2125 125.954256 
" clip-path="url(#pb7c9c12fa7)" style="fill: #8aa6df"/>
    <path d="M 163.92 125.954256 
L 169.6275 125.954256 
L 169.6275 120.681942 
L 163.92 120.681942 
L 163.92 125.954256 
" clip-path="url(#pb7c9c12fa7)" style="fill: #9db2e0"/>
    <path d="M 55.4775 120.681942 
L 61.185 120.681942 
L 61.185 115.409628 
L 55.4775 115.409628 
L 55.4775 120.681942 
" clip-path="url(#pb7c9c12fa7)" style="fill: #8da8df"/>
    <path d="M 61.185 120.681942 
L 66.8925 120.681942 
L 66.8925 115.409628 
L 61.185 115.409628 
L 61.185 120.681942 
" clip-path="url(#pb7c9c12fa7)" style="fill: #87a4de"/>
    <path d="M 66.8925 120.681942 
L 72.6 120.681942 
L 72.6 115.409628 
L 66.8925 115.409628 
L 66.8925 120.681942 
" clip-path="url(#pb7c9c12fa7)" style="fill: #7a9cdd"/>
    <path d="M 72.6 120.681942 
L 78.3075 120.681942 
L 78.3075 115.409628 
L 72.6 115.409628 
L 72.6 120.681942 
" clip-path="url(#pb7c9c12fa7)" style="fill: #5475af"/>
    <path d="M 78.3075 120.681942 
L 84.015 120.681942 
L 84.015 115.409628 
L 78.3075 115.409628 
L 78.3075 120.681942 
" clip-path="url(#pb7c9c12fa7)" style="fill: #46526c"/>
    <path d="M 84.015 120.681942 
L 89.7225 120.681942 
L 89.7225 115.409628 
L 84.015 115.409628 
L 84.015 120.681942 
" clip-path="url(#pb7c9c12fa7)" style="fill: #6993da"/>
    <path d="M 89.7225 120.681942 
L 95.43 120.681942 
L 95.43 115.409628 
L 89.7225 115.409628 
L 89.7225 120.681942 
" clip-path="url(#pb7c9c12fa7)" style="fill: #5577b2"/>
    <path d="M 95.43 120.681942 
L 101.1375 120.681942 
L 101.1375 115.409628 
L 95.43 115.409628 
L 95.43 120.681942 
" clip-path="url(#pb7c9c12fa7)" style="fill: #5577b2"/>
    <path d="M 101.1375 120.681942 
L 106.845 120.681942 
L 106.845 115.409628 
L 101.1375 115.409628 
L 101.1375 120.681942 
" clip-path="url(#pb7c9c12fa7)" style="fill: #7a9cdd"/>
    <path d="M 106.845 120.681942 
L 112.5525 120.681942 
L 112.5525 115.409628 
L 106.845 115.409628 
L 106.845 120.681942 
" clip-path="url(#pb7c9c12fa7)" style="fill: #628ed8"/>
    <path d="M 112.5525 120.681942 
L 118.26 120.681942 
L 118.26 115.409628 
L 112.5525 115.409628 
L 112.5525 120.681942 
" clip-path="url(#pb7c9c12fa7)" style="fill: #87a4de"/>
    <path d="M 118.26 120.681942 
L 123.9675 120.681942 
L 123.9675 115.409628 
L 118.26 115.409628 
L 118.26 120.681942 
" clip-path="url(#pb7c9c12fa7)" style="fill: #5d88d0"/>
    <path d="M 123.9675 120.681942 
L 129.675 120.681942 
L 129.675 115.409628 
L 123.9675 115.409628 
L 123.9675 120.681942 
" clip-path="url(#pb7c9c12fa7)" style="fill: #6993da"/>
    <path d="M 129.675 120.681942 
L 135.3825 120.681942 
L 135.3825 115.409628 
L 129.675 115.409628 
L 129.675 120.681942 
" clip-path="url(#pb7c9c12fa7)" style="fill: #5d88d0"/>
    <path d="M 135.3825 120.681942 
L 141.09 120.681942 
L 141.09 115.409628 
L 135.3825 115.409628 
L 135.3825 120.681942 
" clip-path="url(#pb7c9c12fa7)" style="fill: #567bb9"/>
    <path d="M 141.09 120.681942 
L 146.7975 120.681942 
L 146.7975 115.409628 
L 141.09 115.409628 
L 141.09 120.681942 
" clip-path="url(#pb7c9c12fa7)" style="fill: #4c5f84"/>
    <path d="M 146.7975 120.681942 
L 152.505 120.681942 
L 152.505 115.409628 
L 146.7975 115.409628 
L 146.7975 120.681942 
" clip-path="url(#pb7c9c12fa7)" style="fill: #5371a8"/>
    <path d="M 152.505 120.681942 
L 158.2125 120.681942 
L 158.2125 115.409628 
L 152.505 115.409628 
L 152.505 120.681942 
" clip-path="url(#pb7c9c12fa7)" style="fill: #5f8dd7"/>
    <path d="M 158.2125 120.681942 
L 163.92 120.681942 
L 163.92 115.409628 
L 158.2125 115.409628 
L 158.2125 120.681942 
" clip-path="url(#pb7c9c12fa7)" style="fill: #84a2de"/>
    <path d="M 163.92 120.681942 
L 169.6275 120.681942 
L 169.6275 115.409628 
L 163.92 115.409628 
L 163.92 120.681942 
" clip-path="url(#pb7c9c12fa7)" style="fill: #80a0de"/>
    <path d="M 55.4775 115.409628 
L 61.185 115.409628 
L 61.185 110.137314 
L 55.4775 110.137314 
L 55.4775 115.409628 
" clip-path="url(#pb7c9c12fa7)" style="fill: #94acdf"/>
    <path d="M 61.185 115.409628 
L 66.8925 115.409628 
L 66.8925 110.137314 
L 61.185 110.137314 
L 61.185 115.409628 
" clip-path="url(#pb7c9c12fa7)" style="fill: #779adc"/>
    <path d="M 66.8925 115.409628 
L 72.6 115.409628 
L 72.6 110.137314 
L 66.8925 110.137314 
L 66.8925 115.409628 
" clip-path="url(#pb7c9c12fa7)" style="fill: #5577b2"/>
    <path d="M 72.6 115.409628 
L 78.3075 115.409628 
L 78.3075 110.137314 
L 72.6 110.137314 
L 72.6 115.409628 
" clip-path="url(#pb7c9c12fa7)" style="fill: #5b85ca"/>
    <path d="M 78.3075 115.409628 
L 84.015 115.409628 
L 84.015 110.137314 
L 78.3075 110.137314 
L 78.3075 115.409628 
" clip-path="url(#pb7c9c12fa7)" style="fill: #5d88d0"/>
    <path d="M 84.015 115.409628 
L 89.7225 115.409628 
L 89.7225 110.137314 
L 84.015 110.137314 
L 84.015 115.409628 
" clip-path="url(#pb7c9c12fa7)" style="fill: #779adc"/>
    <path d="M 89.7225 115.409628 
L 95.43 115.409628 
L 95.43 110.137314 
L 89.7225 110.137314 
L 89.7225 115.409628 
" clip-path="url(#pb7c9c12fa7)" style="fill: #8aa6df"/>
    <path d="M 95.43 115.409628 
L 101.1375 115.409628 
L 101.1375 110.137314 
L 95.43 110.137314 
L 95.43 115.409628 
" clip-path="url(#pb7c9c12fa7)" style="fill: #8da8df"/>
    <path d="M 101.1375 115.409628 
L 106.845 115.409628 
L 106.845 110.137314 
L 101.1375 110.137314 
L 101.1375 115.409628 
" clip-path="url(#pb7c9c12fa7)" style="fill: #9db2e0"/>
    <path d="M 106.845 115.409628 
L 112.5525 115.409628 
L 112.5525 110.137314 
L 106.845 110.137314 
L 106.845 115.409628 
" clip-path="url(#pb7c9c12fa7)" style="fill: #84a2de"/>
    <path d="M 112.5525 115.409628 
L 118.26 115.409628 
L 118.26 110.137314 
L 112.5525 110.137314 
L 112.5525 115.409628 
" clip-path="url(#pb7c9c12fa7)" style="fill: #94acdf"/>
    <path d="M 118.26 115.409628 
L 123.9675 115.409628 
L 123.9675 110.137314 
L 118.26 110.137314 
L 118.26 115.409628 
" clip-path="url(#pb7c9c12fa7)" style="fill: #97aee0"/>
    <path d="M 123.9675 115.409628 
L 129.675 115.409628 
L 129.675 110.137314 
L 123.9675 110.137314 
L 123.9675 115.409628 
" clip-path="url(#pb7c9c12fa7)" style="fill: #7d9edd"/>
    <path d="M 129.675 115.409628 
L 135.3825 115.409628 
L 135.3825 110.137314 
L 129.675 110.137314 
L 129.675 115.409628 
" clip-path="url(#pb7c9c12fa7)" style="fill: #7d9edd"/>
    <path d="M 135.3825 115.409628 
L 141.09 115.409628 
L 141.09 110.137314 
L 135.3825 110.137314 
L 135.3825 115.409628 
" clip-path="url(#pb7c9c12fa7)" style="fill: #7096db"/>
    <path d="M 141.09 115.409628 
L 146.7975 115.409628 
L 146.7975 110.137314 
L 141.09 110.137314 
L 141.09 115.409628 
" clip-path="url(#pb7c9c12fa7)" style="fill: #628ed8"/>
    <path d="M 146.7975 115.409628 
L 152.505 115.409628 
L 152.505 110.137314 
L 146.7975 110.137314 
L 146.7975 115.409628 
" clip-path="url(#pb7c9c12fa7)" style="fill: #6590d9"/>
    <path d="M 152.505 115.409628 
L 158.2125 115.409628 
L 158.2125 110.137314 
L 152.505 110.137314 
L 152.505 115.409628 
" clip-path="url(#pb7c9c12fa7)" style="fill: #8aa6df"/>
    <path d="M 158.2125 115.409628 
L 163.92 115.409628 
L 163.92 110.137314 
L 158.2125 110.137314 
L 158.2125 115.409628 
" clip-path="url(#pb7c9c12fa7)" style="fill: #8da8df"/>
    <path d="M 163.92 115.409628 
L 169.6275 115.409628 
L 169.6275 110.137314 
L 163.92 110.137314 
L 163.92 115.409628 
" clip-path="url(#pb7c9c12fa7)" style="fill: #8aa6df"/>
    <path d="M 55.4775 110.137314 
L 61.185 110.137314 
L 61.185 104.865 
L 55.4775 104.865 
L 55.4775 110.137314 
" clip-path="url(#pb7c9c12fa7)" style="fill: #87a4de"/>
    <path d="M 61.185 110.137314 
L 66.8925 110.137314 
L 66.8925 104.865 
L 61.185 104.865 
L 61.185 110.137314 
" clip-path="url(#pb7c9c12fa7)" style="fill: #7a9cdd"/>
    <path d="M 66.8925 110.137314 
L 72.6 110.137314 
L 72.6 104.865 
L 66.8925 104.865 
L 66.8925 110.137314 
" clip-path="url(#pb7c9c12fa7)" style="fill: #7096db"/>
    <path d="M 72.6 110.137314 
L 78.3075 110.137314 
L 78.3075 104.865 
L 72.6 104.865 
L 72.6 110.137314 
" clip-path="url(#pb7c9c12fa7)" style="fill: #6c94da"/>
    <path d="M 78.3075 110.137314 
L 84.015 110.137314 
L 84.015 104.865 
L 78.3075 104.865 
L 78.3075 110.137314 
" clip-path="url(#pb7c9c12fa7)" style="fill: #9ab0e0"/>
    <path d="M 84.015 110.137314 
L 89.7225 110.137314 
L 89.7225 104.865 
L 84.015 104.865 
L 84.015 110.137314 
" clip-path="url(#pb7c9c12fa7)" style="fill: #91aadf"/>
    <path d="M 89.7225 110.137314 
L 95.43 110.137314 
L 95.43 104.865 
L 89.7225 104.865 
L 89.7225 110.137314 
" clip-path="url(#pb7c9c12fa7)" style="fill: #94acdf"/>
    <path d="M 95.43 110.137314 
L 101.1375 110.137314 
L 101.1375 104.865 
L 95.43 104.865 
L 95.43 110.137314 
" clip-path="url(#pb7c9c12fa7)" style="fill: #a3b6e0"/>
    <path d="M 101.1375 110.137314 
L 106.845 110.137314 
L 106.845 104.865 
L 101.1375 104.865 
L 101.1375 110.137314 
" clip-path="url(#pb7c9c12fa7)" style="fill: #a0b4e0"/>
    <path d="M 106.845 110.137314 
L 112.5525 110.137314 
L 112.5525 104.865 
L 106.845 104.865 
L 106.845 110.137314 
" clip-path="url(#pb7c9c12fa7)" style="fill: #9ab0e0"/>
    <path d="M 112.5525 110.137314 
L 118.26 110.137314 
L 118.26 104.865 
L 112.5525 104.865 
L 112.5525 110.137314 
" clip-path="url(#pb7c9c12fa7)" style="fill: #aabae1"/>
    <path d="M 118.26 110.137314 
L 123.9675 110.137314 
L 123.9675 104.865 
L 118.26 104.865 
L 118.26 110.137314 
" clip-path="url(#pb7c9c12fa7)" style="fill: #91aadf"/>
    <path d="M 123.9675 110.137314 
L 129.675 110.137314 
L 129.675 104.865 
L 123.9675 104.865 
L 123.9675 110.137314 
" clip-path="url(#pb7c9c12fa7)" style="fill: #97aee0"/>
    <path d="M 129.675 110.137314 
L 135.3825 110.137314 
L 135.3825 104.865 
L 129.675 104.865 
L 129.675 110.137314 
" clip-path="url(#pb7c9c12fa7)" style="fill: #6c94da"/>
    <path d="M 135.3825 110.137314 
L 141.09 110.137314 
L 141.09 104.865 
L 135.3825 104.865 
L 135.3825 110.137314 
" clip-path="url(#pb7c9c12fa7)" style="fill: #7096db"/>
    <path d="M 141.09 110.137314 
L 146.7975 110.137314 
L 146.7975 104.865 
L 141.09 104.865 
L 141.09 110.137314 
" clip-path="url(#pb7c9c12fa7)" style="fill: #7096db"/>
    <path d="M 146.7975 110.137314 
L 152.505 110.137314 
L 152.505 104.865 
L 146.7975 104.865 
L 146.7975 110.137314 
" clip-path="url(#pb7c9c12fa7)" style="fill: #628ed8"/>
    <path d="M 152.505 110.137314 
L 158.2125 110.137314 
L 158.2125 104.865 
L 152.505 104.865 
L 152.505 110.137314 
" clip-path="url(#pb7c9c12fa7)" style="fill: #628ed8"/>
    <path d="M 158.2125 110.137314 
L 163.92 110.137314 
L 163.92 104.865 
L 158.2125 104.865 
L 158.2125 110.137314 
" clip-path="url(#pb7c9c12fa7)" style="fill: #6590d9"/>
    <path d="M 163.92 110.137314 
L 169.6275 110.137314 
L 169.6275 104.865 
L 163.92 104.865 
L 163.92 110.137314 
" clip-path="url(#pb7c9c12fa7)" style="fill: #91aadf"/>
    <path d="M 55.4775 104.865 
L 61.185 104.865 
L 61.185 99.592686 
L 55.4775 99.592686 
L 55.4775 104.865 
" clip-path="url(#pb7c9c12fa7)" style="fill: #8aa6df"/>
    <path d="M 61.185 104.865 
L 66.8925 104.865 
L 66.8925 99.592686 
L 61.185 99.592686 
L 61.185 104.865 
" clip-path="url(#pb7c9c12fa7)" style="fill: #87a4de"/>
    <path d="M 66.8925 104.865 
L 72.6 104.865 
L 72.6 99.592686 
L 66.8925 99.592686 
L 66.8925 104.865 
" clip-path="url(#pb7c9c12fa7)" style="fill: #5475af"/>
    <path d="M 72.6 104.865 
L 78.3075 104.865 
L 78.3075 99.592686 
L 72.6 99.592686 
L 72.6 104.865 
" clip-path="url(#pb7c9c12fa7)" style="fill: #5d88d0"/>
    <path d="M 78.3075 104.865 
L 84.015 104.865 
L 84.015 99.592686 
L 78.3075 99.592686 
L 78.3075 104.865 
" clip-path="url(#pb7c9c12fa7)" style="fill: #7a9cdd"/>
    <path d="M 84.015 104.865 
L 89.7225 104.865 
L 89.7225 99.592686 
L 84.015 99.592686 
L 84.015 104.865 
" clip-path="url(#pb7c9c12fa7)" style="fill: #779adc"/>
    <path d="M 89.7225 104.865 
L 95.43 104.865 
L 95.43 99.592686 
L 89.7225 99.592686 
L 89.7225 104.865 
" clip-path="url(#pb7c9c12fa7)" style="fill: #779adc"/>
    <path d="M 95.43 104.865 
L 101.1375 104.865 
L 101.1375 99.592686 
L 95.43 99.592686 
L 95.43 104.865 
" clip-path="url(#pb7c9c12fa7)" style="fill: #8da8df"/>
    <path d="M 101.1375 104.865 
L 106.845 104.865 
L 106.845 99.592686 
L 101.1375 99.592686 
L 101.1375 104.865 
" clip-path="url(#pb7c9c12fa7)" style="fill: #94acdf"/>
    <path d="M 106.845 104.865 
L 112.5525 104.865 
L 112.5525 99.592686 
L 106.845 99.592686 
L 106.845 104.865 
" clip-path="url(#pb7c9c12fa7)" style="fill: #97aee0"/>
    <path d="M 112.5525 104.865 
L 118.26 104.865 
L 118.26 99.592686 
L 112.5525 99.592686 
L 112.5525 104.865 
" clip-path="url(#pb7c9c12fa7)" style="fill: #84a2de"/>
    <path d="M 118.26 104.865 
L 123.9675 104.865 
L 123.9675 99.592686 
L 118.26 99.592686 
L 118.26 104.865 
" clip-path="url(#pb7c9c12fa7)" style="fill: #91aadf"/>
    <path d="M 123.9675 104.865 
L 129.675 104.865 
L 129.675 99.592686 
L 123.9675 99.592686 
L 123.9675 104.865 
" clip-path="url(#pb7c9c12fa7)" style="fill: #84a2de"/>
    <path d="M 129.675 104.865 
L 135.3825 104.865 
L 135.3825 99.592686 
L 129.675 99.592686 
L 129.675 104.865 
" clip-path="url(#pb7c9c12fa7)" style="fill: #8aa6df"/>
    <path d="M 135.3825 104.865 
L 141.09 104.865 
L 141.09 99.592686 
L 135.3825 99.592686 
L 135.3825 104.865 
" clip-path="url(#pb7c9c12fa7)" style="fill: #94acdf"/>
    <path d="M 141.09 104.865 
L 146.7975 104.865 
L 146.7975 99.592686 
L 141.09 99.592686 
L 141.09 104.865 
" clip-path="url(#pb7c9c12fa7)" style="fill: #628ed8"/>
    <path d="M 146.7975 104.865 
L 152.505 104.865 
L 152.505 99.592686 
L 146.7975 99.592686 
L 146.7975 104.865 
" clip-path="url(#pb7c9c12fa7)" style="fill: #7398dc"/>
    <path d="M 152.505 104.865 
L 158.2125 104.865 
L 158.2125 99.592686 
L 152.505 99.592686 
L 152.505 104.865 
" clip-path="url(#pb7c9c12fa7)" style="fill: #7398dc"/>
    <path d="M 158.2125 104.865 
L 163.92 104.865 
L 163.92 99.592686 
L 158.2125 99.592686 
L 158.2125 104.865 
" clip-path="url(#pb7c9c12fa7)" style="fill: #6590d9"/>
    <path d="M 163.92 104.865 
L 169.6275 104.865 
L 169.6275 99.592686 
L 163.92 99.592686 
L 163.92 104.865 
" clip-path="url(#pb7c9c12fa7)" style="fill: #8aa6df"/>
    <path d="M 55.4775 99.592686 
L 61.185 99.592686 
L 61.185 94.320372 
L 55.4775 94.320372 
L 55.4775 99.592686 
" clip-path="url(#pb7c9c12fa7)" style="fill: #94acdf"/>
    <path d="M 61.185 99.592686 
L 66.8925 99.592686 
L 66.8925 94.320372 
L 61.185 94.320372 
L 61.185 99.592686 
" clip-path="url(#pb7c9c12fa7)" style="fill: #7096db"/>
    <path d="M 66.8925 99.592686 
L 72.6 99.592686 
L 72.6 94.320372 
L 66.8925 94.320372 
L 66.8925 99.592686 
" clip-path="url(#pb7c9c12fa7)" style="fill: #628ed8"/>
    <path d="M 72.6 99.592686 
L 78.3075 99.592686 
L 78.3075 94.320372 
L 72.6 94.320372 
L 72.6 99.592686 
" clip-path="url(#pb7c9c12fa7)" style="fill: #5e8ad3"/>
    <path d="M 78.3075 99.592686 
L 84.015 99.592686 
L 84.015 94.320372 
L 78.3075 94.320372 
L 78.3075 99.592686 
" clip-path="url(#pb7c9c12fa7)" style="fill: #7096db"/>
    <path d="M 84.015 99.592686 
L 89.7225 99.592686 
L 89.7225 94.320372 
L 84.015 94.320372 
L 84.015 99.592686 
" clip-path="url(#pb7c9c12fa7)" style="fill: #7096db"/>
    <path d="M 89.7225 99.592686 
L 95.43 99.592686 
L 95.43 94.320372 
L 89.7225 94.320372 
L 89.7225 99.592686 
" clip-path="url(#pb7c9c12fa7)" style="fill: #628ed8"/>
    <path d="M 95.43 99.592686 
L 101.1375 99.592686 
L 101.1375 94.320372 
L 95.43 94.320372 
L 95.43 99.592686 
" clip-path="url(#pb7c9c12fa7)" style="fill: #8da8df"/>
    <path d="M 101.1375 99.592686 
L 106.845 99.592686 
L 106.845 94.320372 
L 101.1375 94.320372 
L 101.1375 99.592686 
" clip-path="url(#pb7c9c12fa7)" style="fill: #8da8df"/>
    <path d="M 106.845 99.592686 
L 112.5525 99.592686 
L 112.5525 94.320372 
L 106.845 94.320372 
L 106.845 99.592686 
" clip-path="url(#pb7c9c12fa7)" style="fill: #87a4de"/>
    <path d="M 112.5525 99.592686 
L 118.26 99.592686 
L 118.26 94.320372 
L 112.5525 94.320372 
L 112.5525 99.592686 
" clip-path="url(#pb7c9c12fa7)" style="fill: #7d9edd"/>
    <path d="M 118.26 99.592686 
L 123.9675 99.592686 
L 123.9675 94.320372 
L 118.26 94.320372 
L 118.26 99.592686 
" clip-path="url(#pb7c9c12fa7)" style="fill: #97aee0"/>
    <path d="M 123.9675 99.592686 
L 129.675 99.592686 
L 129.675 94.320372 
L 123.9675 94.320372 
L 123.9675 99.592686 
" clip-path="url(#pb7c9c12fa7)" style="fill: #97aee0"/>
    <path d="M 129.675 99.592686 
L 135.3825 99.592686 
L 135.3825 94.320372 
L 129.675 94.320372 
L 129.675 99.592686 
" clip-path="url(#pb7c9c12fa7)" style="fill: #7a9cdd"/>
    <path d="M 135.3825 99.592686 
L 141.09 99.592686 
L 141.09 94.320372 
L 135.3825 94.320372 
L 135.3825 99.592686 
" clip-path="url(#pb7c9c12fa7)" style="fill: #7d9edd"/>
    <path d="M 141.09 99.592686 
L 146.7975 99.592686 
L 146.7975 94.320372 
L 141.09 94.320372 
L 141.09 99.592686 
" clip-path="url(#pb7c9c12fa7)" style="fill: #5c87cd"/>
    <path d="M 146.7975 99.592686 
L 152.505 99.592686 
L 152.505 94.320372 
L 146.7975 94.320372 
L 146.7975 99.592686 
" clip-path="url(#pb7c9c12fa7)" style="fill: #5b85ca"/>
    <path d="M 152.505 99.592686 
L 158.2125 99.592686 
L 158.2125 94.320372 
L 152.505 94.320372 
L 152.505 99.592686 
" clip-path="url(#pb7c9c12fa7)" style="fill: #5d88d0"/>
    <path d="M 158.2125 99.592686 
L 163.92 99.592686 
L 163.92 94.320372 
L 158.2125 94.320372 
L 158.2125 99.592686 
" clip-path="url(#pb7c9c12fa7)" style="fill: #84a2de"/>
    <path d="M 163.92 99.592686 
L 169.6275 99.592686 
L 169.6275 94.320372 
L 163.92 94.320372 
L 163.92 99.592686 
" clip-path="url(#pb7c9c12fa7)" style="fill: #94acdf"/>
    <path d="M 55.4775 94.320372 
L 61.185 94.320372 
L 61.185 89.048058 
L 55.4775 89.048058 
L 55.4775 94.320372 
" clip-path="url(#pb7c9c12fa7)" style="fill: #91aadf"/>
    <path d="M 61.185 94.320372 
L 66.8925 94.320372 
L 66.8925 89.048058 
L 61.185 89.048058 
L 61.185 94.320372 
" clip-path="url(#pb7c9c12fa7)" style="fill: #628ed8"/>
    <path d="M 66.8925 94.320372 
L 72.6 94.320372 
L 72.6 89.048058 
L 66.8925 89.048058 
L 66.8925 94.320372 
" clip-path="url(#pb7c9c12fa7)" style="fill: #7096db"/>
    <path d="M 72.6 94.320372 
L 78.3075 94.320372 
L 78.3075 89.048058 
L 72.6 89.048058 
L 72.6 94.320372 
" clip-path="url(#pb7c9c12fa7)" style="fill: #5373ab"/>
    <path d="M 78.3075 94.320372 
L 84.015 94.320372 
L 84.015 89.048058 
L 78.3075 89.048058 
L 78.3075 94.320372 
" clip-path="url(#pb7c9c12fa7)" style="fill: #4f6896"/>
    <path d="M 84.015 94.320372 
L 89.7225 94.320372 
L 89.7225 89.048058 
L 84.015 89.048058 
L 84.015 94.320372 
" clip-path="url(#pb7c9c12fa7)" style="fill: #567bb9"/>
    <path d="M 89.7225 94.320372 
L 95.43 94.320372 
L 95.43 89.048058 
L 89.7225 89.048058 
L 89.7225 94.320372 
" clip-path="url(#pb7c9c12fa7)" style="fill: #567bb9"/>
    <path d="M 95.43 94.320372 
L 101.1375 94.320372 
L 101.1375 89.048058 
L 95.43 89.048058 
L 95.43 94.320372 
" clip-path="url(#pb7c9c12fa7)" style="fill: #5577b2"/>
    <path d="M 101.1375 94.320372 
L 106.845 94.320372 
L 106.845 89.048058 
L 101.1375 89.048058 
L 101.1375 94.320372 
" clip-path="url(#pb7c9c12fa7)" style="fill: #6590d9"/>
    <path d="M 106.845 94.320372 
L 112.5525 94.320372 
L 112.5525 89.048058 
L 106.845 89.048058 
L 106.845 94.320372 
" clip-path="url(#pb7c9c12fa7)" style="fill: #7398dc"/>
    <path d="M 112.5525 94.320372 
L 118.26 94.320372 
L 118.26 89.048058 
L 112.5525 89.048058 
L 112.5525 94.320372 
" clip-path="url(#pb7c9c12fa7)" style="fill: #628ed8"/>
    <path d="M 118.26 94.320372 
L 123.9675 94.320372 
L 123.9675 89.048058 
L 118.26 89.048058 
L 118.26 94.320372 
" clip-path="url(#pb7c9c12fa7)" style="fill: #6c94da"/>
    <path d="M 123.9675 94.320372 
L 129.675 94.320372 
L 129.675 89.048058 
L 123.9675 89.048058 
L 123.9675 94.320372 
" clip-path="url(#pb7c9c12fa7)" style="fill: #5e8ad3"/>
    <path d="M 129.675 94.320372 
L 135.3825 94.320372 
L 135.3825 89.048058 
L 129.675 89.048058 
L 129.675 94.320372 
" clip-path="url(#pb7c9c12fa7)" style="fill: #5e8ad3"/>
    <path d="M 135.3825 94.320372 
L 141.09 94.320372 
L 141.09 89.048058 
L 135.3825 89.048058 
L 135.3825 94.320372 
" clip-path="url(#pb7c9c12fa7)" style="fill: #5a83c6"/>
    <path d="M 141.09 94.320372 
L 146.7975 94.320372 
L 146.7975 89.048058 
L 141.09 89.048058 
L 141.09 94.320372 
" clip-path="url(#pb7c9c12fa7)" style="fill: #5577b2"/>
    <path d="M 146.7975 94.320372 
L 152.505 94.320372 
L 152.505 89.048058 
L 146.7975 89.048058 
L 146.7975 94.320372 
" clip-path="url(#pb7c9c12fa7)" style="fill: #5371a8"/>
    <path d="M 152.505 94.320372 
L 158.2125 94.320372 
L 158.2125 89.048058 
L 152.505 89.048058 
L 152.505 94.320372 
" clip-path="url(#pb7c9c12fa7)" style="fill: #5d88d0"/>
    <path d="M 158.2125 94.320372 
L 163.92 94.320372 
L 163.92 89.048058 
L 158.2125 89.048058 
L 158.2125 94.320372 
" clip-path="url(#pb7c9c12fa7)" style="fill: #8da8df"/>
    <path d="M 163.92 94.320372 
L 169.6275 94.320372 
L 169.6275 89.048058 
L 163.92 89.048058 
L 163.92 94.320372 
" clip-path="url(#pb7c9c12fa7)" style="fill: #9db2e0"/>
    <path d="M 55.4775 89.048058 
L 61.185 89.048058 
L 61.185 83.775744 
L 55.4775 83.775744 
L 55.4775 89.048058 
" clip-path="url(#pb7c9c12fa7)" style="fill: #9db2e0"/>
    <path d="M 61.185 89.048058 
L 66.8925 89.048058 
L 66.8925 83.775744 
L 61.185 83.775744 
L 61.185 89.048058 
" clip-path="url(#pb7c9c12fa7)" style="fill: #87a4de"/>
    <path d="M 66.8925 89.048058 
L 72.6 89.048058 
L 72.6 83.775744 
L 66.8925 83.775744 
L 66.8925 89.048058 
" clip-path="url(#pb7c9c12fa7)" style="fill: #6993da"/>
    <path d="M 72.6 89.048058 
L 78.3075 89.048058 
L 78.3075 83.775744 
L 72.6 83.775744 
L 72.6 89.048058 
" clip-path="url(#pb7c9c12fa7)" style="fill: #587fc0"/>
    <path d="M 78.3075 89.048058 
L 84.015 89.048058 
L 84.015 83.775744 
L 78.3075 83.775744 
L 78.3075 89.048058 
" clip-path="url(#pb7c9c12fa7)" style="fill: #5e8ad3"/>
    <path d="M 84.015 89.048058 
L 89.7225 89.048058 
L 89.7225 83.775744 
L 84.015 83.775744 
L 84.015 89.048058 
" clip-path="url(#pb7c9c12fa7)" style="fill: #7096db"/>
    <path d="M 89.7225 89.048058 
L 95.43 89.048058 
L 95.43 83.775744 
L 89.7225 83.775744 
L 89.7225 89.048058 
" clip-path="url(#pb7c9c12fa7)" style="fill: #5a83c6"/>
    <path d="M 95.43 89.048058 
L 101.1375 89.048058 
L 101.1375 83.775744 
L 95.43 83.775744 
L 95.43 89.048058 
" clip-path="url(#pb7c9c12fa7)" style="fill: #84a2de"/>
    <path d="M 101.1375 89.048058 
L 106.845 89.048058 
L 106.845 83.775744 
L 101.1375 83.775744 
L 101.1375 89.048058 
" clip-path="url(#pb7c9c12fa7)" style="fill: #6c94da"/>
    <path d="M 106.845 89.048058 
L 112.5525 89.048058 
L 112.5525 83.775744 
L 106.845 83.775744 
L 106.845 89.048058 
" clip-path="url(#pb7c9c12fa7)" style="fill: #6993da"/>
    <path d="M 112.5525 89.048058 
L 118.26 89.048058 
L 118.26 83.775744 
L 112.5525 83.775744 
L 112.5525 89.048058 
" clip-path="url(#pb7c9c12fa7)" style="fill: #7096db"/>
    <path d="M 118.26 89.048058 
L 123.9675 89.048058 
L 123.9675 83.775744 
L 118.26 83.775744 
L 118.26 89.048058 
" clip-path="url(#pb7c9c12fa7)" style="fill: #779adc"/>
    <path d="M 123.9675 89.048058 
L 129.675 89.048058 
L 129.675 83.775744 
L 123.9675 83.775744 
L 123.9675 89.048058 
" clip-path="url(#pb7c9c12fa7)" style="fill: #7a9cdd"/>
    <path d="M 129.675 89.048058 
L 135.3825 89.048058 
L 135.3825 83.775744 
L 129.675 83.775744 
L 129.675 89.048058 
" clip-path="url(#pb7c9c12fa7)" style="fill: #7d9edd"/>
    <path d="M 135.3825 89.048058 
L 141.09 89.048058 
L 141.09 83.775744 
L 135.3825 83.775744 
L 135.3825 89.048058 
" clip-path="url(#pb7c9c12fa7)" style="fill: #5c87cd"/>
    <path d="M 141.09 89.048058 
L 146.7975 89.048058 
L 146.7975 83.775744 
L 141.09 83.775744 
L 141.09 89.048058 
" clip-path="url(#pb7c9c12fa7)" style="fill: #5b85ca"/>
    <path d="M 146.7975 89.048058 
L 152.505 89.048058 
L 152.505 83.775744 
L 146.7975 83.775744 
L 146.7975 89.048058 
" clip-path="url(#pb7c9c12fa7)" style="fill: #5373ab"/>
    <path d="M 152.505 89.048058 
L 158.2125 89.048058 
L 158.2125 83.775744 
L 152.505 83.775744 
L 152.505 89.048058 
" clip-path="url(#pb7c9c12fa7)" style="fill: #587fc0"/>
    <path d="M 158.2125 89.048058 
L 163.92 89.048058 
L 163.92 83.775744 
L 158.2125 83.775744 
L 158.2125 89.048058 
" clip-path="url(#pb7c9c12fa7)" style="fill: #87a4de"/>
    <path d="M 163.92 89.048058 
L 169.6275 89.048058 
L 169.6275 83.775744 
L 163.92 83.775744 
L 163.92 89.048058 
" clip-path="url(#pb7c9c12fa7)" style="fill: #9ab0e0"/>
    <path d="M 55.4775 83.775744 
L 61.185 83.775744 
L 61.185 78.50343 
L 55.4775 78.50343 
L 55.4775 83.775744 
" clip-path="url(#pb7c9c12fa7)" style="fill: #6590d9"/>
    <path d="M 61.185 83.775744 
L 66.8925 83.775744 
L 66.8925 78.50343 
L 61.185 78.50343 
L 61.185 83.775744 
" clip-path="url(#pb7c9c12fa7)" style="fill: #91aadf"/>
    <path d="M 66.8925 83.775744 
L 72.6 83.775744 
L 72.6 78.50343 
L 66.8925 78.50343 
L 66.8925 83.775744 
" clip-path="url(#pb7c9c12fa7)" style="fill: #6c94da"/>
    <path d="M 72.6 83.775744 
L 78.3075 83.775744 
L 78.3075 78.50343 
L 72.6 78.50343 
L 72.6 83.775744 
" clip-path="url(#pb7c9c12fa7)" style="fill: #577dbd"/>
    <path d="M 78.3075 83.775744 
L 84.015 83.775744 
L 84.015 78.50343 
L 78.3075 78.50343 
L 78.3075 83.775744 
" clip-path="url(#pb7c9c12fa7)" style="fill: #7d9edd"/>
    <path d="M 84.015 83.775744 
L 89.7225 83.775744 
L 89.7225 78.50343 
L 84.015 78.50343 
L 84.015 83.775744 
" clip-path="url(#pb7c9c12fa7)" style="fill: #80a0de"/>
    <path d="M 89.7225 83.775744 
L 95.43 83.775744 
L 95.43 78.50343 
L 89.7225 78.50343 
L 89.7225 83.775744 
" clip-path="url(#pb7c9c12fa7)" style="fill: #80a0de"/>
    <path d="M 95.43 83.775744 
L 101.1375 83.775744 
L 101.1375 78.50343 
L 95.43 78.50343 
L 95.43 83.775744 
" clip-path="url(#pb7c9c12fa7)" style="fill: #97aee0"/>
    <path d="M 101.1375 83.775744 
L 106.845 83.775744 
L 106.845 78.50343 
L 101.1375 78.50343 
L 101.1375 83.775744 
" clip-path="url(#pb7c9c12fa7)" style="fill: #91aadf"/>
    <path d="M 106.845 83.775744 
L 112.5525 83.775744 
L 112.5525 78.50343 
L 106.845 78.50343 
L 106.845 83.775744 
" clip-path="url(#pb7c9c12fa7)" style="fill: #9ab0e0"/>
    <path d="M 112.5525 83.775744 
L 118.26 83.775744 
L 118.26 78.50343 
L 112.5525 78.50343 
L 112.5525 83.775744 
" clip-path="url(#pb7c9c12fa7)" style="fill: #9ab0e0"/>
    <path d="M 118.26 83.775744 
L 123.9675 83.775744 
L 123.9675 78.50343 
L 118.26 78.50343 
L 118.26 83.775744 
" clip-path="url(#pb7c9c12fa7)" style="fill: #94acdf"/>
    <path d="M 123.9675 83.775744 
L 129.675 83.775744 
L 129.675 78.50343 
L 123.9675 78.50343 
L 123.9675 83.775744 
" clip-path="url(#pb7c9c12fa7)" style="fill: #97aee0"/>
    <path d="M 129.675 83.775744 
L 135.3825 83.775744 
L 135.3825 78.50343 
L 129.675 78.50343 
L 129.675 83.775744 
" clip-path="url(#pb7c9c12fa7)" style="fill: #91aadf"/>
    <path d="M 135.3825 83.775744 
L 141.09 83.775744 
L 141.09 78.50343 
L 135.3825 78.50343 
L 135.3825 83.775744 
" clip-path="url(#pb7c9c12fa7)" style="fill: #80a0de"/>
    <path d="M 141.09 83.775744 
L 146.7975 83.775744 
L 146.7975 78.50343 
L 141.09 78.50343 
L 141.09 83.775744 
" clip-path="url(#pb7c9c12fa7)" style="fill: #7398dc"/>
    <path d="M 146.7975 83.775744 
L 152.505 83.775744 
L 152.505 78.50343 
L 146.7975 78.50343 
L 146.7975 83.775744 
" clip-path="url(#pb7c9c12fa7)" style="fill: #567bb9"/>
    <path d="M 152.505 83.775744 
L 158.2125 83.775744 
L 158.2125 78.50343 
L 152.505 78.50343 
L 152.505 83.775744 
" clip-path="url(#pb7c9c12fa7)" style="fill: #5b85ca"/>
    <path d="M 158.2125 83.775744 
L 163.92 83.775744 
L 163.92 78.50343 
L 158.2125 78.50343 
L 158.2125 83.775744 
" clip-path="url(#pb7c9c12fa7)" style="fill: #91aadf"/>
    <path d="M 163.92 83.775744 
L 169.6275 83.775744 
L 169.6275 78.50343 
L 163.92 78.50343 
L 163.92 83.775744 
" clip-path="url(#pb7c9c12fa7)" style="fill: #91aadf"/>
    <path d="M 55.4775 78.50343 
L 61.185 78.50343 
L 61.185 73.231116 
L 55.4775 73.231116 
L 55.4775 78.50343 
" clip-path="url(#pb7c9c12fa7)" style="fill: #a7b8e1"/>
    <path d="M 61.185 78.50343 
L 66.8925 78.50343 
L 66.8925 73.231116 
L 61.185 73.231116 
L 61.185 78.50343 
" clip-path="url(#pb7c9c12fa7)" style="fill: #87a4de"/>
    <path d="M 66.8925 78.50343 
L 72.6 78.50343 
L 72.6 73.231116 
L 66.8925 73.231116 
L 66.8925 78.50343 
" clip-path="url(#pb7c9c12fa7)" style="fill: #5f8dd7"/>
    <path d="M 72.6 78.50343 
L 78.3075 78.50343 
L 78.3075 73.231116 
L 72.6 73.231116 
L 72.6 78.50343 
" clip-path="url(#pb7c9c12fa7)" style="fill: #6590d9"/>
    <path d="M 78.3075 78.50343 
L 84.015 78.50343 
L 84.015 73.231116 
L 78.3075 73.231116 
L 78.3075 78.50343 
" clip-path="url(#pb7c9c12fa7)" style="fill: #5f8dd7"/>
    <path d="M 84.015 78.50343 
L 89.7225 78.50343 
L 89.7225 73.231116 
L 84.015 73.231116 
L 84.015 78.50343 
" clip-path="url(#pb7c9c12fa7)" style="fill: #87a4de"/>
    <path d="M 89.7225 78.50343 
L 95.43 78.50343 
L 95.43 73.231116 
L 89.7225 73.231116 
L 89.7225 78.50343 
" clip-path="url(#pb7c9c12fa7)" style="fill: #7a9cdd"/>
    <path d="M 95.43 78.50343 
L 101.1375 78.50343 
L 101.1375 73.231116 
L 95.43 73.231116 
L 95.43 78.50343 
" clip-path="url(#pb7c9c12fa7)" style="fill: #8da8df"/>
    <path d="M 101.1375 78.50343 
L 106.845 78.50343 
L 106.845 73.231116 
L 101.1375 73.231116 
L 101.1375 78.50343 
" clip-path="url(#pb7c9c12fa7)" style="fill: #a3b6e0"/>
    <path d="M 106.845 78.50343 
L 112.5525 78.50343 
L 112.5525 73.231116 
L 106.845 73.231116 
L 106.845 78.50343 
" clip-path="url(#pb7c9c12fa7)" style="fill: #a3b6e0"/>
    <path d="M 112.5525 78.50343 
L 118.26 78.50343 
L 118.26 73.231116 
L 112.5525 73.231116 
L 112.5525 78.50343 
" clip-path="url(#pb7c9c12fa7)" style="fill: #acbce1"/>
    <path d="M 118.26 78.50343 
L 123.9675 78.50343 
L 123.9675 73.231116 
L 118.26 73.231116 
L 118.26 78.50343 
" clip-path="url(#pb7c9c12fa7)" style="fill: #91aadf"/>
    <path d="M 123.9675 78.50343 
L 129.675 78.50343 
L 129.675 73.231116 
L 123.9675 73.231116 
L 123.9675 78.50343 
" clip-path="url(#pb7c9c12fa7)" style="fill: #a0b4e0"/>
    <path d="M 129.675 78.50343 
L 135.3825 78.50343 
L 135.3825 73.231116 
L 129.675 73.231116 
L 129.675 78.50343 
" clip-path="url(#pb7c9c12fa7)" style="fill: #8da8df"/>
    <path d="M 135.3825 78.50343 
L 141.09 78.50343 
L 141.09 73.231116 
L 135.3825 73.231116 
L 135.3825 78.50343 
" clip-path="url(#pb7c9c12fa7)" style="fill: #8da8df"/>
    <path d="M 141.09 78.50343 
L 146.7975 78.50343 
L 146.7975 73.231116 
L 141.09 73.231116 
L 141.09 78.50343 
" clip-path="url(#pb7c9c12fa7)" style="fill: #7096db"/>
    <path d="M 146.7975 78.50343 
L 152.505 78.50343 
L 152.505 73.231116 
L 146.7975 73.231116 
L 146.7975 78.50343 
" clip-path="url(#pb7c9c12fa7)" style="fill: #7398dc"/>
    <path d="M 152.505 78.50343 
L 158.2125 78.50343 
L 158.2125 73.231116 
L 152.505 73.231116 
L 152.505 78.50343 
" clip-path="url(#pb7c9c12fa7)" style="fill: #6c94da"/>
    <path d="M 158.2125 78.50343 
L 163.92 78.50343 
L 163.92 73.231116 
L 158.2125 73.231116 
L 158.2125 78.50343 
" clip-path="url(#pb7c9c12fa7)" style="fill: #8da8df"/>
    <path d="M 163.92 78.50343 
L 169.6275 78.50343 
L 169.6275 73.231116 
L 163.92 73.231116 
L 163.92 78.50343 
" clip-path="url(#pb7c9c12fa7)" style="fill: #97aee0"/>
    <path d="M 55.4775 73.231116 
L 61.185 73.231116 
L 61.185 67.958802 
L 55.4775 67.958802 
L 55.4775 73.231116 
" clip-path="url(#pb7c9c12fa7)" style="fill: #97aee0"/>
    <path d="M 61.185 73.231116 
L 66.8925 73.231116 
L 66.8925 67.958802 
L 61.185 67.958802 
L 61.185 73.231116 
" clip-path="url(#pb7c9c12fa7)" style="fill: #779adc"/>
    <path d="M 66.8925 73.231116 
L 72.6 73.231116 
L 72.6 67.958802 
L 66.8925 67.958802 
L 66.8925 73.231116 
" clip-path="url(#pb7c9c12fa7)" style="fill: #5f8dd7"/>
    <path d="M 72.6 73.231116 
L 78.3075 73.231116 
L 78.3075 67.958802 
L 72.6 67.958802 
L 72.6 73.231116 
" clip-path="url(#pb7c9c12fa7)" style="fill: #5a83c6"/>
    <path d="M 78.3075 73.231116 
L 84.015 73.231116 
L 84.015 67.958802 
L 78.3075 67.958802 
L 78.3075 73.231116 
" clip-path="url(#pb7c9c12fa7)" style="fill: #6c94da"/>
    <path d="M 84.015 73.231116 
L 89.7225 73.231116 
L 89.7225 67.958802 
L 84.015 67.958802 
L 84.015 73.231116 
" clip-path="url(#pb7c9c12fa7)" style="fill: #87a4de"/>
    <path d="M 89.7225 73.231116 
L 95.43 73.231116 
L 95.43 67.958802 
L 89.7225 67.958802 
L 89.7225 73.231116 
" clip-path="url(#pb7c9c12fa7)" style="fill: #7d9edd"/>
    <path d="M 95.43 73.231116 
L 101.1375 73.231116 
L 101.1375 67.958802 
L 95.43 67.958802 
L 95.43 73.231116 
" clip-path="url(#pb7c9c12fa7)" style="fill: #7a9cdd"/>
    <path d="M 101.1375 73.231116 
L 106.845 73.231116 
L 106.845 67.958802 
L 101.1375 67.958802 
L 101.1375 73.231116 
" clip-path="url(#pb7c9c12fa7)" style="fill: #7d9edd"/>
    <path d="M 106.845 73.231116 
L 112.5525 73.231116 
L 112.5525 67.958802 
L 106.845 67.958802 
L 106.845 73.231116 
" clip-path="url(#pb7c9c12fa7)" style="fill: #9ab0e0"/>
    <path d="M 112.5525 73.231116 
L 118.26 73.231116 
L 118.26 67.958802 
L 112.5525 67.958802 
L 112.5525 73.231116 
" clip-path="url(#pb7c9c12fa7)" style="fill: #8da8df"/>
    <path d="M 118.26 73.231116 
L 123.9675 73.231116 
L 123.9675 67.958802 
L 118.26 67.958802 
L 118.26 73.231116 
" clip-path="url(#pb7c9c12fa7)" style="fill: #97aee0"/>
    <path d="M 123.9675 73.231116 
L 129.675 73.231116 
L 129.675 67.958802 
L 123.9675 67.958802 
L 123.9675 73.231116 
" clip-path="url(#pb7c9c12fa7)" style="fill: #aabae1"/>
    <path d="M 129.675 73.231116 
L 135.3825 73.231116 
L 135.3825 67.958802 
L 129.675 67.958802 
L 129.675 73.231116 
" clip-path="url(#pb7c9c12fa7)" style="fill: #84a2de"/>
    <path d="M 135.3825 73.231116 
L 141.09 73.231116 
L 141.09 67.958802 
L 135.3825 67.958802 
L 135.3825 73.231116 
" clip-path="url(#pb7c9c12fa7)" style="fill: #94acdf"/>
    <path d="M 141.09 73.231116 
L 146.7975 73.231116 
L 146.7975 67.958802 
L 141.09 67.958802 
L 141.09 73.231116 
" clip-path="url(#pb7c9c12fa7)" style="fill: #7a9cdd"/>
    <path d="M 146.7975 73.231116 
L 152.505 73.231116 
L 152.505 67.958802 
L 146.7975 67.958802 
L 146.7975 73.231116 
" clip-path="url(#pb7c9c12fa7)" style="fill: #567bb9"/>
    <path d="M 152.505 73.231116 
L 158.2125 73.231116 
L 158.2125 67.958802 
L 152.505 67.958802 
L 152.505 73.231116 
" clip-path="url(#pb7c9c12fa7)" style="fill: #6c94da"/>
    <path d="M 158.2125 73.231116 
L 163.92 73.231116 
L 163.92 67.958802 
L 158.2125 67.958802 
L 158.2125 73.231116 
" clip-path="url(#pb7c9c12fa7)" style="fill: #84a2de"/>
    <path d="M 163.92 73.231116 
L 169.6275 73.231116 
L 169.6275 67.958802 
L 163.92 67.958802 
L 163.92 73.231116 
" clip-path="url(#pb7c9c12fa7)" style="fill: #9db2e0"/>
    <path d="M 55.4775 67.958802 
L 61.185 67.958802 
L 61.185 62.686488 
L 55.4775 62.686488 
L 55.4775 67.958802 
" clip-path="url(#pb7c9c12fa7)" style="fill: #7a9cdd"/>
    <path d="M 61.185 67.958802 
L 66.8925 67.958802 
L 66.8925 62.686488 
L 61.185 62.686488 
L 61.185 67.958802 
" clip-path="url(#pb7c9c12fa7)" style="fill: #5f8dd7"/>
    <path d="M 66.8925 67.958802 
L 72.6 67.958802 
L 72.6 62.686488 
L 66.8925 62.686488 
L 66.8925 67.958802 
" clip-path="url(#pb7c9c12fa7)" style="fill: #5d88d0"/>
    <path d="M 72.6 67.958802 
L 78.3075 67.958802 
L 78.3075 62.686488 
L 72.6 62.686488 
L 72.6 67.958802 
" clip-path="url(#pb7c9c12fa7)" style="fill: #5679b6"/>
    <path d="M 78.3075 67.958802 
L 84.015 67.958802 
L 84.015 62.686488 
L 78.3075 62.686488 
L 78.3075 67.958802 
" clip-path="url(#pb7c9c12fa7)" style="fill: #6c94da"/>
    <path d="M 84.015 67.958802 
L 89.7225 67.958802 
L 89.7225 62.686488 
L 84.015 62.686488 
L 84.015 67.958802 
" clip-path="url(#pb7c9c12fa7)" style="fill: #87a4de"/>
    <path d="M 89.7225 67.958802 
L 95.43 67.958802 
L 95.43 62.686488 
L 89.7225 62.686488 
L 89.7225 67.958802 
" clip-path="url(#pb7c9c12fa7)" style="fill: #5a83c6"/>
    <path d="M 95.43 67.958802 
L 101.1375 67.958802 
L 101.1375 62.686488 
L 95.43 62.686488 
L 95.43 67.958802 
" clip-path="url(#pb7c9c12fa7)" style="fill: #84a2de"/>
    <path d="M 101.1375 67.958802 
L 106.845 67.958802 
L 106.845 62.686488 
L 101.1375 62.686488 
L 101.1375 67.958802 
" clip-path="url(#pb7c9c12fa7)" style="fill: #84a2de"/>
    <path d="M 106.845 67.958802 
L 112.5525 67.958802 
L 112.5525 62.686488 
L 106.845 62.686488 
L 106.845 67.958802 
" clip-path="url(#pb7c9c12fa7)" style="fill: #6c94da"/>
    <path d="M 112.5525 67.958802 
L 118.26 67.958802 
L 118.26 62.686488 
L 112.5525 62.686488 
L 112.5525 67.958802 
" clip-path="url(#pb7c9c12fa7)" style="fill: #5d88d0"/>
    <path d="M 118.26 67.958802 
L 123.9675 67.958802 
L 123.9675 62.686488 
L 118.26 62.686488 
L 118.26 67.958802 
" clip-path="url(#pb7c9c12fa7)" style="fill: #7398dc"/>
    <path d="M 123.9675 67.958802 
L 129.675 67.958802 
L 129.675 62.686488 
L 123.9675 62.686488 
L 123.9675 67.958802 
" clip-path="url(#pb7c9c12fa7)" style="fill: #779adc"/>
    <path d="M 129.675 67.958802 
L 135.3825 67.958802 
L 135.3825 62.686488 
L 129.675 62.686488 
L 129.675 67.958802 
" clip-path="url(#pb7c9c12fa7)" style="fill: #779adc"/>
    <path d="M 135.3825 67.958802 
L 141.09 67.958802 
L 141.09 62.686488 
L 135.3825 62.686488 
L 135.3825 67.958802 
" clip-path="url(#pb7c9c12fa7)" style="fill: #628ed8"/>
    <path d="M 141.09 67.958802 
L 146.7975 67.958802 
L 146.7975 62.686488 
L 141.09 62.686488 
L 141.09 67.958802 
" clip-path="url(#pb7c9c12fa7)" style="fill: #5e8ad3"/>
    <path d="M 146.7975 67.958802 
L 152.505 67.958802 
L 152.505 62.686488 
L 146.7975 62.686488 
L 146.7975 67.958802 
" clip-path="url(#pb7c9c12fa7)" style="fill: #5270a4"/>
    <path d="M 152.505 67.958802 
L 158.2125 67.958802 
L 158.2125 62.686488 
L 152.505 62.686488 
L 152.505 67.958802 
" clip-path="url(#pb7c9c12fa7)" style="fill: #7a9cdd"/>
    <path d="M 158.2125 67.958802 
L 163.92 67.958802 
L 163.92 62.686488 
L 158.2125 62.686488 
L 158.2125 67.958802 
" clip-path="url(#pb7c9c12fa7)" style="fill: #87a4de"/>
    <path d="M 163.92 67.958802 
L 169.6275 67.958802 
L 169.6275 62.686488 
L 163.92 62.686488 
L 163.92 67.958802 
" clip-path="url(#pb7c9c12fa7)" style="fill: #8aa6df"/>
    <path d="M 55.4775 62.686488 
L 61.185 62.686488 
L 61.185 57.414174 
L 55.4775 57.414174 
L 55.4775 62.686488 
" clip-path="url(#pb7c9c12fa7)" style="fill: #91aadf"/>
    <path d="M 61.185 62.686488 
L 66.8925 62.686488 
L 66.8925 57.414174 
L 61.185 57.414174 
L 61.185 62.686488 
" clip-path="url(#pb7c9c12fa7)" style="fill: #779adc"/>
    <path d="M 66.8925 62.686488 
L 72.6 62.686488 
L 72.6 57.414174 
L 66.8925 57.414174 
L 66.8925 62.686488 
" clip-path="url(#pb7c9c12fa7)" style="fill: #7398dc"/>
    <path d="M 72.6 62.686488 
L 78.3075 62.686488 
L 78.3075 57.414174 
L 72.6 57.414174 
L 72.6 62.686488 
" clip-path="url(#pb7c9c12fa7)" style="fill: #4f6896"/>
    <path d="M 78.3075 62.686488 
L 84.015 62.686488 
L 84.015 57.414174 
L 78.3075 57.414174 
L 78.3075 62.686488 
" clip-path="url(#pb7c9c12fa7)" style="fill: #5373ab"/>
    <path d="M 84.015 62.686488 
L 89.7225 62.686488 
L 89.7225 57.414174 
L 84.015 57.414174 
L 84.015 62.686488 
" clip-path="url(#pb7c9c12fa7)" style="fill: #567bb9"/>
    <path d="M 89.7225 62.686488 
L 95.43 62.686488 
L 95.43 57.414174 
L 89.7225 57.414174 
L 89.7225 62.686488 
" clip-path="url(#pb7c9c12fa7)" style="fill: #5b85ca"/>
    <path d="M 95.43 62.686488 
L 101.1375 62.686488 
L 101.1375 57.414174 
L 95.43 57.414174 
L 95.43 62.686488 
" clip-path="url(#pb7c9c12fa7)" style="fill: #5e8ad3"/>
    <path d="M 101.1375 62.686488 
L 106.845 62.686488 
L 106.845 57.414174 
L 101.1375 57.414174 
L 101.1375 62.686488 
" clip-path="url(#pb7c9c12fa7)" style="fill: #7398dc"/>
    <path d="M 106.845 62.686488 
L 112.5525 62.686488 
L 112.5525 57.414174 
L 106.845 57.414174 
L 106.845 62.686488 
" clip-path="url(#pb7c9c12fa7)" style="fill: #6c94da"/>
    <path d="M 112.5525 62.686488 
L 118.26 62.686488 
L 118.26 57.414174 
L 112.5525 57.414174 
L 112.5525 62.686488 
" clip-path="url(#pb7c9c12fa7)" style="fill: #8aa6df"/>
    <path d="M 118.26 62.686488 
L 123.9675 62.686488 
L 123.9675 57.414174 
L 118.26 57.414174 
L 118.26 62.686488 
" clip-path="url(#pb7c9c12fa7)" style="fill: #80a0de"/>
    <path d="M 123.9675 62.686488 
L 129.675 62.686488 
L 129.675 57.414174 
L 123.9675 57.414174 
L 123.9675 62.686488 
" clip-path="url(#pb7c9c12fa7)" style="fill: #7d9edd"/>
    <path d="M 129.675 62.686488 
L 135.3825 62.686488 
L 135.3825 57.414174 
L 129.675 57.414174 
L 129.675 62.686488 
" clip-path="url(#pb7c9c12fa7)" style="fill: #567bb9"/>
    <path d="M 135.3825 62.686488 
L 141.09 62.686488 
L 141.09 57.414174 
L 135.3825 57.414174 
L 135.3825 62.686488 
" clip-path="url(#pb7c9c12fa7)" style="fill: #5270a4"/>
    <path d="M 141.09 62.686488 
L 146.7975 62.686488 
L 146.7975 57.414174 
L 141.09 57.414174 
L 141.09 62.686488 
" clip-path="url(#pb7c9c12fa7)" style="fill: #4e648f"/>
    <path d="M 146.7975 62.686488 
L 152.505 62.686488 
L 152.505 57.414174 
L 146.7975 57.414174 
L 146.7975 62.686488 
" clip-path="url(#pb7c9c12fa7)" style="fill: #516c9d"/>
    <path d="M 152.505 62.686488 
L 158.2125 62.686488 
L 158.2125 57.414174 
L 152.505 57.414174 
L 152.505 62.686488 
" clip-path="url(#pb7c9c12fa7)" style="fill: #5d88d0"/>
    <path d="M 158.2125 62.686488 
L 163.92 62.686488 
L 163.92 57.414174 
L 158.2125 57.414174 
L 158.2125 62.686488 
" clip-path="url(#pb7c9c12fa7)" style="fill: #779adc"/>
    <path d="M 163.92 62.686488 
L 169.6275 62.686488 
L 169.6275 57.414174 
L 163.92 57.414174 
L 163.92 62.686488 
" clip-path="url(#pb7c9c12fa7)" style="fill: #7d9edd"/>
    <path d="M 55.4775 57.414174 
L 61.185 57.414174 
L 61.185 52.14186 
L 55.4775 52.14186 
L 55.4775 57.414174 
" clip-path="url(#pb7c9c12fa7)" style="fill: #7d9edd"/>
    <path d="M 61.185 57.414174 
L 66.8925 57.414174 
L 66.8925 52.14186 
L 61.185 52.14186 
L 61.185 57.414174 
" clip-path="url(#pb7c9c12fa7)" style="fill: #7a9cdd"/>
    <path d="M 66.8925 57.414174 
L 72.6 57.414174 
L 72.6 52.14186 
L 66.8925 52.14186 
L 66.8925 57.414174 
" clip-path="url(#pb7c9c12fa7)" style="fill: #5e8ad3"/>
    <path d="M 72.6 57.414174 
L 78.3075 57.414174 
L 78.3075 52.14186 
L 72.6 52.14186 
L 72.6 57.414174 
" clip-path="url(#pb7c9c12fa7)" style="fill: #5270a4"/>
    <path d="M 78.3075 57.414174 
L 84.015 57.414174 
L 84.015 52.14186 
L 78.3075 52.14186 
L 78.3075 57.414174 
" clip-path="url(#pb7c9c12fa7)" style="fill: #7a9cdd"/>
    <path d="M 84.015 57.414174 
L 89.7225 57.414174 
L 89.7225 52.14186 
L 84.015 52.14186 
L 84.015 57.414174 
" clip-path="url(#pb7c9c12fa7)" style="fill: #6c94da"/>
    <path d="M 89.7225 57.414174 
L 95.43 57.414174 
L 95.43 52.14186 
L 89.7225 52.14186 
L 89.7225 57.414174 
" clip-path="url(#pb7c9c12fa7)" style="fill: #7a9cdd"/>
    <path d="M 95.43 57.414174 
L 101.1375 57.414174 
L 101.1375 52.14186 
L 95.43 52.14186 
L 95.43 57.414174 
" clip-path="url(#pb7c9c12fa7)" style="fill: #7d9edd"/>
    <path d="M 101.1375 57.414174 
L 106.845 57.414174 
L 106.845 52.14186 
L 101.1375 52.14186 
L 101.1375 57.414174 
" clip-path="url(#pb7c9c12fa7)" style="fill: #84a2de"/>
    <path d="M 106.845 57.414174 
L 112.5525 57.414174 
L 112.5525 52.14186 
L 106.845 52.14186 
L 106.845 57.414174 
" clip-path="url(#pb7c9c12fa7)" style="fill: #9ab0e0"/>
    <path d="M 112.5525 57.414174 
L 118.26 57.414174 
L 118.26 52.14186 
L 112.5525 52.14186 
L 112.5525 57.414174 
" clip-path="url(#pb7c9c12fa7)" style="fill: #87a4de"/>
    <path d="M 118.26 57.414174 
L 123.9675 57.414174 
L 123.9675 52.14186 
L 118.26 52.14186 
L 118.26 57.414174 
" clip-path="url(#pb7c9c12fa7)" style="fill: #9ab0e0"/>
    <path d="M 123.9675 57.414174 
L 129.675 57.414174 
L 129.675 52.14186 
L 123.9675 52.14186 
L 123.9675 57.414174 
" clip-path="url(#pb7c9c12fa7)" style="fill: #94acdf"/>
    <path d="M 129.675 57.414174 
L 135.3825 57.414174 
L 135.3825 52.14186 
L 129.675 52.14186 
L 129.675 57.414174 
" clip-path="url(#pb7c9c12fa7)" style="fill: #6c94da"/>
    <path d="M 135.3825 57.414174 
L 141.09 57.414174 
L 141.09 52.14186 
L 135.3825 52.14186 
L 135.3825 57.414174 
" clip-path="url(#pb7c9c12fa7)" style="fill: #7d9edd"/>
    <path d="M 141.09 57.414174 
L 146.7975 57.414174 
L 146.7975 52.14186 
L 141.09 52.14186 
L 141.09 57.414174 
" clip-path="url(#pb7c9c12fa7)" style="fill: #5a83c6"/>
    <path d="M 146.7975 57.414174 
L 152.505 57.414174 
L 152.505 52.14186 
L 146.7975 52.14186 
L 146.7975 57.414174 
" clip-path="url(#pb7c9c12fa7)" style="fill: #6993da"/>
    <path d="M 152.505 57.414174 
L 158.2125 57.414174 
L 158.2125 52.14186 
L 152.505 52.14186 
L 152.505 57.414174 
" clip-path="url(#pb7c9c12fa7)" style="fill: #5b85ca"/>
    <path d="M 158.2125 57.414174 
L 163.92 57.414174 
L 163.92 52.14186 
L 158.2125 52.14186 
L 158.2125 57.414174 
" clip-path="url(#pb7c9c12fa7)" style="fill: #80a0de"/>
    <path d="M 163.92 57.414174 
L 169.6275 57.414174 
L 169.6275 52.14186 
L 163.92 52.14186 
L 163.92 57.414174 
" clip-path="url(#pb7c9c12fa7)" style="fill: #80a0de"/>
    <path d="M 55.4775 52.14186 
L 61.185 52.14186 
L 61.185 46.869545 
L 55.4775 46.869545 
L 55.4775 52.14186 
" clip-path="url(#pb7c9c12fa7)" style="fill: #7a9cdd"/>
    <path d="M 61.185 52.14186 
L 66.8925 52.14186 
L 66.8925 46.869545 
L 61.185 46.869545 
L 61.185 52.14186 
" clip-path="url(#pb7c9c12fa7)" style="fill: #6c94da"/>
    <path d="M 66.8925 52.14186 
L 72.6 52.14186 
L 72.6 46.869545 
L 66.8925 46.869545 
L 66.8925 52.14186 
" clip-path="url(#pb7c9c12fa7)" style="fill: #5b85ca"/>
    <path d="M 72.6 52.14186 
L 78.3075 52.14186 
L 78.3075 46.869545 
L 72.6 46.869545 
L 72.6 52.14186 
" clip-path="url(#pb7c9c12fa7)" style="fill: #577dbd"/>
    <path d="M 78.3075 52.14186 
L 84.015 52.14186 
L 84.015 46.869545 
L 78.3075 46.869545 
L 78.3075 52.14186 
" clip-path="url(#pb7c9c12fa7)" style="fill: #7a9cdd"/>
    <path d="M 84.015 52.14186 
L 89.7225 52.14186 
L 89.7225 46.869545 
L 84.015 46.869545 
L 84.015 52.14186 
" clip-path="url(#pb7c9c12fa7)" style="fill: #8da8df"/>
    <path d="M 89.7225 52.14186 
L 95.43 52.14186 
L 95.43 46.869545 
L 89.7225 46.869545 
L 89.7225 52.14186 
" clip-path="url(#pb7c9c12fa7)" style="fill: #87a4de"/>
    <path d="M 95.43 52.14186 
L 101.1375 52.14186 
L 101.1375 46.869545 
L 95.43 46.869545 
L 95.43 52.14186 
" clip-path="url(#pb7c9c12fa7)" style="fill: #87a4de"/>
    <path d="M 101.1375 52.14186 
L 106.845 52.14186 
L 106.845 46.869545 
L 101.1375 46.869545 
L 101.1375 52.14186 
" clip-path="url(#pb7c9c12fa7)" style="fill: #9ab0e0"/>
    <path d="M 106.845 52.14186 
L 112.5525 52.14186 
L 112.5525 46.869545 
L 106.845 46.869545 
L 106.845 52.14186 
" clip-path="url(#pb7c9c12fa7)" style="fill: #94acdf"/>
    <path d="M 112.5525 52.14186 
L 118.26 52.14186 
L 118.26 46.869545 
L 112.5525 46.869545 
L 112.5525 52.14186 
" clip-path="url(#pb7c9c12fa7)" style="fill: #94acdf"/>
    <path d="M 118.26 52.14186 
L 123.9675 52.14186 
L 123.9675 46.869545 
L 118.26 46.869545 
L 118.26 52.14186 
" clip-path="url(#pb7c9c12fa7)" style="fill: #84a2de"/>
    <path d="M 123.9675 52.14186 
L 129.675 52.14186 
L 129.675 46.869545 
L 123.9675 46.869545 
L 123.9675 52.14186 
" clip-path="url(#pb7c9c12fa7)" style="fill: #8da8df"/>
    <path d="M 129.675 52.14186 
L 135.3825 52.14186 
L 135.3825 46.869545 
L 129.675 46.869545 
L 129.675 52.14186 
" clip-path="url(#pb7c9c12fa7)" style="fill: #94acdf"/>
    <path d="M 135.3825 52.14186 
L 141.09 52.14186 
L 141.09 46.869545 
L 135.3825 46.869545 
L 135.3825 52.14186 
" clip-path="url(#pb7c9c12fa7)" style="fill: #7398dc"/>
    <path d="M 141.09 52.14186 
L 146.7975 52.14186 
L 146.7975 46.869545 
L 141.09 46.869545 
L 141.09 52.14186 
" clip-path="url(#pb7c9c12fa7)" style="fill: #779adc"/>
    <path d="M 146.7975 52.14186 
L 152.505 52.14186 
L 152.505 46.869545 
L 146.7975 46.869545 
L 146.7975 52.14186 
" clip-path="url(#pb7c9c12fa7)" style="fill: #7a9cdd"/>
    <path d="M 152.505 52.14186 
L 158.2125 52.14186 
L 158.2125 46.869545 
L 152.505 46.869545 
L 152.505 52.14186 
" clip-path="url(#pb7c9c12fa7)" style="fill: #5b85ca"/>
    <path d="M 158.2125 52.14186 
L 163.92 52.14186 
L 163.92 46.869545 
L 158.2125 46.869545 
L 158.2125 52.14186 
" clip-path="url(#pb7c9c12fa7)" style="fill: #8aa6df"/>
    <path d="M 163.92 52.14186 
L 169.6275 52.14186 
L 169.6275 46.869545 
L 163.92 46.869545 
L 163.92 52.14186 
" clip-path="url(#pb7c9c12fa7)" style="fill: #9db2e0"/>
   </g>
   <g id="patch_3">
    <path d="M 49.77 168.66 
L 49.77 41.07 
" style="fill: none; stroke: #ffffff; stroke-width: 1.25; stroke-linejoin: miter; stroke-linecap: square"/>
   </g>
   <g id="patch_4">
    <path d="M 49.77 168.66 
L 175.335 168.66 
" style="fill: none; stroke: #ffffff; stroke-width: 1.25; stroke-linejoin: miter; stroke-linecap: square"/>
   </g>
  </g>
  <g id="axes_2">
   <g id="patch_5">
    <path d="M 49.77 28.11 
L 175.335 28.11 
L 175.335 12.96 
L 49.77 12.96 
z
" style="fill: #eaeaf2"/>
   </g>
   <g id="matplotlib.axis_3">
    <g id="xtick_4">
     <g id="line2d_7">
      <path d="M 55.468572 28.11 
L 55.468572 12.96 
" clip-path="url(#p1bfd95ec90)" style="fill: none; stroke: #ffffff; stroke-linecap: round"/>
     </g>
    </g>
    <g id="xtick_5">
     <g id="line2d_8">
      <path d="M 112.548762 28.11 
L 112.548762 12.96 
" clip-path="url(#p1bfd95ec90)" style="fill: none; stroke: #ffffff; stroke-linecap: round"/>
     </g>
    </g>
    <g id="xtick_6">
     <g id="line2d_9">
      <path d="M 169.628952 28.11 
L 169.628952 12.96 
" clip-path="url(#p1bfd95ec90)" style="fill: none; stroke: #ffffff; stroke-linecap: round"/>
     </g>
    </g>
   </g>
   <g id="matplotlib.axis_4">
    <g id="ytick_4"/>
    <g id="ytick_5"/>
   </g>
   <g id="patch_6">
    <path d="M 55.4775 28.11 
L 61.185 28.11 
L 61.185 21.926327 
L 55.4775 21.926327 
z
" clip-path="url(#p1bfd95ec90)" style="fill: #4c72b0; fill-opacity: 0.75; stroke: #ffffff; stroke-linejoin: miter"/>
   </g>
   <g id="patch_7">
    <path d="M 61.185 28.11 
L 66.8925 28.11 
L 66.8925 20.085948 
L 61.185 20.085948 
z
" clip-path="url(#p1bfd95ec90)" style="fill: #4c72b0; fill-opacity: 0.75; stroke: #ffffff; stroke-linejoin: miter"/>
   </g>
   <g id="patch_8">
    <path d="M 66.8925 28.11 
L 72.6 28.11 
L 72.6 16.534016 
L 66.8925 16.534016 
z
" clip-path="url(#p1bfd95ec90)" style="fill: #4c72b0; fill-opacity: 0.75; stroke: #ffffff; stroke-linejoin: miter"/>
   </g>
   <g id="patch_9">
    <path d="M 72.6 28.11 
L 78.3075 28.11 
L 78.3075 13.681429 
L 72.6 13.681429 
z
" clip-path="url(#p1bfd95ec90)" style="fill: #4c72b0; fill-opacity: 0.75; stroke: #ffffff; stroke-linejoin: miter"/>
   </g>
   <g id="patch_10">
    <path d="M 78.3075 28.11 
L 84.015 28.11 
L 84.015 16.534016 
L 78.3075 16.534016 
z
" clip-path="url(#p1bfd95ec90)" style="fill: #4c72b0; fill-opacity: 0.75; stroke: #ffffff; stroke-linejoin: miter"/>
   </g>
   <g id="patch_11">
    <path d="M 84.015 28.11 
L 89.7225 28.11 
L 89.7225 18.816086 
L 84.015 18.816086 
z
" clip-path="url(#p1bfd95ec90)" style="fill: #4c72b0; fill-opacity: 0.75; stroke: #ffffff; stroke-linejoin: miter"/>
   </g>
   <g id="patch_12">
    <path d="M 89.7225 28.11 
L 95.43 28.11 
L 95.43 18.024723 
L 89.7225 18.024723 
z
" clip-path="url(#p1bfd95ec90)" style="fill: #4c72b0; fill-opacity: 0.75; stroke: #ffffff; stroke-linejoin: miter"/>
   </g>
   <g id="patch_13">
    <path d="M 95.43 28.11 
L 101.1375 28.11 
L 101.1375 19.699468 
L 95.43 19.699468 
z
" clip-path="url(#p1bfd95ec90)" style="fill: #4c72b0; fill-opacity: 0.75; stroke: #ffffff; stroke-linejoin: miter"/>
   </g>
   <g id="patch_14">
    <path d="M 101.1375 28.11 
L 106.845 28.11 
L 106.845 21.226983 
L 101.1375 21.226983 
z
" clip-path="url(#p1bfd95ec90)" style="fill: #4c72b0; fill-opacity: 0.75; stroke: #ffffff; stroke-linejoin: miter"/>
   </g>
   <g id="patch_15">
    <path d="M 106.845 28.11 
L 112.5525 28.11 
L 112.5525 21.429424 
L 106.845 21.429424 
z
" clip-path="url(#p1bfd95ec90)" style="fill: #4c72b0; fill-opacity: 0.75; stroke: #ffffff; stroke-linejoin: miter"/>
   </g>
   <g id="patch_16">
    <path d="M 112.5525 28.11 
L 118.26 28.11 
L 118.26 21.484636 
L 112.5525 21.484636 
z
" clip-path="url(#p1bfd95ec90)" style="fill: #4c72b0; fill-opacity: 0.75; stroke: #ffffff; stroke-linejoin: miter"/>
   </g>
   <g id="patch_17">
    <path d="M 118.26 28.11 
L 123.9675 28.11 
L 123.9675 20.969329 
L 118.26 20.969329 
z
" clip-path="url(#p1bfd95ec90)" style="fill: #4c72b0; fill-opacity: 0.75; stroke: #ffffff; stroke-linejoin: miter"/>
   </g>
   <g id="patch_18">
    <path d="M 123.9675 28.11 
L 129.675 28.11 
L 129.675 20.895714 
L 123.9675 20.895714 
z
" clip-path="url(#p1bfd95ec90)" style="fill: #4c72b0; fill-opacity: 0.75; stroke: #ffffff; stroke-linejoin: miter"/>
   </g>
   <g id="patch_19">
    <path d="M 129.675 28.11 
L 135.3825 28.11 
L 135.3825 18.852894 
L 129.675 18.852894 
z
" clip-path="url(#p1bfd95ec90)" style="fill: #4c72b0; fill-opacity: 0.75; stroke: #ffffff; stroke-linejoin: miter"/>
   </g>
   <g id="patch_20">
    <path d="M 135.3825 28.11 
L 141.09 28.11 
L 141.09 18.15355 
L 135.3825 18.15355 
z
" clip-path="url(#p1bfd95ec90)" style="fill: #4c72b0; fill-opacity: 0.75; stroke: #ffffff; stroke-linejoin: miter"/>
   </g>
   <g id="patch_21">
    <path d="M 141.09 28.11 
L 146.7975 28.11 
L 146.7975 15.558615 
L 141.09 15.558615 
z
" clip-path="url(#p1bfd95ec90)" style="fill: #4c72b0; fill-opacity: 0.75; stroke: #ffffff; stroke-linejoin: miter"/>
   </g>
   <g id="patch_22">
    <path d="M 146.7975 28.11 
L 152.505 28.11 
L 152.505 14.472792 
L 146.7975 14.472792 
z
" clip-path="url(#p1bfd95ec90)" style="fill: #4c72b0; fill-opacity: 0.75; stroke: #ffffff; stroke-linejoin: miter"/>
   </g>
   <g id="patch_23">
    <path d="M 152.505 28.11 
L 158.2125 28.11 
L 158.2125 16.920496 
L 152.505 16.920496 
z
" clip-path="url(#p1bfd95ec90)" style="fill: #4c72b0; fill-opacity: 0.75; stroke: #ffffff; stroke-linejoin: miter"/>
   </g>
   <g id="patch_24">
    <path d="M 158.2125 28.11 
L 163.92 28.11 
L 163.92 20.619657 
L 158.2125 20.619657 
z
" clip-path="url(#p1bfd95ec90)" style="fill: #4c72b0; fill-opacity: 0.75; stroke: #ffffff; stroke-linejoin: miter"/>
   </g>
   <g id="patch_25">
    <path d="M 163.92 28.11 
L 169.6275 28.11 
L 169.6275 22.275999 
L 163.92 22.275999 
z
" clip-path="url(#p1bfd95ec90)" style="fill: #4c72b0; fill-opacity: 0.75; stroke: #ffffff; stroke-linejoin: miter"/>
   </g>
   <g id="patch_26">
    <path d="M 49.77 28.11 
L 175.335 28.11 
" style="fill: none; stroke: #ffffff; stroke-width: 1.25; stroke-linejoin: miter; stroke-linecap: square"/>
   </g>
  </g>
  <g id="axes_3">
   <g id="patch_27">
    <path d="M 188.295 168.66 
L 203.04 168.66 
L 203.04 41.07 
L 188.295 41.07 
z
" style="fill: #eaeaf2"/>
   </g>
   <g id="matplotlib.axis_5">
    <g id="xtick_7"/>
    <g id="xtick_8"/>
   </g>
   <g id="matplotlib.axis_6">
    <g id="ytick_6">
     <g id="line2d_10">
      <path d="M 188.295 141.789686 
L 203.04 141.789686 
" clip-path="url(#pf5bea61e54)" style="fill: none; stroke: #ffffff; stroke-linecap: round"/>
     </g>
    </g>
    <g id="ytick_7">
     <g id="line2d_11">
      <path d="M 188.295 104.864889 
L 203.04 104.864889 
" clip-path="url(#pf5bea61e54)" style="fill: none; stroke: #ffffff; stroke-linecap: round"/>
     </g>
    </g>
    <g id="ytick_8">
     <g id="line2d_12">
      <path d="M 188.295 67.940093 
L 203.04 67.940093 
" clip-path="url(#pf5bea61e54)" style="fill: none; stroke: #ffffff; stroke-linecap: round"/>
     </g>
    </g>
   </g>
   <g id="patch_28">
    <path d="M 188.295 162.860455 
L 196.354968 162.860455 
L 196.354968 157.58814 
L 188.295 157.58814 
z
" clip-path="url(#pf5bea61e54)" style="fill: #4c72b0; fill-opacity: 0.75; stroke: #ffffff; stroke-linejoin: miter"/>
   </g>
   <g id="patch_29">
    <path d="M 188.295 157.58814 
L 198.206277 157.58814 
L 198.206277 152.315826 
L 188.295 152.315826 
z
" clip-path="url(#pf5bea61e54)" style="fill: #4c72b0; fill-opacity: 0.75; stroke: #ffffff; stroke-linejoin: miter"/>
   </g>
   <g id="patch_30">
    <path d="M 188.295 152.315826 
L 202.337857 152.315826 
L 202.337857 147.043512 
L 188.295 147.043512 
z
" clip-path="url(#pf5bea61e54)" style="fill: #4c72b0; fill-opacity: 0.75; stroke: #ffffff; stroke-linejoin: miter"/>
   </g>
   <g id="patch_31">
    <path d="M 188.295 147.043512 
L 200.147894 147.043512 
L 200.147894 141.771198 
L 188.295 141.771198 
z
" clip-path="url(#pf5bea61e54)" style="fill: #4c72b0; fill-opacity: 0.75; stroke: #ffffff; stroke-linejoin: miter"/>
   </g>
   <g id="patch_32">
    <path d="M 188.295 141.771198 
L 197.054853 141.771198 
L 197.054853 136.498884 
L 188.295 136.498884 
z
" clip-path="url(#pf5bea61e54)" style="fill: #4c72b0; fill-opacity: 0.75; stroke: #ffffff; stroke-linejoin: miter"/>
   </g>
   <g id="patch_33">
    <path d="M 188.295 136.498884 
L 196.829084 136.498884 
L 196.829084 131.22657 
L 188.295 131.22657 
z
" clip-path="url(#pf5bea61e54)" style="fill: #4c72b0; fill-opacity: 0.75; stroke: #ffffff; stroke-linejoin: miter"/>
   </g>
   <g id="patch_34">
    <path d="M 188.295 131.22657 
L 196.987122 131.22657 
L 196.987122 125.954256 
L 188.295 125.954256 
z
" clip-path="url(#pf5bea61e54)" style="fill: #4c72b0; fill-opacity: 0.75; stroke: #ffffff; stroke-linejoin: miter"/>
   </g>
   <g id="patch_35">
    <path d="M 188.295 125.954256 
L 199.80924 125.954256 
L 199.80924 120.681942 
L 188.295 120.681942 
z
" clip-path="url(#pf5bea61e54)" style="fill: #4c72b0; fill-opacity: 0.75; stroke: #ffffff; stroke-linejoin: miter"/>
   </g>
   <g id="patch_36">
    <path d="M 188.295 120.681942 
L 202.157242 120.681942 
L 202.157242 115.409628 
L 188.295 115.409628 
z
" clip-path="url(#pf5bea61e54)" style="fill: #4c72b0; fill-opacity: 0.75; stroke: #ffffff; stroke-linejoin: miter"/>
   </g>
   <g id="patch_37">
    <path d="M 188.295 115.409628 
L 197.574123 115.409628 
L 197.574123 110.137314 
L 188.295 110.137314 
z
" clip-path="url(#pf5bea61e54)" style="fill: #4c72b0; fill-opacity: 0.75; stroke: #ffffff; stroke-linejoin: miter"/>
   </g>
   <g id="patch_38">
    <path d="M 188.295 110.137314 
L 196.309814 110.137314 
L 196.309814 104.865 
L 188.295 104.865 
z
" clip-path="url(#pf5bea61e54)" style="fill: #4c72b0; fill-opacity: 0.75; stroke: #ffffff; stroke-linejoin: miter"/>
   </g>
   <g id="patch_39">
    <path d="M 188.295 104.865 
L 197.461238 104.865 
L 197.461238 99.592686 
L 188.295 99.592686 
z
" clip-path="url(#pf5bea61e54)" style="fill: #4c72b0; fill-opacity: 0.75; stroke: #ffffff; stroke-linejoin: miter"/>
   </g>
   <g id="patch_40">
    <path d="M 188.295 99.592686 
L 198.003085 99.592686 
L 198.003085 94.320372 
L 188.295 94.320372 
z
" clip-path="url(#pf5bea61e54)" style="fill: #4c72b0; fill-opacity: 0.75; stroke: #ffffff; stroke-linejoin: miter"/>
   </g>
   <g id="patch_41">
    <path d="M 188.295 94.320372 
L 202.02178 94.320372 
L 202.02178 89.048058 
L 188.295 89.048058 
z
" clip-path="url(#pf5bea61e54)" style="fill: #4c72b0; fill-opacity: 0.75; stroke: #ffffff; stroke-linejoin: miter"/>
   </g>
   <g id="patch_42">
    <path d="M 188.295 89.048058 
L 199.673778 89.048058 
L 199.673778 83.775744 
L 188.295 83.775744 
z
" clip-path="url(#pf5bea61e54)" style="fill: #4c72b0; fill-opacity: 0.75; stroke: #ffffff; stroke-linejoin: miter"/>
   </g>
   <g id="patch_43">
    <path d="M 188.295 83.775744 
L 197.07743 83.775744 
L 197.07743 78.50343 
L 188.295 78.50343 
z
" clip-path="url(#pf5bea61e54)" style="fill: #4c72b0; fill-opacity: 0.75; stroke: #ffffff; stroke-linejoin: miter"/>
   </g>
   <g id="patch_44">
    <path d="M 188.295 78.50343 
L 195.858275 78.50343 
L 195.858275 73.231116 
L 188.295 73.231116 
z
" clip-path="url(#pf5bea61e54)" style="fill: #4c72b0; fill-opacity: 0.75; stroke: #ffffff; stroke-linejoin: miter"/>
   </g>
   <g id="patch_45">
    <path d="M 188.295 73.231116 
L 197.032276 73.231116 
L 197.032276 67.958802 
L 188.295 67.958802 
z
" clip-path="url(#pf5bea61e54)" style="fill: #4c72b0; fill-opacity: 0.75; stroke: #ffffff; stroke-linejoin: miter"/>
   </g>
   <g id="patch_46">
    <path d="M 188.295 67.958802 
L 199.831817 67.958802 
L 199.831817 62.686488 
L 188.295 62.686488 
z
" clip-path="url(#pf5bea61e54)" style="fill: #4c72b0; fill-opacity: 0.75; stroke: #ffffff; stroke-linejoin: miter"/>
   </g>
   <g id="patch_47">
    <path d="M 188.295 62.686488 
L 201.931472 62.686488 
L 201.931472 57.414174 
L 188.295 57.414174 
z
" clip-path="url(#pf5bea61e54)" style="fill: #4c72b0; fill-opacity: 0.75; stroke: #ffffff; stroke-linejoin: miter"/>
   </g>
   <g id="patch_48">
    <path d="M 188.295 57.414174 
L 198.409469 57.414174 
L 198.409469 52.14186 
L 188.295 52.14186 
z
" clip-path="url(#pf5bea61e54)" style="fill: #4c72b0; fill-opacity: 0.75; stroke: #ffffff; stroke-linejoin: miter"/>
   </g>
   <g id="patch_49">
    <path d="M 188.295 52.14186 
L 197.190315 52.14186 
L 197.190315 46.869545 
L 188.295 46.869545 
z
" clip-path="url(#pf5bea61e54)" style="fill: #4c72b0; fill-opacity: 0.75; stroke: #ffffff; stroke-linejoin: miter"/>
   </g>
   <g id="patch_50">
    <path d="M 188.295 168.66 
L 188.295 41.07 
" style="fill: none; stroke: #ffffff; stroke-width: 1.25; stroke-linejoin: miter; stroke-linecap: square"/>
   </g>
  </g>
 </g>
 <defs>
  <clipPath id="pb7c9c12fa7">
   <rect x="49.77" y="41.07" width="125.565" height="127.59"/>
  </clipPath>
  <clipPath id="p1bfd95ec90">
   <rect x="49.77" y="12.96" width="125.565" height="15.15"/>
  </clipPath>
  <clipPath id="pf5bea61e54">
   <rect x="188.295" y="41.07" width="14.745" height="127.59"/>
  </clipPath>
 </defs>
</svg>
