<?xml version="1.0" encoding="utf-8" standalone="no"?>
<!DOCTYPE svg PUBLIC "-//W3C//DTD SVG 1.1//EN"
  "http://www.w3.org/Graphics/SVG/1.1/DTD/svg11.dtd">
<svg xmlns:xlink="http://www.w3.org/1999/xlink" width="216pt" height="216pt" viewBox="0 0 216 216" xmlns="http://www.w3.org/2000/svg" version="1.1">
 <metadata>
  <rdf:RDF xmlns:dc="http://purl.org/dc/elements/1.1/" xmlns:cc="http://creativecommons.org/ns#" xmlns:rdf="http://www.w3.org/1999/02/22-rdf-syntax-ns#">
   <cc:Work>
    <dc:type rdf:resource="http://purl.org/dc/dcmitype/StillImage"/>
    <dc:date>2023-10-28T14:52:05.093233</dc:date>
    <dc:format>image/svg+xml</dc:format>
    <dc:creator>
     <cc:Agent>
      <dc:title>Matplotlib v3.7.0, https://matplotlib.org/</dc:title>
     </cc:Agent>
    </dc:creator>
   </cc:Work>
  </rdf:RDF>
 </metadata>
 <defs>
  <style type="text/css">*{stroke-linejoin: round; stroke-linecap: butt}</style>
 </defs>
 <g id="figure_1">
  <g id="patch_1">
   <path d="M 0 216 
L 216 216 
L 216 0 
L 0 0 
z
" style="fill: #ffffff"/>
  </g>
  <g id="axes_1">
   <g id="patch_2">
    <path d="M 181.815 108 
C 181.815 98.708539 179.984785 89.507425 176.429096 80.923234 
C 172.873408 72.339043 167.661396 64.538715 161.09134 57.96866 
C 154.521285 51.398604 146.720957 46.186592 138.136766 42.630904 
C 129.552575 39.075215 120.351461 37.245 111.06 37.245 
C 101.768539 37.245 92.567425 39.075215 83.983234 42.630904 
C 75.399043 46.186592 67.598715 51.398604 61.02866 57.96866 
C 54.458604 64.538715 49.246592 72.339043 45.690904 80.923234 
C 42.135215 89.507425 40.305 98.708539 40.305 108 
C 40.305 117.291461 42.135215 126.492575 45.690904 135.076766 
C 49.246592 143.660957 54.458604 151.461285 61.02866 158.03134 
C 67.598715 164.601396 75.399043 169.813408 83.983234 173.369096 
C 92.567425 176.924785 101.768539 178.755 111.06 178.755 
C 120.351461 178.755 129.552575 176.924785 138.136766 173.369096 
C 146.720957 169.813408 154.521285 164.601396 161.09134 158.03134 
C 167.661396 151.461285 172.873408 143.660957 176.429096 135.076766 
C 179.984785 126.492575 181.815 117.291461 181.815 108 
M 111.06 108 
C 111.06 108 111.06 108 111.06 108 
C 111.06 108 111.06 108 111.06 108 
C 111.06 108 111.06 108 111.06 108 
C 111.06 108 111.06 108 111.06 108 
C 111.06 108 111.06 108 111.06 108 
C 111.06 108 111.06 108 111.06 108 
C 111.06 108 111.06 108 111.06 108 
C 111.06 108 111.06 108 111.06 108 
C 111.06 108 111.06 108 111.06 108 
C 111.06 108 111.06 108 111.06 108 
C 111.06 108 111.06 108 111.06 108 
C 111.06 108 111.06 108 111.06 108 
C 111.06 108 111.06 108 111.06 108 
C 111.06 108 111.06 108 111.06 108 
C 111.06 108 111.06 108 111.06 108 
C 111.06 108 111.06 108 111.06 108 
z
" style="fill: #eaeaf2"/>
   </g>
   <g id="matplotlib.axis_1">
    <g id="xtick_1">
     <g id="line2d_1">
      <path d="M 111.06 108 
L 181.815 108 
" clip-path="url(#p2b77d2ea4d)" style="fill: none; stroke: #ffffff; stroke-linecap: round"/>
     </g>
     <g id="text_1">
      <!-- 0° -->
      <g style="fill: #262626" transform="translate(193.057344 110.843672) scale(0.11 -0.11)">
       <defs>
        <path id="ArialMT-30" d="M 266 2259 
Q 266 3072 433 3567 
Q 600 4063 929 4331 
Q 1259 4600 1759 4600 
Q 2128 4600 2406 4451 
Q 2684 4303 2865 4023 
Q 3047 3744 3150 3342 
Q 3253 2941 3253 2259 
Q 3253 1453 3087 958 
Q 2922 463 2592 192 
Q 2263 -78 1759 -78 
Q 1097 -78 719 397 
Q 266 969 266 2259 
z
M 844 2259 
Q 844 1131 1108 757 
Q 1372 384 1759 384 
Q 2147 384 2411 759 
Q 2675 1134 2675 2259 
Q 2675 3391 2411 3762 
Q 2147 4134 1753 4134 
Q 1366 4134 1134 3806 
Q 844 3388 844 2259 
z
" transform="scale(0.015625)"/>
        <path id="ArialMT-b0" d="M 400 3794 
Q 400 4153 654 4406 
Q 909 4659 1266 4659 
Q 1628 4659 1881 4406 
Q 2134 4153 2134 3794 
Q 2134 3434 1879 3179 
Q 1625 2925 1266 2925 
Q 909 2925 654 3178 
Q 400 3431 400 3794 
z
M 741 3794 
Q 741 3575 895 3420 
Q 1050 3266 1269 3266 
Q 1484 3266 1639 3420 
Q 1794 3575 1794 3794 
Q 1794 4013 1639 4167 
Q 1484 4322 1269 4322 
Q 1050 4322 895 4167 
Q 741 4013 741 3794 
z
" transform="scale(0.015625)"/>
       </defs>
       <use xlink:href="#ArialMT-30"/>
       <use xlink:href="#ArialMT-b0" x="55.615234"/>
      </g>
     </g>
    </g>
    <g id="xtick_2">
     <g id="line2d_2">
      <path d="M 111.06 108 
L 161.09134 57.96866 
" clip-path="url(#p2b77d2ea4d)" style="fill: none; stroke: #ffffff; stroke-linecap: round"/>
     </g>
     <g id="text_2">
      <!-- 45° -->
      <g style="fill: #262626" transform="translate(164.44243 49.14507) scale(0.11 -0.11)">
       <defs>
        <path id="ArialMT-34" d="M 2069 0 
L 2069 1097 
L 81 1097 
L 81 1613 
L 2172 4581 
L 2631 4581 
L 2631 1613 
L 3250 1613 
L 3250 1097 
L 2631 1097 
L 2631 0 
L 2069 0 
z
M 2069 1613 
L 2069 3678 
L 634 1613 
L 2069 1613 
z
" transform="scale(0.015625)"/>
        <path id="ArialMT-35" d="M 266 1200 
L 856 1250 
Q 922 819 1161 601 
Q 1400 384 1738 384 
Q 2144 384 2425 690 
Q 2706 997 2706 1503 
Q 2706 1984 2436 2262 
Q 2166 2541 1728 2541 
Q 1456 2541 1237 2417 
Q 1019 2294 894 2097 
L 366 2166 
L 809 4519 
L 3088 4519 
L 3088 3981 
L 1259 3981 
L 1013 2750 
Q 1425 3038 1878 3038 
Q 2478 3038 2890 2622 
Q 3303 2206 3303 1553 
Q 3303 931 2941 478 
Q 2500 -78 1738 -78 
Q 1113 -78 717 272 
Q 322 622 266 1200 
z
" transform="scale(0.015625)"/>
       </defs>
       <use xlink:href="#ArialMT-34"/>
       <use xlink:href="#ArialMT-35" x="55.615234"/>
       <use xlink:href="#ArialMT-b0" x="111.230469"/>
      </g>
     </g>
    </g>
    <g id="xtick_3">
     <g id="line2d_3">
      <path d="M 111.06 108 
L 111.06 37.245 
" clip-path="url(#p2b77d2ea4d)" style="fill: none; stroke: #ffffff; stroke-linecap: round"/>
     </g>
     <g id="text_3">
      <!-- 90° -->
      <g style="fill: #262626" transform="translate(102.743828 23.588672) scale(0.11 -0.11)">
       <defs>
        <path id="ArialMT-39" d="M 350 1059 
L 891 1109 
Q 959 728 1153 556 
Q 1347 384 1650 384 
Q 1909 384 2104 503 
Q 2300 622 2425 820 
Q 2550 1019 2634 1356 
Q 2719 1694 2719 2044 
Q 2719 2081 2716 2156 
Q 2547 1888 2255 1720 
Q 1963 1553 1622 1553 
Q 1053 1553 659 1965 
Q 266 2378 266 3053 
Q 266 3750 677 4175 
Q 1088 4600 1706 4600 
Q 2153 4600 2523 4359 
Q 2894 4119 3086 3673 
Q 3278 3228 3278 2384 
Q 3278 1506 3087 986 
Q 2897 466 2520 194 
Q 2144 -78 1638 -78 
Q 1100 -78 759 220 
Q 419 519 350 1059 
z
M 2653 3081 
Q 2653 3566 2395 3850 
Q 2138 4134 1775 4134 
Q 1400 4134 1122 3828 
Q 844 3522 844 3034 
Q 844 2597 1108 2323 
Q 1372 2050 1759 2050 
Q 2150 2050 2401 2323 
Q 2653 2597 2653 3081 
z
" transform="scale(0.015625)"/>
       </defs>
       <use xlink:href="#ArialMT-39"/>
       <use xlink:href="#ArialMT-30" x="55.615234"/>
       <use xlink:href="#ArialMT-b0" x="111.230469"/>
      </g>
     </g>
    </g>
    <g id="xtick_4">
     <g id="line2d_4">
      <path d="M 111.06 108 
L 61.02866 57.96866 
" clip-path="url(#p2b77d2ea4d)" style="fill: none; stroke: #ffffff; stroke-linecap: round"/>
     </g>
     <g id="text_4">
      <!-- 135° -->
      <g style="fill: #262626" transform="translate(37.98671 49.14507) scale(0.11 -0.11)">
       <defs>
        <path id="ArialMT-31" d="M 2384 0 
L 1822 0 
L 1822 3584 
Q 1619 3391 1289 3197 
Q 959 3003 697 2906 
L 697 3450 
Q 1169 3672 1522 3987 
Q 1875 4303 2022 4600 
L 2384 4600 
L 2384 0 
z
" transform="scale(0.015625)"/>
        <path id="ArialMT-33" d="M 269 1209 
L 831 1284 
Q 928 806 1161 595 
Q 1394 384 1728 384 
Q 2125 384 2398 659 
Q 2672 934 2672 1341 
Q 2672 1728 2419 1979 
Q 2166 2231 1775 2231 
Q 1616 2231 1378 2169 
L 1441 2663 
Q 1497 2656 1531 2656 
Q 1891 2656 2178 2843 
Q 2466 3031 2466 3422 
Q 2466 3731 2256 3934 
Q 2047 4138 1716 4138 
Q 1388 4138 1169 3931 
Q 950 3725 888 3313 
L 325 3413 
Q 428 3978 793 4289 
Q 1159 4600 1703 4600 
Q 2078 4600 2393 4439 
Q 2709 4278 2876 4000 
Q 3044 3722 3044 3409 
Q 3044 3113 2884 2869 
Q 2725 2625 2413 2481 
Q 2819 2388 3044 2092 
Q 3269 1797 3269 1353 
Q 3269 753 2831 336 
Q 2394 -81 1725 -81 
Q 1122 -81 723 278 
Q 325 638 269 1209 
z
" transform="scale(0.015625)"/>
       </defs>
       <use xlink:href="#ArialMT-31"/>
       <use xlink:href="#ArialMT-33" x="55.615234"/>
       <use xlink:href="#ArialMT-35" x="111.230469"/>
       <use xlink:href="#ArialMT-b0" x="166.845703"/>
      </g>
     </g>
    </g>
    <g id="xtick_5">
     <g id="line2d_5">
      <path d="M 111.06 108 
L 40.305 108 
" clip-path="url(#p2b77d2ea4d)" style="fill: none; stroke: #ffffff; stroke-linecap: round"/>
     </g>
     <g id="text_5">
      <!-- 180° -->
      <g style="fill: #262626" transform="translate(12.430312 110.843672) scale(0.11 -0.11)">
       <defs>
        <path id="ArialMT-38" d="M 1131 2484 
Q 781 2613 612 2850 
Q 444 3088 444 3419 
Q 444 3919 803 4259 
Q 1163 4600 1759 4600 
Q 2359 4600 2725 4251 
Q 3091 3903 3091 3403 
Q 3091 3084 2923 2848 
Q 2756 2613 2416 2484 
Q 2838 2347 3058 2040 
Q 3278 1734 3278 1309 
Q 3278 722 2862 322 
Q 2447 -78 1769 -78 
Q 1091 -78 675 323 
Q 259 725 259 1325 
Q 259 1772 486 2073 
Q 713 2375 1131 2484 
z
M 1019 3438 
Q 1019 3113 1228 2906 
Q 1438 2700 1772 2700 
Q 2097 2700 2305 2904 
Q 2513 3109 2513 3406 
Q 2513 3716 2298 3927 
Q 2084 4138 1766 4138 
Q 1444 4138 1231 3931 
Q 1019 3725 1019 3438 
z
M 838 1322 
Q 838 1081 952 856 
Q 1066 631 1291 507 
Q 1516 384 1775 384 
Q 2178 384 2440 643 
Q 2703 903 2703 1303 
Q 2703 1709 2433 1975 
Q 2163 2241 1756 2241 
Q 1359 2241 1098 1978 
Q 838 1716 838 1322 
z
" transform="scale(0.015625)"/>
       </defs>
       <use xlink:href="#ArialMT-31"/>
       <use xlink:href="#ArialMT-38" x="55.615234"/>
       <use xlink:href="#ArialMT-30" x="111.230469"/>
       <use xlink:href="#ArialMT-b0" x="166.845703"/>
      </g>
     </g>
    </g>
    <g id="xtick_6">
     <g id="line2d_6">
      <path d="M 111.06 108 
L 61.02866 158.03134 
" clip-path="url(#p2b77d2ea4d)" style="fill: none; stroke: #ffffff; stroke-linecap: round"/>
     </g>
     <g id="text_6">
      <!-- 225° -->
      <g style="fill: #262626" transform="translate(37.98671 172.542274) scale(0.11 -0.11)">
       <defs>
        <path id="ArialMT-32" d="M 3222 541 
L 3222 0 
L 194 0 
Q 188 203 259 391 
Q 375 700 629 1000 
Q 884 1300 1366 1694 
Q 2113 2306 2375 2664 
Q 2638 3022 2638 3341 
Q 2638 3675 2398 3904 
Q 2159 4134 1775 4134 
Q 1369 4134 1125 3890 
Q 881 3647 878 3216 
L 300 3275 
Q 359 3922 746 4261 
Q 1134 4600 1788 4600 
Q 2447 4600 2831 4234 
Q 3216 3869 3216 3328 
Q 3216 3053 3103 2787 
Q 2991 2522 2730 2228 
Q 2469 1934 1863 1422 
Q 1356 997 1212 845 
Q 1069 694 975 541 
L 3222 541 
z
" transform="scale(0.015625)"/>
       </defs>
       <use xlink:href="#ArialMT-32"/>
       <use xlink:href="#ArialMT-32" x="55.615234"/>
       <use xlink:href="#ArialMT-35" x="111.230469"/>
       <use xlink:href="#ArialMT-b0" x="166.845703"/>
      </g>
     </g>
    </g>
    <g id="xtick_7">
     <g id="line2d_7">
      <path d="M 111.06 108 
L 111.06 178.755 
" clip-path="url(#p2b77d2ea4d)" style="fill: none; stroke: #ffffff; stroke-linecap: round"/>
     </g>
     <g id="text_7">
      <!-- 270° -->
      <g style="fill: #262626" transform="translate(99.685313 198.098672) scale(0.11 -0.11)">
       <defs>
        <path id="ArialMT-37" d="M 303 3981 
L 303 4522 
L 3269 4522 
L 3269 4084 
Q 2831 3619 2401 2847 
Q 1972 2075 1738 1259 
Q 1569 684 1522 0 
L 944 0 
Q 953 541 1156 1306 
Q 1359 2072 1739 2783 
Q 2119 3494 2547 3981 
L 303 3981 
z
" transform="scale(0.015625)"/>
       </defs>
       <use xlink:href="#ArialMT-32"/>
       <use xlink:href="#ArialMT-37" x="55.615234"/>
       <use xlink:href="#ArialMT-30" x="111.230469"/>
       <use xlink:href="#ArialMT-b0" x="166.845703"/>
      </g>
     </g>
    </g>
    <g id="xtick_8">
     <g id="line2d_8">
      <path d="M 111.06 108 
L 161.09134 158.03134 
" clip-path="url(#p2b77d2ea4d)" style="fill: none; stroke: #ffffff; stroke-linecap: round"/>
     </g>
     <g id="text_8">
      <!-- 315° -->
      <g style="fill: #262626" transform="translate(161.383915 172.542274) scale(0.11 -0.11)">
       <use xlink:href="#ArialMT-33"/>
       <use xlink:href="#ArialMT-31" x="55.615234"/>
       <use xlink:href="#ArialMT-35" x="111.230469"/>
       <use xlink:href="#ArialMT-b0" x="166.845703"/>
      </g>
     </g>
    </g>
   </g>
   <g id="matplotlib.axis_2">
    <g id="ytick_1">
     <g id="line2d_9">
      <path d="M 125.09869 108 
C 125.09869 106.156456 124.735553 104.330838 124.030059 102.627626 
C 123.324565 100.924413 122.290436 99.376729 120.986853 98.073147 
C 119.683271 96.769564 118.135587 95.735435 116.432374 95.029941 
C 114.729162 94.324447 112.903544 93.96131 111.06 93.96131 
C 109.216456 93.96131 107.390838 94.324447 105.687626 95.029941 
C 103.984413 95.735435 102.436729 96.769564 101.133147 98.073147 
C 99.829564 99.376729 98.795435 100.924413 98.089941 102.627626 
C 97.384447 104.330838 97.02131 106.156456 97.02131 108 
C 97.02131 109.843544 97.384447 111.669162 98.089941 113.372374 
C 98.795435 115.075587 99.829564 116.623271 101.133147 117.926853 
C 102.436729 119.230436 103.984413 120.264565 105.687626 120.970059 
C 107.390838 121.675553 109.216456 122.03869 111.06 122.03869 
C 112.903544 122.03869 114.729162 121.675553 116.432374 120.970059 
C 118.135587 120.264565 119.683271 119.230436 120.986853 117.926853 
C 122.290436 116.623271 123.324565 115.075587 124.030059 113.372374 
C 124.735553 111.669162 125.09869 109.843544 125.09869 108 
" clip-path="url(#p2b77d2ea4d)" style="fill: none; stroke: #ffffff; stroke-linecap: round"/>
     </g>
    </g>
    <g id="ytick_2">
     <g id="line2d_10">
      <path d="M 139.137381 108 
C 139.137381 104.312912 138.411105 100.661677 137.000118 97.255251 
C 135.58913 93.848826 133.520871 90.753458 130.913706 88.146294 
C 128.306542 85.539129 125.211174 83.47087 121.804749 82.059882 
C 118.398323 80.648895 114.747088 79.922619 111.06 79.922619 
C 107.372912 79.922619 103.721677 80.648895 100.315251 82.059882 
C 96.908826 83.47087 93.813458 85.539129 91.206294 88.146294 
C 88.599129 90.753458 86.53087 93.848826 85.119882 97.255251 
C 83.708895 100.661677 82.982619 104.312912 82.982619 108 
C 82.982619 111.687088 83.708895 115.338323 85.119882 118.744749 
C 86.53087 122.151174 88.599129 125.246542 91.206294 127.853706 
C 93.813458 130.460871 96.908826 132.52913 100.315251 133.940118 
C 103.721677 135.351105 107.372912 136.077381 111.06 136.077381 
C 114.747088 136.077381 118.398323 135.351105 121.804749 133.940118 
C 125.211174 132.52913 128.306542 130.460871 130.913706 127.853706 
C 133.520871 125.246542 135.58913 122.151174 137.000118 118.744749 
C 138.411105 115.338323 139.137381 111.687088 139.137381 108 
" clip-path="url(#p2b77d2ea4d)" style="fill: none; stroke: #ffffff; stroke-linecap: round"/>
     </g>
    </g>
    <g id="ytick_3">
     <g id="line2d_11">
      <path d="M 153.176071 108 
C 153.176071 102.469368 152.086658 96.992515 149.970176 91.882877 
C 147.853695 86.77324 144.751307 82.130188 140.84056 78.21944 
C 136.929812 74.308693 132.28676 71.206305 127.177123 69.089824 
C 122.067485 66.973342 116.590632 65.883929 111.06 65.883929 
C 105.529368 65.883929 100.052515 66.973342 94.942877 69.089824 
C 89.83324 71.206305 85.190188 74.308693 81.27944 78.21944 
C 77.368693 82.130188 74.266305 86.77324 72.149824 91.882877 
C 70.033342 96.992515 68.943929 102.469368 68.943929 108 
C 68.943929 113.530632 70.033342 119.007485 72.149824 124.117123 
C 74.266305 129.22676 77.368693 133.869812 81.27944 137.78056 
C 85.190188 141.691307 89.83324 144.793695 94.942877 146.910176 
C 100.052515 149.026658 105.529368 150.116071 111.06 150.116071 
C 116.590632 150.116071 122.067485 149.026658 127.177123 146.910176 
C 132.28676 144.793695 136.929812 141.691307 140.84056 137.78056 
C 144.751307 133.869812 147.853695 129.22676 149.970176 124.117123 
C 152.086658 119.007485 153.176071 113.530632 153.176071 108 
" clip-path="url(#p2b77d2ea4d)" style="fill: none; stroke: #ffffff; stroke-linecap: round"/>
     </g>
    </g>
    <g id="ytick_4">
     <g id="line2d_12">
      <path d="M 167.214762 108 
C 167.214762 100.625824 165.76221 93.323353 162.940235 86.510503 
C 160.11826 79.697653 155.981743 73.506917 150.767413 68.292587 
C 145.553083 63.078257 139.362347 58.94174 132.549497 56.119765 
C 125.736647 53.29779 118.434176 51.845238 111.06 51.845238 
C 103.685824 51.845238 96.383353 53.29779 89.570503 56.119765 
C 82.757653 58.94174 76.566917 63.078257 71.352587 68.292587 
C 66.138257 73.506917 62.00174 79.697653 59.179765 86.510503 
C 56.35779 93.323353 54.905238 100.625824 54.905238 108 
C 54.905238 115.374176 56.35779 122.676647 59.179765 129.489497 
C 62.00174 136.302347 66.138257 142.493083 71.352587 147.707413 
C 76.566917 152.921743 82.757653 157.05826 89.570503 159.880235 
C 96.383353 162.70221 103.685824 164.154762 111.06 164.154762 
C 118.434176 164.154762 125.736647 162.70221 132.549497 159.880235 
C 139.362347 157.05826 145.553083 152.921743 150.767413 147.707413 
C 155.981743 142.493083 160.11826 136.302347 162.940235 129.489497 
C 165.76221 122.676647 167.214762 115.374176 167.214762 108 
" clip-path="url(#p2b77d2ea4d)" style="fill: none; stroke: #ffffff; stroke-linecap: round"/>
     </g>
    </g>
    <g id="ytick_5">
     <g id="line2d_13">
      <path d="M 181.253452 108 
C 181.253452 98.78228 179.437763 89.654191 175.910294 81.138129 
C 172.382825 72.622066 167.212178 64.883646 160.694266 58.365734 
C 154.176354 51.847822 146.437934 46.677175 137.921871 43.149706 
C 129.405809 39.622237 120.27772 37.806548 111.06 37.806548 
C 101.84228 37.806548 92.714191 39.622237 84.198129 43.149706 
C 75.682066 46.677175 67.943646 51.847822 61.425734 58.365734 
C 54.907822 64.883646 49.737175 72.622066 46.209706 81.138129 
C 42.682237 89.654191 40.866548 98.78228 40.866548 108 
C 40.866548 117.21772 42.682237 126.345809 46.209706 134.861871 
C 49.737175 143.377934 54.907822 151.116354 61.425734 157.634266 
C 67.943646 164.152178 75.682066 169.322825 84.198129 172.850294 
C 92.714191 176.377763 101.84228 178.193452 111.06 178.193452 
C 120.27772 178.193452 129.405809 176.377763 137.921871 172.850294 
C 146.437934 169.322825 154.176354 164.152178 160.694266 157.634266 
C 167.212178 151.116354 172.382825 143.377934 175.910294 134.861871 
C 179.437763 126.345809 181.253452 117.21772 181.253452 108 
" clip-path="url(#p2b77d2ea4d)" style="fill: none; stroke: #ffffff; stroke-linecap: round"/>
     </g>
    </g>
   </g>
   <g id="patch_3">
    <path d="M 111.06 108 
C 111.06 108 111.06 108 111.06 108 
C 111.06 108 111.06 108 111.06 108 
L 66.228346 110.876016 
C 66.198234 110.406633 66.175496 109.936806 66.16014 109.466708 
C 66.144784 108.996611 66.136811 108.526301 66.136225 108.055954 
z
" clip-path="url(#p2b77d2ea4d)" style="fill: #4c72b0; stroke: #ffffff; stroke-linejoin: miter"/>
   </g>
   <g id="patch_4">
    <path d="M 111.06 108 
C 111.06 108 111.06 108 111.06 108 
C 111.06 108 111.06 108 111.06 108 
L 60.926985 114.395325 
C 60.860026 113.870437 60.801315 113.34453 60.750873 112.817798 
C 60.700431 112.291066 60.658265 111.763574 60.624389 111.235518 
z
" clip-path="url(#p2b77d2ea4d)" style="fill: #4c72b0; stroke: #ffffff; stroke-linejoin: miter"/>
   </g>
   <g id="patch_5">
    <path d="M 111.06 108 
C 111.06 108 111.06 108 111.06 108 
C 111.06 108 111.06 108 111.06 108 
L 60.875872 117.635791 
C 60.774986 117.110368 60.682358 116.583393 60.598023 116.055061 
C 60.513687 115.526729 60.437654 114.997104 60.369951 114.466384 
z
" clip-path="url(#p2b77d2ea4d)" style="fill: #4c72b0; stroke: #ffffff; stroke-linejoin: miter"/>
   </g>
   <g id="patch_6">
    <path d="M 111.06 108 
C 111.06 108 111.06 108 111.06 108 
C 111.06 108 111.06 108 111.06 108 
L 59.948544 121.188083 
C 59.810466 120.652951 59.6808 120.115683 59.559596 119.576479 
C 59.438391 119.037274 59.325662 118.4962 59.22145 117.953455 
z
" clip-path="url(#p2b77d2ea4d)" style="fill: #4c72b0; stroke: #ffffff; stroke-linejoin: miter"/>
   </g>
   <g id="patch_7">
    <path d="M 111.06 108 
C 111.06 108 111.06 108 111.06 108 
C 111.06 108 111.06 108 111.06 108 
L 53.937097 126.634718 
C 53.741993 126.036647 53.556294 125.435548 53.380069 124.831645 
C 53.203843 124.227741 53.037112 123.621107 52.879938 123.011967 
z
" clip-path="url(#p2b77d2ea4d)" style="fill: #4c72b0; stroke: #ffffff; stroke-linejoin: miter"/>
   </g>
   <g id="patch_8">
    <path d="M 111.06 108 
C 111.06 108 111.06 108 111.06 108 
C 111.06 108 111.06 108 111.06 108 
L 63.569563 126.866731 
C 63.37203 126.369511 63.182318 125.869219 63.000497 125.36604 
C 62.818676 124.862862 62.644769 124.356859 62.47884 123.848218 
z
" clip-path="url(#p2b77d2ea4d)" style="fill: #4c72b0; stroke: #ffffff; stroke-linejoin: miter"/>
   </g>
   <g id="patch_9">
    <path d="M 111.06 108 
C 111.06 108 111.06 108 111.06 108 
C 111.06 108 111.06 108 111.06 108 
L 58.753688 132.68697 
C 58.495218 132.139328 58.245364 131.58766 58.00422 131.032171 
C 57.763075 130.476682 57.530669 129.91744 57.307088 129.354652 
z
" clip-path="url(#p2b77d2ea4d)" style="fill: #4c72b0; stroke: #ffffff; stroke-linejoin: miter"/>
   </g>
   <g id="patch_10">
    <path d="M 111.06 108 
C 111.06 108 111.06 108 111.06 108 
C 111.06 108 111.06 108 111.06 108 
L 59.914848 136.192989 
C 59.61967 135.657504 59.33292 135.117417 59.054704 134.572926 
C 58.776488 134.028435 58.50684 133.479609 58.24586 132.92665 
z
" clip-path="url(#p2b77d2ea4d)" style="fill: #4c72b0; stroke: #ffffff; stroke-linejoin: miter"/>
   </g>
   <g id="patch_11">
    <path d="M 111.06 108 
C 111.06 108 111.06 108 111.06 108 
C 111.06 108 111.06 108 111.06 108 
L 63.680764 138.142416 
C 63.365175 137.64636 63.057397 137.145378 62.757542 136.639656 
C 62.457688 136.133933 62.165794 135.623533 61.881969 135.108644 
z
" clip-path="url(#p2b77d2ea4d)" style="fill: #4c72b0; stroke: #ffffff; stroke-linejoin: miter"/>
   </g>
   <g id="patch_12">
    <path d="M 111.06 108 
C 111.06 108 111.06 108 111.06 108 
C 111.06 108 111.06 108 111.06 108 
L 64.304655 142.049 
C 63.948165 141.559476 63.599385 141.064384 63.258444 140.563906 
C 62.917503 140.063428 62.584442 139.557626 62.259386 139.046688 
z
" clip-path="url(#p2b77d2ea4d)" style="fill: #4c72b0; stroke: #ffffff; stroke-linejoin: miter"/>
   </g>
   <g id="patch_13">
    <path d="M 111.06 108 
C 111.06 108 111.06 108 111.06 108 
C 111.06 108 111.06 108 111.06 108 
L 69.992666 142.049656 
C 69.636169 141.619684 69.286447 141.184141 68.943629 140.743186 
C 68.600811 140.302232 68.264939 139.855921 67.936138 139.404418 
z
" clip-path="url(#p2b77d2ea4d)" style="fill: #4c72b0; stroke: #ffffff; stroke-linejoin: miter"/>
   </g>
   <g id="patch_14">
    <path d="M 111.06 108 
C 111.06 108 111.06 108 111.06 108 
C 111.06 108 111.06 108 111.06 108 
L 63.623568 152.642384 
C 63.156166 152.145729 62.696593 151.641764 62.245019 151.130676 
C 61.793445 150.619588 61.349925 150.101439 60.914624 149.576421 
z
" clip-path="url(#p2b77d2ea4d)" style="fill: #4c72b0; stroke: #ffffff; stroke-linejoin: miter"/>
   </g>
   <g id="patch_15">
    <path d="M 111.06 108 
C 111.06 108 111.06 108 111.06 108 
C 111.06 108 111.06 108 111.06 108 
L 70.359327 151.434634 
C 69.90457 151.008502 69.456534 150.575254 69.015384 150.13505 
C 68.574234 149.694847 68.140024 149.247743 67.712916 148.793903 
z
" clip-path="url(#p2b77d2ea4d)" style="fill: #4c72b0; stroke: #ffffff; stroke-linejoin: miter"/>
   </g>
   <g id="patch_16">
    <path d="M 111.06 108 
C 111.06 108 111.06 108 111.06 108 
C 111.06 108 111.06 108 111.06 108 
L 69.591417 158.234591 
C 69.065465 157.800419 68.546365 157.358014 68.034307 156.907538 
C 67.52225 156.457063 67.017299 155.998574 66.51964 155.532241 
z
" clip-path="url(#p2b77d2ea4d)" style="fill: #4c72b0; stroke: #ffffff; stroke-linejoin: miter"/>
   </g>
   <g id="patch_17">
    <path d="M 111.06 108 
C 111.06 108 111.06 108 111.06 108 
C 111.06 108 111.06 108 111.06 108 
L 77.77073 153.919106 
C 77.289961 153.57057 76.814696 153.214506 76.34511 152.851044 
C 75.875523 152.487582 75.411674 152.116768 74.953733 151.738739 
z
" clip-path="url(#p2b77d2ea4d)" style="fill: #4c72b0; stroke: #ffffff; stroke-linejoin: miter"/>
   </g>
   <g id="patch_18">
    <path d="M 111.06 108 
C 111.06 108 111.06 108 111.06 108 
C 111.06 108 111.06 108 111.06 108 
L 75.612154 163.983791 
C 75.026009 163.612656 74.445728 163.232337 73.871527 162.842978 
C 73.297327 162.453618 72.729276 162.055264 72.167586 161.648064 
z
" clip-path="url(#p2b77d2ea4d)" style="fill: #4c72b0; stroke: #ffffff; stroke-linejoin: miter"/>
   </g>
   <g id="patch_19">
    <path d="M 111.06 108 
C 111.06 108 111.06 108 111.06 108 
C 111.06 108 111.06 108 111.06 108 
L 86.217316 153.29727 
C 85.743058 153.037169 85.272914 152.769637 84.807058 152.494771 
C 84.341201 152.219905 83.879691 151.93774 83.422696 151.64838 
z
" clip-path="url(#p2b77d2ea4d)" style="fill: #4c72b0; stroke: #ffffff; stroke-linejoin: miter"/>
   </g>
   <g id="patch_20">
    <path d="M 111.06 108 
C 111.06 108 111.06 108 111.06 108 
C 111.06 108 111.06 108 111.06 108 
L 84.338183 164.934312 
C 83.742086 164.654537 83.15042 164.365418 82.563403 164.067061 
C 81.976386 163.768704 81.39409 163.461147 80.816733 163.144503 
z
" clip-path="url(#p2b77d2ea4d)" style="fill: #4c72b0; stroke: #ffffff; stroke-linejoin: miter"/>
   </g>
   <g id="patch_21">
    <path d="M 111.06 108 
C 111.06 108 111.06 108 111.06 108 
C 111.06 108 111.06 108 111.06 108 
L 89.202276 163.365622 
C 88.622603 163.136774 88.04656 162.898836 87.474359 162.651897 
C 86.902159 162.404957 86.333872 162.149046 85.769709 161.884259 
z
" clip-path="url(#p2b77d2ea4d)" style="fill: #4c72b0; stroke: #ffffff; stroke-linejoin: miter"/>
   </g>
   <g id="patch_22">
    <path d="M 111.06 108 
C 111.06 108 111.06 108 111.06 108 
C 111.06 108 111.06 108 111.06 108 
L 92.37505 165.697041 
C 91.770967 165.501412 91.169994 165.296307 90.572353 165.081803 
C 89.974712 164.867299 89.380476 164.643423 88.789866 164.410257 
z
" clip-path="url(#p2b77d2ea4d)" style="fill: #4c72b0; stroke: #ffffff; stroke-linejoin: miter"/>
   </g>
   <g id="patch_23">
    <path d="M 111.06 108 
C 111.06 108 111.06 108 111.06 108 
C 111.06 108 111.06 108 111.06 108 
L 98.120895 158.595635 
C 97.591163 158.460164 97.063592 158.316382 96.538376 158.164341 
C 96.01316 158.012301 95.490364 157.852022 94.970182 157.683563 
z
" clip-path="url(#p2b77d2ea4d)" style="fill: #4c72b0; stroke: #ffffff; stroke-linejoin: miter"/>
   </g>
   <g id="patch_24">
    <path d="M 111.06 108 
C 111.06 108 111.06 108 111.06 108 
C 111.06 108 111.06 108 111.06 108 
L 101.427354 158.756416 
C 100.895939 158.655563 100.36614 158.54637 99.838155 158.428879 
C 99.310169 158.311387 98.784061 158.18561 98.260025 158.051596 
z
" clip-path="url(#p2b77d2ea4d)" style="fill: #4c72b0; stroke: #ffffff; stroke-linejoin: miter"/>
   </g>
   <g id="patch_25">
    <path d="M 111.06 108 
C 111.06 108 111.06 108 111.06 108 
C 111.06 108 111.06 108 111.06 108 
L 105.051854 155.917901 
C 104.550158 155.854996 104.049481 155.784216 103.550008 155.705587 
C 103.050535 155.626958 102.552327 155.54049 102.05557 155.446215 
z
" clip-path="url(#p2b77d2ea4d)" style="fill: #4c72b0; stroke: #ffffff; stroke-linejoin: miter"/>
   </g>
   <g id="patch_26">
    <path d="M 111.06 108 
C 111.06 108 111.06 108 111.06 108 
C 111.06 108 111.06 108 111.06 108 
L 107.27268 169.091407 
C 106.633059 169.051754 105.994099 169.002058 105.356039 168.942338 
C 104.717978 168.882618 104.080895 168.812882 103.445024 168.733153 
z
" clip-path="url(#p2b77d2ea4d)" style="fill: #4c72b0; stroke: #ffffff; stroke-linejoin: miter"/>
   </g>
   <g id="patch_27">
    <path d="M 111.06 108 
C 111.06 108 111.06 108 111.06 108 
C 111.06 108 111.06 108 111.06 108 
L 111.109698 163.031644 
C 110.533522 163.032165 109.957373 163.023636 109.381464 163.006062 
C 108.805556 162.988488 108.229959 162.96187 107.654887 162.926219 
z
" clip-path="url(#p2b77d2ea4d)" style="fill: #4c72b0; stroke: #ffffff; stroke-linejoin: miter"/>
   </g>
   <g id="patch_28">
    <path d="M 111.06 108 
C 111.06 108 111.06 108 111.06 108 
C 111.06 108 111.06 108 111.06 108 
L 114.778863 166.282427 
C 114.168651 166.321363 113.557866 166.350714 112.946732 166.370468 
C 112.335599 166.390221 111.724193 166.400376 111.112741 166.400929 
z
" clip-path="url(#p2b77d2ea4d)" style="fill: #4c72b0; stroke: #ffffff; stroke-linejoin: miter"/>
   </g>
   <g id="patch_29">
    <path d="M 111.06 108 
C 111.06 108 111.06 108 111.06 108 
C 111.06 108 111.06 108 111.06 108 
L 118.64292 167.605185 
C 118.018859 167.684577 117.39359 167.754164 116.767344 167.81392 
C 116.141098 167.873675 115.513952 167.923592 114.886138 167.963651 
z
" clip-path="url(#p2b77d2ea4d)" style="fill: #4c72b0; stroke: #ffffff; stroke-linejoin: miter"/>
   </g>
   <g id="patch_30">
    <path d="M 111.06 108 
C 111.06 108 111.06 108 111.06 108 
C 111.06 108 111.06 108 111.06 108 
L 123.743876 174.181219 
C 123.050964 174.314018 122.35601 174.435927 121.65927 174.5469 
C 120.96253 174.657874 120.264091 174.757898 119.564209 174.846936 
z
" clip-path="url(#p2b77d2ea4d)" style="fill: #4c72b0; stroke: #ffffff; stroke-linejoin: miter"/>
   </g>
   <g id="patch_31">
    <path d="M 111.06 108 
C 111.06 108 111.06 108 111.06 108 
C 111.06 108 111.06 108 111.06 108 
L 122.409117 152.04674 
C 121.947951 152.165564 121.484948 152.277138 121.020279 152.381421 
C 120.55561 152.485705 120.089331 152.582684 119.621616 152.672323 
z
" clip-path="url(#p2b77d2ea4d)" style="fill: #4c72b0; stroke: #ffffff; stroke-linejoin: miter"/>
   </g>
   <g id="patch_32">
    <path d="M 111.06 108 
C 111.06 108 111.06 108 111.06 108 
C 111.06 108 111.06 108 111.06 108 
L 124.8039 150.179562 
C 124.362284 150.32346 123.918435 150.460413 123.472518 150.590371 
C 123.026601 150.720329 122.57867 150.843275 122.128892 150.959166 
z
" clip-path="url(#p2b77d2ea4d)" style="fill: #4c72b0; stroke: #ffffff; stroke-linejoin: miter"/>
   </g>
   <g id="patch_33">
    <path d="M 111.06 108 
C 111.06 108 111.06 108 111.06 108 
C 111.06 108 111.06 108 111.06 108 
L 134.260575 166.457717 
C 133.648528 166.700625 133.032704 166.933906 132.413331 167.157473 
C 131.793958 167.381041 131.171112 167.594867 130.545023 167.798873 
z
" clip-path="url(#p2b77d2ea4d)" style="fill: #4c72b0; stroke: #ffffff; stroke-linejoin: miter"/>
   </g>
   <g id="patch_34">
    <path d="M 111.06 108 
C 111.06 108 111.06 108 111.06 108 
C 111.06 108 111.06 108 111.06 108 
L 133.813014 156.25148 
C 133.307825 156.489702 132.798926 156.719975 132.286506 156.942215 
C 131.774086 157.164454 131.258206 157.378633 130.739059 157.584671 
z
" clip-path="url(#p2b77d2ea4d)" style="fill: #4c72b0; stroke: #ffffff; stroke-linejoin: miter"/>
   </g>
   <g id="patch_35">
    <path d="M 111.06 108 
C 111.06 108 111.06 108 111.06 108 
C 111.06 108 111.06 108 111.06 108 
L 138.422719 157.679184 
C 137.902583 157.96567 137.377979 158.243968 136.849103 158.513978 
C 136.320226 158.783987 135.787141 159.045674 135.250046 159.298942 
z
" clip-path="url(#p2b77d2ea4d)" style="fill: #4c72b0; stroke: #ffffff; stroke-linejoin: miter"/>
   </g>
   <g id="patch_36">
    <path d="M 111.06 108 
C 111.06 108 111.06 108 111.06 108 
C 111.06 108 111.06 108 111.06 108 
L 138.173571 150.6506 
C 137.727023 150.934477 137.276044 151.211323 136.820802 151.481036 
C 136.365559 151.750749 135.906109 152.013296 135.442621 152.26858 
z
" clip-path="url(#p2b77d2ea4d)" style="fill: #4c72b0; stroke: #ffffff; stroke-linejoin: miter"/>
   </g>
   <g id="patch_37">
    <path d="M 111.06 108 
C 111.06 108 111.06 108 111.06 108 
C 111.06 108 111.06 108 111.06 108 
L 141.127979 149.31842 
C 140.695379 149.633229 140.257862 149.941224 139.815589 150.242293 
C 139.373316 150.543361 138.926342 150.837465 138.474832 151.124496 
z
" clip-path="url(#p2b77d2ea4d)" style="fill: #4c72b0; stroke: #ffffff; stroke-linejoin: miter"/>
   </g>
   <g id="patch_38">
    <path d="M 111.06 108 
C 111.06 108 111.06 108 111.06 108 
C 111.06 108 111.06 108 111.06 108 
L 151.544439 156.862379 
C 151.032854 157.286248 150.514645 157.702056 149.990001 158.109649 
C 149.465358 158.517243 148.934345 158.916572 148.397161 159.307488 
z
" clip-path="url(#p2b77d2ea4d)" style="fill: #4c72b0; stroke: #ffffff; stroke-linejoin: miter"/>
   </g>
   <g id="patch_39">
    <path d="M 111.06 108 
C 111.06 108 111.06 108 111.06 108 
C 111.06 108 111.06 108 111.06 108 
L 146.068435 145.225054 
C 145.678693 145.591589 145.283217 145.95198 144.882156 146.306095 
C 144.481095 146.66021 144.074497 147.008004 143.662513 147.34935 
z
" clip-path="url(#p2b77d2ea4d)" style="fill: #4c72b0; stroke: #ffffff; stroke-linejoin: miter"/>
   </g>
   <g id="patch_40">
    <path d="M 111.06 108 
C 111.06 108 111.06 108 111.06 108 
C 111.06 108 111.06 108 111.06 108 
L 155.299952 149.483763 
C 154.865621 149.946951 154.424042 150.40329 153.975379 150.85261 
C 153.526717 151.30193 153.071025 151.744176 152.608473 152.179185 
z
" clip-path="url(#p2b77d2ea4d)" style="fill: #4c72b0; stroke: #ffffff; stroke-linejoin: miter"/>
   </g>
   <g id="patch_41">
    <path d="M 111.06 108 
C 111.06 108 111.06 108 111.06 108 
C 111.06 108 111.06 108 111.06 108 
L 160.847453 149.128147 
C 160.416845 149.649417 159.978078 150.163893 159.531312 150.671383 
C 159.084547 151.178873 158.629839 151.679316 158.167356 152.172525 
z
" clip-path="url(#p2b77d2ea4d)" style="fill: #4c72b0; stroke: #ffffff; stroke-linejoin: miter"/>
   </g>
   <g id="patch_42">
    <path d="M 111.06 108 
C 111.06 108 111.06 108 111.06 108 
C 111.06 108 111.06 108 111.06 108 
L 161.513021 144.602517 
C 161.129796 145.130755 160.738298 145.652943 160.338674 146.168886 
C 159.939049 146.684829 159.531346 147.194464 159.115716 147.697603 
z
" clip-path="url(#p2b77d2ea4d)" style="fill: #4c72b0; stroke: #ffffff; stroke-linejoin: miter"/>
   </g>
   <g id="patch_43">
    <path d="M 111.06 108 
C 111.06 108 111.06 108 111.06 108 
C 111.06 108 111.06 108 111.06 108 
L 158.019265 137.756225 
C 157.70772 138.247884 157.388473 138.73462 157.061642 139.216253 
C 156.73481 139.697886 156.400435 140.174356 156.05864 140.645488 
z
" clip-path="url(#p2b77d2ea4d)" style="fill: #4c72b0; stroke: #ffffff; stroke-linejoin: miter"/>
   </g>
   <g id="patch_44">
    <path d="M 111.06 108 
C 111.06 108 111.06 108 111.06 108 
C 111.06 108 111.06 108 111.06 108 
L 160.286913 135.019776 
C 160.004019 135.535178 159.713047 136.046104 159.414106 136.552367 
C 159.115166 137.05863 158.808293 137.560167 158.493601 138.056793 
z
" clip-path="url(#p2b77d2ea4d)" style="fill: #4c72b0; stroke: #ffffff; stroke-linejoin: miter"/>
   </g>
   <g id="patch_45">
    <path d="M 111.06 108 
C 111.06 108 111.06 108 111.06 108 
C 111.06 108 111.06 108 111.06 108 
L 162.902554 132.353695 
C 162.647574 132.896482 162.384084 133.435231 162.112183 133.969742 
C 161.840282 134.504254 161.560004 135.034463 161.271451 135.560172 
z
" clip-path="url(#p2b77d2ea4d)" style="fill: #4c72b0; stroke: #ffffff; stroke-linejoin: miter"/>
   </g>
   <g id="patch_46">
    <path d="M 111.06 108 
C 111.06 108 111.06 108 111.06 108 
C 111.06 108 111.06 108 111.06 108 
L 154.92871 125.336239 
C 154.747201 125.79554 154.55849 126.251963 154.362647 126.705338 
C 154.166804 127.158712 153.963853 127.608983 153.753868 128.055984 
z
" clip-path="url(#p2b77d2ea4d)" style="fill: #4c72b0; stroke: #ffffff; stroke-linejoin: miter"/>
   </g>
   <g id="patch_47">
    <path d="M 111.06 108 
C 111.06 108 111.06 108 111.06 108 
C 111.06 108 111.06 108 111.06 108 
L 166.613949 126.01194 
C 166.425366 126.593585 166.227659 127.172232 166.020903 127.747668 
C 165.814147 128.323103 165.598366 128.895256 165.373641 129.463915 
z
" clip-path="url(#p2b77d2ea4d)" style="fill: #4c72b0; stroke: #ffffff; stroke-linejoin: miter"/>
   </g>
   <g id="patch_48">
    <path d="M 111.06 108 
C 111.06 108 111.06 108 111.06 108 
C 111.06 108 111.06 108 111.06 108 
L 170.355064 123.185494 
C 170.196073 123.806307 170.027342 124.424586 169.848934 125.040101 
C 169.670526 125.655615 169.482462 126.26829 169.284812 126.877899 
z
" clip-path="url(#p2b77d2ea4d)" style="fill: #4c72b0; stroke: #ffffff; stroke-linejoin: miter"/>
   </g>
   <g id="patch_49">
    <path d="M 111.06 108 
C 111.06 108 111.06 108 111.06 108 
C 111.06 108 111.06 108 111.06 108 
L 168.433085 118.908726 
C 168.318872 119.509417 168.195232 120.108277 168.062211 120.705085 
C 167.92919 121.301893 167.786804 121.896575 167.635107 122.488911 
z
" clip-path="url(#p2b77d2ea4d)" style="fill: #4c72b0; stroke: #ffffff; stroke-linejoin: miter"/>
   </g>
   <g id="patch_50">
    <path d="M 111.06 108 
C 111.06 108 111.06 108 111.06 108 
C 111.06 108 111.06 108 111.06 108 
L 163.433128 114.584979 
C 163.364184 115.13332 163.286633 115.680546 163.200502 116.226452 
C 163.114372 116.772358 163.019674 117.316878 162.916443 117.85981 
z
" clip-path="url(#p2b77d2ea4d)" style="fill: #4c72b0; stroke: #ffffff; stroke-linejoin: miter"/>
   </g>
   <g id="patch_51">
    <path d="M 111.06 108 
C 111.06 108 111.06 108 111.06 108 
C 111.06 108 111.06 108 111.06 108 
L 170.468727 111.703426 
C 170.429953 112.32543 170.381412 112.946787 170.323123 113.567266 
C 170.264835 114.187746 170.196805 114.807271 170.119059 115.425614 
z
" clip-path="url(#p2b77d2ea4d)" style="fill: #4c72b0; stroke: #ffffff; stroke-linejoin: miter"/>
   </g>
   <g id="patch_52">
    <path d="M 111.06 108 
C 111.06 108 111.06 108 111.06 108 
C 111.06 108 111.06 108 111.06 108 
L 159.914635 107.97261 
C 159.914922 108.484114 159.907176 108.99559 159.891399 109.506851 
C 159.875622 110.018111 159.851818 110.529092 159.819993 111.039605 
z
" clip-path="url(#p2b77d2ea4d)" style="fill: #4c72b0; stroke: #ffffff; stroke-linejoin: miter"/>
   </g>
   <g id="patch_53">
    <path d="M 111.06 108 
C 111.06 108 111.06 108 111.06 108 
C 111.06 108 111.06 108 111.06 108 
L 172.706218 104.087698 
C 172.74718 104.733128 172.778002 105.379161 172.798674 106.02556 
C 172.819346 106.671958 172.829866 107.318641 172.830228 107.96537 
z
" clip-path="url(#p2b77d2ea4d)" style="fill: #4c72b0; stroke: #ffffff; stroke-linejoin: miter"/>
   </g>
   <g id="patch_54">
    <path d="M 111.06 108 
C 111.06 108 111.06 108 111.06 108 
C 111.06 108 111.06 108 111.06 108 
L 168.43945 100.720202 
C 168.515669 101.32096 168.582448 101.922877 168.639763 102.525732 
C 168.697078 103.128587 168.744922 103.732305 168.783277 104.336662 
z
" clip-path="url(#p2b77d2ea4d)" style="fill: #4c72b0; stroke: #ffffff; stroke-linejoin: miter"/>
   </g>
   <g id="patch_55">
    <path d="M 111.06 108 
C 111.06 108 111.06 108 111.06 108 
C 111.06 108 111.06 108 111.06 108 
L 164.559993 97.765521 
C 164.667148 98.325661 164.765498 98.887449 164.855009 99.450678 
C 164.944519 100.013907 165.025179 100.578506 165.096958 101.144268 
z
" clip-path="url(#p2b77d2ea4d)" style="fill: #4c72b0; stroke: #ffffff; stroke-linejoin: miter"/>
   </g>
   <g id="patch_56">
    <path d="M 111.06 108 
C 111.06 108 111.06 108 111.06 108 
C 111.06 108 111.06 108 111.06 108 
L 156.198293 96.386115 
C 156.319889 96.858709 156.434056 97.333183 156.540751 97.809362 
C 156.647446 98.285541 156.746656 98.763367 156.838345 99.242662 
z
" clip-path="url(#p2b77d2ea4d)" style="fill: #4c72b0; stroke: #ffffff; stroke-linejoin: miter"/>
   </g>
   <g id="patch_57">
    <path d="M 111.06 108 
C 111.06 108 111.06 108 111.06 108 
C 111.06 108 111.06 108 111.06 108 
L 162.855872 91.142314 
C 163.03237 91.684612 163.200341 92.229649 163.359722 92.777222 
C 163.519103 93.324795 163.669875 93.874838 163.811981 94.427146 
z
" clip-path="url(#p2b77d2ea4d)" style="fill: #4c72b0; stroke: #ffffff; stroke-linejoin: miter"/>
   </g>
   <g id="patch_58">
    <path d="M 111.06 108 
C 111.06 108 111.06 108 111.06 108 
C 111.06 108 111.06 108 111.06 108 
L 168.481629 85.233383 
C 168.719993 85.834582 168.948901 86.439488 169.168268 87.047876 
C 169.387635 87.656264 169.597433 88.26806 169.797586 88.883037 
z
" clip-path="url(#p2b77d2ea4d)" style="fill: #4c72b0; stroke: #ffffff; stroke-linejoin: miter"/>
   </g>
   <g id="patch_59">
    <path d="M 111.06 108 
C 111.06 108 111.06 108 111.06 108 
C 111.06 108 111.06 108 111.06 108 
L 166.939153 81.673539 
C 167.214789 82.258589 167.481219 82.847931 167.738346 83.441348 
C 167.995473 84.034765 168.243264 84.632184 168.481629 85.233383 
z
" clip-path="url(#p2b77d2ea4d)" style="fill: #4c72b0; stroke: #ffffff; stroke-linejoin: miter"/>
   </g>
   <g id="patch_60">
    <path d="M 111.06 108 
C 111.06 108 111.06 108 111.06 108 
C 111.06 108 111.06 108 111.06 108 
L 160.748552 80.654295 
C 161.034859 81.174529 161.312978 81.699228 161.582806 82.228197 
C 161.852635 82.757166 162.114139 83.29034 162.367223 83.827522 
z
" clip-path="url(#p2b77d2ea4d)" style="fill: #4c72b0; stroke: #ffffff; stroke-linejoin: miter"/>
   </g>
   <g id="patch_61">
    <path d="M 111.06 108 
C 111.06 108 111.06 108 111.06 108 
C 111.06 108 111.06 108 111.06 108 
L 160.355864 76.685642 
C 160.683723 77.201765 161.003455 77.723006 161.314944 78.24917 
C 161.626432 78.775335 161.929638 79.306359 162.224449 79.842046 
z
" clip-path="url(#p2b77d2ea4d)" style="fill: #4c72b0; stroke: #ffffff; stroke-linejoin: miter"/>
   </g>
   <g id="patch_62">
    <path d="M 111.06 108 
C 111.06 108 111.06 108 111.06 108 
C 111.06 108 111.06 108 111.06 108 
L 159.655301 72.661982 
C 160.025287 73.170771 160.387259 73.685338 160.741085 74.205495 
C 161.09491 74.725651 161.440544 75.251332 161.77786 75.782343 
z
" clip-path="url(#p2b77d2ea4d)" style="fill: #4c72b0; stroke: #ffffff; stroke-linejoin: miter"/>
   </g>
   <g id="patch_63">
    <path d="M 111.06 108 
C 111.06 108 111.06 108 111.06 108 
C 111.06 108 111.06 108 111.06 108 
L 157.341042 69.681024 
C 157.742238 70.165582 158.135799 70.656411 158.52158 71.153329 
C 158.907362 71.650248 159.285315 72.153194 159.655301 72.661982 
z
" clip-path="url(#p2b77d2ea4d)" style="fill: #4c72b0; stroke: #ffffff; stroke-linejoin: miter"/>
   </g>
   <g id="patch_64">
    <path d="M 111.06 108 
C 111.06 108 111.06 108 111.06 108 
C 111.06 108 111.06 108 111.06 108 
L 147.887842 73.388882 
C 148.250217 73.774466 148.606514 74.165718 148.956602 74.562491 
C 149.306689 74.959265 149.650524 75.361513 149.987979 75.769085 
z
" clip-path="url(#p2b77d2ea4d)" style="fill: #4c72b0; stroke: #ffffff; stroke-linejoin: miter"/>
   </g>
   <g id="patch_65">
    <path d="M 111.06 108 
C 111.06 108 111.06 108 111.06 108 
C 111.06 108 111.06 108 111.06 108 
L 141.799933 75.24019 
C 142.142926 75.562034 142.480842 75.889245 142.813558 76.221702 
C 143.146274 76.554159 143.473748 76.89182 143.795859 77.234562 
z
" clip-path="url(#p2b77d2ea4d)" style="fill: #4c72b0; stroke: #ffffff; stroke-linejoin: miter"/>
   </g>
   <g id="patch_66">
    <path d="M 111.06 108 
C 111.06 108 111.06 108 111.06 108 
C 111.06 108 111.06 108 111.06 108 
L 148.269567 62.987564 
C 148.740843 63.377145 149.205972 63.774103 149.664781 64.178292 
C 150.12359 64.58248 150.576024 64.993849 151.021913 65.412247 
z
" clip-path="url(#p2b77d2ea4d)" style="fill: #4c72b0; stroke: #ffffff; stroke-linejoin: miter"/>
   </g>
   <g id="patch_67">
    <path d="M 111.06 108 
C 111.06 108 111.06 108 111.06 108 
C 111.06 108 111.06 108 111.06 108 
L 140.421815 67.55673 
C 140.845252 67.864145 141.263836 68.178192 141.67741 68.498753 
C 142.090985 68.819315 142.499499 69.146351 142.902803 69.479743 
z
" clip-path="url(#p2b77d2ea4d)" style="fill: #4c72b0; stroke: #ffffff; stroke-linejoin: miter"/>
   </g>
   <g id="patch_68">
    <path d="M 111.06 108 
C 111.06 108 111.06 108 111.06 108 
C 111.06 108 111.06 108 111.06 108 
L 141.433765 60.102462 
C 141.935247 60.420472 142.431705 60.746339 142.922954 61.079941 
C 143.414202 61.413543 143.900182 61.75484 144.380712 62.103704 
z
" clip-path="url(#p2b77d2ea4d)" style="fill: #4c72b0; stroke: #ffffff; stroke-linejoin: miter"/>
   </g>
   <g id="patch_69">
    <path d="M 111.06 108 
C 111.06 108 111.06 108 111.06 108 
C 111.06 108 111.06 108 111.06 108 
L 141.881761 51.89187 
C 142.469208 52.214571 143.05155 52.546478 143.628573 52.887468 
C 144.205597 53.228458 144.777229 53.578489 145.343259 53.937432 
z
" clip-path="url(#p2b77d2ea4d)" style="fill: #4c72b0; stroke: #ffffff; stroke-linejoin: miter"/>
   </g>
   <g id="patch_70">
    <path d="M 111.06 108 
C 111.06 108 111.06 108 111.06 108 
C 111.06 108 111.06 108 111.06 108 
L 137.103997 52.608539 
C 137.683941 52.881217 138.259566 53.162986 138.83066 53.453742 
C 139.401755 53.744499 139.968247 54.044206 140.529929 54.352753 
z
" clip-path="url(#p2b77d2ea4d)" style="fill: #4c72b0; stroke: #ffffff; stroke-linejoin: miter"/>
   </g>
   <g id="patch_71">
    <path d="M 111.06 108 
C 111.06 108 111.06 108 111.06 108 
C 111.06 108 111.06 108 111.06 108 
L 130.270324 59.437647 
C 130.778768 59.638777 131.284021 59.84788 131.785897 60.064878 
C 132.287773 60.281876 132.786211 60.506743 133.281025 60.739395 
z
" clip-path="url(#p2b77d2ea4d)" style="fill: #4c72b0; stroke: #ffffff; stroke-linejoin: miter"/>
   </g>
   <g id="patch_72">
    <path d="M 111.06 108 
C 111.06 108 111.06 108 111.06 108 
C 111.06 108 111.06 108 111.06 108 
L 127.010467 58.861581 
C 127.524942 59.028581 128.036762 59.203651 128.545739 59.386725 
C 129.054715 59.569799 129.560785 59.760855 130.063762 59.959823 
z
" clip-path="url(#p2b77d2ea4d)" style="fill: #4c72b0; stroke: #ffffff; stroke-linejoin: miter"/>
   </g>
   <g id="patch_73">
    <path d="M 111.06 108 
C 111.06 108 111.06 108 111.06 108 
C 111.06 108 111.06 108 111.06 108 
L 127.102814 45.446478 
C 127.757744 45.614445 128.409995 45.792687 129.059327 45.981138 
C 129.708659 46.169589 130.354991 46.368227 130.998084 46.576977 
z
" clip-path="url(#p2b77d2ea4d)" style="fill: #4c72b0; stroke: #ffffff; stroke-linejoin: miter"/>
   </g>
   <g id="patch_74">
    <path d="M 111.06 108 
C 111.06 108 111.06 108 111.06 108 
C 111.06 108 111.06 108 111.06 108 
L 120.412165 58.905079 
C 120.926184 59.002995 121.438634 59.108978 121.949325 59.222988 
C 122.460016 59.336998 122.968885 59.459022 123.475743 59.589013 
z
" clip-path="url(#p2b77d2ea4d)" style="fill: #4c72b0; stroke: #ffffff; stroke-linejoin: miter"/>
   </g>
   <g id="patch_75">
    <path d="M 111.06 108 
C 111.06 108 111.06 108 111.06 108 
C 111.06 108 111.06 108 111.06 108 
L 117.592669 56.186267 
C 118.135154 56.254663 118.676532 56.331575 119.216601 56.416974 
C 119.756671 56.502373 120.295366 56.596248 120.832487 56.698565 
z
" clip-path="url(#p2b77d2ea4d)" style="fill: #4c72b0; stroke: #ffffff; stroke-linejoin: miter"/>
   </g>
   <g id="patch_76">
    <path d="M 111.06 108 
C 111.06 108 111.06 108 111.06 108 
C 111.06 108 111.06 108 111.06 108 
L 114.74864 49.152992 
C 115.364763 49.191612 115.980241 49.239905 116.594847 49.297855 
C 117.209453 49.355804 117.823111 49.423402 118.435594 49.500624 
z
" clip-path="url(#p2b77d2ea4d)" style="fill: #4c72b0; stroke: #ffffff; stroke-linejoin: miter"/>
   </g>
   <g id="patch_77">
    <path d="M 111.06 108 
C 111.06 108 111.06 108 111.06 108 
C 111.06 108 111.06 108 111.06 108 
L 111.049095 58.022263 
C 111.572358 58.022149 112.095589 58.030253 112.618597 58.046571 
C 113.141605 58.062889 113.664324 58.08742 114.186562 58.120155 
z
" clip-path="url(#p2b77d2ea4d)" style="fill: #4c72b0; stroke: #ffffff; stroke-linejoin: miter"/>
   </g>
   <g id="patch_78">
    <path d="M 111.06 108 
C 111.06 108 111.06 108 111.06 108 
C 111.06 108 111.06 108 111.06 108 
L 107.664051 54.198498 
C 108.227347 54.162943 108.791168 54.136236 109.355303 54.118388 
C 109.919439 54.10054 110.48382 54.091553 111.048238 54.09143 
z
" clip-path="url(#p2b77d2ea4d)" style="fill: #4c72b0; stroke: #ffffff; stroke-linejoin: miter"/>
   </g>
   <g id="patch_79">
    <path d="M 111.06 108 
C 111.06 108 111.06 108 111.06 108 
C 111.06 108 111.06 108 111.06 108 
L 103.024496 44.489892 
C 103.689441 44.405761 104.355667 44.332078 105.022926 44.268871 
C 105.690185 44.205663 106.358395 44.152938 107.02731 44.110717 
z
" clip-path="url(#p2b77d2ea4d)" style="fill: #4c72b0; stroke: #ffffff; stroke-linejoin: miter"/>
   </g>
   <g id="patch_80">
    <path d="M 111.06 108 
C 111.06 108 111.06 108 111.06 108 
C 111.06 108 111.06 108 111.06 108 
L 98.421454 41.810109 
C 99.114456 41.677785 99.809494 41.556352 100.506309 41.445856 
C 101.203125 41.33536 101.901633 41.235814 102.601575 41.147255 
z
" clip-path="url(#p2b77d2ea4d)" style="fill: #4c72b0; stroke: #ffffff; stroke-linejoin: miter"/>
   </g>
   <g id="patch_81">
    <path d="M 111.06 108 
C 111.06 108 111.06 108 111.06 108 
C 111.06 108 111.06 108 111.06 108 
L 97.225732 54.155609 
C 97.789477 54.010765 98.355463 53.874784 98.92348 53.747716 
C 99.491496 53.620648 100.061473 53.502508 100.6332 53.39334 
z
" clip-path="url(#p2b77d2ea4d)" style="fill: #4c72b0; stroke: #ffffff; stroke-linejoin: miter"/>
   </g>
   <g id="patch_82">
    <path d="M 111.06 108 
C 111.06 108 111.06 108 111.06 108 
C 111.06 108 111.06 108 111.06 108 
L 94.220053 56.198359 
C 94.762411 56.022046 95.307505 55.854262 95.855133 55.695068 
C 96.402761 55.535875 96.952855 55.385291 97.505212 55.243374 
z
" clip-path="url(#p2b77d2ea4d)" style="fill: #4c72b0; stroke: #ffffff; stroke-linejoin: miter"/>
   </g>
   <g id="patch_83">
    <path d="M 111.06 108 
C 111.06 108 111.06 108 111.06 108 
C 111.06 108 111.06 108 111.06 108 
L 89.553791 53.703092 
C 90.122274 53.477924 90.694259 53.261698 91.269534 53.054494 
C 91.844808 52.847289 92.423301 52.649132 93.004799 52.460096 
z
" clip-path="url(#p2b77d2ea4d)" style="fill: #4c72b0; stroke: #ffffff; stroke-linejoin: miter"/>
   </g>
   <g id="patch_84">
    <path d="M 111.06 108 
C 111.06 108 111.06 108 111.06 108 
C 111.06 108 111.06 108 111.06 108 
L 87.383409 57.700651 
C 87.910038 57.452759 88.440528 57.213154 88.974683 56.981922 
C 89.508837 56.750691 90.04659 56.527863 90.587743 56.31352 
z
" clip-path="url(#p2b77d2ea4d)" style="fill: #4c72b0; stroke: #ffffff; stroke-linejoin: miter"/>
   </g>
   <g id="patch_85">
    <path d="M 111.06 108 
C 111.06 108 111.06 108 111.06 108 
C 111.06 108 111.06 108 111.06 108 
L 85.625379 61.746497 
C 86.109649 61.480199 86.598071 61.221522 87.090465 60.970563 
C 87.582859 60.719605 88.079164 60.476394 88.579196 60.241022 
z
" clip-path="url(#p2b77d2ea4d)" style="fill: #4c72b0; stroke: #ffffff; stroke-linejoin: miter"/>
   </g>
   <g id="patch_86">
    <path d="M 111.06 108 
C 111.06 108 111.06 108 111.06 108 
C 111.06 108 111.06 108 111.06 108 
L 86.383145 69.123654 
C 86.790176 68.86529 87.201241 68.613334 87.616185 68.367879 
C 88.03113 68.122425 88.449904 67.883502 88.872352 67.651199 
z
" clip-path="url(#p2b77d2ea4d)" style="fill: #4c72b0; stroke: #ffffff; stroke-linejoin: miter"/>
   </g>
   <g id="patch_87">
    <path d="M 111.06 108 
C 111.06 108 111.06 108 111.06 108 
C 111.06 108 111.06 108 111.06 108 
L 80.030008 65.298173 
C 80.477092 64.973291 80.929251 64.655452 81.386317 64.344771 
C 81.843383 64.03409 82.3053 63.730607 82.771898 63.434433 
z
" clip-path="url(#p2b77d2ea4d)" style="fill: #4c72b0; stroke: #ffffff; stroke-linejoin: miter"/>
   </g>
   <g id="patch_88">
    <path d="M 111.06 108 
C 111.06 108 111.06 108 111.06 108 
C 111.06 108 111.06 108 111.06 108 
L 81.706203 72.522232 
C 82.077652 72.2149 82.453905 71.913421 82.834822 71.617906 
C 83.215739 71.322391 83.601274 71.032877 83.991283 70.74947 
z
" clip-path="url(#p2b77d2ea4d)" style="fill: #4c72b0; stroke: #ffffff; stroke-linejoin: miter"/>
   </g>
   <g id="patch_89">
    <path d="M 111.06 108 
C 111.06 108 111.06 108 111.06 108 
C 111.06 108 111.06 108 111.06 108 
L 71.079506 65.429689 
C 71.525213 65.011097 71.977467 64.599531 72.4361 64.195142 
C 72.894733 63.790754 73.359688 63.393593 73.830794 63.003806 
z
" clip-path="url(#p2b77d2ea4d)" style="fill: #4c72b0; stroke: #ffffff; stroke-linejoin: miter"/>
   </g>
   <g id="patch_90">
    <path d="M 111.06 108 
C 111.06 108 111.06 108 111.06 108 
C 111.06 108 111.06 108 111.06 108 
L 75.445156 74.558124 
C 75.79529 74.18524 76.151258 73.817878 76.512928 73.456173 
C 76.874599 73.094469 77.241928 72.738466 77.614779 72.388298 
z
" clip-path="url(#p2b77d2ea4d)" style="fill: #4c72b0; stroke: #ffffff; stroke-linejoin: miter"/>
   </g>
   <g id="patch_91">
    <path d="M 111.06 108 
C 111.06 108 111.06 108 111.06 108 
C 111.06 108 111.06 108 111.06 108 
L 65.62762 70.417088 
C 66.02111 69.941416 66.422045 69.471952 66.830279 69.008871 
C 67.238512 68.54579 67.653993 68.089148 68.076568 67.639116 
z
" clip-path="url(#p2b77d2ea4d)" style="fill: #4c72b0; stroke: #ffffff; stroke-linejoin: miter"/>
   </g>
   <g id="patch_92">
    <path d="M 111.06 108 
C 111.06 108 111.06 108 111.06 108 
C 111.06 108 111.06 108 111.06 108 
L 65.629423 74.993637 
C 65.974997 74.517983 66.328019 74.047786 66.68836 73.583219 
C 67.0487 73.118652 67.416315 72.659773 67.791067 72.206751 
z
" clip-path="url(#p2b77d2ea4d)" style="fill: #4c72b0; stroke: #ffffff; stroke-linejoin: miter"/>
   </g>
   <g id="patch_93">
    <path d="M 111.06 108 
C 111.06 108 111.06 108 111.06 108 
C 111.06 108 111.06 108 111.06 108 
L 65.069386 78.813406 
C 65.374967 78.331888 65.688091 77.8552 66.008643 77.383516 
C 66.329195 76.911833 66.657134 76.445212 66.992341 75.983828 
z
" clip-path="url(#p2b77d2ea4d)" style="fill: #4c72b0; stroke: #ffffff; stroke-linejoin: miter"/>
   </g>
   <g id="patch_94">
    <path d="M 111.06 108 
C 111.06 108 111.06 108 111.06 108 
C 111.06 108 111.06 108 111.06 108 
L 60.375352 80.134911 
C 60.667097 79.604247 60.967158 79.078198 61.275424 78.556958 
C 61.58369 78.035718 61.900123 77.519352 62.224606 77.00805 
z
" clip-path="url(#p2b77d2ea4d)" style="fill: #4c72b0; stroke: #ffffff; stroke-linejoin: miter"/>
   </g>
   <g id="patch_95">
    <path d="M 111.06 108 
C 111.06 108 111.06 108 111.06 108 
C 111.06 108 111.06 108 111.06 108 
L 53.136977 80.741487 
C 53.422371 80.135038 53.717272 79.533109 54.02157 78.935922 
C 54.325868 78.338735 54.639526 77.746364 54.962428 77.159027 
z
" clip-path="url(#p2b77d2ea4d)" style="fill: #4c72b0; stroke: #ffffff; stroke-linejoin: miter"/>
   </g>
   <g id="patch_96">
    <path d="M 111.06 108 
C 111.06 108 111.06 108 111.06 108 
C 111.06 108 111.06 108 111.06 108 
L 60.415808 87.946081 
C 60.62577 87.415841 60.844047 86.888931 61.070558 86.365547 
C 61.297069 85.842162 61.531785 85.322366 61.774621 84.806353 
z
" clip-path="url(#p2b77d2ea4d)" style="fill: #4c72b0; stroke: #ffffff; stroke-linejoin: miter"/>
   </g>
   <g id="patch_97">
    <path d="M 111.06 108 
C 111.06 108 111.06 108 111.06 108 
C 111.06 108 111.06 108 111.06 108 
L 60.858939 91.685591 
C 61.029749 91.159991 61.208803 90.637105 61.396035 90.117128 
C 61.583267 89.597151 61.778654 89.080146 61.982123 88.566306 
z
" clip-path="url(#p2b77d2ea4d)" style="fill: #4c72b0; stroke: #ffffff; stroke-linejoin: miter"/>
   </g>
   <g id="patch_98">
    <path d="M 111.06 108 
C 111.06 108 111.06 108 111.06 108 
C 111.06 108 111.06 108 111.06 108 
L 49.599767 92.215144 
C 49.765033 91.571661 49.940395 90.930813 50.125787 90.292837 
C 50.311179 89.654862 50.50658 89.019837 50.711916 88.387998 
z
" clip-path="url(#p2b77d2ea4d)" style="fill: #4c72b0; stroke: #ffffff; stroke-linejoin: miter"/>
   </g>
   <g id="patch_99">
    <path d="M 111.06 108 
C 111.06 108 111.06 108 111.06 108 
C 111.06 108 111.06 108 111.06 108 
L 56.452361 97.578329 
C 56.561475 97.006592 56.679561 96.436604 56.806576 95.868576 
C 56.933591 95.300548 57.069519 94.734549 57.214309 94.17079 
z
" clip-path="url(#p2b77d2ea4d)" style="fill: #4c72b0; stroke: #ffffff; stroke-linejoin: miter"/>
   </g>
   <g id="patch_100">
    <path d="M 111.06 108 
C 111.06 108 111.06 108 111.06 108 
C 111.06 108 111.06 108 111.06 108 
L 59.80562 101.520022 
C 59.873465 100.983394 59.949733 100.447864 60.034396 99.91363 
C 60.11906 99.379397 60.212108 98.846526 60.313507 98.315215 
z
" clip-path="url(#p2b77d2ea4d)" style="fill: #4c72b0; stroke: #ffffff; stroke-linejoin: miter"/>
   </g>
   <g id="patch_101">
    <path d="M 111.06 108 
C 111.06 108 111.06 108 111.06 108 
C 111.06 108 111.06 108 111.06 108 
L 57.818615 104.644426 
C 57.853748 104.086994 57.897632 103.530148 57.950253 102.974094 
C 58.002874 102.41804 58.064224 101.862846 58.134281 101.308719 
z
" clip-path="url(#p2b77d2ea4d)" style="fill: #4c72b0; stroke: #ffffff; stroke-linejoin: miter"/>
   </g>
   <g id="patch_102">
    <path d="M 111.06 108 
C 111.06 108 111.06 108 111.06 108 
C 111.06 108 111.06 108 111.06 108 
L 49.85131 107.992395 
C 49.85139 107.351545 49.861534 106.710737 49.881738 106.070206 
C 49.901943 105.429675 49.932206 104.789501 49.972516 104.149921 
z
" clip-path="url(#p2b77d2ea4d)" style="fill: #4c72b0; stroke: #ffffff; stroke-linejoin: miter"/>
   </g>
   <g id="patch_103">
    <path d="M 181.815 108 
C 181.815 98.708539 179.984785 89.507425 176.429096 80.923234 
C 172.873408 72.339043 167.661396 64.538715 161.09134 57.96866 
C 154.521285 51.398604 146.720957 46.186592 138.136766 42.630904 
C 129.552575 39.075215 120.351461 37.245 111.06 37.245 
C 101.768539 37.245 92.567425 39.075215 83.983234 42.630904 
C 75.399043 46.186592 67.598715 51.398604 61.02866 57.96866 
C 54.458604 64.538715 49.246592 72.339043 45.690904 80.923234 
C 42.135215 89.507425 40.305 98.708539 40.305 108 
C 40.305 117.291461 42.135215 126.492575 45.690904 135.076766 
C 49.246592 143.660957 54.458604 151.461285 61.02866 158.03134 
C 67.598715 164.601396 75.399043 169.813408 83.983234 173.369096 
C 92.567425 176.924785 101.768539 178.755 111.06 178.755 
C 120.351461 178.755 129.552575 176.924785 138.136766 173.369096 
C 146.720957 169.813408 154.521285 164.601396 161.09134 158.03134 
C 167.661396 151.461285 172.873408 143.660957 176.429096 135.076766 
C 179.984785 126.492575 181.815 117.291461 181.815 108 
" style="fill: none; stroke: #ffffff; stroke-width: 1.25; stroke-linejoin: miter; stroke-linecap: square"/>
   </g>
  </g>
 </g>
 <defs>
  <clipPath id="p2b77d2ea4d">
   <path d="M 181.815 108 
C 181.815 98.708539 179.984785 89.507425 176.429096 80.923234 
C 172.873408 72.339043 167.661396 64.538715 161.09134 57.96866 
C 154.521285 51.398604 146.720957 46.186592 138.136766 42.630904 
C 129.552575 39.075215 120.351461 37.245 111.06 37.245 
C 101.768539 37.245 92.567425 39.075215 83.983234 42.630904 
C 75.399043 46.186592 67.598715 51.398604 61.02866 57.96866 
C 54.458604 64.538715 49.246592 72.339043 45.690904 80.923234 
C 42.135215 89.507425 40.305 98.708539 40.305 108 
C 40.305 117.291461 42.135215 126.492575 45.690904 135.076766 
C 49.246592 143.660957 54.458604 151.461285 61.02866 158.03134 
C 67.598715 164.601396 75.399043 169.813408 83.983234 173.369096 
C 92.567425 176.924785 101.768539 178.755 111.06 178.755 
C 120.351461 178.755 129.552575 176.924785 138.136766 173.369096 
C 146.720957 169.813408 154.521285 164.601396 161.09134 158.03134 
C 167.661396 151.461285 172.873408 143.660957 176.429096 135.076766 
C 179.984785 126.492575 181.815 117.291461 181.815 108 
M 111.06 108 
C 111.06 108 111.06 108 111.06 108 
C 111.06 108 111.06 108 111.06 108 
C 111.06 108 111.06 108 111.06 108 
C 111.06 108 111.06 108 111.06 108 
C 111.06 108 111.06 108 111.06 108 
C 111.06 108 111.06 108 111.06 108 
C 111.06 108 111.06 108 111.06 108 
C 111.06 108 111.06 108 111.06 108 
C 111.06 108 111.06 108 111.06 108 
C 111.06 108 111.06 108 111.06 108 
C 111.06 108 111.06 108 111.06 108 
C 111.06 108 111.06 108 111.06 108 
C 111.06 108 111.06 108 111.06 108 
C 111.06 108 111.06 108 111.06 108 
C 111.06 108 111.06 108 111.06 108 
C 111.06 108 111.06 108 111.06 108 
z
"/>
  </clipPath>
 </defs>
</svg>
