<?xml version="1.0" encoding="utf-8" standalone="no"?>
<!DOCTYPE svg PUBLIC "-//W3C//DTD SVG 1.1//EN"
  "http://www.w3.org/Graphics/SVG/1.1/DTD/svg11.dtd">
<svg xmlns:xlink="http://www.w3.org/1999/xlink" width="216pt" height="216pt" viewBox="0 0 216 216" xmlns="http://www.w3.org/2000/svg" version="1.1">
 <metadata>
  <rdf:RDF xmlns:dc="http://purl.org/dc/elements/1.1/" xmlns:cc="http://creativecommons.org/ns#" xmlns:rdf="http://www.w3.org/1999/02/22-rdf-syntax-ns#">
   <cc:Work>
    <dc:type rdf:resource="http://purl.org/dc/dcmitype/StillImage"/>
    <dc:date>2023-10-28T14:22:13.561824</dc:date>
    <dc:format>image/svg+xml</dc:format>
    <dc:creator>
     <cc:Agent>
      <dc:title>Matplotlib v3.7.0, https://matplotlib.org/</dc:title>
     </cc:Agent>
    </dc:creator>
   </cc:Work>
  </rdf:RDF>
 </metadata>
 <defs>
  <style type="text/css">*{stroke-linejoin: round; stroke-linecap: butt}</style>
 </defs>
 <g id="figure_1">
  <g id="patch_1">
   <path d="M 0 216 
L 216 216 
L 216 0 
L 0 0 
z
" style="fill: #ffffff"/>
  </g>
  <g id="axes_1">
   <g id="patch_2">
    <path d="M 181.815 108 
C 181.815 98.708539 179.984785 89.507425 176.429096 80.923234 
C 172.873408 72.339043 167.661396 64.538715 161.09134 57.96866 
C 154.521285 51.398604 146.720957 46.186592 138.136766 42.630904 
C 129.552575 39.075215 120.351461 37.245 111.06 37.245 
C 101.768539 37.245 92.567425 39.075215 83.983234 42.630904 
C 75.399043 46.186592 67.598715 51.398604 61.02866 57.96866 
C 54.458604 64.538715 49.246592 72.339043 45.690904 80.923234 
C 42.135215 89.507425 40.305 98.708539 40.305 108 
C 40.305 117.291461 42.135215 126.492575 45.690904 135.076766 
C 49.246592 143.660957 54.458604 151.461285 61.02866 158.03134 
C 67.598715 164.601396 75.399043 169.813408 83.983234 173.369096 
C 92.567425 176.924785 101.768539 178.755 111.06 178.755 
C 120.351461 178.755 129.552575 176.924785 138.136766 173.369096 
C 146.720957 169.813408 154.521285 164.601396 161.09134 158.03134 
C 167.661396 151.461285 172.873408 143.660957 176.429096 135.076766 
C 179.984785 126.492575 181.815 117.291461 181.815 108 
M 111.06 108 
C 111.06 108 111.06 108 111.06 108 
C 111.06 108 111.06 108 111.06 108 
C 111.06 108 111.06 108 111.06 108 
C 111.06 108 111.06 108 111.06 108 
C 111.06 108 111.06 108 111.06 108 
C 111.06 108 111.06 108 111.06 108 
C 111.06 108 111.06 108 111.06 108 
C 111.06 108 111.06 108 111.06 108 
C 111.06 108 111.06 108 111.06 108 
C 111.06 108 111.06 108 111.06 108 
C 111.06 108 111.06 108 111.06 108 
C 111.06 108 111.06 108 111.06 108 
C 111.06 108 111.06 108 111.06 108 
C 111.06 108 111.06 108 111.06 108 
C 111.06 108 111.06 108 111.06 108 
C 111.06 108 111.06 108 111.06 108 
z
" style="fill: #eaeaf2"/>
   </g>
   <g id="matplotlib.axis_1">
    <g id="xtick_1">
     <g id="line2d_1">
      <path d="M 111.06 108 
L 181.815 108 
" clip-path="url(#p1502d1d726)" style="fill: none; stroke: #ffffff; stroke-linecap: round"/>
     </g>
     <g id="text_1">
      <!-- 0° -->
      <g style="fill: #262626" transform="translate(193.057344 110.843672) scale(0.11 -0.11)">
       <defs>
        <path id="ArialMT-30" d="M 266 2259 
Q 266 3072 433 3567 
Q 600 4063 929 4331 
Q 1259 4600 1759 4600 
Q 2128 4600 2406 4451 
Q 2684 4303 2865 4023 
Q 3047 3744 3150 3342 
Q 3253 2941 3253 2259 
Q 3253 1453 3087 958 
Q 2922 463 2592 192 
Q 2263 -78 1759 -78 
Q 1097 -78 719 397 
Q 266 969 266 2259 
z
M 844 2259 
Q 844 1131 1108 757 
Q 1372 384 1759 384 
Q 2147 384 2411 759 
Q 2675 1134 2675 2259 
Q 2675 3391 2411 3762 
Q 2147 4134 1753 4134 
Q 1366 4134 1134 3806 
Q 844 3388 844 2259 
z
" transform="scale(0.015625)"/>
        <path id="ArialMT-b0" d="M 400 3794 
Q 400 4153 654 4406 
Q 909 4659 1266 4659 
Q 1628 4659 1881 4406 
Q 2134 4153 2134 3794 
Q 2134 3434 1879 3179 
Q 1625 2925 1266 2925 
Q 909 2925 654 3178 
Q 400 3431 400 3794 
z
M 741 3794 
Q 741 3575 895 3420 
Q 1050 3266 1269 3266 
Q 1484 3266 1639 3420 
Q 1794 3575 1794 3794 
Q 1794 4013 1639 4167 
Q 1484 4322 1269 4322 
Q 1050 4322 895 4167 
Q 741 4013 741 3794 
z
" transform="scale(0.015625)"/>
       </defs>
       <use xlink:href="#ArialMT-30"/>
       <use xlink:href="#ArialMT-b0" x="55.615234"/>
      </g>
     </g>
    </g>
    <g id="xtick_2">
     <g id="line2d_2">
      <path d="M 111.06 108 
L 161.09134 57.96866 
" clip-path="url(#p1502d1d726)" style="fill: none; stroke: #ffffff; stroke-linecap: round"/>
     </g>
     <g id="text_2">
      <!-- 45° -->
      <g style="fill: #262626" transform="translate(164.44243 49.14507) scale(0.11 -0.11)">
       <defs>
        <path id="ArialMT-34" d="M 2069 0 
L 2069 1097 
L 81 1097 
L 81 1613 
L 2172 4581 
L 2631 4581 
L 2631 1613 
L 3250 1613 
L 3250 1097 
L 2631 1097 
L 2631 0 
L 2069 0 
z
M 2069 1613 
L 2069 3678 
L 634 1613 
L 2069 1613 
z
" transform="scale(0.015625)"/>
        <path id="ArialMT-35" d="M 266 1200 
L 856 1250 
Q 922 819 1161 601 
Q 1400 384 1738 384 
Q 2144 384 2425 690 
Q 2706 997 2706 1503 
Q 2706 1984 2436 2262 
Q 2166 2541 1728 2541 
Q 1456 2541 1237 2417 
Q 1019 2294 894 2097 
L 366 2166 
L 809 4519 
L 3088 4519 
L 3088 3981 
L 1259 3981 
L 1013 2750 
Q 1425 3038 1878 3038 
Q 2478 3038 2890 2622 
Q 3303 2206 3303 1553 
Q 3303 931 2941 478 
Q 2500 -78 1738 -78 
Q 1113 -78 717 272 
Q 322 622 266 1200 
z
" transform="scale(0.015625)"/>
       </defs>
       <use xlink:href="#ArialMT-34"/>
       <use xlink:href="#ArialMT-35" x="55.615234"/>
       <use xlink:href="#ArialMT-b0" x="111.230469"/>
      </g>
     </g>
    </g>
    <g id="xtick_3">
     <g id="line2d_3">
      <path d="M 111.06 108 
L 111.06 37.245 
" clip-path="url(#p1502d1d726)" style="fill: none; stroke: #ffffff; stroke-linecap: round"/>
     </g>
     <g id="text_3">
      <!-- 90° -->
      <g style="fill: #262626" transform="translate(102.743828 23.588672) scale(0.11 -0.11)">
       <defs>
        <path id="ArialMT-39" d="M 350 1059 
L 891 1109 
Q 959 728 1153 556 
Q 1347 384 1650 384 
Q 1909 384 2104 503 
Q 2300 622 2425 820 
Q 2550 1019 2634 1356 
Q 2719 1694 2719 2044 
Q 2719 2081 2716 2156 
Q 2547 1888 2255 1720 
Q 1963 1553 1622 1553 
Q 1053 1553 659 1965 
Q 266 2378 266 3053 
Q 266 3750 677 4175 
Q 1088 4600 1706 4600 
Q 2153 4600 2523 4359 
Q 2894 4119 3086 3673 
Q 3278 3228 3278 2384 
Q 3278 1506 3087 986 
Q 2897 466 2520 194 
Q 2144 -78 1638 -78 
Q 1100 -78 759 220 
Q 419 519 350 1059 
z
M 2653 3081 
Q 2653 3566 2395 3850 
Q 2138 4134 1775 4134 
Q 1400 4134 1122 3828 
Q 844 3522 844 3034 
Q 844 2597 1108 2323 
Q 1372 2050 1759 2050 
Q 2150 2050 2401 2323 
Q 2653 2597 2653 3081 
z
" transform="scale(0.015625)"/>
       </defs>
       <use xlink:href="#ArialMT-39"/>
       <use xlink:href="#ArialMT-30" x="55.615234"/>
       <use xlink:href="#ArialMT-b0" x="111.230469"/>
      </g>
     </g>
    </g>
    <g id="xtick_4">
     <g id="line2d_4">
      <path d="M 111.06 108 
L 61.02866 57.96866 
" clip-path="url(#p1502d1d726)" style="fill: none; stroke: #ffffff; stroke-linecap: round"/>
     </g>
     <g id="text_4">
      <!-- 135° -->
      <g style="fill: #262626" transform="translate(37.98671 49.14507) scale(0.11 -0.11)">
       <defs>
        <path id="ArialMT-31" d="M 2384 0 
L 1822 0 
L 1822 3584 
Q 1619 3391 1289 3197 
Q 959 3003 697 2906 
L 697 3450 
Q 1169 3672 1522 3987 
Q 1875 4303 2022 4600 
L 2384 4600 
L 2384 0 
z
" transform="scale(0.015625)"/>
        <path id="ArialMT-33" d="M 269 1209 
L 831 1284 
Q 928 806 1161 595 
Q 1394 384 1728 384 
Q 2125 384 2398 659 
Q 2672 934 2672 1341 
Q 2672 1728 2419 1979 
Q 2166 2231 1775 2231 
Q 1616 2231 1378 2169 
L 1441 2663 
Q 1497 2656 1531 2656 
Q 1891 2656 2178 2843 
Q 2466 3031 2466 3422 
Q 2466 3731 2256 3934 
Q 2047 4138 1716 4138 
Q 1388 4138 1169 3931 
Q 950 3725 888 3313 
L 325 3413 
Q 428 3978 793 4289 
Q 1159 4600 1703 4600 
Q 2078 4600 2393 4439 
Q 2709 4278 2876 4000 
Q 3044 3722 3044 3409 
Q 3044 3113 2884 2869 
Q 2725 2625 2413 2481 
Q 2819 2388 3044 2092 
Q 3269 1797 3269 1353 
Q 3269 753 2831 336 
Q 2394 -81 1725 -81 
Q 1122 -81 723 278 
Q 325 638 269 1209 
z
" transform="scale(0.015625)"/>
       </defs>
       <use xlink:href="#ArialMT-31"/>
       <use xlink:href="#ArialMT-33" x="55.615234"/>
       <use xlink:href="#ArialMT-35" x="111.230469"/>
       <use xlink:href="#ArialMT-b0" x="166.845703"/>
      </g>
     </g>
    </g>
    <g id="xtick_5">
     <g id="line2d_5">
      <path d="M 111.06 108 
L 40.305 108 
" clip-path="url(#p1502d1d726)" style="fill: none; stroke: #ffffff; stroke-linecap: round"/>
     </g>
     <g id="text_5">
      <!-- 180° -->
      <g style="fill: #262626" transform="translate(12.430312 110.843672) scale(0.11 -0.11)">
       <defs>
        <path id="ArialMT-38" d="M 1131 2484 
Q 781 2613 612 2850 
Q 444 3088 444 3419 
Q 444 3919 803 4259 
Q 1163 4600 1759 4600 
Q 2359 4600 2725 4251 
Q 3091 3903 3091 3403 
Q 3091 3084 2923 2848 
Q 2756 2613 2416 2484 
Q 2838 2347 3058 2040 
Q 3278 1734 3278 1309 
Q 3278 722 2862 322 
Q 2447 -78 1769 -78 
Q 1091 -78 675 323 
Q 259 725 259 1325 
Q 259 1772 486 2073 
Q 713 2375 1131 2484 
z
M 1019 3438 
Q 1019 3113 1228 2906 
Q 1438 2700 1772 2700 
Q 2097 2700 2305 2904 
Q 2513 3109 2513 3406 
Q 2513 3716 2298 3927 
Q 2084 4138 1766 4138 
Q 1444 4138 1231 3931 
Q 1019 3725 1019 3438 
z
M 838 1322 
Q 838 1081 952 856 
Q 1066 631 1291 507 
Q 1516 384 1775 384 
Q 2178 384 2440 643 
Q 2703 903 2703 1303 
Q 2703 1709 2433 1975 
Q 2163 2241 1756 2241 
Q 1359 2241 1098 1978 
Q 838 1716 838 1322 
z
" transform="scale(0.015625)"/>
       </defs>
       <use xlink:href="#ArialMT-31"/>
       <use xlink:href="#ArialMT-38" x="55.615234"/>
       <use xlink:href="#ArialMT-30" x="111.230469"/>
       <use xlink:href="#ArialMT-b0" x="166.845703"/>
      </g>
     </g>
    </g>
    <g id="xtick_6">
     <g id="line2d_6">
      <path d="M 111.06 108 
L 61.02866 158.03134 
" clip-path="url(#p1502d1d726)" style="fill: none; stroke: #ffffff; stroke-linecap: round"/>
     </g>
     <g id="text_6">
      <!-- 225° -->
      <g style="fill: #262626" transform="translate(37.98671 172.542274) scale(0.11 -0.11)">
       <defs>
        <path id="ArialMT-32" d="M 3222 541 
L 3222 0 
L 194 0 
Q 188 203 259 391 
Q 375 700 629 1000 
Q 884 1300 1366 1694 
Q 2113 2306 2375 2664 
Q 2638 3022 2638 3341 
Q 2638 3675 2398 3904 
Q 2159 4134 1775 4134 
Q 1369 4134 1125 3890 
Q 881 3647 878 3216 
L 300 3275 
Q 359 3922 746 4261 
Q 1134 4600 1788 4600 
Q 2447 4600 2831 4234 
Q 3216 3869 3216 3328 
Q 3216 3053 3103 2787 
Q 2991 2522 2730 2228 
Q 2469 1934 1863 1422 
Q 1356 997 1212 845 
Q 1069 694 975 541 
L 3222 541 
z
" transform="scale(0.015625)"/>
       </defs>
       <use xlink:href="#ArialMT-32"/>
       <use xlink:href="#ArialMT-32" x="55.615234"/>
       <use xlink:href="#ArialMT-35" x="111.230469"/>
       <use xlink:href="#ArialMT-b0" x="166.845703"/>
      </g>
     </g>
    </g>
    <g id="xtick_7">
     <g id="line2d_7">
      <path d="M 111.06 108 
L 111.06 178.755 
" clip-path="url(#p1502d1d726)" style="fill: none; stroke: #ffffff; stroke-linecap: round"/>
     </g>
     <g id="text_7">
      <!-- 270° -->
      <g style="fill: #262626" transform="translate(99.685312 198.098672) scale(0.11 -0.11)">
       <defs>
        <path id="ArialMT-37" d="M 303 3981 
L 303 4522 
L 3269 4522 
L 3269 4084 
Q 2831 3619 2401 2847 
Q 1972 2075 1738 1259 
Q 1569 684 1522 0 
L 944 0 
Q 953 541 1156 1306 
Q 1359 2072 1739 2783 
Q 2119 3494 2547 3981 
L 303 3981 
z
" transform="scale(0.015625)"/>
       </defs>
       <use xlink:href="#ArialMT-32"/>
       <use xlink:href="#ArialMT-37" x="55.615234"/>
       <use xlink:href="#ArialMT-30" x="111.230469"/>
       <use xlink:href="#ArialMT-b0" x="166.845703"/>
      </g>
     </g>
    </g>
    <g id="xtick_8">
     <g id="line2d_8">
      <path d="M 111.06 108 
L 161.09134 158.03134 
" clip-path="url(#p1502d1d726)" style="fill: none; stroke: #ffffff; stroke-linecap: round"/>
     </g>
     <g id="text_8">
      <!-- 315° -->
      <g style="fill: #262626" transform="translate(161.383915 172.542274) scale(0.11 -0.11)">
       <use xlink:href="#ArialMT-33"/>
       <use xlink:href="#ArialMT-31" x="55.615234"/>
       <use xlink:href="#ArialMT-35" x="111.230469"/>
       <use xlink:href="#ArialMT-b0" x="166.845703"/>
      </g>
     </g>
    </g>
   </g>
   <g id="matplotlib.axis_2">
    <g id="ytick_1">
     <g id="line2d_9">
      <path d="M 131.235364 108 
C 131.235364 105.350596 130.713489 102.726953 129.699605 100.279223 
C 128.685722 97.831492 127.199548 95.607275 125.326136 93.733864 
C 123.452725 91.860452 121.228508 90.374278 118.780777 89.360395 
C 116.333047 88.346511 113.709404 87.824636 111.06 87.824636 
C 108.410596 87.824636 105.786953 88.346511 103.339223 89.360395 
C 100.891492 90.374278 98.667275 91.860452 96.793864 93.733864 
C 94.920452 95.607275 93.434278 97.831492 92.420395 100.279223 
C 91.406511 102.726953 90.884636 105.350596 90.884636 108 
C 90.884636 110.649404 91.406511 113.273047 92.420395 115.720777 
C 93.434278 118.168508 94.920452 120.392725 96.793864 122.266136 
C 98.667275 124.139548 100.891492 125.625722 103.339223 126.639605 
C 105.786953 127.653489 108.410596 128.175364 111.06 128.175364 
C 113.709404 128.175364 116.333047 127.653489 118.780777 126.639605 
C 121.228508 125.625722 123.452725 124.139548 125.326136 122.266136 
C 127.199548 120.392725 128.685722 118.168508 129.699605 115.720777 
C 130.713489 113.273047 131.235364 110.649404 131.235364 108 
" clip-path="url(#p1502d1d726)" style="fill: none; stroke: #ffffff; stroke-linecap: round"/>
     </g>
    </g>
    <g id="ytick_2">
     <g id="line2d_10">
      <path d="M 151.410727 108 
C 151.410727 102.701191 150.366977 97.453906 148.339211 92.558445 
C 146.311445 87.662984 143.339097 83.214551 139.592273 79.467727 
C 135.845449 75.720903 131.397016 72.748555 126.501555 70.720789 
C 121.606094 68.693023 116.358809 67.649273 111.06 67.649273 
C 105.761191 67.649273 100.513906 68.693023 95.618445 70.720789 
C 90.722984 72.748555 86.274551 75.720903 82.527727 79.467727 
C 78.780903 83.214551 75.808555 87.662984 73.780789 92.558445 
C 71.753023 97.453906 70.709273 102.701191 70.709273 108 
C 70.709273 113.298809 71.753023 118.546094 73.780789 123.441555 
C 75.808555 128.337016 78.780903 132.785449 82.527727 136.532273 
C 86.274551 140.279097 90.722984 143.251445 95.618445 145.279211 
C 100.513906 147.306977 105.761191 148.350727 111.06 148.350727 
C 116.358809 148.350727 121.606094 147.306977 126.501555 145.279211 
C 131.397016 143.251445 135.845449 140.279097 139.592273 136.532273 
C 143.339097 132.785449 146.311445 128.337016 148.339211 123.441555 
C 150.366977 118.546094 151.410727 113.298809 151.410727 108 
" clip-path="url(#p1502d1d726)" style="fill: none; stroke: #ffffff; stroke-linecap: round"/>
     </g>
    </g>
    <g id="ytick_3">
     <g id="line2d_11">
      <path d="M 171.586091 108 
C 171.586091 100.051787 170.020466 92.18086 166.978816 84.837668 
C 163.937167 77.494476 159.478645 70.821826 153.858409 65.201591 
C 148.238174 59.581355 141.565524 55.122833 134.222332 52.081184 
C 126.87914 49.039534 119.008213 47.473909 111.06 47.473909 
C 103.111787 47.473909 95.24086 49.039534 87.897668 52.081184 
C 80.554476 55.122833 73.881826 59.581355 68.261591 65.201591 
C 62.641355 70.821826 58.182833 77.494476 55.141184 84.837668 
C 52.099534 92.18086 50.533909 100.051787 50.533909 108 
C 50.533909 115.948213 52.099534 123.81914 55.141184 131.162332 
C 58.182833 138.505524 62.641355 145.178174 68.261591 150.798409 
C 73.881826 156.418645 80.554476 160.877167 87.897668 163.918816 
C 95.24086 166.960466 103.111787 168.526091 111.06 168.526091 
C 119.008213 168.526091 126.87914 166.960466 134.222332 163.918816 
C 141.565524 160.877167 148.238174 156.418645 153.858409 150.798409 
C 159.478645 145.178174 163.937167 138.505524 166.978816 131.162332 
C 170.020466 123.81914 171.586091 115.948213 171.586091 108 
" clip-path="url(#p1502d1d726)" style="fill: none; stroke: #ffffff; stroke-linecap: round"/>
     </g>
    </g>
   </g>
   <g id="patch_3">
    <path d="M 111.06 108 
C 111.06 108 111.06 108 111.06 108 
C 111.06 108 111.06 108 111.06 108 
L 82.468068 109.80764 
C 82.44914 109.50825 82.434916 109.208582 82.4254 108.908745 
C 82.415884 108.608909 82.411079 108.308941 82.410985 108.008954 
z
" clip-path="url(#p1502d1d726)" style="fill: #4c72b0; stroke: #ffffff; stroke-linejoin: miter"/>
   </g>
   <g id="patch_4">
    <path d="M 111.06 108 
C 111.06 108 111.06 108 111.06 108 
C 111.06 108 111.06 108 111.06 108 
L 79.035175 112.05543 
C 78.99271 111.720094 78.955514 111.384112 78.923603 111.047608 
C 78.891691 110.711103 78.865066 110.374118 78.843739 110.036778 
z
" clip-path="url(#p1502d1d726)" style="fill: #4c72b0; stroke: #ffffff; stroke-linejoin: miter"/>
   </g>
   <g id="patch_5">
    <path d="M 111.06 108 
C 111.06 108 111.06 108 111.06 108 
C 111.06 108 111.06 108 111.06 108 
L 80.541986 113.830903 
C 80.48093 113.511345 80.424897 113.190848 80.373907 112.86953 
C 80.322918 112.548212 80.276978 112.226113 80.236106 111.903352 
z
" clip-path="url(#p1502d1d726)" style="fill: #4c72b0; stroke: #ffffff; stroke-linejoin: miter"/>
   </g>
   <g id="patch_6">
    <path d="M 111.06 108 
C 111.06 108 111.06 108 111.06 108 
C 111.06 108 111.06 108 111.06 108 
L 79.795878 116.036829 
C 79.711723 115.709458 79.632716 115.380786 79.558884 115.050934 
C 79.485053 114.721081 79.416407 114.39009 79.352972 114.058081 
z
" clip-path="url(#p1502d1d726)" style="fill: #4c72b0; stroke: #ffffff; stroke-linejoin: miter"/>
   </g>
   <g id="patch_7">
    <path d="M 111.06 108 
C 111.06 108 111.06 108 111.06 108 
C 111.06 108 111.06 108 111.06 108 
L 78.059804 118.732655 
C 77.947421 118.387105 77.840473 118.039812 77.738998 117.690904 
C 77.637523 117.341995 77.541535 116.991514 77.451069 116.639591 
z
" clip-path="url(#p1502d1d726)" style="fill: #4c72b0; stroke: #ffffff; stroke-linejoin: miter"/>
   </g>
   <g id="patch_8">
    <path d="M 111.06 108 
C 111.06 108 111.06 108 111.06 108 
C 111.06 108 111.06 108 111.06 108 
L 78.048488 121.080658 
C 77.911519 120.73499 77.779988 120.387192 77.653943 120.037393 
C 77.527897 119.687594 77.407354 119.335837 77.292358 118.982251 
z
" clip-path="url(#p1502d1d726)" style="fill: #4c72b0; stroke: #ffffff; stroke-linejoin: miter"/>
   </g>
   <g id="patch_9">
    <path d="M 111.06 108 
C 111.06 108 111.06 108 111.06 108 
C 111.06 108 111.06 108 111.06 108 
L 74.189117 125.362189 
C 74.007315 124.976109 73.831589 124.587197 73.662002 124.195598 
C 73.492416 123.803999 73.328991 123.40976 73.171788 123.013028 
z
" clip-path="url(#p1502d1d726)" style="fill: #4c72b0; stroke: #ffffff; stroke-linejoin: miter"/>
   </g>
   <g id="patch_10">
    <path d="M 111.06 108 
C 111.06 108 111.06 108 111.06 108 
C 111.06 108 111.06 108 111.06 108 
L 74.644838 128.03181 
C 74.435083 127.650502 74.231329 127.265923 74.033653 126.878216 
C 73.835977 126.490508 73.644402 126.099719 73.459 125.705994 
z
" clip-path="url(#p1502d1d726)" style="fill: #4c72b0; stroke: #ffffff; stroke-linejoin: miter"/>
   </g>
   <g id="patch_11">
    <path d="M 111.06 108 
C 111.06 108 111.06 108 111.06 108 
C 111.06 108 111.06 108 111.06 108 
L 77.33691 129.413397 
C 77.112688 129.060279 76.894025 128.70366 76.681004 128.343673 
C 76.467983 127.983686 76.260629 127.620375 76.059019 127.253876 
z
" clip-path="url(#p1502d1d726)" style="fill: #4c72b0; stroke: #ffffff; stroke-linejoin: miter"/>
   </g>
   <g id="patch_12">
    <path d="M 111.06 108 
C 111.06 108 111.06 108 111.06 108 
C 111.06 108 111.06 108 111.06 108 
L 76.136782 133.386482 
C 75.870957 133.020797 75.610892 132.650958 75.356683 132.277104 
C 75.102474 131.90325 74.854153 131.525427 74.611812 131.143773 
z
" clip-path="url(#p1502d1d726)" style="fill: #4c72b0; stroke: #ffffff; stroke-linejoin: miter"/>
   </g>
   <g id="patch_13">
    <path d="M 111.06 108 
C 111.06 108 111.06 108 111.06 108 
C 111.06 108 111.06 108 111.06 108 
L 73.758561 138.873671 
C 73.435279 138.483082 73.118151 138.087441 72.807296 137.686892 
C 72.496441 137.286343 72.191896 136.880936 71.893774 136.470821 
z
" clip-path="url(#p1502d1d726)" style="fill: #4c72b0; stroke: #ffffff; stroke-linejoin: miter"/>
   </g>
   <g id="patch_14">
    <path d="M 111.06 108 
C 111.06 108 111.06 108 111.06 108 
C 111.06 108 111.06 108 111.06 108 
L 66.065925 150.272243 
C 65.623287 149.801104 65.188076 149.323042 64.760454 148.838234 
C 64.332831 148.353425 63.91285 147.86193 63.500665 147.36393 
z
" clip-path="url(#p1502d1d726)" style="fill: #4c72b0; stroke: #ffffff; stroke-linejoin: miter"/>
   </g>
   <g id="patch_15">
    <path d="M 111.06 108 
C 111.06 108 111.06 108 111.06 108 
C 111.06 108 111.06 108 111.06 108 
L 66.599502 155.367421 
C 66.103512 154.90187 65.614865 154.428556 65.133741 153.947657 
C 64.652617 153.466757 64.179076 152.97833 63.713293 152.482556 
z
" clip-path="url(#p1502d1d726)" style="fill: #4c72b0; stroke: #ffffff; stroke-linejoin: miter"/>
   </g>
   <g id="patch_16">
    <path d="M 111.06 108 
C 111.06 108 111.06 108 111.06 108 
C 111.06 108 111.06 108 111.06 108 
L 75.060992 151.535119 
C 74.60513 151.158168 74.155217 150.774081 73.71142 150.383 
C 73.267622 149.991918 72.829994 149.593889 72.398698 149.189062 
z
" clip-path="url(#p1502d1d726)" style="fill: #4c72b0; stroke: #ffffff; stroke-linejoin: miter"/>
   </g>
   <g id="patch_17">
    <path d="M 111.06 108 
C 111.06 108 111.06 108 111.06 108 
C 111.06 108 111.06 108 111.06 108 
L 78.102434 153.382901 
C 77.627224 153.037798 77.157464 152.685253 76.693327 152.325395 
C 76.22919 151.965537 75.770734 151.598411 75.318128 151.224154 
z
" clip-path="url(#p1502d1d726)" style="fill: #4c72b0; stroke: #ffffff; stroke-linejoin: miter"/>
   </g>
   <g id="patch_18">
    <path d="M 111.06 108 
C 111.06 108 111.06 108 111.06 108 
C 111.06 108 111.06 108 111.06 108 
L 88.365484 143.777488 
C 87.990853 143.539851 87.619978 143.296344 87.252995 143.047058 
C 86.886013 142.797772 86.522969 142.542737 86.163997 142.282048 
z
" clip-path="url(#p1502d1d726)" style="fill: #4c72b0; stroke: #ffffff; stroke-linejoin: miter"/>
   </g>
   <g id="patch_19">
    <path d="M 111.06 108 
C 111.06 108 111.06 108 111.06 108 
C 111.06 108 111.06 108 111.06 108 
L 90.267879 145.839032 
C 89.871661 145.621315 89.478888 145.397388 89.089704 145.167334 
C 88.70052 144.93728 88.314974 144.701128 87.933207 144.458964 
z
" clip-path="url(#p1502d1d726)" style="fill: #4c72b0; stroke: #ffffff; stroke-linejoin: miter"/>
   </g>
   <g id="patch_20">
    <path d="M 111.06 108 
C 111.06 108 111.06 108 111.06 108 
C 111.06 108 111.06 108 111.06 108 
L 93.028056 146.33952 
C 92.626598 146.150705 92.228131 145.955596 91.832801 145.754266 
C 91.437471 145.552935 91.045328 145.345408 90.656516 145.13176 
z
" clip-path="url(#p1502d1d726)" style="fill: #4c72b0; stroke: #ffffff; stroke-linejoin: miter"/>
   </g>
   <g id="patch_21">
    <path d="M 111.06 108 
C 111.06 108 111.06 108 111.06 108 
C 111.06 108 111.06 108 111.06 108 
L 95.767684 146.645601 
C 95.363021 146.485473 94.960898 146.318999 94.561464 146.146241 
C 94.162029 145.973483 93.765333 145.794461 93.371522 145.609243 
z
" clip-path="url(#p1502d1d726)" style="fill: #4c72b0; stroke: #ffffff; stroke-linejoin: miter"/>
   </g>
   <g id="patch_22">
    <path d="M 111.06 108 
C 111.06 108 111.06 108 111.06 108 
C 111.06 108 111.06 108 111.06 108 
L 100.591957 140.237629 
C 100.254393 140.128017 99.918571 140.013109 99.584615 139.892949 
C 99.25066 139.772789 98.918613 139.647391 98.588597 139.516801 
z
" clip-path="url(#p1502d1d726)" style="fill: #4c72b0; stroke: #ffffff; stroke-linejoin: miter"/>
   </g>
   <g id="patch_23">
    <path d="M 111.06 108 
C 111.06 108 111.06 108 111.06 108 
C 111.06 108 111.06 108 111.06 108 
L 102.636622 140.831255 
C 102.292841 140.743053 101.950468 140.649457 101.609627 140.550501 
C 101.268787 140.451545 100.929521 140.347241 100.591957 140.237629 
z
" clip-path="url(#p1502d1d726)" style="fill: #4c72b0; stroke: #ffffff; stroke-linejoin: miter"/>
   </g>
   <g id="patch_24">
    <path d="M 111.06 108 
C 111.06 108 111.06 108 111.06 108 
C 111.06 108 111.06 108 111.06 108 
L 105.621019 136.538861 
C 105.322185 136.481909 105.024264 136.420267 104.727366 136.353957 
C 104.430468 136.287647 104.13463 136.216678 103.839961 136.141076 
z
" clip-path="url(#p1502d1d726)" style="fill: #4c72b0; stroke: #ffffff; stroke-linejoin: miter"/>
   </g>
   <g id="patch_25">
    <path d="M 111.06 108 
C 111.06 108 111.06 108 111.06 108 
C 111.06 108 111.06 108 111.06 108 
L 106.665942 142.829048 
C 106.301243 142.783037 105.937288 142.731301 105.574214 142.673859 
C 105.21114 142.616416 104.84899 142.553275 104.487898 142.484458 
z
" clip-path="url(#p1502d1d726)" style="fill: #4c72b0; stroke: #ffffff; stroke-linejoin: miter"/>
   </g>
   <g id="patch_26">
    <path d="M 111.06 108 
C 111.06 108 111.06 108 111.06 108 
C 111.06 108 111.06 108 111.06 108 
L 109.240406 136.995486 
C 108.93679 136.976433 108.633493 136.952612 108.330626 136.924032 
C 108.027758 136.895453 107.725359 136.862118 107.423538 136.82404 
z
" clip-path="url(#p1502d1d726)" style="fill: #4c72b0; stroke: #ffffff; stroke-linejoin: miter"/>
   </g>
   <g id="patch_27">
    <path d="M 111.06 108 
C 111.06 108 111.06 108 111.06 108 
C 111.06 108 111.06 108 111.06 108 
L 111.065257 142.298118 
C 110.706117 142.298173 110.346998 142.292587 109.988034 142.281362 
C 109.629069 142.270137 109.270303 142.253275 108.911868 142.230782 
z
" clip-path="url(#p1502d1d726)" style="fill: #4c72b0; stroke: #ffffff; stroke-linejoin: miter"/>
   </g>
   <g id="patch_28">
    <path d="M 111.06 108 
C 111.06 108 111.06 108 111.06 108 
C 111.06 108 111.06 108 111.06 108 
L 113.244021 142.632829 
C 112.881376 142.655698 112.518394 142.67287 112.15521 142.684338 
C 111.792026 142.695806 111.428684 142.701569 111.065319 142.701625 
z
" clip-path="url(#p1502d1d726)" style="fill: #4c72b0; stroke: #ffffff; stroke-linejoin: miter"/>
   </g>
   <g id="patch_29">
    <path d="M 111.06 108 
C 111.06 108 111.06 108 111.06 108 
C 111.06 108 111.06 108 111.06 108 
L 116.173542 148.432157 
C 115.750172 148.485701 115.325986 148.532593 114.901143 148.572814 
C 114.4763 148.613035 114.050851 148.646581 113.624955 148.673439 
z
" clip-path="url(#p1502d1d726)" style="fill: #4c72b0; stroke: #ffffff; stroke-linejoin: miter"/>
   </g>
   <g id="patch_30">
    <path d="M 111.06 108 
C 111.06 108 111.06 108 111.06 108 
C 111.06 108 111.06 108 111.06 108 
L 115.826763 132.970044 
C 115.565298 133.019957 115.303066 133.065761 115.040162 133.107437 
C 114.777259 133.149114 114.513718 133.186659 114.249635 133.220058 
z
" clip-path="url(#p1502d1d726)" style="fill: #4c72b0; stroke: #ffffff; stroke-linejoin: miter"/>
   </g>
   <g id="patch_31">
    <path d="M 111.06 108 
C 111.06 108 111.06 108 111.06 108 
C 111.06 108 111.06 108 111.06 108 
L 119.794637 142.001124 
C 119.438606 142.092586 119.081162 142.17845 118.722434 142.258684 
C 118.363707 142.338918 118.003742 142.413513 117.642672 142.482441 
z
" clip-path="url(#p1502d1d726)" style="fill: #4c72b0; stroke: #ffffff; stroke-linejoin: miter"/>
   </g>
   <g id="patch_32">
    <path d="M 111.06 108 
C 111.06 108 111.06 108 111.06 108 
C 111.06 108 111.06 108 111.06 108 
L 121.038976 138.699446 
C 120.717518 138.803937 120.394439 138.903373 120.069858 138.997716 
C 119.745277 139.09206 119.419234 139.181299 119.09185 139.265402 
z
" clip-path="url(#p1502d1d726)" style="fill: #4c72b0; stroke: #ffffff; stroke-linejoin: miter"/>
   </g>
   <g id="patch_33">
    <path d="M 111.06 108 
C 111.06 108 111.06 108 111.06 108 
C 111.06 108 111.06 108 111.06 108 
L 122.798144 137.637204 
C 122.487809 137.760116 122.175562 137.878145 121.86152 137.991249 
C 121.547478 138.104354 121.231678 138.212518 120.914239 138.315703 
z
" clip-path="url(#p1502d1d726)" style="fill: #4c72b0; stroke: #ffffff; stroke-linejoin: miter"/>
   </g>
   <g id="patch_34">
    <path d="M 111.06 108 
C 111.06 108 111.06 108 111.06 108 
C 111.06 108 111.06 108 111.06 108 
L 129.447385 147.064161 
C 129.038339 147.256698 128.626294 147.442798 128.211403 147.622393 
C 127.796512 147.801987 127.378825 147.975054 126.958498 148.141529 
z
" clip-path="url(#p1502d1d726)" style="fill: #4c72b0; stroke: #ffffff; stroke-linejoin: miter"/>
   </g>
   <g id="patch_35">
    <path d="M 111.06 108 
C 111.06 108 111.06 108 111.06 108 
C 111.06 108 111.06 108 111.06 108 
L 128.364028 139.468284 
C 128.03452 139.649477 127.702186 139.825483 127.367149 139.996237 
C 127.032112 140.166992 126.694414 140.332473 126.35418 140.49262 
z
" clip-path="url(#p1502d1d726)" style="fill: #4c72b0; stroke: #ffffff; stroke-linejoin: miter"/>
   </g>
   <g id="patch_36">
    <path d="M 111.06 108 
C 111.06 108 111.06 108 111.06 108 
C 111.06 108 111.06 108 111.06 108 
L 133.332997 143.089186 
C 132.965574 143.32241 132.59451 143.549848 132.219943 143.771416 
C 131.845376 143.992985 131.467352 144.208656 131.08601 144.418351 
z
" clip-path="url(#p1502d1d726)" style="fill: #4c72b0; stroke: #ffffff; stroke-linejoin: miter"/>
   </g>
   <g id="patch_37">
    <path d="M 111.06 108 
C 111.06 108 111.06 108 111.06 108 
C 111.06 108 111.06 108 111.06 108 
L 138.338559 145.538644 
C 137.945487 145.824282 137.547953 146.103728 137.146104 146.376879 
C 136.744254 146.650029 136.33814 146.916852 135.92791 147.177247 
z
" clip-path="url(#p1502d1d726)" style="fill: #4c72b0; stroke: #ffffff; stroke-linejoin: miter"/>
   </g>
   <g id="patch_38">
    <path d="M 111.06 108 
C 111.06 108 111.06 108 111.06 108 
C 111.06 108 111.06 108 111.06 108 
L 144.50004 148.415218 
C 144.076848 148.765373 143.648181 149.10886 143.214199 149.445551 
C 142.780217 149.782241 142.340974 150.112095 141.896632 150.434989 
z
" clip-path="url(#p1502d1d726)" style="fill: #4c72b0; stroke: #ffffff; stroke-linejoin: miter"/>
   </g>
   <g id="patch_39">
    <path d="M 111.06 108 
C 111.06 108 111.06 108 111.06 108 
C 111.06 108 111.06 108 111.06 108 
L 153.048834 152.706684 
C 152.580705 153.146354 152.105699 153.578645 151.623991 154.003396 
C 151.142284 154.428146 150.653934 154.845305 150.159124 155.254717 
z
" clip-path="url(#p1502d1d726)" style="fill: #4c72b0; stroke: #ffffff; stroke-linejoin: miter"/>
   </g>
   <g id="patch_40">
    <path d="M 111.06 108 
C 111.06 108 111.06 108 111.06 108 
C 111.06 108 111.06 108 111.06 108 
L 157.243686 151.363244 
C 156.789623 151.84684 156.327994 152.323274 155.858967 152.792369 
C 155.38994 153.261465 154.913575 153.723165 154.430046 154.177298 
z
" clip-path="url(#p1502d1d726)" style="fill: #4c72b0; stroke: #ffffff; stroke-linejoin: miter"/>
   </g>
   <g id="patch_41">
    <path d="M 111.06 108 
C 111.06 108 111.06 108 111.06 108 
C 111.06 108 111.06 108 111.06 108 
L 154.900309 144.263126 
C 154.520593 144.722183 154.133691 145.175248 153.739744 145.622154 
C 153.345798 146.069059 152.944856 146.509749 152.537068 146.94406 
z
" clip-path="url(#p1502d1d726)" style="fill: #4c72b0; stroke: #ffffff; stroke-linejoin: miter"/>
   </g>
   <g id="patch_42">
    <path d="M 111.06 108 
C 111.06 108 111.06 108 111.06 108 
C 111.06 108 111.06 108 111.06 108 
L 150.887867 136.933127 
C 150.584905 137.35017 150.275411 137.762429 149.959499 138.16975 
C 149.643588 138.577072 149.321298 138.979407 148.99275 139.376605 
z
" clip-path="url(#p1502d1d726)" style="fill: #4c72b0; stroke: #ffffff; stroke-linejoin: miter"/>
   </g>
   <g id="patch_43">
    <path d="M 111.06 108 
C 111.06 108 111.06 108 111.06 108 
C 111.06 108 111.06 108 111.06 108 
L 145.811763 130.051636 
C 145.580857 130.415527 145.344251 130.775768 145.10203 131.132226 
C 144.85981 131.488685 144.612005 131.841317 144.358709 132.189992 
z
" clip-path="url(#p1502d1d726)" style="fill: #4c72b0; stroke: #ffffff; stroke-linejoin: miter"/>
   </g>
   <g id="patch_44">
    <path d="M 111.06 108 
C 111.06 108 111.06 108 111.06 108 
C 111.06 108 111.06 108 111.06 108 
L 143.238042 125.688144 
C 143.052827 126.025084 142.862332 126.359095 142.666626 126.690052 
C 142.47092 127.021009 142.270028 127.348872 142.064024 127.673519 
z
" clip-path="url(#p1502d1d726)" style="fill: #4c72b0; stroke: #ffffff; stroke-linejoin: miter"/>
   </g>
   <g id="patch_45">
    <path d="M 111.06 108 
C 111.06 108 111.06 108 111.06 108 
C 111.06 108 111.06 108 111.06 108 
L 147.205982 125.007304 
C 147.027896 125.385793 146.843877 125.761462 146.653991 126.134171 
C 146.464106 126.50688 146.268379 126.876584 146.066881 127.243145 
z
" clip-path="url(#p1502d1d726)" style="fill: #4c72b0; stroke: #ffffff; stroke-linejoin: miter"/>
   </g>
   <g id="patch_46">
    <path d="M 111.06 108 
C 111.06 108 111.06 108 111.06 108 
C 111.06 108 111.06 108 111.06 108 
L 145.951402 121.813182 
C 145.806762 122.178534 145.656393 122.541592 145.50035 122.902222 
C 145.344307 123.262851 145.182609 123.621007 145.015316 123.976558 
z
" clip-path="url(#p1502d1d726)" style="fill: #4c72b0; stroke: #ffffff; stroke-linejoin: miter"/>
   </g>
   <g id="patch_47">
    <path d="M 111.06 108 
C 111.06 108 111.06 108 111.06 108 
C 111.06 108 111.06 108 111.06 108 
L 143.679723 118.597858 
C 143.568751 118.939423 143.452422 119.279224 143.330777 119.617136 
C 143.209133 119.955047 143.082188 120.291027 142.949991 120.624951 
z
" clip-path="url(#p1502d1d726)" style="fill: #4c72b0; stroke: #ffffff; stroke-linejoin: miter"/>
   </g>
   <g id="patch_48">
    <path d="M 111.06 108 
C 111.06 108 111.06 108 111.06 108 
C 111.06 108 111.06 108 111.06 108 
L 139.199926 115.22452 
C 139.124277 115.519177 139.044005 115.812627 138.959139 116.104763 
C 138.874273 116.396898 138.784823 116.687683 138.690824 116.977009 
z
" clip-path="url(#p1502d1d726)" style="fill: #4c72b0; stroke: #ffffff; stroke-linejoin: miter"/>
   </g>
   <g id="patch_49">
    <path d="M 111.06 108 
C 111.06 108 111.06 108 111.06 108 
C 111.06 108 111.06 108 111.06 108 
L 141.5798 113.821548 
C 141.518842 114.141125 141.452868 114.459724 141.381903 114.777229 
C 141.310938 115.094734 141.23499 115.411104 141.154087 115.726223 
z
" clip-path="url(#p1502d1d726)" style="fill: #4c72b0; stroke: #ffffff; stroke-linejoin: miter"/>
   </g>
   <g id="patch_50">
    <path d="M 111.06 108 
C 111.06 108 111.06 108 111.06 108 
C 111.06 108 111.06 108 111.06 108 
L 144.287045 112.197324 
C 144.243094 112.545249 144.193681 112.892461 144.138825 113.238834 
C 144.083968 113.585207 144.023675 113.930696 143.957966 114.275175 
z
" clip-path="url(#p1502d1d726)" style="fill: #4c72b0; stroke: #ffffff; stroke-linejoin: miter"/>
   </g>
   <g id="patch_51">
    <path d="M 111.06 108 
C 111.06 108 111.06 108 111.06 108 
C 111.06 108 111.06 108 111.06 108 
L 148.109417 110.330937 
C 148.085009 110.718887 148.05451 111.106429 148.01793 111.49342 
C 147.98135 111.880411 147.938694 112.266804 147.889977 112.652455 
z
" clip-path="url(#p1502d1d726)" style="fill: #4c72b0; stroke: #ffffff; stroke-linejoin: miter"/>
   </g>
   <g id="patch_52">
    <path d="M 111.06 108 
C 111.06 108 111.06 108 111.06 108 
C 111.06 108 111.06 108 111.06 108 
L 138.902002 108.000167 
C 138.902 108.291704 138.897419 108.583223 138.888261 108.874616 
C 138.879103 109.16601 138.865368 109.457241 138.847063 109.748203 
z
" clip-path="url(#p1502d1d726)" style="fill: #4c72b0; stroke: #ffffff; stroke-linejoin: miter"/>
   </g>
   <g id="patch_53">
    <path d="M 111.06 108 
C 111.06 108 111.06 108 111.06 108 
C 111.06 108 111.06 108 111.06 108 
L 144.082331 105.922821 
C 144.104082 106.268602 144.120399 106.614703 144.131279 106.960997 
C 144.142159 107.30729 144.147598 107.653734 144.147596 108.000198 
z
" clip-path="url(#p1502d1d726)" style="fill: #4c72b0; stroke: #ffffff; stroke-linejoin: miter"/>
   </g>
   <g id="patch_54">
    <path d="M 111.06 108 
C 111.06 108 111.06 108 111.06 108 
C 111.06 108 111.06 108 111.06 108 
L 142.685789 104.005335 
C 142.727618 104.336493 142.764242 104.668287 142.795649 105.000596 
C 142.827057 105.332904 142.853242 105.665684 142.874197 105.998815 
z
" clip-path="url(#p1502d1d726)" style="fill: #4c72b0; stroke: #ffffff; stroke-linejoin: miter"/>
   </g>
   <g id="patch_55">
    <path d="M 111.06 108 
C 111.06 108 111.06 108 111.06 108 
C 111.06 108 111.06 108 111.06 108 
L 148.714385 100.818021 
C 148.789588 101.212305 148.858594 101.607746 148.921377 102.004197 
C 148.98416 102.400649 149.040712 102.798062 149.091012 103.196289 
z
" clip-path="url(#p1502d1d726)" style="fill: #4c72b0; stroke: #ffffff; stroke-linejoin: miter"/>
   </g>
   <g id="patch_56">
    <path d="M 111.06 108 
C 111.06 108 111.06 108 111.06 108 
C 111.06 108 111.06 108 111.06 108 
L 150.534184 97.866076 
C 150.640298 98.279415 150.739913 98.694396 150.832992 99.110864 
C 150.926071 99.527332 151.012603 99.945237 151.092556 100.364423 
z
" clip-path="url(#p1502d1d726)" style="fill: #4c72b0; stroke: #ffffff; stroke-linejoin: miter"/>
   </g>
   <g id="patch_57">
    <path d="M 111.06 108 
C 111.06 108 111.06 108 111.06 108 
C 111.06 108 111.06 108 111.06 108 
L 141.761035 98.025913 
C 141.865475 98.347388 141.964859 98.670483 142.059151 98.995079 
C 142.153443 99.319675 142.24263 99.645732 142.32668 99.97313 
z
" clip-path="url(#p1502d1d726)" style="fill: #4c72b0; stroke: #ffffff; stroke-linejoin: miter"/>
   </g>
   <g id="patch_58">
    <path d="M 111.06 108 
C 111.06 108 111.06 108 111.06 108 
C 111.06 108 111.06 108 111.06 108 
L 137.32247 97.603296 
C 137.431335 97.878293 137.535874 98.154984 137.636049 98.433265 
C 137.736223 98.711546 137.832021 98.991384 137.923406 99.272674 
z
" clip-path="url(#p1502d1d726)" style="fill: #4c72b0; stroke: #ffffff; stroke-linejoin: miter"/>
   </g>
   <g id="patch_59">
    <path d="M 111.06 108 
C 111.06 108 111.06 108 111.06 108 
C 111.06 108 111.06 108 111.06 108 
L 147.936411 90.649556 
C 148.11809 91.035694 148.293693 91.424661 148.463154 91.816314 
C 148.632616 92.207968 148.795915 92.602258 148.952992 92.999041 
z
" clip-path="url(#p1502d1d726)" style="fill: #4c72b0; stroke: #ffffff; stroke-linejoin: miter"/>
   </g>
   <g id="patch_60">
    <path d="M 111.06 108 
C 111.06 108 111.06 108 111.06 108 
C 111.06 108 111.06 108 111.06 108 
L 148.895969 87.202306 
C 149.113744 87.598491 149.325283 87.998073 149.530508 88.400902 
C 149.735733 88.803732 149.934618 89.20976 150.127089 89.618837 
z
" clip-path="url(#p1502d1d726)" style="fill: #4c72b0; stroke: #ffffff; stroke-linejoin: miter"/>
   </g>
   <g id="patch_61">
    <path d="M 111.06 108 
C 111.06 108 111.06 108 111.06 108 
C 111.06 108 111.06 108 111.06 108 
L 148.537676 84.219272 
C 148.786687 84.611706 149.029519 85.008026 149.266082 85.408087 
C 149.502645 85.808148 149.732909 86.2119 149.956791 86.619193 
z
" clip-path="url(#p1502d1d726)" style="fill: #4c72b0; stroke: #ffffff; stroke-linejoin: miter"/>
   </g>
   <g id="patch_62">
    <path d="M 111.06 108 
C 111.06 108 111.06 108 111.06 108 
C 111.06 108 111.06 108 111.06 108 
L 144.685459 83.573254 
C 144.941235 83.925351 145.191464 84.281443 145.436055 84.641399 
C 145.680646 85.001355 145.919568 85.365131 146.152733 85.732591 
z
" clip-path="url(#p1502d1d726)" style="fill: #4c72b0; stroke: #ffffff; stroke-linejoin: miter"/>
   </g>
   <g id="patch_63">
    <path d="M 111.06 108 
C 111.06 108 111.06 108 111.06 108 
C 111.06 108 111.06 108 111.06 108 
L 148.371271 77.138212 
C 148.694429 77.528903 149.01143 77.924646 149.322158 78.325294 
C 149.632885 78.725942 149.937301 79.131446 150.235292 79.541655 
z
" clip-path="url(#p1502d1d726)" style="fill: #4c72b0; stroke: #ffffff; stroke-linejoin: miter"/>
   </g>
   <g id="patch_64">
    <path d="M 111.06 108 
C 111.06 108 111.06 108 111.06 108 
C 111.06 108 111.06 108 111.06 108 
L 154.596703 67.123068 
C 155.02473 67.578946 155.445571 68.041519 155.85907 68.510616 
C 156.272568 68.979713 156.678673 69.455276 157.077234 69.937128 
z
" clip-path="url(#p1502d1d726)" style="fill: #4c72b0; stroke: #ffffff; stroke-linejoin: miter"/>
   </g>
   <g id="patch_65">
    <path d="M 111.06 108 
C 111.06 108 111.06 108 111.06 108 
C 111.06 108 111.06 108 111.06 108 
L 157.193058 58.882025 
C 157.707378 59.36509 158.21408 59.856204 158.712975 60.355184 
C 159.21187 60.854165 159.702897 61.36095 160.185874 61.875354 
z
" clip-path="url(#p1502d1d726)" style="fill: #4c72b0; stroke: #ffffff; stroke-linejoin: miter"/>
   </g>
   <g id="patch_66">
    <path d="M 111.06 108 
C 111.06 108 111.06 108 111.06 108 
C 111.06 108 111.06 108 111.06 108 
L 147.072872 64.47635 
C 147.528614 64.853445 147.978405 65.237675 148.422078 65.628899 
C 148.865751 66.020122 149.303252 66.418289 149.734419 66.823254 
z
" clip-path="url(#p1502d1d726)" style="fill: #4c72b0; stroke: #ffffff; stroke-linejoin: miter"/>
   </g>
   <g id="patch_67">
    <path d="M 111.06 108 
C 111.06 108 111.06 108 111.06 108 
C 111.06 108 111.06 108 111.06 108 
L 145.218063 60.995498 
C 145.710253 61.353171 146.196795 61.718553 146.677509 62.091509 
C 147.158222 62.464464 147.633049 62.844947 148.101812 63.232817 
z
" clip-path="url(#p1502d1d726)" style="fill: #4c72b0; stroke: #ffffff; stroke-linejoin: miter"/>
   </g>
   <g id="patch_68">
    <path d="M 111.06 108 
C 111.06 108 111.06 108 111.06 108 
C 111.06 108 111.06 108 111.06 108 
L 130.522209 77.339779 
C 130.843256 77.54357 131.161083 77.752391 131.475571 77.966166 
C 131.790059 78.17994 132.10117 78.39864 132.408789 78.622186 
z
" clip-path="url(#p1502d1d726)" style="fill: #4c72b0; stroke: #ffffff; stroke-linejoin: miter"/>
   </g>
   <g id="patch_69">
    <path d="M 111.06 108 
C 111.06 108 111.06 108 111.06 108 
C 111.06 108 111.06 108 111.06 108 
L 129.530994 74.41048 
C 129.882714 74.603892 130.231375 74.802816 130.576847 75.00718 
C 130.922319 75.211543 131.26456 75.42132 131.603443 75.636433 
z
" clip-path="url(#p1502d1d726)" style="fill: #4c72b0; stroke: #ffffff; stroke-linejoin: miter"/>
   </g>
   <g id="patch_70">
    <path d="M 111.06 108 
C 111.06 108 111.06 108 111.06 108 
C 111.06 108 111.06 108 111.06 108 
L 128.244909 71.491644 
C 128.627193 71.671589 129.006626 71.857528 129.38307 72.049391 
C 129.759513 72.241254 130.13292 72.439018 130.503152 72.64261 
z
" clip-path="url(#p1502d1d726)" style="fill: #4c72b0; stroke: #ffffff; stroke-linejoin: miter"/>
   </g>
   <g id="patch_71">
    <path d="M 111.06 108 
C 111.06 108 111.06 108 111.06 108 
C 111.06 108 111.06 108 111.06 108 
L 127.701922 65.982897 
C 128.141888 66.157157 128.579091 66.338316 129.013367 66.526309 
C 129.447643 66.714301 129.87894 66.909102 130.307098 67.110641 
z
" clip-path="url(#p1502d1d726)" style="fill: #4c72b0; stroke: #ffffff; stroke-linejoin: miter"/>
   </g>
   <g id="patch_72">
    <path d="M 111.06 108 
C 111.06 108 111.06 108 111.06 108 
C 111.06 108 111.06 108 111.06 108 
L 121.663052 75.381965 
C 122.0046 75.492991 122.344383 75.609375 122.682275 75.731073 
C 123.020167 75.852772 123.356127 75.97977 123.69003 76.11202 
z
" clip-path="url(#p1502d1d726)" style="fill: #4c72b0; stroke: #ffffff; stroke-linejoin: miter"/>
   </g>
   <g id="patch_73">
    <path d="M 111.06 108 
C 111.06 108 111.06 108 111.06 108 
C 111.06 108 111.06 108 111.06 108 
L 119.192627 76.343878 
C 119.524102 76.429036 119.854219 76.519395 120.182857 76.614921 
C 120.511494 76.710448 120.83861 76.811131 121.164085 76.916932 
z
" clip-path="url(#p1502d1d726)" style="fill: #4c72b0; stroke: #ffffff; stroke-linejoin: miter"/>
   </g>
   <g id="patch_74">
    <path d="M 111.06 108 
C 111.06 108 111.06 108 111.06 108 
C 111.06 108 111.06 108 111.06 108 
L 116.659406 78.670174 
C 116.966522 78.728806 117.272698 78.792259 117.577822 78.860508 
C 117.882945 78.928757 118.186978 79.001794 118.489807 79.079592 
z
" clip-path="url(#p1502d1d726)" style="fill: #4c72b0; stroke: #ffffff; stroke-linejoin: miter"/>
   </g>
   <g id="patch_75">
    <path d="M 111.06 108 
C 111.06 108 111.06 108 111.06 108 
C 111.06 108 111.06 108 111.06 108 
L 114.503107 80.778391 
C 114.788148 80.814444 115.072605 80.854972 115.356373 80.89996 
C 115.640141 80.944948 115.923185 80.99439 116.2054 81.048268 
z
" clip-path="url(#p1502d1d726)" style="fill: #4c72b0; stroke: #ffffff; stroke-linejoin: miter"/>
   </g>
   <g id="patch_76">
    <path d="M 111.06 108 
C 111.06 108 111.06 108 111.06 108 
C 111.06 108 111.06 108 111.06 108 
L 112.660226 82.629458 
C 112.925884 82.646214 113.191263 82.667142 113.456264 82.692234 
C 113.721264 82.717325 113.985855 82.746578 114.249937 82.77998 
z
" clip-path="url(#p1502d1d726)" style="fill: #4c72b0; stroke: #ffffff; stroke-linejoin: miter"/>
   </g>
   <g id="patch_77">
    <path d="M 111.06 108 
C 111.06 108 111.06 108 111.06 108 
C 111.06 108 111.06 108 111.06 108 
L 111.065534 74.508897 
C 111.416224 74.508955 111.766891 74.514521 112.117406 74.525593 
C 112.467921 74.536665 112.81824 74.553242 113.168234 74.575318 
z
" clip-path="url(#p1502d1d726)" style="fill: #4c72b0; stroke: #ffffff; stroke-linejoin: miter"/>
   </g>
   <g id="patch_78">
    <path d="M 111.06 108 
C 111.06 108 111.06 108 111.06 108 
C 111.06 108 111.06 108 111.06 108 
L 109.316555 80.212639 
C 109.60752 80.194383 109.898754 80.180698 110.190149 80.17159 
C 110.481544 80.162481 110.773063 80.15795 111.064601 80.157999 
z
" clip-path="url(#p1502d1d726)" style="fill: #4c72b0; stroke: #ffffff; stroke-linejoin: miter"/>
   </g>
   <g id="patch_79">
    <path d="M 111.06 108 
C 111.06 108 111.06 108 111.06 108 
C 111.06 108 111.06 108 111.06 108 
L 106.716861 73.571234 
C 107.077369 73.525756 107.438569 73.485944 107.800327 73.451811 
C 108.162086 73.417679 108.524358 73.389231 108.88701 73.366477 
z
" clip-path="url(#p1502d1d726)" style="fill: #4c72b0; stroke: #ffffff; stroke-linejoin: miter"/>
   </g>
   <g id="patch_80">
    <path d="M 111.06 108 
C 111.06 108 111.06 108 111.06 108 
C 111.06 108 111.06 108 111.06 108 
L 104.412775 73.11909 
C 104.778017 73.049486 105.14433 72.985623 105.511579 72.927525 
C 105.878827 72.869426 106.246966 72.8171 106.615858 72.770565 
z
" clip-path="url(#p1502d1d726)" style="fill: #4c72b0; stroke: #ffffff; stroke-linejoin: miter"/>
   </g>
   <g id="patch_81">
    <path d="M 111.06 108 
C 111.06 108 111.06 108 111.06 108 
C 111.06 108 111.06 108 111.06 108 
L 104.040846 80.640536 
C 104.32733 80.567038 104.614951 80.498044 104.903603 80.433579 
C 105.192254 80.369115 105.481901 80.309188 105.772434 80.253821 
z
" clip-path="url(#p1502d1d726)" style="fill: #4c72b0; stroke: #ffffff; stroke-linejoin: miter"/>
   </g>
   <g id="patch_82">
    <path d="M 111.06 108 
C 111.06 108 111.06 108 111.06 108 
C 111.06 108 111.06 108 111.06 108 
L 101.838493 79.600074 
C 102.135872 79.503514 102.434749 79.411631 102.735015 79.324459 
C 103.03528 79.237287 103.336896 79.154837 103.639751 79.077138 
z
" clip-path="url(#p1502d1d726)" style="fill: #4c72b0; stroke: #ffffff; stroke-linejoin: miter"/>
   </g>
   <g id="patch_83">
    <path d="M 111.06 108 
C 111.06 108 111.06 108 111.06 108 
C 111.06 108 111.06 108 111.06 108 
L 97.698186 74.231839 
C 98.051777 74.091926 98.407544 73.957575 98.765354 73.828836 
C 99.123165 73.700097 99.482976 73.576986 99.844653 73.459549 
z
" clip-path="url(#p1502d1d726)" style="fill: #4c72b0; stroke: #ffffff; stroke-linejoin: miter"/>
   </g>
   <g id="patch_84">
    <path d="M 111.06 108 
C 111.06 108 111.06 108 111.06 108 
C 111.06 108 111.06 108 111.06 108 
L 93.715429 71.120826 
C 94.101596 70.939209 94.490591 70.763668 94.882271 70.594269 
C 95.273952 70.42487 95.668268 70.261633 96.065076 70.104619 
z
" clip-path="url(#p1502d1d726)" style="fill: #4c72b0; stroke: #ffffff; stroke-linejoin: miter"/>
   </g>
   <g id="patch_85">
    <path d="M 111.06 108 
C 111.06 108 111.06 108 111.06 108 
C 111.06 108 111.06 108 111.06 108 
L 92.405793 74.050739 
C 92.76128 73.855408 93.119813 73.665673 93.48126 73.481604 
C 93.842706 73.297535 94.207022 73.119154 94.574071 72.946528 
z
" clip-path="url(#p1502d1d726)" style="fill: #4c72b0; stroke: #ffffff; stroke-linejoin: miter"/>
   </g>
   <g id="patch_86">
    <path d="M 111.06 108 
C 111.06 108 111.06 108 111.06 108 
C 111.06 108 111.06 108 111.06 108 
L 87.069107 70.177797 
C 87.465148 69.926585 87.86511 69.681609 88.268846 69.44296 
C 88.672582 69.204311 89.080041 68.972018 89.491073 68.746167 
z
" clip-path="url(#p1502d1d726)" style="fill: #4c72b0; stroke: #ffffff; stroke-linejoin: miter"/>
   </g>
   <g id="patch_87">
    <path d="M 111.06 108 
C 111.06 108 111.06 108 111.06 108 
C 111.06 108 111.06 108 111.06 108 
L 79.999785 65.228692 
C 80.447649 64.903457 80.900593 64.585276 81.358451 64.274267 
C 81.816309 63.963258 82.279023 63.65946 82.746423 63.362985 
z
" clip-path="url(#p1502d1d726)" style="fill: #4c72b0; stroke: #ffffff; stroke-linejoin: miter"/>
   </g>
   <g id="patch_88">
    <path d="M 111.06 108 
C 111.06 108 111.06 108 111.06 108 
C 111.06 108 111.06 108 111.06 108 
L 84.061135 75.348338 
C 84.403035 75.065629 84.749354 74.788308 85.099964 74.516477 
C 85.450575 74.244646 85.805433 73.978339 86.164408 73.717654 
z
" clip-path="url(#p1502d1d726)" style="fill: #4c72b0; stroke: #ffffff; stroke-linejoin: miter"/>
   </g>
   <g id="patch_89">
    <path d="M 111.06 108 
C 111.06 108 111.06 108 111.06 108 
C 111.06 108 111.06 108 111.06 108 
L 74.056083 68.575741 
C 74.468899 68.188268 74.887776 67.807303 75.312559 67.432987 
C 75.737341 67.058671 76.167977 66.69105 76.604306 66.33026 
z
" clip-path="url(#p1502d1d726)" style="fill: #4c72b0; stroke: #ffffff; stroke-linejoin: miter"/>
   </g>
   <g id="patch_90">
    <path d="M 111.06 108 
C 111.06 108 111.06 108 111.06 108 
C 111.06 108 111.06 108 111.06 108 
L 64.596053 64.345755 
C 65.053162 63.859225 65.517885 63.379905 65.990049 62.907971 
C 66.462214 62.436038 66.941762 61.97155 67.428515 61.514679 
z
" clip-path="url(#p1502d1d726)" style="fill: #4c72b0; stroke: #ffffff; stroke-linejoin: miter"/>
   </g>
   <g id="patch_91">
    <path d="M 111.06 108 
C 111.06 108 111.06 108 111.06 108 
C 111.06 108 111.06 108 111.06 108 
L 70.339666 74.295755 
C 70.692587 73.869368 71.052184 73.448549 71.418323 73.033456 
C 71.784462 72.618363 72.157099 72.209046 72.536094 71.805658 
z
" clip-path="url(#p1502d1d726)" style="fill: #4c72b0; stroke: #ffffff; stroke-linejoin: miter"/>
   </g>
   <g id="patch_92">
    <path d="M 111.06 108 
C 111.06 108 111.06 108 111.06 108 
C 111.06 108 111.06 108 111.06 108 
L 69.609438 77.867885 
C 69.924956 77.433851 70.247271 77.004799 70.576264 76.580888 
C 70.905258 76.156978 71.240889 75.738261 71.583035 75.324893 
z
" clip-path="url(#p1502d1d726)" style="fill: #4c72b0; stroke: #ffffff; stroke-linejoin: miter"/>
   </g>
   <g id="patch_93">
    <path d="M 111.06 108 
C 111.06 108 111.06 108 111.06 108 
C 111.06 108 111.06 108 111.06 108 
L 70.183838 82.043877 
C 70.455628 81.615858 70.734124 81.192134 71.019223 80.772861 
C 71.304322 80.353589 71.595989 79.938821 71.894115 79.52871 
z
" clip-path="url(#p1502d1d726)" style="fill: #4c72b0; stroke: #ffffff; stroke-linejoin: miter"/>
   </g>
   <g id="patch_94">
    <path d="M 111.06 108 
C 111.06 108 111.06 108 111.06 108 
C 111.06 108 111.06 108 111.06 108 
L 72.170278 86.606339 
C 72.394293 86.19912 72.624691 85.795444 72.861386 85.395462 
C 73.098081 84.995479 73.341044 84.599239 73.590185 84.206888 
z
" clip-path="url(#p1502d1d726)" style="fill: #4c72b0; stroke: #ffffff; stroke-linejoin: miter"/>
   </g>
   <g id="patch_95">
    <path d="M 111.06 108 
C 111.06 108 111.06 108 111.06 108 
C 111.06 108 111.06 108 111.06 108 
L 74.554381 90.809277 
C 74.734387 90.427022 74.920386 90.047618 75.112309 89.671205 
C 75.304233 89.294792 75.502056 88.921417 75.705707 88.551218 
z
" clip-path="url(#p1502d1d726)" style="fill: #4c72b0; stroke: #ffffff; stroke-linejoin: miter"/>
   </g>
   <g id="patch_96">
    <path d="M 111.06 108 
C 111.06 108 111.06 108 111.06 108 
C 111.06 108 111.06 108 111.06 108 
L 76.173 94.175705 
C 76.317756 93.810399 76.468241 93.447389 76.624399 93.086809 
C 76.780557 92.72623 76.942368 92.368125 77.109774 92.012628 
z
" clip-path="url(#p1502d1d726)" style="fill: #4c72b0; stroke: #ffffff; stroke-linejoin: miter"/>
   </g>
   <g id="patch_97">
    <path d="M 111.06 108 
C 111.06 108 111.06 108 111.06 108 
C 111.06 108 111.06 108 111.06 108 
L 78.443654 97.391753 
C 78.554735 97.050223 78.671173 96.710459 78.792925 96.372586 
C 78.914677 96.034714 79.041728 95.698774 79.174032 95.364892 
z
" clip-path="url(#p1502d1d726)" style="fill: #4c72b0; stroke: #ffffff; stroke-linejoin: miter"/>
   </g>
   <g id="patch_98">
    <path d="M 111.06 108 
C 111.06 108 111.06 108 111.06 108 
C 111.06 108 111.06 108 111.06 108 
L 73.152368 98.254891 
C 73.254411 97.857956 73.362681 97.462647 73.47714 97.069112 
C 73.591599 96.675577 73.712232 96.283864 73.838994 95.894118 
z
" clip-path="url(#p1502d1d726)" style="fill: #4c72b0; stroke: #ffffff; stroke-linejoin: miter"/>
   </g>
   <g id="patch_99">
    <path d="M 111.06 108 
C 111.06 108 111.06 108 111.06 108 
C 111.06 108 111.06 108 111.06 108 
L 77.767697 101.638616 
C 77.834308 101.290008 77.90639 100.942468 77.983917 100.596124 
C 78.061444 100.24978 78.144406 99.904675 78.232773 99.560937 
z
" clip-path="url(#p1502d1d726)" style="fill: #4c72b0; stroke: #ffffff; stroke-linejoin: miter"/>
   </g>
   <g id="patch_100">
    <path d="M 111.06 108 
C 111.06 108 111.06 108 111.06 108 
C 111.06 108 111.06 108 111.06 108 
L 76.233055 103.589302 
C 76.27924 103.224625 76.33115 102.860695 76.388766 102.497648 
C 76.446382 102.134602 76.509696 101.772482 76.578686 101.411424 
z
" clip-path="url(#p1502d1d726)" style="fill: #4c72b0; stroke: #ffffff; stroke-linejoin: miter"/>
   </g>
   <g id="patch_101">
    <path d="M 111.06 108 
C 111.06 108 111.06 108 111.06 108 
C 111.06 108 111.06 108 111.06 108 
L 76.830248 105.835514 
C 76.852913 105.47709 76.881206 105.119044 76.915116 104.761508 
C 76.949027 104.403973 76.988551 104.046992 77.033675 103.690698 
z
" clip-path="url(#p1502d1d726)" style="fill: #4c72b0; stroke: #ffffff; stroke-linejoin: miter"/>
   </g>
   <g id="patch_102">
    <path d="M 111.06 108 
C 111.06 108 111.06 108 111.06 108 
C 111.06 108 111.06 108 111.06 108 
L 76.358377 107.988739 
C 76.358494 107.625374 76.36432 107.262033 76.37585 106.898851 
C 76.38738 106.535669 76.404614 106.17269 76.427545 105.810049 
z
" clip-path="url(#p1502d1d726)" style="fill: #4c72b0; stroke: #ffffff; stroke-linejoin: miter"/>
   </g>
   <g id="patch_103">
    <path d="M 181.815 108 
C 181.815 98.708539 179.984785 89.507425 176.429096 80.923234 
C 172.873408 72.339043 167.661396 64.538715 161.09134 57.96866 
C 154.521285 51.398604 146.720957 46.186592 138.136766 42.630904 
C 129.552575 39.075215 120.351461 37.245 111.06 37.245 
C 101.768539 37.245 92.567425 39.075215 83.983234 42.630904 
C 75.399043 46.186592 67.598715 51.398604 61.02866 57.96866 
C 54.458604 64.538715 49.246592 72.339043 45.690904 80.923234 
C 42.135215 89.507425 40.305 98.708539 40.305 108 
C 40.305 117.291461 42.135215 126.492575 45.690904 135.076766 
C 49.246592 143.660957 54.458604 151.461285 61.02866 158.03134 
C 67.598715 164.601396 75.399043 169.813408 83.983234 173.369096 
C 92.567425 176.924785 101.768539 178.755 111.06 178.755 
C 120.351461 178.755 129.552575 176.924785 138.136766 173.369096 
C 146.720957 169.813408 154.521285 164.601396 161.09134 158.03134 
C 167.661396 151.461285 172.873408 143.660957 176.429096 135.076766 
C 179.984785 126.492575 181.815 117.291461 181.815 108 
" style="fill: none; stroke: #ffffff; stroke-width: 1.25; stroke-linejoin: miter; stroke-linecap: square"/>
   </g>
  </g>
 </g>
 <defs>
  <clipPath id="p1502d1d726">
   <path d="M 181.815 108 
C 181.815 98.708539 179.984785 89.507425 176.429096 80.923234 
C 172.873408 72.339043 167.661396 64.538715 161.09134 57.96866 
C 154.521285 51.398604 146.720957 46.186592 138.136766 42.630904 
C 129.552575 39.075215 120.351461 37.245 111.06 37.245 
C 101.768539 37.245 92.567425 39.075215 83.983234 42.630904 
C 75.399043 46.186592 67.598715 51.398604 61.02866 57.96866 
C 54.458604 64.538715 49.246592 72.339043 45.690904 80.923234 
C 42.135215 89.507425 40.305 98.708539 40.305 108 
C 40.305 117.291461 42.135215 126.492575 45.690904 135.076766 
C 49.246592 143.660957 54.458604 151.461285 61.02866 158.03134 
C 67.598715 164.601396 75.399043 169.813408 83.983234 173.369096 
C 92.567425 176.924785 101.768539 178.755 111.06 178.755 
C 120.351461 178.755 129.552575 176.924785 138.136766 173.369096 
C 146.720957 169.813408 154.521285 164.601396 161.09134 158.03134 
C 167.661396 151.461285 172.873408 143.660957 176.429096 135.076766 
C 179.984785 126.492575 181.815 117.291461 181.815 108 
M 111.06 108 
C 111.06 108 111.06 108 111.06 108 
C 111.06 108 111.06 108 111.06 108 
C 111.06 108 111.06 108 111.06 108 
C 111.06 108 111.06 108 111.06 108 
C 111.06 108 111.06 108 111.06 108 
C 111.06 108 111.06 108 111.06 108 
C 111.06 108 111.06 108 111.06 108 
C 111.06 108 111.06 108 111.06 108 
C 111.06 108 111.06 108 111.06 108 
C 111.06 108 111.06 108 111.06 108 
C 111.06 108 111.06 108 111.06 108 
C 111.06 108 111.06 108 111.06 108 
C 111.06 108 111.06 108 111.06 108 
C 111.06 108 111.06 108 111.06 108 
C 111.06 108 111.06 108 111.06 108 
C 111.06 108 111.06 108 111.06 108 
z
"/>
  </clipPath>
 </defs>
</svg>
