<?xml version="1.0" encoding="utf-8" standalone="no"?>
<!DOCTYPE svg PUBLIC "-//W3C//DTD SVG 1.1//EN"
  "http://www.w3.org/Graphics/SVG/1.1/DTD/svg11.dtd">
<svg xmlns:xlink="http://www.w3.org/1999/xlink" width="216pt" height="216pt" viewBox="0 0 216 216" xmlns="http://www.w3.org/2000/svg" version="1.1">
 <metadata>
  <rdf:RDF xmlns:dc="http://purl.org/dc/elements/1.1/" xmlns:cc="http://creativecommons.org/ns#" xmlns:rdf="http://www.w3.org/1999/02/22-rdf-syntax-ns#">
   <cc:Work>
    <dc:type rdf:resource="http://purl.org/dc/dcmitype/StillImage"/>
    <dc:date>2023-10-28T15:53:52.947783</dc:date>
    <dc:format>image/svg+xml</dc:format>
    <dc:creator>
     <cc:Agent>
      <dc:title>Matplotlib v3.7.0, https://matplotlib.org/</dc:title>
     </cc:Agent>
    </dc:creator>
   </cc:Work>
  </rdf:RDF>
 </metadata>
 <defs>
  <style type="text/css">*{stroke-linejoin: round; stroke-linecap: butt}</style>
 </defs>
 <g id="figure_1">
  <g id="patch_1">
   <path d="M 0 216 
L 216 216 
L 216 0 
L 0 0 
z
" style="fill: #ffffff"/>
  </g>
  <g id="axes_1">
   <g id="patch_2">
    <path d="M 181.815 108 
C 181.815 98.708539 179.984785 89.507425 176.429096 80.923234 
C 172.873408 72.339043 167.661396 64.538715 161.09134 57.96866 
C 154.521285 51.398604 146.720957 46.186592 138.136766 42.630904 
C 129.552575 39.075215 120.351461 37.245 111.06 37.245 
C 101.768539 37.245 92.567425 39.075215 83.983234 42.630904 
C 75.399043 46.186592 67.598715 51.398604 61.02866 57.96866 
C 54.458604 64.538715 49.246592 72.339043 45.690904 80.923234 
C 42.135215 89.507425 40.305 98.708539 40.305 108 
C 40.305 117.291461 42.135215 126.492575 45.690904 135.076766 
C 49.246592 143.660957 54.458604 151.461285 61.02866 158.03134 
C 67.598715 164.601396 75.399043 169.813408 83.983234 173.369096 
C 92.567425 176.924785 101.768539 178.755 111.06 178.755 
C 120.351461 178.755 129.552575 176.924785 138.136766 173.369096 
C 146.720957 169.813408 154.521285 164.601396 161.09134 158.03134 
C 167.661396 151.461285 172.873408 143.660957 176.429096 135.076766 
C 179.984785 126.492575 181.815 117.291461 181.815 108 
M 111.06 108 
C 111.06 108 111.06 108 111.06 108 
C 111.06 108 111.06 108 111.06 108 
C 111.06 108 111.06 108 111.06 108 
C 111.06 108 111.06 108 111.06 108 
C 111.06 108 111.06 108 111.06 108 
C 111.06 108 111.06 108 111.06 108 
C 111.06 108 111.06 108 111.06 108 
C 111.06 108 111.06 108 111.06 108 
C 111.06 108 111.06 108 111.06 108 
C 111.06 108 111.06 108 111.06 108 
C 111.06 108 111.06 108 111.06 108 
C 111.06 108 111.06 108 111.06 108 
C 111.06 108 111.06 108 111.06 108 
C 111.06 108 111.06 108 111.06 108 
C 111.06 108 111.06 108 111.06 108 
C 111.06 108 111.06 108 111.06 108 
z
" style="fill: #eaeaf2"/>
   </g>
   <g id="matplotlib.axis_1">
    <g id="xtick_1">
     <g id="line2d_1">
      <path d="M 111.06 108 
L 181.815 108 
" clip-path="url(#p5ded1e5b62)" style="fill: none; stroke: #ffffff; stroke-linecap: round"/>
     </g>
     <g id="text_1">
      <!-- 0° -->
      <g style="fill: #262626" transform="translate(193.057344 110.843672) scale(0.11 -0.11)">
       <defs>
        <path id="ArialMT-30" d="M 266 2259 
Q 266 3072 433 3567 
Q 600 4063 929 4331 
Q 1259 4600 1759 4600 
Q 2128 4600 2406 4451 
Q 2684 4303 2865 4023 
Q 3047 3744 3150 3342 
Q 3253 2941 3253 2259 
Q 3253 1453 3087 958 
Q 2922 463 2592 192 
Q 2263 -78 1759 -78 
Q 1097 -78 719 397 
Q 266 969 266 2259 
z
M 844 2259 
Q 844 1131 1108 757 
Q 1372 384 1759 384 
Q 2147 384 2411 759 
Q 2675 1134 2675 2259 
Q 2675 3391 2411 3762 
Q 2147 4134 1753 4134 
Q 1366 4134 1134 3806 
Q 844 3388 844 2259 
z
" transform="scale(0.015625)"/>
        <path id="ArialMT-b0" d="M 400 3794 
Q 400 4153 654 4406 
Q 909 4659 1266 4659 
Q 1628 4659 1881 4406 
Q 2134 4153 2134 3794 
Q 2134 3434 1879 3179 
Q 1625 2925 1266 2925 
Q 909 2925 654 3178 
Q 400 3431 400 3794 
z
M 741 3794 
Q 741 3575 895 3420 
Q 1050 3266 1269 3266 
Q 1484 3266 1639 3420 
Q 1794 3575 1794 3794 
Q 1794 4013 1639 4167 
Q 1484 4322 1269 4322 
Q 1050 4322 895 4167 
Q 741 4013 741 3794 
z
" transform="scale(0.015625)"/>
       </defs>
       <use xlink:href="#ArialMT-30"/>
       <use xlink:href="#ArialMT-b0" x="55.615234"/>
      </g>
     </g>
    </g>
    <g id="xtick_2">
     <g id="line2d_2">
      <path d="M 111.06 108 
L 161.09134 57.96866 
" clip-path="url(#p5ded1e5b62)" style="fill: none; stroke: #ffffff; stroke-linecap: round"/>
     </g>
     <g id="text_2">
      <!-- 45° -->
      <g style="fill: #262626" transform="translate(164.44243 49.14507) scale(0.11 -0.11)">
       <defs>
        <path id="ArialMT-34" d="M 2069 0 
L 2069 1097 
L 81 1097 
L 81 1613 
L 2172 4581 
L 2631 4581 
L 2631 1613 
L 3250 1613 
L 3250 1097 
L 2631 1097 
L 2631 0 
L 2069 0 
z
M 2069 1613 
L 2069 3678 
L 634 1613 
L 2069 1613 
z
" transform="scale(0.015625)"/>
        <path id="ArialMT-35" d="M 266 1200 
L 856 1250 
Q 922 819 1161 601 
Q 1400 384 1738 384 
Q 2144 384 2425 690 
Q 2706 997 2706 1503 
Q 2706 1984 2436 2262 
Q 2166 2541 1728 2541 
Q 1456 2541 1237 2417 
Q 1019 2294 894 2097 
L 366 2166 
L 809 4519 
L 3088 4519 
L 3088 3981 
L 1259 3981 
L 1013 2750 
Q 1425 3038 1878 3038 
Q 2478 3038 2890 2622 
Q 3303 2206 3303 1553 
Q 3303 931 2941 478 
Q 2500 -78 1738 -78 
Q 1113 -78 717 272 
Q 322 622 266 1200 
z
" transform="scale(0.015625)"/>
       </defs>
       <use xlink:href="#ArialMT-34"/>
       <use xlink:href="#ArialMT-35" x="55.615234"/>
       <use xlink:href="#ArialMT-b0" x="111.230469"/>
      </g>
     </g>
    </g>
    <g id="xtick_3">
     <g id="line2d_3">
      <path d="M 111.06 108 
L 111.06 37.245 
" clip-path="url(#p5ded1e5b62)" style="fill: none; stroke: #ffffff; stroke-linecap: round"/>
     </g>
     <g id="text_3">
      <!-- 90° -->
      <g style="fill: #262626" transform="translate(102.743828 23.588672) scale(0.11 -0.11)">
       <defs>
        <path id="ArialMT-39" d="M 350 1059 
L 891 1109 
Q 959 728 1153 556 
Q 1347 384 1650 384 
Q 1909 384 2104 503 
Q 2300 622 2425 820 
Q 2550 1019 2634 1356 
Q 2719 1694 2719 2044 
Q 2719 2081 2716 2156 
Q 2547 1888 2255 1720 
Q 1963 1553 1622 1553 
Q 1053 1553 659 1965 
Q 266 2378 266 3053 
Q 266 3750 677 4175 
Q 1088 4600 1706 4600 
Q 2153 4600 2523 4359 
Q 2894 4119 3086 3673 
Q 3278 3228 3278 2384 
Q 3278 1506 3087 986 
Q 2897 466 2520 194 
Q 2144 -78 1638 -78 
Q 1100 -78 759 220 
Q 419 519 350 1059 
z
M 2653 3081 
Q 2653 3566 2395 3850 
Q 2138 4134 1775 4134 
Q 1400 4134 1122 3828 
Q 844 3522 844 3034 
Q 844 2597 1108 2323 
Q 1372 2050 1759 2050 
Q 2150 2050 2401 2323 
Q 2653 2597 2653 3081 
z
" transform="scale(0.015625)"/>
       </defs>
       <use xlink:href="#ArialMT-39"/>
       <use xlink:href="#ArialMT-30" x="55.615234"/>
       <use xlink:href="#ArialMT-b0" x="111.230469"/>
      </g>
     </g>
    </g>
    <g id="xtick_4">
     <g id="line2d_4">
      <path d="M 111.06 108 
L 61.02866 57.96866 
" clip-path="url(#p5ded1e5b62)" style="fill: none; stroke: #ffffff; stroke-linecap: round"/>
     </g>
     <g id="text_4">
      <!-- 135° -->
      <g style="fill: #262626" transform="translate(37.98671 49.14507) scale(0.11 -0.11)">
       <defs>
        <path id="ArialMT-31" d="M 2384 0 
L 1822 0 
L 1822 3584 
Q 1619 3391 1289 3197 
Q 959 3003 697 2906 
L 697 3450 
Q 1169 3672 1522 3987 
Q 1875 4303 2022 4600 
L 2384 4600 
L 2384 0 
z
" transform="scale(0.015625)"/>
        <path id="ArialMT-33" d="M 269 1209 
L 831 1284 
Q 928 806 1161 595 
Q 1394 384 1728 384 
Q 2125 384 2398 659 
Q 2672 934 2672 1341 
Q 2672 1728 2419 1979 
Q 2166 2231 1775 2231 
Q 1616 2231 1378 2169 
L 1441 2663 
Q 1497 2656 1531 2656 
Q 1891 2656 2178 2843 
Q 2466 3031 2466 3422 
Q 2466 3731 2256 3934 
Q 2047 4138 1716 4138 
Q 1388 4138 1169 3931 
Q 950 3725 888 3313 
L 325 3413 
Q 428 3978 793 4289 
Q 1159 4600 1703 4600 
Q 2078 4600 2393 4439 
Q 2709 4278 2876 4000 
Q 3044 3722 3044 3409 
Q 3044 3113 2884 2869 
Q 2725 2625 2413 2481 
Q 2819 2388 3044 2092 
Q 3269 1797 3269 1353 
Q 3269 753 2831 336 
Q 2394 -81 1725 -81 
Q 1122 -81 723 278 
Q 325 638 269 1209 
z
" transform="scale(0.015625)"/>
       </defs>
       <use xlink:href="#ArialMT-31"/>
       <use xlink:href="#ArialMT-33" x="55.615234"/>
       <use xlink:href="#ArialMT-35" x="111.230469"/>
       <use xlink:href="#ArialMT-b0" x="166.845703"/>
      </g>
     </g>
    </g>
    <g id="xtick_5">
     <g id="line2d_5">
      <path d="M 111.06 108 
L 40.305 108 
" clip-path="url(#p5ded1e5b62)" style="fill: none; stroke: #ffffff; stroke-linecap: round"/>
     </g>
     <g id="text_5">
      <!-- 180° -->
      <g style="fill: #262626" transform="translate(12.430313 110.843672) scale(0.11 -0.11)">
       <defs>
        <path id="ArialMT-38" d="M 1131 2484 
Q 781 2613 612 2850 
Q 444 3088 444 3419 
Q 444 3919 803 4259 
Q 1163 4600 1759 4600 
Q 2359 4600 2725 4251 
Q 3091 3903 3091 3403 
Q 3091 3084 2923 2848 
Q 2756 2613 2416 2484 
Q 2838 2347 3058 2040 
Q 3278 1734 3278 1309 
Q 3278 722 2862 322 
Q 2447 -78 1769 -78 
Q 1091 -78 675 323 
Q 259 725 259 1325 
Q 259 1772 486 2073 
Q 713 2375 1131 2484 
z
M 1019 3438 
Q 1019 3113 1228 2906 
Q 1438 2700 1772 2700 
Q 2097 2700 2305 2904 
Q 2513 3109 2513 3406 
Q 2513 3716 2298 3927 
Q 2084 4138 1766 4138 
Q 1444 4138 1231 3931 
Q 1019 3725 1019 3438 
z
M 838 1322 
Q 838 1081 952 856 
Q 1066 631 1291 507 
Q 1516 384 1775 384 
Q 2178 384 2440 643 
Q 2703 903 2703 1303 
Q 2703 1709 2433 1975 
Q 2163 2241 1756 2241 
Q 1359 2241 1098 1978 
Q 838 1716 838 1322 
z
" transform="scale(0.015625)"/>
       </defs>
       <use xlink:href="#ArialMT-31"/>
       <use xlink:href="#ArialMT-38" x="55.615234"/>
       <use xlink:href="#ArialMT-30" x="111.230469"/>
       <use xlink:href="#ArialMT-b0" x="166.845703"/>
      </g>
     </g>
    </g>
    <g id="xtick_6">
     <g id="line2d_6">
      <path d="M 111.06 108 
L 61.02866 158.03134 
" clip-path="url(#p5ded1e5b62)" style="fill: none; stroke: #ffffff; stroke-linecap: round"/>
     </g>
     <g id="text_6">
      <!-- 225° -->
      <g style="fill: #262626" transform="translate(37.98671 172.542274) scale(0.11 -0.11)">
       <defs>
        <path id="ArialMT-32" d="M 3222 541 
L 3222 0 
L 194 0 
Q 188 203 259 391 
Q 375 700 629 1000 
Q 884 1300 1366 1694 
Q 2113 2306 2375 2664 
Q 2638 3022 2638 3341 
Q 2638 3675 2398 3904 
Q 2159 4134 1775 4134 
Q 1369 4134 1125 3890 
Q 881 3647 878 3216 
L 300 3275 
Q 359 3922 746 4261 
Q 1134 4600 1788 4600 
Q 2447 4600 2831 4234 
Q 3216 3869 3216 3328 
Q 3216 3053 3103 2787 
Q 2991 2522 2730 2228 
Q 2469 1934 1863 1422 
Q 1356 997 1212 845 
Q 1069 694 975 541 
L 3222 541 
z
" transform="scale(0.015625)"/>
       </defs>
       <use xlink:href="#ArialMT-32"/>
       <use xlink:href="#ArialMT-32" x="55.615234"/>
       <use xlink:href="#ArialMT-35" x="111.230469"/>
       <use xlink:href="#ArialMT-b0" x="166.845703"/>
      </g>
     </g>
    </g>
    <g id="xtick_7">
     <g id="line2d_7">
      <path d="M 111.06 108 
L 111.06 178.755 
" clip-path="url(#p5ded1e5b62)" style="fill: none; stroke: #ffffff; stroke-linecap: round"/>
     </g>
     <g id="text_7">
      <!-- 270° -->
      <g style="fill: #262626" transform="translate(99.685312 198.098672) scale(0.11 -0.11)">
       <defs>
        <path id="ArialMT-37" d="M 303 3981 
L 303 4522 
L 3269 4522 
L 3269 4084 
Q 2831 3619 2401 2847 
Q 1972 2075 1738 1259 
Q 1569 684 1522 0 
L 944 0 
Q 953 541 1156 1306 
Q 1359 2072 1739 2783 
Q 2119 3494 2547 3981 
L 303 3981 
z
" transform="scale(0.015625)"/>
       </defs>
       <use xlink:href="#ArialMT-32"/>
       <use xlink:href="#ArialMT-37" x="55.615234"/>
       <use xlink:href="#ArialMT-30" x="111.230469"/>
       <use xlink:href="#ArialMT-b0" x="166.845703"/>
      </g>
     </g>
    </g>
    <g id="xtick_8">
     <g id="line2d_8">
      <path d="M 111.06 108 
L 161.09134 158.03134 
" clip-path="url(#p5ded1e5b62)" style="fill: none; stroke: #ffffff; stroke-linecap: round"/>
     </g>
     <g id="text_8">
      <!-- 315° -->
      <g style="fill: #262626" transform="translate(161.383915 172.542274) scale(0.11 -0.11)">
       <use xlink:href="#ArialMT-33"/>
       <use xlink:href="#ArialMT-31" x="55.615234"/>
       <use xlink:href="#ArialMT-35" x="111.230469"/>
       <use xlink:href="#ArialMT-b0" x="166.845703"/>
      </g>
     </g>
    </g>
   </g>
   <g id="matplotlib.axis_2">
    <g id="ytick_1">
     <g id="line2d_9">
      <path d="M 127.906429 108 
C 127.906429 105.787747 127.470663 103.597006 126.624071 101.553151 
C 125.777478 99.509296 124.536523 97.652075 122.972224 96.087776 
C 121.407925 94.523477 119.550704 93.282522 117.506849 92.435929 
C 115.462994 91.589337 113.272253 91.153571 111.06 91.153571 
C 108.847747 91.153571 106.657006 91.589337 104.613151 92.435929 
C 102.569296 93.282522 100.712075 94.523477 99.147776 96.087776 
C 97.583477 97.652075 96.342522 99.509296 95.495929 101.553151 
C 94.649337 103.597006 94.213571 105.787747 94.213571 108 
C 94.213571 110.212253 94.649337 112.402994 95.495929 114.446849 
C 96.342522 116.490704 97.583477 118.347925 99.147776 119.912224 
C 100.712075 121.476523 102.569296 122.717478 104.613151 123.564071 
C 106.657006 124.410663 108.847747 124.846429 111.06 124.846429 
C 113.272253 124.846429 115.462994 124.410663 117.506849 123.564071 
C 119.550704 122.717478 121.407925 121.476523 122.972224 119.912224 
C 124.536523 118.347925 125.777478 116.490704 126.624071 114.446849 
C 127.470663 112.402994 127.906429 110.212253 127.906429 108 
" clip-path="url(#p5ded1e5b62)" style="fill: none; stroke: #ffffff; stroke-linecap: round"/>
     </g>
    </g>
    <g id="ytick_2">
     <g id="line2d_10">
      <path d="M 144.752857 108 
C 144.752857 103.575495 143.881326 99.194012 142.188141 95.106302 
C 140.494956 91.018592 138.013046 87.30415 134.884448 84.175552 
C 131.75585 81.046954 128.041408 78.565044 123.953698 76.871859 
C 119.865988 75.178674 115.484505 74.307143 111.06 74.307143 
C 106.635495 74.307143 102.254012 75.178674 98.166302 76.871859 
C 94.078592 78.565044 90.36415 81.046954 87.235552 84.175552 
C 84.106954 87.30415 81.625044 91.018592 79.931859 95.106302 
C 78.238674 99.194012 77.367143 103.575495 77.367143 108 
C 77.367143 112.424505 78.238674 116.805988 79.931859 120.893698 
C 81.625044 124.981408 84.106954 128.69585 87.235552 131.824448 
C 90.36415 134.953046 94.078592 137.434956 98.166302 139.128141 
C 102.254012 140.821326 106.635495 141.692857 111.06 141.692857 
C 115.484505 141.692857 119.865988 140.821326 123.953698 139.128141 
C 128.041408 137.434956 131.75585 134.953046 134.884448 131.824448 
C 138.013046 128.69585 140.494956 124.981408 142.188141 120.893698 
C 143.881326 116.805988 144.752857 112.424505 144.752857 108 
" clip-path="url(#p5ded1e5b62)" style="fill: none; stroke: #ffffff; stroke-linecap: round"/>
     </g>
    </g>
    <g id="ytick_3">
     <g id="line2d_11">
      <path d="M 161.599286 108 
C 161.599286 101.363242 160.291989 94.791018 157.752212 88.659453 
C 155.212434 82.527888 151.489568 76.956225 146.796672 72.263328 
C 142.103775 67.570432 136.532112 63.847566 130.400547 61.307788 
C 124.268982 58.768011 117.696758 57.460714 111.06 57.460714 
C 104.423242 57.460714 97.851018 58.768011 91.719453 61.307788 
C 85.587888 63.847566 80.016225 67.570432 75.323328 72.263328 
C 70.630432 76.956225 66.907566 82.527888 64.367788 88.659453 
C 61.828011 94.791018 60.520714 101.363242 60.520714 108 
C 60.520714 114.636758 61.828011 121.208982 64.367788 127.340547 
C 66.907566 133.472112 70.630432 139.043775 75.323328 143.736672 
C 80.016225 148.429568 85.587888 152.152434 91.719453 154.692212 
C 97.851018 157.231989 104.423242 158.539286 111.06 158.539286 
C 117.696758 158.539286 124.268982 157.231989 130.400547 154.692212 
C 136.532112 152.152434 142.103775 148.429568 146.796672 143.736672 
C 151.489568 139.043775 155.212434 133.472112 157.752212 127.340547 
C 160.291989 121.208982 161.599286 114.636758 161.599286 108 
" clip-path="url(#p5ded1e5b62)" style="fill: none; stroke: #ffffff; stroke-linecap: round"/>
     </g>
    </g>
    <g id="ytick_4">
     <g id="line2d_12">
      <path d="M 178.445714 108 
C 178.445714 99.150989 176.702652 90.388024 173.316282 82.212604 
C 169.929912 74.037183 164.966091 66.6083 158.708896 60.351104 
C 152.4517 54.093909 145.022817 49.130088 136.847396 45.743718 
C 128.671976 42.357348 119.909011 40.614286 111.06 40.614286 
C 102.210989 40.614286 93.448024 42.357348 85.272604 45.743718 
C 77.097183 49.130088 69.6683 54.093909 63.411104 60.351104 
C 57.153909 66.6083 52.190088 74.037183 48.803718 82.212604 
C 45.417348 90.388024 43.674286 99.150989 43.674286 108 
C 43.674286 116.849011 45.417348 125.611976 48.803718 133.787396 
C 52.190088 141.962817 57.153909 149.3917 63.411104 155.648896 
C 69.6683 161.906091 77.097183 166.869912 85.272604 170.256282 
C 93.448024 173.642652 102.210989 175.385714 111.06 175.385714 
C 119.909011 175.385714 128.671976 173.642652 136.847396 170.256282 
C 145.022817 166.869912 152.4517 161.906091 158.708896 155.648896 
C 164.966091 149.3917 169.929912 141.962817 173.316282 133.787396 
C 176.702652 125.611976 178.445714 116.849011 178.445714 108 
" clip-path="url(#p5ded1e5b62)" style="fill: none; stroke: #ffffff; stroke-linecap: round"/>
     </g>
    </g>
   </g>
   <g id="patch_3">
    <path d="M 111.06 108 
C 111.06 108 111.06 108 111.06 108 
C 111.06 108 111.06 108 111.06 108 
L 86.851736 109.56592 
C 86.835344 109.312505 86.822932 109.058848 86.814504 108.805043 
C 86.806077 108.551238 86.801636 108.297317 86.801182 108.043373 
z
" clip-path="url(#p5ded1e5b62)" style="fill: #4c72b0; stroke: #ffffff; stroke-linejoin: miter"/>
   </g>
   <g id="patch_4">
    <path d="M 111.06 108 
C 111.06 108 111.06 108 111.06 108 
C 111.06 108 111.06 108 111.06 108 
L 87.666151 110.996673 
C 87.634781 110.751783 87.607259 110.506416 87.583594 110.260662 
C 87.559929 110.014908 87.540125 109.768798 87.524188 109.522422 
z
" clip-path="url(#p5ded1e5b62)" style="fill: #4c72b0; stroke: #ffffff; stroke-linejoin: miter"/>
   </g>
   <g id="patch_5">
    <path d="M 111.06 108 
C 111.06 108 111.06 108 111.06 108 
C 111.06 108 111.06 108 111.06 108 
L 83.26844 113.350927 
C 83.212426 113.060002 83.160984 112.768215 83.114132 112.475674 
C 83.06728 112.183133 83.025024 111.889875 82.987381 111.596007 
z
" clip-path="url(#p5ded1e5b62)" style="fill: #4c72b0; stroke: #ffffff; stroke-linejoin: miter"/>
   </g>
   <g id="patch_6">
    <path d="M 111.06 108 
C 111.06 108 111.06 108 111.06 108 
C 111.06 108 111.06 108 111.06 108 
L 84.637699 114.831719 
C 84.566184 114.555128 84.499016 114.27743 84.436221 113.998729 
C 84.373425 113.720028 84.31501 113.440358 84.260996 113.159823 
z
" clip-path="url(#p5ded1e5b62)" style="fill: #4c72b0; stroke: #ffffff; stroke-linejoin: miter"/>
   </g>
   <g id="patch_7">
    <path d="M 111.06 108 
C 111.06 108 111.06 108 111.06 108 
C 111.06 108 111.06 108 111.06 108 
L 83.517277 116.999927 
C 83.423064 116.711606 83.333385 116.421824 83.248272 116.130688 
C 83.163159 115.839551 83.082623 115.547096 83.006693 115.253431 
z
" clip-path="url(#p5ded1e5b62)" style="fill: #4c72b0; stroke: #ffffff; stroke-linejoin: miter"/>
   </g>
   <g id="patch_8">
    <path d="M 111.06 108 
C 111.06 108 111.06 108 111.06 108 
C 111.06 108 111.06 108 111.06 108 
L 86.640988 117.714566 
C 86.539295 117.458945 86.441622 117.201743 86.348005 116.943055 
C 86.254388 116.684367 86.164839 116.424224 86.07939 116.162724 
z
" clip-path="url(#p5ded1e5b62)" style="fill: #4c72b0; stroke: #ffffff; stroke-linejoin: miter"/>
   </g>
   <g id="patch_9">
    <path d="M 111.06 108 
C 111.06 108 111.06 108 111.06 108 
C 111.06 108 111.06 108 111.06 108 
L 91.563698 117.212799 
C 91.467258 117.00871 91.374028 116.803118 91.284043 116.596101 
C 91.194057 116.389084 91.107329 116.180667 91.023888 115.970926 
z
" clip-path="url(#p5ded1e5b62)" style="fill: #4c72b0; stroke: #ffffff; stroke-linejoin: miter"/>
   </g>
   <g id="patch_10">
    <path d="M 111.06 108 
C 111.06 108 111.06 108 111.06 108 
C 111.06 108 111.06 108 111.06 108 
L 83.330576 123.30194 
C 83.170393 123.011665 83.014778 122.718893 82.863789 122.423731 
C 82.7128 122.12857 82.566454 121.831056 82.424807 121.531299 
z
" clip-path="url(#p5ded1e5b62)" style="fill: #4c72b0; stroke: #ffffff; stroke-linejoin: miter"/>
   </g>
   <g id="patch_11">
    <path d="M 111.06 108 
C 111.06 108 111.06 108 111.06 108 
C 111.06 108 111.06 108 111.06 108 
L 91.450563 120.487707 
C 91.31984 120.282433 91.192349 120.075119 91.068136 119.865841 
C 90.943923 119.656564 90.823003 119.445349 90.705423 119.232275 
z
" clip-path="url(#p5ded1e5b62)" style="fill: #4c72b0; stroke: #ffffff; stroke-linejoin: miter"/>
   </g>
   <g id="patch_12">
    <path d="M 111.06 108 
C 111.06 108 111.06 108 111.06 108 
C 111.06 108 111.06 108 111.06 108 
L 87.372085 125.266213 
C 87.191341 125.018245 87.014501 124.767454 86.841631 124.513933 
C 86.668761 124.260413 86.499882 124.004193 86.335058 123.745369 
z
" clip-path="url(#p5ded1e5b62)" style="fill: #4c72b0; stroke: #ffffff; stroke-linejoin: miter"/>
   </g>
   <g id="patch_13">
    <path d="M 111.06 108 
C 111.06 108 111.06 108 111.06 108 
C 111.06 108 111.06 108 111.06 108 
L 88.761807 126.503807 
C 88.568107 126.270387 88.378084 126.03394 88.191808 125.794553 
C 88.005533 125.555166 87.823028 125.312869 87.64436 125.067751 
z
" clip-path="url(#p5ded1e5b62)" style="fill: #4c72b0; stroke: #ffffff; stroke-linejoin: miter"/>
   </g>
   <g id="patch_14">
    <path d="M 111.06 108 
C 111.06 108 111.06 108 111.06 108 
C 111.06 108 111.06 108 111.06 108 
L 91.929308 126.018811 
C 91.740685 125.818549 91.555218 125.615337 91.372976 125.409251 
C 91.190734 125.203165 91.011739 124.99423 90.836057 124.782523 
z
" clip-path="url(#p5ded1e5b62)" style="fill: #4c72b0; stroke: #ffffff; stroke-linejoin: miter"/>
   </g>
   <g id="patch_15">
    <path d="M 111.06 108 
C 111.06 108 111.06 108 111.06 108 
C 111.06 108 111.06 108 111.06 108 
L 92.637436 127.675941 
C 92.431466 127.483092 92.228537 127.28702 92.028724 127.087798 
C 91.82891 126.888576 91.632237 126.686229 91.438778 126.480832 
z
" clip-path="url(#p5ded1e5b62)" style="fill: #4c72b0; stroke: #ffffff; stroke-linejoin: miter"/>
   </g>
   <g id="patch_16">
    <path d="M 111.06 108 
C 111.06 108 111.06 108 111.06 108 
C 111.06 108 111.06 108 111.06 108 
L 91.121665 132.172396 
C 90.868625 131.963679 90.618879 131.751002 90.372517 131.534443 
C 90.126156 131.317884 89.88321 131.09747 89.64377 130.873282 
z
" clip-path="url(#p5ded1e5b62)" style="fill: #4c72b0; stroke: #ffffff; stroke-linejoin: miter"/>
   </g>
   <g id="patch_17">
    <path d="M 111.06 108 
C 111.06 108 111.06 108 111.06 108 
C 111.06 108 111.06 108 111.06 108 
L 94.85238 130.374703 
C 94.618158 130.205039 94.386616 130.031709 94.157837 129.854775 
C 93.929059 129.677841 93.703073 129.497326 93.479963 129.313296 
z
" clip-path="url(#p5ded1e5b62)" style="fill: #4c72b0; stroke: #ffffff; stroke-linejoin: miter"/>
   </g>
   <g id="patch_18">
    <path d="M 111.06 108 
C 111.06 108 111.06 108 111.06 108 
C 111.06 108 111.06 108 111.06 108 
L 92.866095 136.757749 
C 92.565055 136.567293 92.267025 136.372122 91.972114 136.172308 
C 91.677203 135.972493 91.385447 135.768061 91.096955 135.559085 
z
" clip-path="url(#p5ded1e5b62)" style="fill: #4c72b0; stroke: #ffffff; stroke-linejoin: miter"/>
   </g>
   <g id="patch_19">
    <path d="M 111.06 108 
C 111.06 108 111.06 108 111.06 108 
C 111.06 108 111.06 108 111.06 108 
L 92.92596 141.093237 
C 92.579536 140.903407 92.236114 140.70815 91.895822 140.507537 
C 91.555529 140.306924 91.218407 140.10098 90.884581 139.889781 
z
" clip-path="url(#p5ded1e5b62)" style="fill: #4c72b0; stroke: #ffffff; stroke-linejoin: miter"/>
   </g>
   <g id="patch_20">
    <path d="M 111.06 108 
C 111.06 108 111.06 108 111.06 108 
C 111.06 108 111.06 108 111.06 108 
L 94.466667 143.38641 
C 94.096238 143.212709 93.728559 143.033202 93.363766 142.847956 
C 92.998974 142.66271 92.637112 142.471747 92.278316 142.275138 
z
" clip-path="url(#p5ded1e5b62)" style="fill: #4c72b0; stroke: #ffffff; stroke-linejoin: miter"/>
   </g>
   <g id="patch_21">
    <path d="M 111.06 108 
C 111.06 108 111.06 108 111.06 108 
C 111.06 108 111.06 108 111.06 108 
L 97.833005 141.537247 
C 97.481933 141.398785 97.133057 141.25482 96.786505 141.105403 
C 96.439954 140.955986 96.09577 140.801137 95.754081 140.640913 
z
" clip-path="url(#p5ded1e5b62)" style="fill: #4c72b0; stroke: #ffffff; stroke-linejoin: miter"/>
   </g>
   <g id="patch_22">
    <path d="M 111.06 108 
C 111.06 108 111.06 108 111.06 108 
C 111.06 108 111.06 108 111.06 108 
L 97.578987 149.674511 
C 97.142733 149.53339 96.708722 149.385428 96.277114 149.230679 
C 95.845506 149.07593 95.416355 148.914413 94.989819 148.746188 
z
" clip-path="url(#p5ded1e5b62)" style="fill: #4c72b0; stroke: #ffffff; stroke-linejoin: miter"/>
   </g>
   <g id="patch_23">
    <path d="M 111.06 108 
C 111.06 108 111.06 108 111.06 108 
C 111.06 108 111.06 108 111.06 108 
L 101.805432 144.235942 
C 101.42611 144.139064 101.048332 144.036236 100.672239 143.927496 
C 100.296145 143.818756 99.921783 143.704116 99.549289 143.583621 
z
" clip-path="url(#p5ded1e5b62)" style="fill: #4c72b0; stroke: #ffffff; stroke-linejoin: miter"/>
   </g>
   <g id="patch_24">
    <path d="M 111.06 108 
C 111.06 108 111.06 108 111.06 108 
C 111.06 108 111.06 108 111.06 108 
L 102.028308 155.669667 
C 101.529296 155.575122 101.031799 155.472747 100.536002 155.362581 
C 100.040205 155.252414 99.546168 155.13447 99.054074 155.00879 
z
" clip-path="url(#p5ded1e5b62)" style="fill: #4c72b0; stroke: #ffffff; stroke-linejoin: miter"/>
   </g>
   <g id="patch_25">
    <path d="M 111.06 108 
C 111.06 108 111.06 108 111.06 108 
C 111.06 108 111.06 108 111.06 108 
L 104.494519 160.488763 
C 103.94506 160.420034 103.396714 160.342683 102.849685 160.256736 
C 102.302655 160.170789 101.757008 160.076259 101.212946 159.973178 
z
" clip-path="url(#p5ded1e5b62)" style="fill: #4c72b0; stroke: #ffffff; stroke-linejoin: miter"/>
   </g>
   <g id="patch_26">
    <path d="M 111.06 108 
C 111.06 108 111.06 108 111.06 108 
C 111.06 108 111.06 108 111.06 108 
L 106.909659 175.257781 
C 106.205596 175.214335 105.502259 175.159836 104.799908 175.094305 
C 104.097556 175.028773 103.396277 174.952218 102.69633 174.864666 
z
" clip-path="url(#p5ded1e5b62)" style="fill: #4c72b0; stroke: #ffffff; stroke-linejoin: miter"/>
   </g>
   <g id="patch_27">
    <path d="M 111.06 108 
C 111.06 108 111.06 108 111.06 108 
C 111.06 108 111.06 108 111.06 108 
L 111.125864 163.930104 
C 110.540381 163.930794 109.954923 163.92229 109.369707 163.904595 
C 108.784491 163.886901 108.199589 163.860019 107.615217 163.823959 
z
" clip-path="url(#p5ded1e5b62)" style="fill: #4c72b0; stroke: #ffffff; stroke-linejoin: miter"/>
   </g>
   <g id="patch_28">
    <path d="M 111.06 108 
C 111.06 108 111.06 108 111.06 108 
C 111.06 108 111.06 108 111.06 108 
L 114.248466 157.763387 
C 113.727537 157.796764 113.206115 157.821959 112.684395 157.838964 
C 112.162675 157.855968 111.640719 157.864779 111.118722 157.865394 
z
" clip-path="url(#p5ded1e5b62)" style="fill: #4c72b0; stroke: #ffffff; stroke-linejoin: miter"/>
   </g>
   <g id="patch_29">
    <path d="M 111.06 108 
C 111.06 108 111.06 108 111.06 108 
C 111.06 108 111.06 108 111.06 108 
L 118.643805 167.491856 
C 118.021037 167.571244 117.397061 167.640848 116.772107 167.700643 
C 116.147153 167.760439 115.521299 167.810417 114.894776 167.85056 
z
" clip-path="url(#p5ded1e5b62)" style="fill: #4c72b0; stroke: #ffffff; stroke-linejoin: miter"/>
   </g>
   <g id="patch_30">
    <path d="M 111.06 108 
C 111.06 108 111.06 108 111.06 108 
C 111.06 108 111.06 108 111.06 108 
L 121.664431 163.258749 
C 121.085976 163.369758 120.505813 163.471676 119.924157 163.564467 
C 119.342502 163.657259 118.759425 163.740911 118.175143 163.815393 
z
" clip-path="url(#p5ded1e5b62)" style="fill: #4c72b0; stroke: #ffffff; stroke-linejoin: miter"/>
   </g>
   <g id="patch_31">
    <path d="M 111.06 108 
C 111.06 108 111.06 108 111.06 108 
C 111.06 108 111.06 108 111.06 108 
L 124.522899 160.200425 
C 123.976459 160.341357 123.427839 160.473699 122.877243 160.597403 
C 122.326647 160.721108 121.774143 160.836159 121.219934 160.942514 
z
" clip-path="url(#p5ded1e5b62)" style="fill: #4c72b0; stroke: #ffffff; stroke-linejoin: miter"/>
   </g>
   <g id="patch_32">
    <path d="M 111.06 108 
C 111.06 108 111.06 108 111.06 108 
C 111.06 108 111.06 108 111.06 108 
L 125.265858 151.564613 
C 124.809818 151.713321 124.351472 151.85486 123.890988 151.989176 
C 123.430504 152.123493 122.967939 152.25057 122.503464 152.370362 
z
" clip-path="url(#p5ded1e5b62)" style="fill: #4c72b0; stroke: #ffffff; stroke-linejoin: miter"/>
   </g>
   <g id="patch_33">
    <path d="M 111.06 108 
C 111.06 108 111.06 108 111.06 108 
C 111.06 108 111.06 108 111.06 108 
L 127.226103 148.708226 
C 126.799964 148.877455 126.371195 149.039982 125.939953 149.195747 
C 125.508711 149.351512 125.075049 149.500496 124.639129 149.642644 
z
" clip-path="url(#p5ded1e5b62)" style="fill: #4c72b0; stroke: #ffffff; stroke-linejoin: miter"/>
   </g>
   <g id="patch_34">
    <path d="M 111.06 108 
C 111.06 108 111.06 108 111.06 108 
C 111.06 108 111.06 108 111.06 108 
L 126.442753 140.604773 
C 126.101443 140.765802 125.757625 140.921461 125.411426 141.071694 
C 125.065227 141.221926 124.716691 141.366713 124.365946 141.506002 
z
" clip-path="url(#p5ded1e5b62)" style="fill: #4c72b0; stroke: #ffffff; stroke-linejoin: miter"/>
   </g>
   <g id="patch_35">
    <path d="M 111.06 108 
C 111.06 108 111.06 108 111.06 108 
C 111.06 108 111.06 108 111.06 108 
L 128.458899 139.574969 
C 128.128368 139.757103 127.794998 139.934035 127.458912 140.105701 
C 127.122825 140.277367 126.784064 140.443745 126.442753 140.604773 
z
" clip-path="url(#p5ded1e5b62)" style="fill: #4c72b0; stroke: #ffffff; stroke-linejoin: miter"/>
   </g>
   <g id="patch_36">
    <path d="M 111.06 108 
C 111.06 108 111.06 108 111.06 108 
C 111.06 108 111.06 108 111.06 108 
L 129.683201 137.283429 
C 129.376659 137.478379 129.067074 137.668503 128.754561 137.853732 
C 128.442049 138.038961 128.126647 138.219271 127.808473 138.394596 
z
" clip-path="url(#p5ded1e5b62)" style="fill: #4c72b0; stroke: #ffffff; stroke-linejoin: miter"/>
   </g>
   <g id="patch_37">
    <path d="M 111.06 108 
C 111.06 108 111.06 108 111.06 108 
C 111.06 108 111.06 108 111.06 108 
L 128.311753 131.698448 
C 128.063675 131.879041 127.812776 132.055728 127.55915 132.228443 
C 127.305524 132.401158 127.049201 132.56988 126.790277 132.734547 
z
" clip-path="url(#p5ded1e5b62)" style="fill: #4c72b0; stroke: #ffffff; stroke-linejoin: miter"/>
   </g>
   <g id="patch_38">
    <path d="M 111.06 108 
C 111.06 108 111.06 108 111.06 108 
C 111.06 108 111.06 108 111.06 108 
L 134.065243 135.757146 
C 133.774678 135.997967 133.480349 136.234212 133.182366 136.465791 
C 132.884382 136.697371 132.582781 136.924257 132.277673 137.146367 
z
" clip-path="url(#p5ded1e5b62)" style="fill: #4c72b0; stroke: #ffffff; stroke-linejoin: miter"/>
   </g>
   <g id="patch_39">
    <path d="M 111.06 108 
C 111.06 108 111.06 108 111.06 108 
C 111.06 108 111.06 108 111.06 108 
L 131.375739 129.595747 
C 131.149672 129.808415 130.92028 130.01752 130.687647 130.222984 
C 130.455014 130.428449 130.219169 130.630248 129.9802 130.828307 
z
" clip-path="url(#p5ded1e5b62)" style="fill: #4c72b0; stroke: #ffffff; stroke-linejoin: miter"/>
   </g>
   <g id="patch_40">
    <path d="M 111.06 108 
C 111.06 108 111.06 108 111.06 108 
C 111.06 108 111.06 108 111.06 108 
L 132.936973 128.508457 
C 132.722288 128.737468 132.50402 128.963094 132.28225 129.185251 
C 132.06048 129.407408 131.835236 129.626069 131.6066 129.841153 
z
" clip-path="url(#p5ded1e5b62)" style="fill: #4c72b0; stroke: #ffffff; stroke-linejoin: miter"/>
   </g>
   <g id="patch_41">
    <path d="M 111.06 108 
C 111.06 108 111.06 108 111.06 108 
C 111.06 108 111.06 108 111.06 108 
L 132.102775 125.378492 
C 131.920855 125.59877 131.735487 125.816179 131.54674 126.030636 
C 131.357993 126.245094 131.165891 126.456575 130.970503 126.665 
z
" clip-path="url(#p5ded1e5b62)" style="fill: #4c72b0; stroke: #ffffff; stroke-linejoin: miter"/>
   </g>
   <g id="patch_42">
    <path d="M 111.06 108 
C 111.06 108 111.06 108 111.06 108 
C 111.06 108 111.06 108 111.06 108 
L 130.970133 122.440889 
C 130.818964 122.649311 130.664532 122.855346 130.506893 123.058918 
C 130.349255 123.262491 130.188429 123.463575 130.024476 123.662098 
z
" clip-path="url(#p5ded1e5b62)" style="fill: #4c72b0; stroke: #ffffff; stroke-linejoin: miter"/>
   </g>
   <g id="patch_43">
    <path d="M 111.06 108 
C 111.06 108 111.06 108 111.06 108 
C 111.06 108 111.06 108 111.06 108 
L 134.683477 122.965847 
C 134.526812 123.21314 134.366275 123.457959 134.201923 123.700211 
C 134.037571 123.942463 133.869426 124.18212 133.697549 124.419093 
z
" clip-path="url(#p5ded1e5b62)" style="fill: #4c72b0; stroke: #ffffff; stroke-linejoin: miter"/>
   </g>
   <g id="patch_44">
    <path d="M 111.06 108 
C 111.06 108 111.06 108 111.06 108 
C 111.06 108 111.06 108 111.06 108 
L 132.031728 119.508487 
C 131.911256 119.728022 131.787344 119.945651 131.660038 120.161295 
C 131.532732 120.376938 131.402048 120.59057 131.268034 120.80211 
z
" clip-path="url(#p5ded1e5b62)" style="fill: #4c72b0; stroke: #ffffff; stroke-linejoin: miter"/>
   </g>
   <g id="patch_45">
    <path d="M 111.06 108 
C 111.06 108 111.06 108 111.06 108 
C 111.06 108 111.06 108 111.06 108 
L 136.677304 120.031498 
C 136.551357 120.299663 136.421207 120.565834 136.286901 120.829912 
C 136.152596 121.09399 136.014153 121.355944 135.871622 121.615675 
z
" clip-path="url(#p5ded1e5b62)" style="fill: #4c72b0; stroke: #ffffff; stroke-linejoin: miter"/>
   </g>
   <g id="patch_46">
    <path d="M 111.06 108 
C 111.06 108 111.06 108 111.06 108 
C 111.06 108 111.06 108 111.06 108 
L 134.87511 117.409411 
C 134.776612 117.65871 134.674204 117.906448 134.567926 118.152532 
C 134.461648 118.398616 134.351513 118.643015 134.237561 118.885641 
z
" clip-path="url(#p5ded1e5b62)" style="fill: #4c72b0; stroke: #ffffff; stroke-linejoin: miter"/>
   </g>
   <g id="patch_47">
    <path d="M 111.06 108 
C 111.06 108 111.06 108 111.06 108 
C 111.06 108 111.06 108 111.06 108 
L 138.303334 116.831137 
C 138.210889 117.116323 138.113971 117.400041 138.012617 117.682184 
C 137.911262 117.964327 137.805484 118.244862 137.695321 118.523683 
z
" clip-path="url(#p5ded1e5b62)" style="fill: #4c72b0; stroke: #ffffff; stroke-linejoin: miter"/>
   </g>
   <g id="patch_48">
    <path d="M 111.06 108 
C 111.06 108 111.06 108 111.06 108 
C 111.06 108 111.06 108 111.06 108 
L 131.296737 113.181569 
C 131.242496 113.39341 131.184932 113.604386 131.124066 113.814419 
C 131.063199 114.024452 130.999039 114.233517 130.931608 114.441535 
z
" clip-path="url(#p5ded1e5b62)" style="fill: #4c72b0; stroke: #ffffff; stroke-linejoin: miter"/>
   </g>
   <g id="patch_49">
    <path d="M 111.06 108 
C 111.06 108 111.06 108 111.06 108 
C 111.06 108 111.06 108 111.06 108 
L 137.871082 113.096691 
C 137.817729 113.377352 137.759973 113.657159 137.697834 113.936007 
C 137.635695 114.214855 137.569182 114.49271 137.498318 114.76947 
z
" clip-path="url(#p5ded1e5b62)" style="fill: #4c72b0; stroke: #ffffff; stroke-linejoin: miter"/>
   </g>
   <g id="patch_50">
    <path d="M 111.06 108 
C 111.06 108 111.06 108 111.06 108 
C 111.06 108 111.06 108 111.06 108 
L 135.798033 111.109656 
C 135.765481 111.368617 135.728864 111.62705 135.688197 111.884861 
C 135.64753 112.142672 135.602817 112.399829 135.554075 112.656236 
z
" clip-path="url(#p5ded1e5b62)" style="fill: #4c72b0; stroke: #ffffff; stroke-linejoin: miter"/>
   </g>
   <g id="patch_51">
    <path d="M 111.06 108 
C 111.06 108 111.06 108 111.06 108 
C 111.06 108 111.06 108 111.06 108 
L 131.572847 109.278373 
C 131.559465 109.493104 131.542712 109.707612 131.522594 109.921817 
C 131.502476 110.136022 131.478996 110.349897 131.452162 110.563365 
z
" clip-path="url(#p5ded1e5b62)" style="fill: #4c72b0; stroke: #ffffff; stroke-linejoin: miter"/>
   </g>
   <g id="patch_52">
    <path d="M 111.06 108 
C 111.06 108 111.06 108 111.06 108 
C 111.06 108 111.06 108 111.06 108 
L 138.35121 107.984517 
C 138.351372 108.270205 138.347048 108.555877 138.33824 108.841429 
C 138.329432 109.126981 138.31614 109.412377 138.298371 109.697512 
z
" clip-path="url(#p5ded1e5b62)" style="fill: #4c72b0; stroke: #ffffff; stroke-linejoin: miter"/>
   </g>
   <g id="patch_53">
    <path d="M 111.06 108 
C 111.06 108 111.06 108 111.06 108 
C 111.06 108 111.06 108 111.06 108 
L 136.951418 106.356937 
C 136.968618 106.627972 136.981561 106.89926 136.990242 107.170701 
C 136.998923 107.442141 137.003342 107.713702 137.003496 107.985282 
z
" clip-path="url(#p5ded1e5b62)" style="fill: #4c72b0; stroke: #ffffff; stroke-linejoin: miter"/>
   </g>
   <g id="patch_54">
    <path d="M 111.06 108 
C 111.06 108 111.06 108 111.06 108 
C 111.06 108 111.06 108 111.06 108 
L 136.462989 104.777474 
C 136.496722 105.043395 136.526278 105.30983 136.551646 105.57668 
C 136.577014 105.84353 136.59819 106.110761 136.615166 106.378276 
z
" clip-path="url(#p5ded1e5b62)" style="fill: #4c72b0; stroke: #ffffff; stroke-linejoin: miter"/>
   </g>
   <g id="patch_55">
    <path d="M 111.06 108 
C 111.06 108 111.06 108 111.06 108 
C 111.06 108 111.06 108 111.06 108 
L 135.217847 103.379273 
C 135.266217 103.63216 135.310613 103.885791 135.35102 104.140073 
C 135.391426 104.394354 135.427837 104.649254 135.460239 104.904679 
z
" clip-path="url(#p5ded1e5b62)" style="fill: #4c72b0; stroke: #ffffff; stroke-linejoin: miter"/>
   </g>
   <g id="patch_56">
    <path d="M 111.06 108 
C 111.06 108 111.06 108 111.06 108 
C 111.06 108 111.06 108 111.06 108 
L 131.290845 102.795472 
C 131.345327 103.007251 131.396479 103.219873 131.444285 103.433258 
C 131.49209 103.646643 131.536542 103.860766 131.577623 104.075547 
z
" clip-path="url(#p5ded1e5b62)" style="fill: #4c72b0; stroke: #ffffff; stroke-linejoin: miter"/>
   </g>
   <g id="patch_57">
    <path d="M 111.06 108 
C 111.06 108 111.06 108 111.06 108 
C 111.06 108 111.06 108 111.06 108 
L 133.807812 100.597588 
C 133.885302 100.835715 133.959047 101.075044 134.029021 101.315486 
C 134.098996 101.555929 134.16519 101.797455 134.22758 102.039976 
z
" clip-path="url(#p5ded1e5b62)" style="fill: #4c72b0; stroke: #ffffff; stroke-linejoin: miter"/>
   </g>
   <g id="patch_58">
    <path d="M 111.06 108 
C 111.06 108 111.06 108 111.06 108 
C 111.06 108 111.06 108 111.06 108 
L 131.419042 99.929372 
C 131.503527 100.142493 131.584659 100.356927 131.66241 100.572596 
C 131.740161 100.788264 131.814521 101.00514 131.885462 101.223144 
z
" clip-path="url(#p5ded1e5b62)" style="fill: #4c72b0; stroke: #ffffff; stroke-linejoin: miter"/>
   </g>
   <g id="patch_59">
    <path d="M 111.06 108 
C 111.06 108 111.06 108 111.06 108 
C 111.06 108 111.06 108 111.06 108 
L 136.358831 96.083021 
C 136.483579 96.347853 136.604161 96.614626 136.720533 96.883244 
C 136.836905 97.151861 136.949051 97.42229 137.056931 97.694429 
z
" clip-path="url(#p5ded1e5b62)" style="fill: #4c72b0; stroke: #ffffff; stroke-linejoin: miter"/>
   </g>
   <g id="patch_60">
    <path d="M 111.06 108 
C 111.06 108 111.06 108 111.06 108 
C 111.06 108 111.06 108 111.06 108 
L 132.313849 96.305299 
C 132.436271 96.527786 132.555191 96.752183 132.670567 96.978405 
C 132.785942 97.204627 132.897758 97.432647 133.005974 97.66238 
z
" clip-path="url(#p5ded1e5b62)" style="fill: #4c72b0; stroke: #ffffff; stroke-linejoin: miter"/>
   </g>
   <g id="patch_61">
    <path d="M 111.06 108 
C 111.06 108 111.06 108 111.06 108 
C 111.06 108 111.06 108 111.06 108 
L 133.528819 93.729895 
C 133.6782 93.965102 133.823879 94.202639 133.965801 94.44242 
C 134.107723 94.682201 134.245872 94.924195 134.380196 95.168314 
z
" clip-path="url(#p5ded1e5b62)" style="fill: #4c72b0; stroke: #ffffff; stroke-linejoin: miter"/>
   </g>
   <g id="patch_62">
    <path d="M 111.06 108 
C 111.06 108 111.06 108 111.06 108 
C 111.06 108 111.06 108 111.06 108 
L 135.041489 90.564583 
C 135.224005 90.815625 135.402568 91.069516 135.577112 91.326164 
C 135.751655 91.582812 135.922158 91.842185 136.088558 92.104187 
z
" clip-path="url(#p5ded1e5b62)" style="fill: #4c72b0; stroke: #ffffff; stroke-linejoin: miter"/>
   </g>
   <g id="patch_63">
    <path d="M 111.06 108 
C 111.06 108 111.06 108 111.06 108 
C 111.06 108 111.06 108 111.06 108 
L 133.121218 89.738267 
C 133.312384 89.969207 133.499912 90.203134 133.683733 90.439962 
C 133.867554 90.67679 134.047644 90.91649 134.223938 91.158973 
z
" clip-path="url(#p5ded1e5b62)" style="fill: #4c72b0; stroke: #ffffff; stroke-linejoin: miter"/>
   </g>
   <g id="patch_64">
    <path d="M 111.06 108 
C 111.06 108 111.06 108 111.06 108 
C 111.06 108 111.06 108 111.06 108 
L 131.9315 88.389577 
C 132.136785 88.608062 132.338626 88.829758 132.536949 89.054581 
C 132.735272 89.279404 132.930052 89.507328 133.121218 89.738267 
z
" clip-path="url(#p5ded1e5b62)" style="fill: #4c72b0; stroke: #ffffff; stroke-linejoin: miter"/>
   </g>
   <g id="patch_65">
    <path d="M 111.06 108 
C 111.06 108 111.06 108 111.06 108 
C 111.06 108 111.06 108 111.06 108 
L 129.737148 88.100892 
C 129.945454 88.296406 130.150678 88.49518 130.352743 88.697139 
C 130.554807 88.899097 130.753688 89.104217 130.949312 89.31242 
z
" clip-path="url(#p5ded1e5b62)" style="fill: #4c72b0; stroke: #ffffff; stroke-linejoin: miter"/>
   </g>
   <g id="patch_66">
    <path d="M 111.06 108 
C 111.06 108 111.06 108 111.06 108 
C 111.06 108 111.06 108 111.06 108 
L 128.666039 86.708178 
C 128.888924 86.89248 129.108902 87.080271 129.325891 87.271481 
C 129.542879 87.46269 129.756852 87.657295 129.96773 87.855224 
z
" clip-path="url(#p5ded1e5b62)" style="fill: #4c72b0; stroke: #ffffff; stroke-linejoin: miter"/>
   </g>
   <g id="patch_67">
    <path d="M 111.06 108 
C 111.06 108 111.06 108 111.06 108 
C 111.06 108 111.06 108 111.06 108 
L 129.67076 82.373648 
C 129.93902 82.568467 130.204204 82.767487 130.466215 82.970634 
C 130.728225 83.173781 130.98703 83.381029 131.242532 83.592302 
z
" clip-path="url(#p5ded1e5b62)" style="fill: #4c72b0; stroke: #ffffff; stroke-linejoin: miter"/>
   </g>
   <g id="patch_68">
    <path d="M 111.06 108 
C 111.06 108 111.06 108 111.06 108 
C 111.06 108 111.06 108 111.06 108 
L 127.123172 82.678601 
C 127.388239 82.846752 127.65065 83.019055 127.910307 83.195446 
C 128.169964 83.371837 128.426836 83.552295 128.680826 83.736751 
z
" clip-path="url(#p5ded1e5b62)" style="fill: #4c72b0; stroke: #ffffff; stroke-linejoin: miter"/>
   </g>
   <g id="patch_69">
    <path d="M 111.06 108 
C 111.06 108 111.06 108 111.06 108 
C 111.06 108 111.06 108 111.06 108 
L 126.962617 79.062807 
C 127.265535 79.229278 127.56582 79.400494 127.863362 79.576394 
C 128.160904 79.752294 128.455665 79.932854 128.747538 80.11801 
z
" clip-path="url(#p5ded1e5b62)" style="fill: #4c72b0; stroke: #ffffff; stroke-linejoin: miter"/>
   </g>
   <g id="patch_70">
    <path d="M 111.06 108 
C 111.06 108 111.06 108 111.06 108 
C 111.06 108 111.06 108 111.06 108 
L 125.832076 76.597315 
C 126.160803 76.751951 126.487082 76.911739 126.810791 77.076621 
C 127.134501 77.241502 127.455602 77.411456 127.773975 77.58642 
z
" clip-path="url(#p5ded1e5b62)" style="fill: #4c72b0; stroke: #ffffff; stroke-linejoin: miter"/>
   </g>
   <g id="patch_71">
    <path d="M 111.06 108 
C 111.06 108 111.06 108 111.06 108 
C 111.06 108 111.06 108 111.06 108 
L 126.807906 68.2133 
C 127.224398 68.378151 127.638275 68.549532 128.049386 68.727379 
C 128.460497 68.905226 128.868789 69.089517 129.274113 69.280185 
z
" clip-path="url(#p5ded1e5b62)" style="fill: #4c72b0; stroke: #ffffff; stroke-linejoin: miter"/>
   </g>
   <g id="patch_72">
    <path d="M 111.06 108 
C 111.06 108 111.06 108 111.06 108 
C 111.06 108 111.06 108 111.06 108 
L 123.863231 68.585099 
C 124.275831 68.719125 124.686301 68.859621 125.09449 69.006536 
C 125.502678 69.153451 125.908534 69.306766 126.311908 69.466425 
z
" clip-path="url(#p5ded1e5b62)" style="fill: #4c72b0; stroke: #ffffff; stroke-linejoin: miter"/>
   </g>
   <g id="patch_73">
    <path d="M 111.06 108 
C 111.06 108 111.06 108 111.06 108 
C 111.06 108 111.06 108 111.06 108 
L 120.275017 72.101729 
C 120.650805 72.198193 121.025054 72.300551 121.397628 72.408767 
C 121.770201 72.516982 122.141052 72.631041 122.510044 72.750902 
z
" clip-path="url(#p5ded1e5b62)" style="fill: #4c72b0; stroke: #ffffff; stroke-linejoin: miter"/>
   </g>
   <g id="patch_74">
    <path d="M 111.06 108 
C 111.06 108 111.06 108 111.06 108 
C 111.06 108 111.06 108 111.06 108 
L 119.960498 61.33428 
C 120.449001 61.427452 120.93601 61.528288 121.421346 61.636752 
C 121.906682 61.745216 122.390286 61.861294 122.871977 61.984943 
z
" clip-path="url(#p5ded1e5b62)" style="fill: #4c72b0; stroke: #ffffff; stroke-linejoin: miter"/>
   </g>
   <g id="patch_75">
    <path d="M 111.06 108 
C 111.06 108 111.06 108 111.06 108 
C 111.06 108 111.06 108 111.06 108 
L 117.351732 58.193467 
C 117.873113 58.259329 118.393428 58.333375 118.912483 58.415575 
C 119.431539 58.497776 119.949272 58.588122 120.465491 58.68658 
z
" clip-path="url(#p5ded1e5b62)" style="fill: #4c72b0; stroke: #ffffff; stroke-linejoin: miter"/>
   </g>
   <g id="patch_76">
    <path d="M 111.06 108 
C 111.06 108 111.06 108 111.06 108 
C 111.06 108 111.06 108 111.06 108 
L 114.742216 49.490181 
C 115.354704 49.528727 115.966549 49.576888 116.577524 49.634646 
C 117.1885 49.692404 117.798531 49.759752 118.407392 49.836666 
z
" clip-path="url(#p5ded1e5b62)" style="fill: #4c72b0; stroke: #ffffff; stroke-linejoin: miter"/>
   </g>
   <g id="patch_77">
    <path d="M 111.06 108 
C 111.06 108 111.06 108 111.06 108 
C 111.06 108 111.06 108 111.06 108 
L 111.062505 49.711357 
C 111.672677 49.711383 112.282812 49.720991 112.892683 49.740175 
C 113.502554 49.75936 114.112086 49.78812 114.721054 49.826444 
z
" clip-path="url(#p5ded1e5b62)" style="fill: #4c72b0; stroke: #ffffff; stroke-linejoin: miter"/>
   </g>
   <g id="patch_78">
    <path d="M 111.06 108 
C 111.06 108 111.06 108 111.06 108 
C 111.06 108 111.06 108 111.06 108 
L 107.699811 54.533842 
C 108.259502 54.498667 108.81971 54.472283 109.380229 54.454699 
C 109.940747 54.437115 110.501508 54.428333 111.062302 54.428357 
z
" clip-path="url(#p5ded1e5b62)" style="fill: #4c72b0; stroke: #ffffff; stroke-linejoin: miter"/>
   </g>
   <g id="patch_79">
    <path d="M 111.06 108 
C 111.06 108 111.06 108 111.06 108 
C 111.06 108 111.06 108 111.06 108 
L 103.675409 49.501759 
C 104.287776 49.424456 104.901319 49.356773 105.515811 49.298736 
C 106.130303 49.240699 106.745668 49.192314 107.361679 49.1536 
z
" clip-path="url(#p5ded1e5b62)" style="fill: #4c72b0; stroke: #ffffff; stroke-linejoin: miter"/>
   </g>
   <g id="patch_80">
    <path d="M 111.06 108 
C 111.06 108 111.06 108 111.06 108 
C 111.06 108 111.06 108 111.06 108 
L 100.964695 55.045124 
C 101.519033 54.939445 102.074996 54.842477 102.632379 54.754256 
C 103.189762 54.666034 103.748496 54.586571 104.308374 54.515894 
z
" clip-path="url(#p5ded1e5b62)" style="fill: #4c72b0; stroke: #ffffff; stroke-linejoin: miter"/>
   </g>
   <g id="patch_81">
    <path d="M 111.06 108 
C 111.06 108 111.06 108 111.06 108 
C 111.06 108 111.06 108 111.06 108 
L 101.178109 69.490096 
C 101.581236 69.386651 101.985961 69.289542 102.392137 69.198806 
C 102.798313 69.10807 103.205888 69.023717 103.614712 68.945779 
z
" clip-path="url(#p5ded1e5b62)" style="fill: #4c72b0; stroke: #ffffff; stroke-linejoin: miter"/>
   </g>
   <g id="patch_82">
    <path d="M 111.06 108 
C 111.06 108 111.06 108 111.06 108 
C 111.06 108 111.06 108 111.06 108 
L 96.595136 63.456714 
C 97.06142 63.305295 97.530054 63.161206 98.000863 63.024501 
C 98.471672 62.887796 98.944598 62.758493 99.419468 62.636638 
z
" clip-path="url(#p5ded1e5b62)" style="fill: #4c72b0; stroke: #ffffff; stroke-linejoin: miter"/>
   </g>
   <g id="patch_83">
    <path d="M 111.06 108 
C 111.06 108 111.06 108 111.06 108 
C 111.06 108 111.06 108 111.06 108 
L 96.927154 72.28474 
C 97.301026 72.136796 97.677198 71.994731 98.05553 71.858599 
C 98.433863 71.722466 98.81431 71.592283 99.19673 71.468097 
z
" clip-path="url(#p5ded1e5b62)" style="fill: #4c72b0; stroke: #ffffff; stroke-linejoin: miter"/>
   </g>
   <g id="patch_84">
    <path d="M 111.06 108 
C 111.06 108 111.06 108 111.06 108 
C 111.06 108 111.06 108 111.06 108 
L 95.000095 73.852011 
C 95.35756 73.683894 95.717643 73.5214 96.080211 73.36459 
C 96.442779 73.20778 96.807786 73.056672 97.175099 72.911324 
z
" clip-path="url(#p5ded1e5b62)" style="fill: #4c72b0; stroke: #ffffff; stroke-linejoin: miter"/>
   </g>
   <g id="patch_85">
    <path d="M 111.06 108 
C 111.06 108 111.06 108 111.06 108 
C 111.06 108 111.06 108 111.06 108 
L 96.295594 81.12848 
C 96.576888 80.973925 96.860592 80.823796 97.1466 80.678149 
C 97.432609 80.532501 97.720887 80.391354 98.011327 80.254759 
z
" clip-path="url(#p5ded1e5b62)" style="fill: #4c72b0; stroke: #ffffff; stroke-linejoin: miter"/>
   </g>
   <g id="patch_86">
    <path d="M 111.06 108 
C 111.06 108 111.06 108 111.06 108 
C 111.06 108 111.06 108 111.06 108 
L 94.818544 82.392695 
C 95.086604 82.222677 95.357318 82.056879 95.630584 81.895362 
C 95.903851 81.733845 96.179637 81.576629 96.45784 81.423772 
z
" clip-path="url(#p5ded1e5b62)" style="fill: #4c72b0; stroke: #ffffff; stroke-linejoin: miter"/>
   </g>
   <g id="patch_87">
    <path d="M 111.06 108 
C 111.06 108 111.06 108 111.06 108 
C 111.06 108 111.06 108 111.06 108 
L 92.649405 82.644686 
C 92.914828 82.451962 93.18326 82.263417 93.454603 82.079121 
C 93.725946 81.894826 94.000166 81.714803 94.277162 81.539118 
z
" clip-path="url(#p5ded1e5b62)" style="fill: #4c72b0; stroke: #ffffff; stroke-linejoin: miter"/>
   </g>
   <g id="patch_88">
    <path d="M 111.06 108 
C 111.06 108 111.06 108 111.06 108 
C 111.06 108 111.06 108 111.06 108 
L 90.879565 83.590568 
C 91.135086 83.379316 91.393908 83.17209 91.655936 82.968966 
C 91.917964 82.765842 92.183166 82.566845 92.451442 82.372048 
z
" clip-path="url(#p5ded1e5b62)" style="fill: #4c72b0; stroke: #ffffff; stroke-linejoin: miter"/>
   </g>
   <g id="patch_89">
    <path d="M 111.06 108 
C 111.06 108 111.06 108 111.06 108 
C 111.06 108 111.06 108 111.06 108 
L 89.156709 84.659657 
C 89.401038 84.430371 89.648953 84.204935 89.900361 83.983433 
C 90.15177 83.761932 90.406641 83.544391 90.66488 83.330893 
z
" clip-path="url(#p5ded1e5b62)" style="fill: #4c72b0; stroke: #ffffff; stroke-linejoin: miter"/>
   </g>
   <g id="patch_90">
    <path d="M 111.06 108 
C 111.06 108 111.06 108 111.06 108 
C 111.06 108 111.06 108 111.06 108 
L 90.681239 88.849247 
C 90.881712 88.63592 91.085522 88.425753 91.292593 88.218826 
C 91.499665 88.011898 91.709973 87.808235 91.92344 87.607911 
z
" clip-path="url(#p5ded1e5b62)" style="fill: #4c72b0; stroke: #ffffff; stroke-linejoin: miter"/>
   </g>
   <g id="patch_91">
    <path d="M 111.06 108 
C 111.06 108 111.06 108 111.06 108 
C 111.06 108 111.06 108 111.06 108 
L 80.955068 83.075519 
C 81.21598 82.760376 81.481825 82.449351 81.752504 82.142556 
C 82.023183 81.835762 82.298662 81.533237 82.578841 81.235092 
z
" clip-path="url(#p5ded1e5b62)" style="fill: #4c72b0; stroke: #ffffff; stroke-linejoin: miter"/>
   </g>
   <g id="patch_92">
    <path d="M 111.06 108 
C 111.06 108 111.06 108 111.06 108 
C 111.06 108 111.06 108 111.06 108 
L 87.35251 90.760676 
C 87.532973 90.512503 87.717322 90.267179 87.905489 90.024794 
C 88.093655 89.78241 88.285616 89.542996 88.481301 89.306639 
z
" clip-path="url(#p5ded1e5b62)" style="fill: #4c72b0; stroke: #ffffff; stroke-linejoin: miter"/>
   </g>
   <g id="patch_93">
    <path d="M 111.06 108 
C 111.06 108 111.06 108 111.06 108 
C 111.06 108 111.06 108 111.06 108 
L 91.152007 95.353893 
C 91.284388 95.145493 91.420033 94.939185 91.558892 94.735045 
C 91.697751 94.530906 91.839807 94.328959 91.985008 94.129279 
z
" clip-path="url(#p5ded1e5b62)" style="fill: #4c72b0; stroke: #ffffff; stroke-linejoin: miter"/>
   </g>
   <g id="patch_94">
    <path d="M 111.06 108 
C 111.06 108 111.06 108 111.06 108 
C 111.06 108 111.06 108 111.06 108 
L 90.397513 96.628376 
C 90.516552 96.412078 90.638981 96.197663 90.764753 95.98521 
C 90.890525 95.772757 91.019626 95.562292 91.152007 95.353893 
z
" clip-path="url(#p5ded1e5b62)" style="fill: #4c72b0; stroke: #ffffff; stroke-linejoin: miter"/>
   </g>
   <g id="patch_95">
    <path d="M 111.06 108 
C 111.06 108 111.06 108 111.06 108 
C 111.06 108 111.06 108 111.06 108 
L 83.323851 94.932013 
C 83.460648 94.641668 83.601996 94.353488 83.747842 94.067581 
C 83.893688 93.781674 84.044015 93.498075 84.198766 93.216888 
z
" clip-path="url(#p5ded1e5b62)" style="fill: #4c72b0; stroke: #ffffff; stroke-linejoin: miter"/>
   </g>
   <g id="patch_96">
    <path d="M 111.06 108 
C 111.06 108 111.06 108 111.06 108 
C 111.06 108 111.06 108 111.06 108 
L 88.196008 98.934099 
C 88.290911 98.694756 88.389567 98.456918 88.491938 98.220672 
C 88.594309 97.984427 88.700384 97.749804 88.810122 97.51689 
z
" clip-path="url(#p5ded1e5b62)" style="fill: #4c72b0; stroke: #ffffff; stroke-linejoin: miter"/>
   </g>
   <g id="patch_97">
    <path d="M 111.06 108 
C 111.06 108 111.06 108 111.06 108 
C 111.06 108 111.06 108 111.06 108 
L 86.070145 99.865625 
C 86.155296 99.604028 86.24455 99.343784 86.337874 99.08499 
C 86.431197 98.826196 86.528578 98.568883 86.629982 98.313147 
z
" clip-path="url(#p5ded1e5b62)" style="fill: #4c72b0; stroke: #ffffff; stroke-linejoin: miter"/>
   </g>
   <g id="patch_98">
    <path d="M 111.06 108 
C 111.06 108 111.06 108 111.06 108 
C 111.06 108 111.06 108 111.06 108 
L 87.892932 102.037985 
C 87.955343 101.79547 88.021558 101.553949 88.091553 101.313512 
C 88.161548 101.073076 88.235314 100.833753 88.312824 100.595633 
z
" clip-path="url(#p5ded1e5b62)" style="fill: #4c72b0; stroke: #ffffff; stroke-linejoin: miter"/>
   </g>
   <g id="patch_99">
    <path d="M 111.06 108 
C 111.06 108 111.06 108 111.06 108 
C 111.06 108 111.06 108 111.06 108 
L 87.233475 103.440523 
C 87.281204 103.191104 87.332846 102.942449 87.388383 102.694652 
C 87.44392 102.446855 87.503345 102.199945 87.566635 101.954013 
z
" clip-path="url(#p5ded1e5b62)" style="fill: #4c72b0; stroke: #ffffff; stroke-linejoin: miter"/>
   </g>
   <g id="patch_100">
    <path d="M 111.06 108 
C 111.06 108 111.06 108 111.06 108 
C 111.06 108 111.06 108 111.06 108 
L 84.65455 104.647999 
C 84.689639 104.371584 84.729066 104.095736 84.772817 103.820559 
C 84.816568 103.545382 84.864637 103.270908 84.917007 102.99724 
z
" clip-path="url(#p5ded1e5b62)" style="fill: #4c72b0; stroke: #ffffff; stroke-linejoin: miter"/>
   </g>
   <g id="patch_101">
    <path d="M 111.06 108 
C 111.06 108 111.06 108 111.06 108 
C 111.06 108 111.06 108 111.06 108 
L 88.194976 106.547018 
C 88.210186 106.307665 88.229154 106.068564 88.251872 105.829806 
C 88.274589 105.591048 88.301055 105.352661 88.331258 105.114734 
z
" clip-path="url(#p5ded1e5b62)" style="fill: #4c72b0; stroke: #ffffff; stroke-linejoin: miter"/>
   </g>
   <g id="patch_102">
    <path d="M 111.06 108 
C 111.06 108 111.06 108 111.06 108 
C 111.06 108 111.06 108 111.06 108 
L 85.790363 107.983492 
C 85.790535 107.718967 85.794862 107.45446 85.80334 107.19007 
C 85.811819 106.92568 85.824448 106.66144 85.841224 106.397447 
z
" clip-path="url(#p5ded1e5b62)" style="fill: #4c72b0; stroke: #ffffff; stroke-linejoin: miter"/>
   </g>
   <g id="patch_103">
    <path d="M 181.815 108 
C 181.815 98.708539 179.984785 89.507425 176.429096 80.923234 
C 172.873408 72.339043 167.661396 64.538715 161.09134 57.96866 
C 154.521285 51.398604 146.720957 46.186592 138.136766 42.630904 
C 129.552575 39.075215 120.351461 37.245 111.06 37.245 
C 101.768539 37.245 92.567425 39.075215 83.983234 42.630904 
C 75.399043 46.186592 67.598715 51.398604 61.02866 57.96866 
C 54.458604 64.538715 49.246592 72.339043 45.690904 80.923234 
C 42.135215 89.507425 40.305 98.708539 40.305 108 
C 40.305 117.291461 42.135215 126.492575 45.690904 135.076766 
C 49.246592 143.660957 54.458604 151.461285 61.02866 158.03134 
C 67.598715 164.601396 75.399043 169.813408 83.983234 173.369096 
C 92.567425 176.924785 101.768539 178.755 111.06 178.755 
C 120.351461 178.755 129.552575 176.924785 138.136766 173.369096 
C 146.720957 169.813408 154.521285 164.601396 161.09134 158.03134 
C 167.661396 151.461285 172.873408 143.660957 176.429096 135.076766 
C 179.984785 126.492575 181.815 117.291461 181.815 108 
" style="fill: none; stroke: #ffffff; stroke-width: 1.25; stroke-linejoin: miter; stroke-linecap: square"/>
   </g>
  </g>
 </g>
 <defs>
  <clipPath id="p5ded1e5b62">
   <path d="M 181.815 108 
C 181.815 98.708539 179.984785 89.507425 176.429096 80.923234 
C 172.873408 72.339043 167.661396 64.538715 161.09134 57.96866 
C 154.521285 51.398604 146.720957 46.186592 138.136766 42.630904 
C 129.552575 39.075215 120.351461 37.245 111.06 37.245 
C 101.768539 37.245 92.567425 39.075215 83.983234 42.630904 
C 75.399043 46.186592 67.598715 51.398604 61.02866 57.96866 
C 54.458604 64.538715 49.246592 72.339043 45.690904 80.923234 
C 42.135215 89.507425 40.305 98.708539 40.305 108 
C 40.305 117.291461 42.135215 126.492575 45.690904 135.076766 
C 49.246592 143.660957 54.458604 151.461285 61.02866 158.03134 
C 67.598715 164.601396 75.399043 169.813408 83.983234 173.369096 
C 92.567425 176.924785 101.768539 178.755 111.06 178.755 
C 120.351461 178.755 129.552575 176.924785 138.136766 173.369096 
C 146.720957 169.813408 154.521285 164.601396 161.09134 158.03134 
C 167.661396 151.461285 172.873408 143.660957 176.429096 135.076766 
C 179.984785 126.492575 181.815 117.291461 181.815 108 
M 111.06 108 
C 111.06 108 111.06 108 111.06 108 
C 111.06 108 111.06 108 111.06 108 
C 111.06 108 111.06 108 111.06 108 
C 111.06 108 111.06 108 111.06 108 
C 111.06 108 111.06 108 111.06 108 
C 111.06 108 111.06 108 111.06 108 
C 111.06 108 111.06 108 111.06 108 
C 111.06 108 111.06 108 111.06 108 
C 111.06 108 111.06 108 111.06 108 
C 111.06 108 111.06 108 111.06 108 
C 111.06 108 111.06 108 111.06 108 
C 111.06 108 111.06 108 111.06 108 
C 111.06 108 111.06 108 111.06 108 
C 111.06 108 111.06 108 111.06 108 
C 111.06 108 111.06 108 111.06 108 
C 111.06 108 111.06 108 111.06 108 
z
"/>
  </clipPath>
 </defs>
</svg>
