<?xml version="1.0" encoding="utf-8" standalone="no"?>
<!DOCTYPE svg PUBLIC "-//W3C//DTD SVG 1.1//EN"
  "http://www.w3.org/Graphics/SVG/1.1/DTD/svg11.dtd">
<svg xmlns:xlink="http://www.w3.org/1999/xlink" width="216pt" height="216pt" viewBox="0 0 216 216" xmlns="http://www.w3.org/2000/svg" version="1.1">
 <metadata>
  <rdf:RDF xmlns:dc="http://purl.org/dc/elements/1.1/" xmlns:cc="http://creativecommons.org/ns#" xmlns:rdf="http://www.w3.org/1999/02/22-rdf-syntax-ns#">
   <cc:Work>
    <dc:type rdf:resource="http://purl.org/dc/dcmitype/StillImage"/>
    <dc:date>2023-10-28T15:17:26.093777</dc:date>
    <dc:format>image/svg+xml</dc:format>
    <dc:creator>
     <cc:Agent>
      <dc:title>Matplotlib v3.7.0, https://matplotlib.org/</dc:title>
     </cc:Agent>
    </dc:creator>
   </cc:Work>
  </rdf:RDF>
 </metadata>
 <defs>
  <style type="text/css">*{stroke-linejoin: round; stroke-linecap: butt}</style>
 </defs>
 <g id="figure_1">
  <g id="patch_1">
   <path d="M 0 216 
L 216 216 
L 216 0 
L 0 0 
z
" style="fill: #ffffff"/>
  </g>
  <g id="axes_1">
   <g id="patch_2">
    <path d="M 181.815 108 
C 181.815 98.708539 179.984785 89.507425 176.429096 80.923234 
C 172.873408 72.339043 167.661396 64.538715 161.09134 57.96866 
C 154.521285 51.398604 146.720957 46.186592 138.136766 42.630904 
C 129.552575 39.075215 120.351461 37.245 111.06 37.245 
C 101.768539 37.245 92.567425 39.075215 83.983234 42.630904 
C 75.399043 46.186592 67.598715 51.398604 61.02866 57.96866 
C 54.458604 64.538715 49.246592 72.339043 45.690904 80.923234 
C 42.135215 89.507425 40.305 98.708539 40.305 108 
C 40.305 117.291461 42.135215 126.492575 45.690904 135.076766 
C 49.246592 143.660957 54.458604 151.461285 61.02866 158.03134 
C 67.598715 164.601396 75.399043 169.813408 83.983234 173.369096 
C 92.567425 176.924785 101.768539 178.755 111.06 178.755 
C 120.351461 178.755 129.552575 176.924785 138.136766 173.369096 
C 146.720957 169.813408 154.521285 164.601396 161.09134 158.03134 
C 167.661396 151.461285 172.873408 143.660957 176.429096 135.076766 
C 179.984785 126.492575 181.815 117.291461 181.815 108 
M 111.06 108 
C 111.06 108 111.06 108 111.06 108 
C 111.06 108 111.06 108 111.06 108 
C 111.06 108 111.06 108 111.06 108 
C 111.06 108 111.06 108 111.06 108 
C 111.06 108 111.06 108 111.06 108 
C 111.06 108 111.06 108 111.06 108 
C 111.06 108 111.06 108 111.06 108 
C 111.06 108 111.06 108 111.06 108 
C 111.06 108 111.06 108 111.06 108 
C 111.06 108 111.06 108 111.06 108 
C 111.06 108 111.06 108 111.06 108 
C 111.06 108 111.06 108 111.06 108 
C 111.06 108 111.06 108 111.06 108 
C 111.06 108 111.06 108 111.06 108 
C 111.06 108 111.06 108 111.06 108 
C 111.06 108 111.06 108 111.06 108 
z
" style="fill: #eaeaf2"/>
   </g>
   <g id="matplotlib.axis_1">
    <g id="xtick_1">
     <g id="line2d_1">
      <path d="M 111.06 108 
L 181.815 108 
" clip-path="url(#pbf2355f030)" style="fill: none; stroke: #ffffff; stroke-linecap: round"/>
     </g>
     <g id="text_1">
      <!-- 0° -->
      <g style="fill: #262626" transform="translate(193.057344 110.843672) scale(0.11 -0.11)">
       <defs>
        <path id="ArialMT-30" d="M 266 2259 
Q 266 3072 433 3567 
Q 600 4063 929 4331 
Q 1259 4600 1759 4600 
Q 2128 4600 2406 4451 
Q 2684 4303 2865 4023 
Q 3047 3744 3150 3342 
Q 3253 2941 3253 2259 
Q 3253 1453 3087 958 
Q 2922 463 2592 192 
Q 2263 -78 1759 -78 
Q 1097 -78 719 397 
Q 266 969 266 2259 
z
M 844 2259 
Q 844 1131 1108 757 
Q 1372 384 1759 384 
Q 2147 384 2411 759 
Q 2675 1134 2675 2259 
Q 2675 3391 2411 3762 
Q 2147 4134 1753 4134 
Q 1366 4134 1134 3806 
Q 844 3388 844 2259 
z
" transform="scale(0.015625)"/>
        <path id="ArialMT-b0" d="M 400 3794 
Q 400 4153 654 4406 
Q 909 4659 1266 4659 
Q 1628 4659 1881 4406 
Q 2134 4153 2134 3794 
Q 2134 3434 1879 3179 
Q 1625 2925 1266 2925 
Q 909 2925 654 3178 
Q 400 3431 400 3794 
z
M 741 3794 
Q 741 3575 895 3420 
Q 1050 3266 1269 3266 
Q 1484 3266 1639 3420 
Q 1794 3575 1794 3794 
Q 1794 4013 1639 4167 
Q 1484 4322 1269 4322 
Q 1050 4322 895 4167 
Q 741 4013 741 3794 
z
" transform="scale(0.015625)"/>
       </defs>
       <use xlink:href="#ArialMT-30"/>
       <use xlink:href="#ArialMT-b0" x="55.615234"/>
      </g>
     </g>
    </g>
    <g id="xtick_2">
     <g id="line2d_2">
      <path d="M 111.06 108 
L 161.09134 57.96866 
" clip-path="url(#pbf2355f030)" style="fill: none; stroke: #ffffff; stroke-linecap: round"/>
     </g>
     <g id="text_2">
      <!-- 45° -->
      <g style="fill: #262626" transform="translate(164.44243 49.14507) scale(0.11 -0.11)">
       <defs>
        <path id="ArialMT-34" d="M 2069 0 
L 2069 1097 
L 81 1097 
L 81 1613 
L 2172 4581 
L 2631 4581 
L 2631 1613 
L 3250 1613 
L 3250 1097 
L 2631 1097 
L 2631 0 
L 2069 0 
z
M 2069 1613 
L 2069 3678 
L 634 1613 
L 2069 1613 
z
" transform="scale(0.015625)"/>
        <path id="ArialMT-35" d="M 266 1200 
L 856 1250 
Q 922 819 1161 601 
Q 1400 384 1738 384 
Q 2144 384 2425 690 
Q 2706 997 2706 1503 
Q 2706 1984 2436 2262 
Q 2166 2541 1728 2541 
Q 1456 2541 1237 2417 
Q 1019 2294 894 2097 
L 366 2166 
L 809 4519 
L 3088 4519 
L 3088 3981 
L 1259 3981 
L 1013 2750 
Q 1425 3038 1878 3038 
Q 2478 3038 2890 2622 
Q 3303 2206 3303 1553 
Q 3303 931 2941 478 
Q 2500 -78 1738 -78 
Q 1113 -78 717 272 
Q 322 622 266 1200 
z
" transform="scale(0.015625)"/>
       </defs>
       <use xlink:href="#ArialMT-34"/>
       <use xlink:href="#ArialMT-35" x="55.615234"/>
       <use xlink:href="#ArialMT-b0" x="111.230469"/>
      </g>
     </g>
    </g>
    <g id="xtick_3">
     <g id="line2d_3">
      <path d="M 111.06 108 
L 111.06 37.245 
" clip-path="url(#pbf2355f030)" style="fill: none; stroke: #ffffff; stroke-linecap: round"/>
     </g>
     <g id="text_3">
      <!-- 90° -->
      <g style="fill: #262626" transform="translate(102.743828 23.588672) scale(0.11 -0.11)">
       <defs>
        <path id="ArialMT-39" d="M 350 1059 
L 891 1109 
Q 959 728 1153 556 
Q 1347 384 1650 384 
Q 1909 384 2104 503 
Q 2300 622 2425 820 
Q 2550 1019 2634 1356 
Q 2719 1694 2719 2044 
Q 2719 2081 2716 2156 
Q 2547 1888 2255 1720 
Q 1963 1553 1622 1553 
Q 1053 1553 659 1965 
Q 266 2378 266 3053 
Q 266 3750 677 4175 
Q 1088 4600 1706 4600 
Q 2153 4600 2523 4359 
Q 2894 4119 3086 3673 
Q 3278 3228 3278 2384 
Q 3278 1506 3087 986 
Q 2897 466 2520 194 
Q 2144 -78 1638 -78 
Q 1100 -78 759 220 
Q 419 519 350 1059 
z
M 2653 3081 
Q 2653 3566 2395 3850 
Q 2138 4134 1775 4134 
Q 1400 4134 1122 3828 
Q 844 3522 844 3034 
Q 844 2597 1108 2323 
Q 1372 2050 1759 2050 
Q 2150 2050 2401 2323 
Q 2653 2597 2653 3081 
z
" transform="scale(0.015625)"/>
       </defs>
       <use xlink:href="#ArialMT-39"/>
       <use xlink:href="#ArialMT-30" x="55.615234"/>
       <use xlink:href="#ArialMT-b0" x="111.230469"/>
      </g>
     </g>
    </g>
    <g id="xtick_4">
     <g id="line2d_4">
      <path d="M 111.06 108 
L 61.02866 57.96866 
" clip-path="url(#pbf2355f030)" style="fill: none; stroke: #ffffff; stroke-linecap: round"/>
     </g>
     <g id="text_4">
      <!-- 135° -->
      <g style="fill: #262626" transform="translate(37.98671 49.14507) scale(0.11 -0.11)">
       <defs>
        <path id="ArialMT-31" d="M 2384 0 
L 1822 0 
L 1822 3584 
Q 1619 3391 1289 3197 
Q 959 3003 697 2906 
L 697 3450 
Q 1169 3672 1522 3987 
Q 1875 4303 2022 4600 
L 2384 4600 
L 2384 0 
z
" transform="scale(0.015625)"/>
        <path id="ArialMT-33" d="M 269 1209 
L 831 1284 
Q 928 806 1161 595 
Q 1394 384 1728 384 
Q 2125 384 2398 659 
Q 2672 934 2672 1341 
Q 2672 1728 2419 1979 
Q 2166 2231 1775 2231 
Q 1616 2231 1378 2169 
L 1441 2663 
Q 1497 2656 1531 2656 
Q 1891 2656 2178 2843 
Q 2466 3031 2466 3422 
Q 2466 3731 2256 3934 
Q 2047 4138 1716 4138 
Q 1388 4138 1169 3931 
Q 950 3725 888 3313 
L 325 3413 
Q 428 3978 793 4289 
Q 1159 4600 1703 4600 
Q 2078 4600 2393 4439 
Q 2709 4278 2876 4000 
Q 3044 3722 3044 3409 
Q 3044 3113 2884 2869 
Q 2725 2625 2413 2481 
Q 2819 2388 3044 2092 
Q 3269 1797 3269 1353 
Q 3269 753 2831 336 
Q 2394 -81 1725 -81 
Q 1122 -81 723 278 
Q 325 638 269 1209 
z
" transform="scale(0.015625)"/>
       </defs>
       <use xlink:href="#ArialMT-31"/>
       <use xlink:href="#ArialMT-33" x="55.615234"/>
       <use xlink:href="#ArialMT-35" x="111.230469"/>
       <use xlink:href="#ArialMT-b0" x="166.845703"/>
      </g>
     </g>
    </g>
    <g id="xtick_5">
     <g id="line2d_5">
      <path d="M 111.06 108 
L 40.305 108 
" clip-path="url(#pbf2355f030)" style="fill: none; stroke: #ffffff; stroke-linecap: round"/>
     </g>
     <g id="text_5">
      <!-- 180° -->
      <g style="fill: #262626" transform="translate(12.430312 110.843672) scale(0.11 -0.11)">
       <defs>
        <path id="ArialMT-38" d="M 1131 2484 
Q 781 2613 612 2850 
Q 444 3088 444 3419 
Q 444 3919 803 4259 
Q 1163 4600 1759 4600 
Q 2359 4600 2725 4251 
Q 3091 3903 3091 3403 
Q 3091 3084 2923 2848 
Q 2756 2613 2416 2484 
Q 2838 2347 3058 2040 
Q 3278 1734 3278 1309 
Q 3278 722 2862 322 
Q 2447 -78 1769 -78 
Q 1091 -78 675 323 
Q 259 725 259 1325 
Q 259 1772 486 2073 
Q 713 2375 1131 2484 
z
M 1019 3438 
Q 1019 3113 1228 2906 
Q 1438 2700 1772 2700 
Q 2097 2700 2305 2904 
Q 2513 3109 2513 3406 
Q 2513 3716 2298 3927 
Q 2084 4138 1766 4138 
Q 1444 4138 1231 3931 
Q 1019 3725 1019 3438 
z
M 838 1322 
Q 838 1081 952 856 
Q 1066 631 1291 507 
Q 1516 384 1775 384 
Q 2178 384 2440 643 
Q 2703 903 2703 1303 
Q 2703 1709 2433 1975 
Q 2163 2241 1756 2241 
Q 1359 2241 1098 1978 
Q 838 1716 838 1322 
z
" transform="scale(0.015625)"/>
       </defs>
       <use xlink:href="#ArialMT-31"/>
       <use xlink:href="#ArialMT-38" x="55.615234"/>
       <use xlink:href="#ArialMT-30" x="111.230469"/>
       <use xlink:href="#ArialMT-b0" x="166.845703"/>
      </g>
     </g>
    </g>
    <g id="xtick_6">
     <g id="line2d_6">
      <path d="M 111.06 108 
L 61.02866 158.03134 
" clip-path="url(#pbf2355f030)" style="fill: none; stroke: #ffffff; stroke-linecap: round"/>
     </g>
     <g id="text_6">
      <!-- 225° -->
      <g style="fill: #262626" transform="translate(37.98671 172.542274) scale(0.11 -0.11)">
       <defs>
        <path id="ArialMT-32" d="M 3222 541 
L 3222 0 
L 194 0 
Q 188 203 259 391 
Q 375 700 629 1000 
Q 884 1300 1366 1694 
Q 2113 2306 2375 2664 
Q 2638 3022 2638 3341 
Q 2638 3675 2398 3904 
Q 2159 4134 1775 4134 
Q 1369 4134 1125 3890 
Q 881 3647 878 3216 
L 300 3275 
Q 359 3922 746 4261 
Q 1134 4600 1788 4600 
Q 2447 4600 2831 4234 
Q 3216 3869 3216 3328 
Q 3216 3053 3103 2787 
Q 2991 2522 2730 2228 
Q 2469 1934 1863 1422 
Q 1356 997 1212 845 
Q 1069 694 975 541 
L 3222 541 
z
" transform="scale(0.015625)"/>
       </defs>
       <use xlink:href="#ArialMT-32"/>
       <use xlink:href="#ArialMT-32" x="55.615234"/>
       <use xlink:href="#ArialMT-35" x="111.230469"/>
       <use xlink:href="#ArialMT-b0" x="166.845703"/>
      </g>
     </g>
    </g>
    <g id="xtick_7">
     <g id="line2d_7">
      <path d="M 111.06 108 
L 111.06 178.755 
" clip-path="url(#pbf2355f030)" style="fill: none; stroke: #ffffff; stroke-linecap: round"/>
     </g>
     <g id="text_7">
      <!-- 270° -->
      <g style="fill: #262626" transform="translate(99.685312 198.098672) scale(0.11 -0.11)">
       <defs>
        <path id="ArialMT-37" d="M 303 3981 
L 303 4522 
L 3269 4522 
L 3269 4084 
Q 2831 3619 2401 2847 
Q 1972 2075 1738 1259 
Q 1569 684 1522 0 
L 944 0 
Q 953 541 1156 1306 
Q 1359 2072 1739 2783 
Q 2119 3494 2547 3981 
L 303 3981 
z
" transform="scale(0.015625)"/>
       </defs>
       <use xlink:href="#ArialMT-32"/>
       <use xlink:href="#ArialMT-37" x="55.615234"/>
       <use xlink:href="#ArialMT-30" x="111.230469"/>
       <use xlink:href="#ArialMT-b0" x="166.845703"/>
      </g>
     </g>
    </g>
    <g id="xtick_8">
     <g id="line2d_8">
      <path d="M 111.06 108 
L 161.09134 158.03134 
" clip-path="url(#pbf2355f030)" style="fill: none; stroke: #ffffff; stroke-linecap: round"/>
     </g>
     <g id="text_8">
      <!-- 315° -->
      <g style="fill: #262626" transform="translate(161.383915 172.542274) scale(0.11 -0.11)">
       <use xlink:href="#ArialMT-33"/>
       <use xlink:href="#ArialMT-31" x="55.615234"/>
       <use xlink:href="#ArialMT-35" x="111.230469"/>
       <use xlink:href="#ArialMT-b0" x="166.845703"/>
      </g>
     </g>
    </g>
   </g>
   <g id="matplotlib.axis_2">
    <g id="ytick_1">
     <g id="line2d_9">
      <path d="M 123.179733 108 
C 123.179733 106.408451 122.866232 104.832378 122.257173 103.361979 
C 121.648114 101.89158 120.75534 100.55545 119.629945 99.430055 
C 118.50455 98.30466 117.16842 97.411886 115.698021 96.802827 
C 114.227622 96.193768 112.651549 95.880267 111.06 95.880267 
C 109.468451 95.880267 107.892378 96.193768 106.421979 96.802827 
C 104.95158 97.411886 103.61545 98.30466 102.490055 99.430055 
C 101.36466 100.55545 100.471886 101.89158 99.862827 103.361979 
C 99.253768 104.832378 98.940267 106.408451 98.940267 108 
C 98.940267 109.591549 99.253768 111.167622 99.862827 112.638021 
C 100.471886 114.10842 101.36466 115.44455 102.490055 116.569945 
C 103.61545 117.69534 104.95158 118.588114 106.421979 119.197173 
C 107.892378 119.806232 109.468451 120.119733 111.06 120.119733 
C 112.651549 120.119733 114.227622 119.806232 115.698021 119.197173 
C 117.16842 118.588114 118.50455 117.69534 119.629945 116.569945 
C 120.75534 115.44455 121.648114 114.10842 122.257173 112.638021 
C 122.866232 111.167622 123.179733 109.591549 123.179733 108 
" clip-path="url(#pbf2355f030)" style="fill: none; stroke: #ffffff; stroke-linecap: round"/>
     </g>
    </g>
    <g id="ytick_2">
     <g id="line2d_10">
      <path d="M 135.299466 108 
C 135.299466 104.816903 134.672465 101.664757 133.454346 98.723958 
C 132.236227 95.78316 130.45068 93.110899 128.19989 90.86011 
C 125.949101 88.60932 123.27684 86.823773 120.336042 85.605654 
C 117.395243 84.387535 114.243097 83.760534 111.06 83.760534 
C 107.876903 83.760534 104.724757 84.387535 101.783958 85.605654 
C 98.84316 86.823773 96.170899 88.60932 93.92011 90.86011 
C 91.66932 93.110899 89.883773 95.78316 88.665654 98.723958 
C 87.447535 101.664757 86.820534 104.816903 86.820534 108 
C 86.820534 111.183097 87.447535 114.335243 88.665654 117.276042 
C 89.883773 120.21684 91.66932 122.889101 93.92011 125.13989 
C 96.170899 127.39068 98.84316 129.176227 101.783958 130.394346 
C 104.724757 131.612465 107.876903 132.239466 111.06 132.239466 
C 114.243097 132.239466 117.395243 131.612465 120.336042 130.394346 
C 123.27684 129.176227 125.949101 127.39068 128.19989 125.13989 
C 130.45068 122.889101 132.236227 120.21684 133.454346 117.276042 
C 134.672465 114.335243 135.299466 111.183097 135.299466 108 
" clip-path="url(#pbf2355f030)" style="fill: none; stroke: #ffffff; stroke-linecap: round"/>
     </g>
    </g>
    <g id="ytick_3">
     <g id="line2d_11">
      <path d="M 147.419198 108 
C 147.419198 103.225354 146.478697 98.497135 144.651519 94.085937 
C 142.824341 89.674739 140.14602 85.666349 136.769836 82.290164 
C 133.393651 78.91398 129.385261 76.235659 124.974063 74.408481 
C 120.562865 72.581303 115.834646 71.640802 111.06 71.640802 
C 106.285354 71.640802 101.557135 72.581303 97.145937 74.408481 
C 92.734739 76.235659 88.726349 78.91398 85.350164 82.290164 
C 81.97398 85.666349 79.295659 89.674739 77.468481 94.085937 
C 75.641303 98.497135 74.700802 103.225354 74.700802 108 
C 74.700802 112.774646 75.641303 117.502865 77.468481 121.914063 
C 79.295659 126.325261 81.97398 130.333651 85.350164 133.709836 
C 88.726349 137.08602 92.734739 139.764341 97.145937 141.591519 
C 101.557135 143.418697 106.285354 144.359198 111.06 144.359198 
C 115.834646 144.359198 120.562865 143.418697 124.974063 141.591519 
C 129.385261 139.764341 133.393651 137.08602 136.769836 133.709836 
C 140.14602 130.333651 142.824341 126.325261 144.651519 121.914063 
C 146.478697 117.502865 147.419198 112.774646 147.419198 108 
" clip-path="url(#pbf2355f030)" style="fill: none; stroke: #ffffff; stroke-linecap: round"/>
     </g>
    </g>
    <g id="ytick_4">
     <g id="line2d_12">
      <path d="M 159.538931 108 
C 159.538931 101.633805 158.28493 95.329513 155.848692 89.447916 
C 153.412455 83.566319 149.841361 78.221799 145.339781 73.720219 
C 140.838201 69.218639 135.493681 65.647545 129.612084 63.211308 
C 123.730487 60.77507 117.426195 59.521069 111.06 59.521069 
C 104.693805 59.521069 98.389513 60.77507 92.507916 63.211308 
C 86.626319 65.647545 81.281799 69.218639 76.780219 73.720219 
C 72.278639 78.221799 68.707545 83.566319 66.271308 89.447916 
C 63.83507 95.329513 62.581069 101.633805 62.581069 108 
C 62.581069 114.366195 63.83507 120.670487 66.271308 126.552084 
C 68.707545 132.433681 72.278639 137.778201 76.780219 142.279781 
C 81.281799 146.781361 86.626319 150.352455 92.507916 152.788692 
C 98.389513 155.22493 104.693805 156.478931 111.06 156.478931 
C 117.426195 156.478931 123.730487 155.22493 129.612084 152.788692 
C 135.493681 150.352455 140.838201 146.781361 145.339781 142.279781 
C 149.841361 137.778201 153.412455 132.433681 155.848692 126.552084 
C 158.28493 120.670487 159.538931 114.366195 159.538931 108 
" clip-path="url(#pbf2355f030)" style="fill: none; stroke: #ffffff; stroke-linecap: round"/>
     </g>
    </g>
    <g id="ytick_5">
     <g id="line2d_13">
      <path d="M 171.658664 108 
C 171.658664 100.042256 170.091162 92.161892 167.045865 84.809895 
C 164.000569 77.457899 159.536701 70.777248 153.909726 65.150274 
C 148.282752 59.523299 141.602101 55.059431 134.250105 52.014135 
C 126.898108 48.968838 119.017744 47.401336 111.06 47.401336 
C 103.102256 47.401336 95.221892 48.968838 87.869895 52.014135 
C 80.517899 55.059431 73.837248 59.523299 68.210274 65.150274 
C 62.583299 70.777248 58.119431 77.457899 55.074135 84.809895 
C 52.028838 92.161892 50.461336 100.042256 50.461336 108 
C 50.461336 115.957744 52.028838 123.838108 55.074135 131.190105 
C 58.119431 138.542101 62.583299 145.222752 68.210274 150.849726 
C 73.837248 156.476701 80.517899 160.940569 87.869895 163.985865 
C 95.221892 167.031162 103.102256 168.598664 111.06 168.598664 
C 119.017744 168.598664 126.898108 167.031162 134.250105 163.985865 
C 141.602101 160.940569 148.282752 156.476701 153.909726 150.849726 
C 159.536701 145.222752 164.000569 138.542101 167.045865 131.190105 
C 170.091162 123.838108 171.658664 115.957744 171.658664 108 
" clip-path="url(#pbf2355f030)" style="fill: none; stroke: #ffffff; stroke-linecap: round"/>
     </g>
    </g>
   </g>
   <g id="patch_3">
    <path d="M 111.06 108 
C 111.06 108 111.06 108 111.06 108 
C 111.06 108 111.06 108 111.06 108 
L 97.754722 108.83902 
C 97.74594 108.699765 97.739346 108.560382 97.73494 108.42092 
C 97.730535 108.281459 97.728319 108.141937 97.728294 108.002406 
z
" clip-path="url(#pbf2355f030)" style="fill: #4c72b0; stroke: #ffffff; stroke-linejoin: miter"/>
   </g>
   <g id="patch_4">
    <path d="M 111.06 108 
C 111.06 108 111.06 108 111.06 108 
C 111.06 108 111.06 108 111.06 108 
L 99.276478 109.48989 
C 99.260885 109.366563 99.247229 109.242998 99.235514 109.119242 
C 99.2238 108.995486 99.21403 108.871553 99.206207 108.74749 
z
" clip-path="url(#pbf2355f030)" style="fill: #4c72b0; stroke: #ffffff; stroke-linejoin: miter"/>
   </g>
   <g id="patch_5">
    <path d="M 111.06 108 
C 111.06 108 111.06 108 111.06 108 
C 111.06 108 111.06 108 111.06 108 
L 94.155045 111.226033 
C 94.121281 111.049104 94.090296 110.871656 94.062103 110.693754 
C 94.03391 110.515853 94.008512 110.337519 93.985917 110.15882 
z
" clip-path="url(#pbf2355f030)" style="fill: #4c72b0; stroke: #ffffff; stroke-linejoin: miter"/>
   </g>
   <g id="patch_6">
    <path d="M 111.06 108 
C 111.06 108 111.06 108 111.06 108 
C 111.06 108 111.06 108 111.06 108 
L 97.442915 111.49677 
C 97.406318 111.354252 97.37196 111.211168 97.339855 111.067572 
C 97.307749 110.923976 97.2779 110.779884 97.250318 110.635351 
z
" clip-path="url(#pbf2355f030)" style="fill: #4c72b0; stroke: #ffffff; stroke-linejoin: miter"/>
   </g>
   <g id="patch_7">
    <path d="M 111.06 108 
C 111.06 108 111.06 108 111.06 108 
C 111.06 108 111.06 108 111.06 108 
L 96.536535 112.718922 
C 96.487146 112.566918 96.440147 112.414148 96.395554 112.260668 
C 96.350962 112.107189 96.308781 111.953019 96.269029 111.798215 
z
" clip-path="url(#pbf2355f030)" style="fill: #4c72b0; stroke: #ffffff; stroke-linejoin: miter"/>
   </g>
   <g id="patch_8">
    <path d="M 111.06 108 
C 111.06 108 111.06 108 111.06 108 
C 111.06 108 111.06 108 111.06 108 
L 98.213549 113.085691 
C 98.160322 112.951239 98.109209 112.815959 98.060229 112.679902 
C 98.011248 112.543846 97.964407 112.407028 97.919722 112.269501 
z
" clip-path="url(#pbf2355f030)" style="fill: #4c72b0; stroke: #ffffff; stroke-linejoin: miter"/>
   </g>
   <g id="patch_9">
    <path d="M 111.06 108 
C 111.06 108 111.06 108 111.06 108 
C 111.06 108 111.06 108 111.06 108 
L 97.461352 114.397784 
C 97.394392 114.255459 97.329671 114.112092 97.267212 113.967735 
C 97.204753 113.823379 97.144564 113.67805 97.086668 113.531804 
z
" clip-path="url(#pbf2355f030)" style="fill: #4c72b0; stroke: #ffffff; stroke-linejoin: miter"/>
   </g>
   <g id="patch_10">
    <path d="M 111.06 108 
C 111.06 108 111.06 108 111.06 108 
C 111.06 108 111.06 108 111.06 108 
L 93.641138 117.573558 
C 93.54094 117.391251 93.443611 117.207381 93.349186 117.022018 
C 93.25476 116.836655 93.163251 116.649821 93.074691 116.461585 
z
" clip-path="url(#pbf2355f030)" style="fill: #4c72b0; stroke: #ffffff; stroke-linejoin: miter"/>
   </g>
   <g id="patch_11">
    <path d="M 111.06 108 
C 111.06 108 111.06 108 111.06 108 
C 111.06 108 111.06 108 111.06 108 
L 96.323048 117.349281 
C 96.225198 117.195043 96.129775 117.039278 96.036815 116.882044 
C 95.943854 116.72481 95.853368 116.566126 95.76539 116.406051 
z
" clip-path="url(#pbf2355f030)" style="fill: #4c72b0; stroke: #ffffff; stroke-linejoin: miter"/>
   </g>
   <g id="patch_12">
    <path d="M 111.06 108 
C 111.06 108 111.06 108 111.06 108 
C 111.06 108 111.06 108 111.06 108 
L 97.527183 117.828338 
C 97.424319 117.686702 97.323684 117.54346 97.225317 117.398665 
C 97.12695 117.25387 97.030861 117.107539 96.937088 116.959728 
z
" clip-path="url(#pbf2355f030)" style="fill: #4c72b0; stroke: #ffffff; stroke-linejoin: miter"/>
   </g>
   <g id="patch_13">
    <path d="M 111.06 108 
C 111.06 108 111.06 108 111.06 108 
C 111.06 108 111.06 108 111.06 108 
L 99.851847 117.268004 
C 99.754847 117.150699 99.659695 117.031878 99.566425 116.911585 
C 99.473156 116.791292 99.38178 116.669542 99.292333 116.546381 
z
" clip-path="url(#pbf2355f030)" style="fill: #4c72b0; stroke: #ffffff; stroke-linejoin: miter"/>
   </g>
   <g id="patch_14">
    <path d="M 111.06 108 
C 111.06 108 111.06 108 111.06 108 
C 111.06 108 111.06 108 111.06 108 
L 96.213759 121.934332 
C 96.067921 121.77895 95.924531 121.621287 95.783643 121.461404 
C 95.642755 121.30152 95.504385 121.139434 95.368585 120.975206 
z
" clip-path="url(#pbf2355f030)" style="fill: #4c72b0; stroke: #ffffff; stroke-linejoin: miter"/>
   </g>
   <g id="patch_15">
    <path d="M 111.06 108 
C 111.06 108 111.06 108 111.06 108 
C 111.06 108 111.06 108 111.06 108 
L 97.947369 121.955283 
C 97.801312 121.818045 97.657418 121.678522 97.515741 121.536767 
C 97.374064 121.395011 97.234621 121.25104 97.097464 121.104907 
z
" clip-path="url(#pbf2355f030)" style="fill: #4c72b0; stroke: #ffffff; stroke-linejoin: miter"/>
   </g>
   <g id="patch_16">
    <path d="M 111.06 108 
C 111.06 108 111.06 108 111.06 108 
C 111.06 108 111.06 108 111.06 108 
L 99.003534 122.563931 
C 98.851107 122.437747 98.700669 122.309177 98.552278 122.17827 
C 98.403887 122.047363 98.25756 121.914135 98.113352 121.778634 
z
" clip-path="url(#pbf2355f030)" style="fill: #4c72b0; stroke: #ffffff; stroke-linejoin: miter"/>
   </g>
   <g id="patch_17">
    <path d="M 111.06 108 
C 111.06 108 111.06 108 111.06 108 
C 111.06 108 111.06 108 111.06 108 
L 98.230664 125.644405 
C 98.045996 125.510131 97.863447 125.372968 97.683086 125.232964 
C 97.502724 125.092959 97.324571 124.950132 97.148693 124.804535 
z
" clip-path="url(#pbf2355f030)" style="fill: #4c72b0; stroke: #ffffff; stroke-linejoin: miter"/>
   </g>
   <g id="patch_18">
    <path d="M 111.06 108 
C 111.06 108 111.06 108 111.06 108 
C 111.06 108 111.06 108 111.06 108 
L 99.883065 125.596288 
C 99.698901 125.479309 99.516584 125.359446 99.336183 125.236744 
C 99.155781 125.114041 98.977317 124.988514 98.800857 124.860209 
z
" clip-path="url(#pbf2355f030)" style="fill: #4c72b0; stroke: #ffffff; stroke-linejoin: miter"/>
   </g>
   <g id="patch_19">
    <path d="M 111.06 108 
C 111.06 108 111.06 108 111.06 108 
C 111.06 108 111.06 108 111.06 108 
L 99.373177 129.236051 
C 99.150919 129.113736 98.930594 128.987939 98.712285 128.858706 
C 98.493976 128.729474 98.277709 128.596822 98.063564 128.4608 
z
" clip-path="url(#pbf2355f030)" style="fill: #4c72b0; stroke: #ffffff; stroke-linejoin: miter"/>
   </g>
   <g id="patch_20">
    <path d="M 111.06 108 
C 111.06 108 111.06 108 111.06 108 
C 111.06 108 111.06 108 111.06 108 
L 99.902368 131.681798 
C 99.654512 131.565021 99.408505 131.44436 99.164437 131.31986 
C 98.920369 131.19536 98.678271 131.067036 98.438231 130.934935 
z
" clip-path="url(#pbf2355f030)" style="fill: #4c72b0; stroke: #ffffff; stroke-linejoin: miter"/>
   </g>
   <g id="patch_21">
    <path d="M 111.06 108 
C 111.06 108 111.06 108 111.06 108 
C 111.06 108 111.06 108 111.06 108 
L 101.946572 130.983346 
C 101.706026 130.887964 101.466992 130.788812 101.229559 130.685925 
C 100.992126 130.583039 100.756323 130.476432 100.522237 130.366142 
z
" clip-path="url(#pbf2355f030)" style="fill: #4c72b0; stroke: #ffffff; stroke-linejoin: miter"/>
   </g>
   <g id="patch_22">
    <path d="M 111.06 108 
C 111.06 108 111.06 108 111.06 108 
C 111.06 108 111.06 108 111.06 108 
L 102.806583 133.353869 
C 102.541227 133.267487 102.277243 133.176946 102.01473 133.082277 
C 101.752216 132.987609 101.491205 132.888825 101.231793 132.785962 
z
" clip-path="url(#pbf2355f030)" style="fill: #4c72b0; stroke: #ffffff; stroke-linejoin: miter"/>
   </g>
   <g id="patch_23">
    <path d="M 111.06 108 
C 111.06 108 111.06 108 111.06 108 
C 111.06 108 111.06 108 111.06 108 
L 102.299241 142.037869 
C 101.942998 141.946178 101.588216 141.8489 101.235026 141.746071 
C 100.881836 141.643242 100.530283 141.534874 100.180495 141.421009 
z
" clip-path="url(#pbf2355f030)" style="fill: #4c72b0; stroke: #ffffff; stroke-linejoin: miter"/>
   </g>
   <g id="patch_24">
    <path d="M 111.06 108 
C 111.06 108 111.06 108 111.06 108 
C 111.06 108 111.06 108 111.06 108 
L 103.723421 146.329719 
C 103.322258 146.252933 102.922326 146.169855 102.523772 146.080514 
C 102.125217 145.991173 101.72809 145.895581 101.332537 145.793772 
z
" clip-path="url(#pbf2355f030)" style="fill: #4c72b0; stroke: #ffffff; stroke-linejoin: miter"/>
   </g>
   <g id="patch_25">
    <path d="M 111.06 108 
C 111.06 108 111.06 108 111.06 108 
C 111.06 108 111.06 108 111.06 108 
L 106.692926 142.386234 
C 106.333037 142.340528 105.973887 142.289175 105.615609 142.232193 
C 105.257332 142.175212 104.899971 142.112609 104.543659 142.044409 
z
" clip-path="url(#pbf2355f030)" style="fill: #4c72b0; stroke: #ffffff; stroke-linejoin: miter"/>
   </g>
   <g id="patch_26">
    <path d="M 111.06 108 
C 111.06 108 111.06 108 111.06 108 
C 111.06 108 111.06 108 111.06 108 
L 108.028415 155.655418 
C 107.529649 155.623689 107.031412 155.584132 106.533888 155.536761 
C 106.036363 155.48939 105.539614 155.434212 105.043822 155.371246 
z
" clip-path="url(#pbf2355f030)" style="fill: #4c72b0; stroke: #ffffff; stroke-linejoin: miter"/>
   </g>
   <g id="patch_27">
    <path d="M 111.06 108 
C 111.06 108 111.06 108 111.06 108 
C 111.06 108 111.06 108 111.06 108 
L 111.014465 170.053015 
C 110.365013 170.052539 109.715607 170.041866 109.06649 170.021002 
C 108.417372 170.000138 107.768622 169.969084 107.120479 169.927853 
z
" clip-path="url(#pbf2355f030)" style="fill: #4c72b0; stroke: #ffffff; stroke-linejoin: miter"/>
   </g>
   <g id="patch_28">
    <path d="M 111.06 108 
C 111.06 108 111.06 108 111.06 108 
C 111.06 108 111.06 108 111.06 108 
L 115.239373 175.255984 
C 114.535466 175.299725 113.830915 175.332414 113.125981 175.354036 
C 112.421047 175.375659 111.715817 175.386214 111.010552 175.385696 
z
" clip-path="url(#pbf2355f030)" style="fill: #4c72b0; stroke: #ffffff; stroke-linejoin: miter"/>
   </g>
   <g id="patch_29">
    <path d="M 111.06 108 
C 111.06 108 111.06 108 111.06 108 
C 111.06 108 111.06 108 111.06 108 
L 117.217952 157.063579 
C 116.704448 157.128028 116.189964 157.184412 115.674689 157.23271 
C 115.159415 157.281008 114.643415 157.321213 114.126878 157.353312 
z
" clip-path="url(#pbf2355f030)" style="fill: #4c72b0; stroke: #ffffff; stroke-linejoin: miter"/>
   </g>
   <g id="patch_30">
    <path d="M 111.06 108 
C 111.06 108 111.06 108 111.06 108 
C 111.06 108 111.06 108 111.06 108 
L 119.742119 153.722766 
C 119.26358 153.813634 118.783644 153.896984 118.302489 153.972784 
C 117.821333 154.048585 117.339018 154.116827 116.85572 154.177486 
z
" clip-path="url(#pbf2355f030)" style="fill: #4c72b0; stroke: #ffffff; stroke-linejoin: miter"/>
   </g>
   <g id="patch_31">
    <path d="M 111.06 108 
C 111.06 108 111.06 108 111.06 108 
C 111.06 108 111.06 108 111.06 108 
L 118.389083 136.649546 
C 118.089234 136.726253 117.788199 136.798248 117.48609 136.865504 
C 117.183981 136.93276 116.880835 136.995269 116.576763 137.053008 
z
" clip-path="url(#pbf2355f030)" style="fill: #4c72b0; stroke: #ffffff; stroke-linejoin: miter"/>
   </g>
   <g id="patch_32">
    <path d="M 111.06 108 
C 111.06 108 111.06 108 111.06 108 
C 111.06 108 111.06 108 111.06 108 
L 121.068824 138.900344 
C 120.745418 139.005097 120.420388 139.104767 120.093853 139.199316 
C 119.767318 139.293865 119.439318 139.383282 119.109976 139.467534 
z
" clip-path="url(#pbf2355f030)" style="fill: #4c72b0; stroke: #ffffff; stroke-linejoin: miter"/>
   </g>
   <g id="patch_33">
    <path d="M 111.06 108 
C 111.06 108 111.06 108 111.06 108 
C 111.06 108 111.06 108 111.06 108 
L 120.406738 131.67307 
C 120.158973 131.770894 119.909688 131.864822 119.658975 131.954819 
C 119.408261 132.044817 119.15615 132.130873 118.902735 132.212956 
z
" clip-path="url(#pbf2355f030)" style="fill: #4c72b0; stroke: #ffffff; stroke-linejoin: miter"/>
   </g>
   <g id="patch_34">
    <path d="M 111.06 108 
C 111.06 108 111.06 108 111.06 108 
C 111.06 108 111.06 108 111.06 108 
L 122.182864 131.698147 
C 121.934837 131.81456 121.684998 131.927072 121.433439 132.035642 
C 121.181879 132.144211 120.928631 132.248824 120.673788 132.349443 
z
" clip-path="url(#pbf2355f030)" style="fill: #4c72b0; stroke: #ffffff; stroke-linejoin: miter"/>
   </g>
   <g id="patch_35">
    <path d="M 111.06 108 
C 111.06 108 111.06 108 111.06 108 
C 111.06 108 111.06 108 111.06 108 
L 126.212337 135.629134 
C 125.923168 135.78772 125.631527 135.941756 125.337522 136.091186 
C 125.043517 136.240616 124.747184 136.385421 124.448633 136.525548 
z
" clip-path="url(#pbf2355f030)" style="fill: #4c72b0; stroke: #ffffff; stroke-linejoin: miter"/>
   </g>
   <g id="patch_36">
    <path d="M 111.06 108 
C 111.06 108 111.06 108 111.06 108 
C 111.06 108 111.06 108 111.06 108 
L 124.026393 128.479852 
C 123.812049 128.615559 123.595588 128.747893 123.377089 128.876805 
C 123.158591 129.005717 122.938082 129.131191 122.715644 129.25318 
z
" clip-path="url(#pbf2355f030)" style="fill: #4c72b0; stroke: #ffffff; stroke-linejoin: miter"/>
   </g>
   <g id="patch_37">
    <path d="M 111.06 108 
C 111.06 108 111.06 108 111.06 108 
C 111.06 108 111.06 108 111.06 108 
L 123.863427 125.663214 
C 123.678562 125.797216 123.491605 125.928307 123.302625 126.05644 
C 123.113644 126.184572 122.922664 126.30973 122.729754 126.431867 
z
" clip-path="url(#pbf2355f030)" style="fill: #4c72b0; stroke: #ffffff; stroke-linejoin: miter"/>
   </g>
   <g id="patch_38">
    <path d="M 111.06 108 
C 111.06 108 111.06 108 111.06 108 
C 111.06 108 111.06 108 111.06 108 
L 123.712262 123.329384 
C 123.551824 123.461804 123.389316 123.591697 123.224799 123.719015 
C 123.060282 123.846333 122.893777 123.97106 122.725345 124.09315 
z
" clip-path="url(#pbf2355f030)" style="fill: #4c72b0; stroke: #ffffff; stroke-linejoin: miter"/>
   </g>
   <g id="patch_39">
    <path d="M 111.06 108 
C 111.06 108 111.06 108 111.06 108 
C 111.06 108 111.06 108 111.06 108 
L 125.975092 123.92033 
C 125.808468 124.076433 125.639404 124.22991 125.467962 124.380705 
C 125.29652 124.531501 125.122721 124.679595 124.946629 124.824934 
z
" clip-path="url(#pbf2355f030)" style="fill: #4c72b0; stroke: #ffffff; stroke-linejoin: miter"/>
   </g>
   <g id="patch_40">
    <path d="M 111.06 108 
C 111.06 108 111.06 108 111.06 108 
C 111.06 108 111.06 108 111.06 108 
L 125.885775 121.956105 
C 125.739709 122.111273 125.591216 122.264138 125.440351 122.414644 
C 125.289486 122.565151 125.136268 122.713279 124.980752 122.858975 
z
" clip-path="url(#pbf2355f030)" style="fill: #4c72b0; stroke: #ffffff; stroke-linejoin: miter"/>
   </g>
   <g id="patch_41">
    <path d="M 111.06 108 
C 111.06 108 111.06 108 111.06 108 
C 111.06 108 111.06 108 111.06 108 
L 126.732355 120.998221 
C 126.596315 121.162249 126.457708 121.324132 126.316585 121.483809 
C 126.175462 121.643486 126.031841 121.800937 125.885775 121.956105 
z
" clip-path="url(#pbf2355f030)" style="fill: #4c72b0; stroke: #ffffff; stroke-linejoin: miter"/>
   </g>
   <g id="patch_42">
    <path d="M 111.06 108 
C 111.06 108 111.06 108 111.06 108 
C 111.06 108 111.06 108 111.06 108 
L 129.280423 121.273645 
C 129.1415 121.464341 128.999591 121.652845 128.85475 121.839087 
C 128.709909 122.025328 128.562153 122.209285 128.411536 122.390887 
z
" clip-path="url(#pbf2355f030)" style="fill: #4c72b0; stroke: #ffffff; stroke-linejoin: miter"/>
   </g>
   <g id="patch_43">
    <path d="M 111.06 108 
C 111.06 108 111.06 108 111.06 108 
C 111.06 108 111.06 108 111.06 108 
L 127.010149 118.151807 
C 126.903899 118.318743 126.795035 118.484 126.683597 118.647519 
C 126.57216 118.811037 126.458161 118.972795 126.341645 119.132734 
z
" clip-path="url(#pbf2355f030)" style="fill: #4c72b0; stroke: #ffffff; stroke-linejoin: miter"/>
   </g>
   <g id="patch_44">
    <path d="M 111.06 108 
C 111.06 108 111.06 108 111.06 108 
C 111.06 108 111.06 108 111.06 108 
L 124.431975 115.374927 
C 124.354788 115.51488 124.275409 115.653612 124.193867 115.791072 
C 124.112325 115.928532 124.02863 116.064704 123.942813 116.199537 
z
" clip-path="url(#pbf2355f030)" style="fill: #4c72b0; stroke: #ffffff; stroke-linejoin: miter"/>
   </g>
   <g id="patch_45">
    <path d="M 111.06 108 
C 111.06 108 111.06 108 111.06 108 
C 111.06 108 111.06 108 111.06 108 
L 122.676612 113.486128 
C 122.619194 113.607708 122.55987 113.72838 122.498663 113.848098 
C 122.437457 113.967816 122.374374 114.086566 122.309439 114.204304 
z
" clip-path="url(#pbf2355f030)" style="fill: #4c72b0; stroke: #ffffff; stroke-linejoin: miter"/>
   </g>
   <g id="patch_46">
    <path d="M 111.06 108 
C 111.06 108 111.06 108 111.06 108 
C 111.06 108 111.06 108 111.06 108 
L 126.376669 114.089625 
C 126.312935 114.249931 126.246688 114.409226 126.177952 114.567452 
C 126.109216 114.725678 126.038001 114.882815 125.964332 115.038805 
z
" clip-path="url(#pbf2355f030)" style="fill: #4c72b0; stroke: #ffffff; stroke-linejoin: miter"/>
   </g>
   <g id="patch_47">
    <path d="M 111.06 108 
C 111.06 108 111.06 108 111.06 108 
C 111.06 108 111.06 108 111.06 108 
L 128.111155 113.567891 
C 128.052881 113.74635 127.991809 113.923883 127.927961 114.100425 
C 127.864114 114.276966 127.797499 114.452495 127.72814 114.626945 
z
" clip-path="url(#pbf2355f030)" style="fill: #4c72b0; stroke: #ffffff; stroke-linejoin: miter"/>
   </g>
   <g id="patch_48">
    <path d="M 111.06 108 
C 111.06 108 111.06 108 111.06 108 
C 111.06 108 111.06 108 111.06 108 
L 130.069776 112.911324 
C 130.018373 113.110282 129.96385 113.308421 129.906228 113.505667 
C 129.848605 113.702913 129.787889 113.899243 129.724102 114.094583 
z
" clip-path="url(#pbf2355f030)" style="fill: #4c72b0; stroke: #ffffff; stroke-linejoin: miter"/>
   </g>
   <g id="patch_49">
    <path d="M 111.06 108 
C 111.06 108 111.06 108 111.06 108 
C 111.06 108 111.06 108 111.06 108 
L 124.151706 110.518256 
C 124.12535 110.655275 124.096844 110.791871 124.0662 110.927996 
C 124.035555 111.06412 124.002775 111.199754 123.967872 111.334849 
z
" clip-path="url(#pbf2355f030)" style="fill: #4c72b0; stroke: #ffffff; stroke-linejoin: miter"/>
   </g>
   <g id="patch_50">
    <path d="M 111.06 108 
C 111.06 108 111.06 108 111.06 108 
C 111.06 108 111.06 108 111.06 108 
L 124.043498 109.660976 
C 124.026114 109.796863 124.006598 109.932468 123.984957 110.067742 
C 123.963316 110.203016 123.939552 110.337941 123.913675 110.472469 
z
" clip-path="url(#pbf2355f030)" style="fill: #4c72b0; stroke: #ffffff; stroke-linejoin: miter"/>
   </g>
   <g id="patch_51">
    <path d="M 111.06 108 
C 111.06 108 111.06 108 111.06 108 
C 111.06 108 111.06 108 111.06 108 
L 127.750514 109.077084 
C 127.739241 109.251769 127.725226 109.426266 127.708475 109.60051 
C 127.691724 109.774755 127.672239 109.948726 127.650026 110.122358 
z
" clip-path="url(#pbf2355f030)" style="fill: #4c72b0; stroke: #ffffff; stroke-linejoin: miter"/>
   </g>
   <g id="patch_52">
    <path d="M 111.06 108 
C 111.06 108 111.06 108 111.06 108 
C 111.06 108 111.06 108 111.06 108 
L 128.027603 108.027964 
C 128.02731 108.205549 128.02423 108.383118 128.018362 108.560606 
C 128.012495 108.738093 128.003841 108.915478 127.992405 109.092694 
z
" clip-path="url(#pbf2355f030)" style="fill: #4c72b0; stroke: #ffffff; stroke-linejoin: miter"/>
   </g>
   <g id="patch_53">
    <path d="M 111.06 108 
C 111.06 108 111.06 108 111.06 108 
C 111.06 108 111.06 108 111.06 108 
L 126.302323 107.066811 
C 126.31209 107.226339 126.319352 107.38601 126.324106 107.545766 
C 126.32886 107.705521 126.331106 107.865342 126.330843 108.025168 
z
" clip-path="url(#pbf2355f030)" style="fill: #4c72b0; stroke: #ffffff; stroke-linejoin: miter"/>
   </g>
   <g id="patch_54">
    <path d="M 111.06 108 
C 111.06 108 111.06 108 111.06 108 
C 111.06 108 111.06 108 111.06 108 
L 124.770508 106.29193 
C 124.788385 106.435426 124.804008 106.579193 124.817372 106.723179 
C 124.830735 106.867165 124.841837 107.011352 124.850674 107.155687 
z
" clip-path="url(#pbf2355f030)" style="fill: #4c72b0; stroke: #ffffff; stroke-linejoin: miter"/>
   </g>
   <g id="patch_55">
    <path d="M 111.06 108 
C 111.06 108 111.06 108 111.06 108 
C 111.06 108 111.06 108 111.06 108 
L 127.256284 104.93989 
C 127.288312 105.109401 127.317676 105.279406 127.344366 105.449839 
C 127.371056 105.620273 127.395069 105.791115 127.416396 105.962303 
z
" clip-path="url(#pbf2355f030)" style="fill: #4c72b0; stroke: #ffffff; stroke-linejoin: miter"/>
   </g>
   <g id="patch_56">
    <path d="M 111.06 108 
C 111.06 108 111.06 108 111.06 108 
C 111.06 108 111.06 108 111.06 108 
L 125.388117 104.348557 
C 125.426334 104.498517 125.462194 104.649067 125.495683 104.800152 
C 125.529173 104.951237 125.560289 105.102839 125.58902 105.254901 
z
" clip-path="url(#pbf2355f030)" style="fill: #4c72b0; stroke: #ffffff; stroke-linejoin: miter"/>
   </g>
   <g id="patch_57">
    <path d="M 111.06 108 
C 111.06 108 111.06 108 111.06 108 
C 111.06 108 111.06 108 111.06 108 
L 123.054724 104.126944 
C 123.09526 104.252482 123.133823 104.378648 123.170397 104.505397 
C 123.206972 104.632145 123.241555 104.75946 123.274133 104.887295 
z
" clip-path="url(#pbf2355f030)" style="fill: #4c72b0; stroke: #ffffff; stroke-linejoin: miter"/>
   </g>
   <g id="patch_58">
    <path d="M 111.06 108 
C 111.06 108 111.06 108 111.06 108 
C 111.06 108 111.06 108 111.06 108 
L 125.945581 102.138515 
C 126.006927 102.294309 126.065825 102.451056 126.122251 102.608699 
C 126.178676 102.766342 126.232624 102.924861 126.284073 103.084198 
z
" clip-path="url(#pbf2355f030)" style="fill: #4c72b0; stroke: #ffffff; stroke-linejoin: miter"/>
   </g>
   <g id="patch_59">
    <path d="M 111.06 108 
C 111.06 108 111.06 108 111.06 108 
C 111.06 108 111.06 108 111.06 108 
L 123.353196 102.243826 
C 123.413441 102.372488 123.471662 102.502087 123.527838 102.632577 
C 123.584014 102.763067 123.638138 102.89443 123.69019 103.026619 
z
" clip-path="url(#pbf2355f030)" style="fill: #4c72b0; stroke: #ffffff; stroke-linejoin: miter"/>
   </g>
   <g id="patch_60">
    <path d="M 111.06 108 
C 111.06 108 111.06 108 111.06 108 
C 111.06 108 111.06 108 111.06 108 
L 128.071062 98.691034 
C 128.168491 98.869073 128.263118 99.048631 128.354909 99.229641 
C 128.446701 99.410652 128.535645 99.593092 128.621709 99.776894 
z
" clip-path="url(#pbf2355f030)" style="fill: #4c72b0; stroke: #ffffff; stroke-linejoin: miter"/>
   </g>
   <g id="patch_61">
    <path d="M 111.06 108 
C 111.06 108 111.06 108 111.06 108 
C 111.06 108 111.06 108 111.06 108 
L 130.322196 95.829196 
C 130.449577 96.030796 130.573785 96.234384 130.694774 96.439883 
C 130.815764 96.645382 130.933519 96.852769 131.047998 97.061965 
z
" clip-path="url(#pbf2355f030)" style="fill: #4c72b0; stroke: #ffffff; stroke-linejoin: miter"/>
   </g>
   <g id="patch_62">
    <path d="M 111.06 108 
C 111.06 108 111.06 108 111.06 108 
C 111.06 108 111.06 108 111.06 108 
L 125.396318 97.628101 
C 125.504871 97.778147 125.611062 97.929887 125.714852 98.083266 
C 125.818641 98.236645 125.920016 98.391644 126.01894 98.548206 
z
" clip-path="url(#pbf2355f030)" style="fill: #4c72b0; stroke: #ffffff; stroke-linejoin: miter"/>
   </g>
   <g id="patch_63">
    <path d="M 111.06 108 
C 111.06 108 111.06 108 111.06 108 
C 111.06 108 111.06 108 111.06 108 
L 125.278437 96.286508 
C 125.401032 96.435319 125.521282 96.586046 125.639145 96.738633 
C 125.757008 96.89122 125.872467 97.045647 125.985482 97.201859 
z
" clip-path="url(#pbf2355f030)" style="fill: #4c72b0; stroke: #ffffff; stroke-linejoin: miter"/>
   </g>
   <g id="patch_64">
    <path d="M 111.06 108 
C 111.06 108 111.06 108 111.06 108 
C 111.06 108 111.06 108 111.06 108 
L 122.390816 97.404068 
C 122.501714 97.522657 122.610744 97.64298 122.717864 97.764993 
C 122.824985 97.887005 122.930183 98.010692 123.033421 98.136007 
z
" clip-path="url(#pbf2355f030)" style="fill: #4c72b0; stroke: #ffffff; stroke-linejoin: miter"/>
   </g>
   <g id="patch_65">
    <path d="M 111.06 108 
C 111.06 108 111.06 108 111.06 108 
C 111.06 108 111.06 108 111.06 108 
L 126.027487 92.128919 
C 126.193595 92.28557 126.357234 92.444819 126.518342 92.606608 
C 126.679451 92.768396 126.83801 92.932704 126.99396 93.099471 
z
" clip-path="url(#pbf2355f030)" style="fill: #4c72b0; stroke: #ffffff; stroke-linejoin: miter"/>
   </g>
   <g id="patch_66">
    <path d="M 111.06 108 
C 111.06 108 111.06 108 111.06 108 
C 111.06 108 111.06 108 111.06 108 
L 124.072545 92.339535 
C 124.236449 92.475726 124.398204 92.614481 124.557752 92.75575 
C 124.7173 92.897019 124.87462 93.040783 125.029654 93.186991 
z
" clip-path="url(#pbf2355f030)" style="fill: #4c72b0; stroke: #ffffff; stroke-linejoin: miter"/>
   </g>
   <g id="patch_67">
    <path d="M 111.06 108 
C 111.06 108 111.06 108 111.06 108 
C 111.06 108 111.06 108 111.06 108 
L 122.635421 92.141176 
C 122.801401 92.262325 122.965469 92.386073 123.127564 92.512373 
C 123.289658 92.638674 123.449761 92.767511 123.607811 92.898838 
z
" clip-path="url(#pbf2355f030)" style="fill: #4c72b0; stroke: #ffffff; stroke-linejoin: miter"/>
   </g>
   <g id="patch_68">
    <path d="M 111.06 108 
C 111.06 108 111.06 108 111.06 108 
C 111.06 108 111.06 108 111.06 108 
L 122.920784 89.402329 
C 123.115429 89.526465 123.308113 89.653649 123.498765 89.783835 
C 123.689417 89.91402 123.878014 90.04719 124.064485 90.183297 
z
" clip-path="url(#pbf2355f030)" style="fill: #4c72b0; stroke: #ffffff; stroke-linejoin: miter"/>
   </g>
   <g id="patch_69">
    <path d="M 111.06 108 
C 111.06 108 111.06 108 111.06 108 
C 111.06 108 111.06 108 111.06 108 
L 123.606429 85.30033 
C 123.844006 85.431642 124.079507 85.566675 124.312845 85.705381 
C 124.546182 85.844087 124.777328 85.986447 125.006196 86.132409 
z
" clip-path="url(#pbf2355f030)" style="fill: #4c72b0; stroke: #ffffff; stroke-linejoin: miter"/>
   </g>
   <g id="patch_70">
    <path d="M 111.06 108 
C 111.06 108 111.06 108 111.06 108 
C 111.06 108 111.06 108 111.06 108 
L 122.779478 83.243211 
C 123.038585 83.365869 123.295751 83.492586 123.550879 83.623317 
C 123.806008 83.754047 124.059069 83.888775 124.309968 84.027451 
z
" clip-path="url(#pbf2355f030)" style="fill: #4c72b0; stroke: #ffffff; stroke-linejoin: miter"/>
   </g>
   <g id="patch_71">
    <path d="M 111.06 108 
C 111.06 108 111.06 108 111.06 108 
C 111.06 108 111.06 108 111.06 108 
L 121.472069 81.881073 
C 121.745432 81.990046 122.017068 82.103305 122.286875 82.220806 
C 122.556683 82.338308 122.824629 82.460038 123.090615 82.585952 
z
" clip-path="url(#pbf2355f030)" style="fill: #4c72b0; stroke: #ffffff; stroke-linejoin: miter"/>
   </g>
   <g id="patch_72">
    <path d="M 111.06 108 
C 111.06 108 111.06 108 111.06 108 
C 111.06 108 111.06 108 111.06 108 
L 119.20886 83.12197 
C 119.469236 83.207257 119.728257 83.296626 119.985827 83.390045 
C 120.243397 83.483463 120.499485 83.58092 120.753995 83.682378 
z
" clip-path="url(#pbf2355f030)" style="fill: #4c72b0; stroke: #ffffff; stroke-linejoin: miter"/>
   </g>
   <g id="patch_73">
    <path d="M 111.06 108 
C 111.06 108 111.06 108 111.06 108 
C 111.06 108 111.06 108 111.06 108 
L 118.422629 79.609401 
C 118.719768 79.686459 119.015678 79.768177 119.310252 79.854525 
C 119.604825 79.940873 119.898024 80.03184 120.189742 80.127392 
z
" clip-path="url(#pbf2355f030)" style="fill: #4c72b0; stroke: #ffffff; stroke-linejoin: miter"/>
   </g>
   <g id="patch_74">
    <path d="M 111.06 108 
C 111.06 108 111.06 108 111.06 108 
C 111.06 108 111.06 108 111.06 108 
L 117.592579 74.205553 
C 117.946275 74.273924 118.298875 74.347843 118.650251 74.427283 
C 119.001626 74.506723 119.351732 74.591675 119.700441 74.682107 
z
" clip-path="url(#pbf2355f030)" style="fill: #4c72b0; stroke: #ffffff; stroke-linejoin: miter"/>
   </g>
   <g id="patch_75">
    <path d="M 111.06 108 
C 111.06 108 111.06 108 111.06 108 
C 111.06 108 111.06 108 111.06 108 
L 115.644838 72.419774 
C 116.017224 72.467759 116.388833 72.521588 116.759529 72.58124 
C 117.130226 72.640891 117.499962 72.706359 117.868603 72.777619 
z
" clip-path="url(#pbf2355f030)" style="fill: #4c72b0; stroke: #ffffff; stroke-linejoin: miter"/>
   </g>
   <g id="patch_76">
    <path d="M 111.06 108 
C 111.06 108 111.06 108 111.06 108 
C 111.06 108 111.06 108 111.06 108 
L 113.814607 65.913379 
C 114.255089 65.942209 114.695092 65.977953 115.134452 66.020596 
C 115.573813 66.06324 116.012477 66.112778 116.450282 66.169194 
z
" clip-path="url(#pbf2355f030)" style="fill: #4c72b0; stroke: #ffffff; stroke-linejoin: miter"/>
   </g>
   <g id="patch_77">
    <path d="M 111.06 108 
C 111.06 108 111.06 108 111.06 108 
C 111.06 108 111.06 108 111.06 108 
L 111.22832 42.311264 
C 111.915825 42.313026 112.603259 42.32558 113.29037 42.348924 
C 113.97748 42.372267 114.664182 42.406396 115.350221 42.451298 
z
" clip-path="url(#pbf2355f030)" style="fill: #4c72b0; stroke: #ffffff; stroke-linejoin: miter"/>
   </g>
   <g id="patch_78">
    <path d="M 111.06 108 
C 111.06 108 111.06 108 111.06 108 
C 111.06 108 111.06 108 111.06 108 
L 107.207895 44.123858 
C 107.876429 44.083541 108.545555 44.053723 109.215024 44.034413 
C 109.884494 44.015103 110.554226 44.006305 111.223972 44.008021 
z
" clip-path="url(#pbf2355f030)" style="fill: #4c72b0; stroke: #ffffff; stroke-linejoin: miter"/>
   </g>
   <g id="patch_79">
    <path d="M 111.06 108 
C 111.06 108 111.06 108 111.06 108 
C 111.06 108 111.06 108 111.06 108 
L 105.289237 61.330868 
C 105.777681 61.270471 106.267042 61.217746 106.757141 61.172711 
C 107.24724 61.127677 107.738016 61.09034 108.229287 61.060714 
z
" clip-path="url(#pbf2355f030)" style="fill: #4c72b0; stroke: #ffffff; stroke-linejoin: miter"/>
   </g>
   <g id="patch_80">
    <path d="M 111.06 108 
C 111.06 108 111.06 108 111.06 108 
C 111.06 108 111.06 108 111.06 108 
L 103.849802 69.646307 
C 104.251215 69.570844 104.653789 69.501688 105.057373 69.438864 
C 105.460958 69.37604 105.865504 69.319556 106.270862 69.269432 
z
" clip-path="url(#pbf2355f030)" style="fill: #4c72b0; stroke: #ffffff; stroke-linejoin: miter"/>
   </g>
   <g id="patch_81">
    <path d="M 111.06 108 
C 111.06 108 111.06 108 111.06 108 
C 111.06 108 111.06 108 111.06 108 
L 101.993969 72.288846 
C 102.367726 72.19396 102.742949 72.104948 103.119499 72.021842 
C 103.49605 71.938736 103.873882 71.861546 104.252857 71.790302 
z
" clip-path="url(#pbf2355f030)" style="fill: #4c72b0; stroke: #ffffff; stroke-linejoin: miter"/>
   </g>
   <g id="patch_82">
    <path d="M 111.06 108 
C 111.06 108 111.06 108 111.06 108 
C 111.06 108 111.06 108 111.06 108 
L 101.701864 78.927292 
C 102.006141 78.829349 102.311938 78.736189 102.61914 78.647846 
C 102.926343 78.559503 103.234913 78.475988 103.544738 78.397333 
z
" clip-path="url(#pbf2355f030)" style="fill: #4c72b0; stroke: #ffffff; stroke-linejoin: miter"/>
   </g>
   <g id="patch_83">
    <path d="M 111.06 108 
C 111.06 108 111.06 108 111.06 108 
C 111.06 108 111.06 108 111.06 108 
L 100.78192 81.828056 
C 101.055838 81.720485 101.331428 81.617221 101.608588 81.518301 
C 101.885748 81.419382 102.164444 81.32482 102.444573 81.23465 
z
" clip-path="url(#pbf2355f030)" style="fill: #4c72b0; stroke: #ffffff; stroke-linejoin: miter"/>
   </g>
   <g id="patch_84">
    <path d="M 111.06 108 
C 111.06 108 111.06 108 111.06 108 
C 111.06 108 111.06 108 111.06 108 
L 98.031315 80.108864 
C 98.323226 79.972504 98.61726 79.840736 98.913308 79.713608 
C 99.209356 79.586479 99.507382 79.464006 99.807275 79.346234 
z
" clip-path="url(#pbf2355f030)" style="fill: #4c72b0; stroke: #ffffff; stroke-linejoin: miter"/>
   </g>
   <g id="patch_85">
    <path d="M 111.06 108 
C 111.06 108 111.06 108 111.06 108 
C 111.06 108 111.06 108 111.06 108 
L 98.513898 85.023586 
C 98.754371 84.892277 98.996891 84.764752 99.241368 84.641057 
C 99.485845 84.517362 99.732249 84.397513 99.980488 84.281553 
z
" clip-path="url(#pbf2355f030)" style="fill: #4c72b0; stroke: #ffffff; stroke-linejoin: miter"/>
   </g>
   <g id="patch_86">
    <path d="M 111.06 108 
C 111.06 108 111.06 108 111.06 108 
C 111.06 108 111.06 108 111.06 108 
L 98.389656 87.906543 
C 98.599956 87.773934 98.812325 87.644635 99.026684 87.518693 
C 99.241043 87.392751 99.457367 87.270182 99.675574 87.151032 
z
" clip-path="url(#pbf2355f030)" style="fill: #4c72b0; stroke: #ffffff; stroke-linejoin: miter"/>
   </g>
   <g id="patch_87">
    <path d="M 111.06 108 
C 111.06 108 111.06 108 111.06 108 
C 111.06 108 111.06 108 111.06 108 
L 99.849806 92.475099 
C 100.012291 92.357772 100.176608 92.243003 100.342696 92.130835 
C 100.508785 92.018666 100.676623 91.909112 100.846151 91.802213 
z
" clip-path="url(#pbf2355f030)" style="fill: #4c72b0; stroke: #ffffff; stroke-linejoin: miter"/>
   </g>
   <g id="patch_88">
    <path d="M 111.06 108 
C 111.06 108 111.06 108 111.06 108 
C 111.06 108 111.06 108 111.06 108 
L 97.358113 91.336927 
C 97.532511 91.193522 97.709148 91.052863 97.887962 90.915004 
C 98.066775 90.777144 98.247741 90.6421 98.430794 90.509921 
z
" clip-path="url(#pbf2355f030)" style="fill: #4c72b0; stroke: #ffffff; stroke-linejoin: miter"/>
   </g>
   <g id="patch_89">
    <path d="M 111.06 108 
C 111.06 108 111.06 108 111.06 108 
C 111.06 108 111.06 108 111.06 108 
L 95.347048 91.166446 
C 95.523229 91.001993 95.701982 90.840316 95.883239 90.681475 
C 96.064496 90.522633 96.248236 90.366647 96.434391 90.213574 
z
" clip-path="url(#pbf2355f030)" style="fill: #4c72b0; stroke: #ffffff; stroke-linejoin: miter"/>
   </g>
   <g id="patch_90">
    <path d="M 111.06 108 
C 111.06 108 111.06 108 111.06 108 
C 111.06 108 111.06 108 111.06 108 
L 96.612156 94.349741 
C 96.755021 94.198529 96.900251 94.049568 97.047792 93.902915 
C 97.195334 93.756262 97.345169 93.611934 97.497241 93.469985 
z
" clip-path="url(#pbf2355f030)" style="fill: #4c72b0; stroke: #ffffff; stroke-linejoin: miter"/>
   </g>
   <g id="patch_91">
    <path d="M 111.06 108 
C 111.06 108 111.06 108 111.06 108 
C 111.06 108 111.06 108 111.06 108 
L 94.666269 94.352816 
C 94.809102 94.181238 94.95462 94.011912 95.102768 93.844902 
C 95.250917 93.677893 95.401678 93.513219 95.554997 93.350942 
z
" clip-path="url(#pbf2355f030)" style="fill: #4c72b0; stroke: #ffffff; stroke-linejoin: miter"/>
   </g>
   <g id="patch_92">
    <path d="M 111.06 108 
C 111.06 108 111.06 108 111.06 108 
C 111.06 108 111.06 108 111.06 108 
L 96.190052 97.125511 
C 96.303865 96.969881 96.420115 96.816047 96.538758 96.664066 
C 96.657401 96.512086 96.778423 96.361977 96.901778 96.213796 
z
" clip-path="url(#pbf2355f030)" style="fill: #4c72b0; stroke: #ffffff; stroke-linejoin: miter"/>
   </g>
   <g id="patch_93">
    <path d="M 111.06 108 
C 111.06 108 111.06 108 111.06 108 
C 111.06 108 111.06 108 111.06 108 
L 97.170948 99.124294 
C 97.263842 98.97893 97.359013 98.835033 97.456424 98.692657 
C 97.553836 98.550281 97.653477 98.409443 97.75531 98.270194 
z
" clip-path="url(#pbf2355f030)" style="fill: #4c72b0; stroke: #ffffff; stroke-linejoin: miter"/>
   </g>
   <g id="patch_94">
    <path d="M 111.06 108 
C 111.06 108 111.06 108 111.06 108 
C 111.06 108 111.06 108 111.06 108 
L 95.793181 99.543581 
C 95.881686 99.383797 95.972695 99.225412 96.066173 99.068485 
C 96.159651 98.911559 96.255587 98.756109 96.353945 98.602194 
z
" clip-path="url(#pbf2355f030)" style="fill: #4c72b0; stroke: #ffffff; stroke-linejoin: miter"/>
   </g>
   <g id="patch_95">
    <path d="M 111.06 108 
C 111.06 108 111.06 108 111.06 108 
C 111.06 108 111.06 108 111.06 108 
L 95.073605 100.41439 
C 95.152997 100.247075 95.23501 100.081017 95.319615 99.916276 
C 95.40422 99.751536 95.491407 99.588134 95.581141 99.426131 
z
" clip-path="url(#pbf2355f030)" style="fill: #4c72b0; stroke: #ffffff; stroke-linejoin: miter"/>
   </g>
   <g id="patch_96">
    <path d="M 111.06 108 
C 111.06 108 111.06 108 111.06 108 
C 111.06 108 111.06 108 111.06 108 
L 96.204654 102.062307 
C 96.266798 101.90683 96.331379 101.752337 96.398374 101.598887 
C 96.465369 101.445437 96.534768 101.293049 96.606547 101.141777 
z
" clip-path="url(#pbf2355f030)" style="fill: #4c72b0; stroke: #ffffff; stroke-linejoin: miter"/>
   </g>
   <g id="patch_97">
    <path d="M 111.06 108 
C 111.06 108 111.06 108 111.06 108 
C 111.06 108 111.06 108 111.06 108 
L 97.012734 103.384558 
C 97.06104 103.237538 97.111651 103.091285 97.164548 102.945854 
C 97.217445 102.800423 97.272622 102.655831 97.330059 102.512132 
z
" clip-path="url(#pbf2355f030)" style="fill: #4c72b0; stroke: #ffffff; stroke-linejoin: miter"/>
   </g>
   <g id="patch_98">
    <path d="M 111.06 108 
C 111.06 108 111.06 108 111.06 108 
C 111.06 108 111.06 108 111.06 108 
L 97.689093 104.519428 
C 97.725521 104.379487 97.764143 104.240126 97.804947 104.101397 
C 97.84575 103.962669 97.888728 103.824589 97.933866 103.68721 
z
" clip-path="url(#pbf2355f030)" style="fill: #4c72b0; stroke: #ffffff; stroke-linejoin: miter"/>
   </g>
   <g id="patch_99">
    <path d="M 111.06 108 
C 111.06 108 111.06 108 111.06 108 
C 111.06 108 111.06 108 111.06 108 
L 90.834513 104.07116 
C 90.875633 103.859478 90.920073 103.648455 90.967818 103.438168 
C 91.015562 103.227881 91.066605 103.018357 91.120928 102.809673 
z
" clip-path="url(#pbf2355f030)" style="fill: #4c72b0; stroke: #ffffff; stroke-linejoin: miter"/>
   </g>
   <g id="patch_100">
    <path d="M 111.06 108 
C 111.06 108 111.06 108 111.06 108 
C 111.06 108 111.06 108 111.06 108 
L 94.233504 105.816111 
C 94.256361 105.640003 94.281981 105.464265 94.310355 105.288961 
C 94.338729 105.113658 94.369854 104.938811 94.403717 104.764485 
z
" clip-path="url(#pbf2355f030)" style="fill: #4c72b0; stroke: #ffffff; stroke-linejoin: miter"/>
   </g>
   <g id="patch_101">
    <path d="M 111.06 108 
C 111.06 108 111.06 108 111.06 108 
C 111.06 108 111.06 108 111.06 108 
L 94.371484 106.892397 
C 94.383076 106.717734 94.39741 106.543263 94.414479 106.369049 
C 94.431549 106.194836 94.451353 106.020901 94.473883 105.847309 
z
" clip-path="url(#pbf2355f030)" style="fill: #4c72b0; stroke: #ffffff; stroke-linejoin: miter"/>
   </g>
   <g id="patch_102">
    <path d="M 111.06 108 
C 111.06 108 111.06 108 111.06 108 
C 111.06 108 111.06 108 111.06 108 
L 94.092477 107.941009 
C 94.093094 107.763425 94.096499 107.585862 94.102691 107.408386 
C 94.108883 107.230909 94.117861 107.05354 94.129621 106.876345 
z
" clip-path="url(#pbf2355f030)" style="fill: #4c72b0; stroke: #ffffff; stroke-linejoin: miter"/>
   </g>
   <g id="patch_103">
    <path d="M 181.815 108 
C 181.815 98.708539 179.984785 89.507425 176.429096 80.923234 
C 172.873408 72.339043 167.661396 64.538715 161.09134 57.96866 
C 154.521285 51.398604 146.720957 46.186592 138.136766 42.630904 
C 129.552575 39.075215 120.351461 37.245 111.06 37.245 
C 101.768539 37.245 92.567425 39.075215 83.983234 42.630904 
C 75.399043 46.186592 67.598715 51.398604 61.02866 57.96866 
C 54.458604 64.538715 49.246592 72.339043 45.690904 80.923234 
C 42.135215 89.507425 40.305 98.708539 40.305 108 
C 40.305 117.291461 42.135215 126.492575 45.690904 135.076766 
C 49.246592 143.660957 54.458604 151.461285 61.02866 158.03134 
C 67.598715 164.601396 75.399043 169.813408 83.983234 173.369096 
C 92.567425 176.924785 101.768539 178.755 111.06 178.755 
C 120.351461 178.755 129.552575 176.924785 138.136766 173.369096 
C 146.720957 169.813408 154.521285 164.601396 161.09134 158.03134 
C 167.661396 151.461285 172.873408 143.660957 176.429096 135.076766 
C 179.984785 126.492575 181.815 117.291461 181.815 108 
" style="fill: none; stroke: #ffffff; stroke-width: 1.25; stroke-linejoin: miter; stroke-linecap: square"/>
   </g>
  </g>
 </g>
 <defs>
  <clipPath id="pbf2355f030">
   <path d="M 181.815 108 
C 181.815 98.708539 179.984785 89.507425 176.429096 80.923234 
C 172.873408 72.339043 167.661396 64.538715 161.09134 57.96866 
C 154.521285 51.398604 146.720957 46.186592 138.136766 42.630904 
C 129.552575 39.075215 120.351461 37.245 111.06 37.245 
C 101.768539 37.245 92.567425 39.075215 83.983234 42.630904 
C 75.399043 46.186592 67.598715 51.398604 61.02866 57.96866 
C 54.458604 64.538715 49.246592 72.339043 45.690904 80.923234 
C 42.135215 89.507425 40.305 98.708539 40.305 108 
C 40.305 117.291461 42.135215 126.492575 45.690904 135.076766 
C 49.246592 143.660957 54.458604 151.461285 61.02866 158.03134 
C 67.598715 164.601396 75.399043 169.813408 83.983234 173.369096 
C 92.567425 176.924785 101.768539 178.755 111.06 178.755 
C 120.351461 178.755 129.552575 176.924785 138.136766 173.369096 
C 146.720957 169.813408 154.521285 164.601396 161.09134 158.03134 
C 167.661396 151.461285 172.873408 143.660957 176.429096 135.076766 
C 179.984785 126.492575 181.815 117.291461 181.815 108 
M 111.06 108 
C 111.06 108 111.06 108 111.06 108 
C 111.06 108 111.06 108 111.06 108 
C 111.06 108 111.06 108 111.06 108 
C 111.06 108 111.06 108 111.06 108 
C 111.06 108 111.06 108 111.06 108 
C 111.06 108 111.06 108 111.06 108 
C 111.06 108 111.06 108 111.06 108 
C 111.06 108 111.06 108 111.06 108 
C 111.06 108 111.06 108 111.06 108 
C 111.06 108 111.06 108 111.06 108 
C 111.06 108 111.06 108 111.06 108 
C 111.06 108 111.06 108 111.06 108 
C 111.06 108 111.06 108 111.06 108 
C 111.06 108 111.06 108 111.06 108 
C 111.06 108 111.06 108 111.06 108 
C 111.06 108 111.06 108 111.06 108 
z
"/>
  </clipPath>
 </defs>
</svg>
