<?xml version="1.0" encoding="utf-8" standalone="no"?>
<!DOCTYPE svg PUBLIC "-//W3C//DTD SVG 1.1//EN"
  "http://www.w3.org/Graphics/SVG/1.1/DTD/svg11.dtd">
<svg xmlns:xlink="http://www.w3.org/1999/xlink" width="216pt" height="216pt" viewBox="0 0 216 216" xmlns="http://www.w3.org/2000/svg" version="1.1">
 <metadata>
  <rdf:RDF xmlns:dc="http://purl.org/dc/elements/1.1/" xmlns:cc="http://creativecommons.org/ns#" xmlns:rdf="http://www.w3.org/1999/02/22-rdf-syntax-ns#">
   <cc:Work>
    <dc:type rdf:resource="http://purl.org/dc/dcmitype/StillImage"/>
    <dc:date>2023-10-28T16:18:37.724034</dc:date>
    <dc:format>image/svg+xml</dc:format>
    <dc:creator>
     <cc:Agent>
      <dc:title>Matplotlib v3.7.0, https://matplotlib.org/</dc:title>
     </cc:Agent>
    </dc:creator>
   </cc:Work>
  </rdf:RDF>
 </metadata>
 <defs>
  <style type="text/css">*{stroke-linejoin: round; stroke-linecap: butt}</style>
 </defs>
 <g id="figure_1">
  <g id="patch_1">
   <path d="M 0 216 
L 216 216 
L 216 0 
L 0 0 
z
" style="fill: #ffffff"/>
  </g>
  <g id="axes_1">
   <g id="patch_2">
    <path d="M 181.815 108 
C 181.815 98.708539 179.984785 89.507425 176.429096 80.923234 
C 172.873408 72.339043 167.661396 64.538715 161.09134 57.96866 
C 154.521285 51.398604 146.720957 46.186592 138.136766 42.630904 
C 129.552575 39.075215 120.351461 37.245 111.06 37.245 
C 101.768539 37.245 92.567425 39.075215 83.983234 42.630904 
C 75.399043 46.186592 67.598715 51.398604 61.02866 57.96866 
C 54.458604 64.538715 49.246592 72.339043 45.690904 80.923234 
C 42.135215 89.507425 40.305 98.708539 40.305 108 
C 40.305 117.291461 42.135215 126.492575 45.690904 135.076766 
C 49.246592 143.660957 54.458604 151.461285 61.02866 158.03134 
C 67.598715 164.601396 75.399043 169.813408 83.983234 173.369096 
C 92.567425 176.924785 101.768539 178.755 111.06 178.755 
C 120.351461 178.755 129.552575 176.924785 138.136766 173.369096 
C 146.720957 169.813408 154.521285 164.601396 161.09134 158.03134 
C 167.661396 151.461285 172.873408 143.660957 176.429096 135.076766 
C 179.984785 126.492575 181.815 117.291461 181.815 108 
M 111.06 108 
C 111.06 108 111.06 108 111.06 108 
C 111.06 108 111.06 108 111.06 108 
C 111.06 108 111.06 108 111.06 108 
C 111.06 108 111.06 108 111.06 108 
C 111.06 108 111.06 108 111.06 108 
C 111.06 108 111.06 108 111.06 108 
C 111.06 108 111.06 108 111.06 108 
C 111.06 108 111.06 108 111.06 108 
C 111.06 108 111.06 108 111.06 108 
C 111.06 108 111.06 108 111.06 108 
C 111.06 108 111.06 108 111.06 108 
C 111.06 108 111.06 108 111.06 108 
C 111.06 108 111.06 108 111.06 108 
C 111.06 108 111.06 108 111.06 108 
C 111.06 108 111.06 108 111.06 108 
C 111.06 108 111.06 108 111.06 108 
z
" style="fill: #eaeaf2"/>
   </g>
   <g id="matplotlib.axis_1">
    <g id="xtick_1">
     <g id="line2d_1">
      <path d="M 111.06 108 
L 181.815 108 
" clip-path="url(#p6acbaa8fc4)" style="fill: none; stroke: #ffffff; stroke-linecap: round"/>
     </g>
     <g id="text_1">
      <!-- 0° -->
      <g style="fill: #262626" transform="translate(193.057344 110.843672) scale(0.11 -0.11)">
       <defs>
        <path id="ArialMT-30" d="M 266 2259 
Q 266 3072 433 3567 
Q 600 4063 929 4331 
Q 1259 4600 1759 4600 
Q 2128 4600 2406 4451 
Q 2684 4303 2865 4023 
Q 3047 3744 3150 3342 
Q 3253 2941 3253 2259 
Q 3253 1453 3087 958 
Q 2922 463 2592 192 
Q 2263 -78 1759 -78 
Q 1097 -78 719 397 
Q 266 969 266 2259 
z
M 844 2259 
Q 844 1131 1108 757 
Q 1372 384 1759 384 
Q 2147 384 2411 759 
Q 2675 1134 2675 2259 
Q 2675 3391 2411 3762 
Q 2147 4134 1753 4134 
Q 1366 4134 1134 3806 
Q 844 3388 844 2259 
z
" transform="scale(0.015625)"/>
        <path id="ArialMT-b0" d="M 400 3794 
Q 400 4153 654 4406 
Q 909 4659 1266 4659 
Q 1628 4659 1881 4406 
Q 2134 4153 2134 3794 
Q 2134 3434 1879 3179 
Q 1625 2925 1266 2925 
Q 909 2925 654 3178 
Q 400 3431 400 3794 
z
M 741 3794 
Q 741 3575 895 3420 
Q 1050 3266 1269 3266 
Q 1484 3266 1639 3420 
Q 1794 3575 1794 3794 
Q 1794 4013 1639 4167 
Q 1484 4322 1269 4322 
Q 1050 4322 895 4167 
Q 741 4013 741 3794 
z
" transform="scale(0.015625)"/>
       </defs>
       <use xlink:href="#ArialMT-30"/>
       <use xlink:href="#ArialMT-b0" x="55.615234"/>
      </g>
     </g>
    </g>
    <g id="xtick_2">
     <g id="line2d_2">
      <path d="M 111.06 108 
L 161.09134 57.96866 
" clip-path="url(#p6acbaa8fc4)" style="fill: none; stroke: #ffffff; stroke-linecap: round"/>
     </g>
     <g id="text_2">
      <!-- 45° -->
      <g style="fill: #262626" transform="translate(164.44243 49.14507) scale(0.11 -0.11)">
       <defs>
        <path id="ArialMT-34" d="M 2069 0 
L 2069 1097 
L 81 1097 
L 81 1613 
L 2172 4581 
L 2631 4581 
L 2631 1613 
L 3250 1613 
L 3250 1097 
L 2631 1097 
L 2631 0 
L 2069 0 
z
M 2069 1613 
L 2069 3678 
L 634 1613 
L 2069 1613 
z
" transform="scale(0.015625)"/>
        <path id="ArialMT-35" d="M 266 1200 
L 856 1250 
Q 922 819 1161 601 
Q 1400 384 1738 384 
Q 2144 384 2425 690 
Q 2706 997 2706 1503 
Q 2706 1984 2436 2262 
Q 2166 2541 1728 2541 
Q 1456 2541 1237 2417 
Q 1019 2294 894 2097 
L 366 2166 
L 809 4519 
L 3088 4519 
L 3088 3981 
L 1259 3981 
L 1013 2750 
Q 1425 3038 1878 3038 
Q 2478 3038 2890 2622 
Q 3303 2206 3303 1553 
Q 3303 931 2941 478 
Q 2500 -78 1738 -78 
Q 1113 -78 717 272 
Q 322 622 266 1200 
z
" transform="scale(0.015625)"/>
       </defs>
       <use xlink:href="#ArialMT-34"/>
       <use xlink:href="#ArialMT-35" x="55.615234"/>
       <use xlink:href="#ArialMT-b0" x="111.230469"/>
      </g>
     </g>
    </g>
    <g id="xtick_3">
     <g id="line2d_3">
      <path d="M 111.06 108 
L 111.06 37.245 
" clip-path="url(#p6acbaa8fc4)" style="fill: none; stroke: #ffffff; stroke-linecap: round"/>
     </g>
     <g id="text_3">
      <!-- 90° -->
      <g style="fill: #262626" transform="translate(102.743828 23.588672) scale(0.11 -0.11)">
       <defs>
        <path id="ArialMT-39" d="M 350 1059 
L 891 1109 
Q 959 728 1153 556 
Q 1347 384 1650 384 
Q 1909 384 2104 503 
Q 2300 622 2425 820 
Q 2550 1019 2634 1356 
Q 2719 1694 2719 2044 
Q 2719 2081 2716 2156 
Q 2547 1888 2255 1720 
Q 1963 1553 1622 1553 
Q 1053 1553 659 1965 
Q 266 2378 266 3053 
Q 266 3750 677 4175 
Q 1088 4600 1706 4600 
Q 2153 4600 2523 4359 
Q 2894 4119 3086 3673 
Q 3278 3228 3278 2384 
Q 3278 1506 3087 986 
Q 2897 466 2520 194 
Q 2144 -78 1638 -78 
Q 1100 -78 759 220 
Q 419 519 350 1059 
z
M 2653 3081 
Q 2653 3566 2395 3850 
Q 2138 4134 1775 4134 
Q 1400 4134 1122 3828 
Q 844 3522 844 3034 
Q 844 2597 1108 2323 
Q 1372 2050 1759 2050 
Q 2150 2050 2401 2323 
Q 2653 2597 2653 3081 
z
" transform="scale(0.015625)"/>
       </defs>
       <use xlink:href="#ArialMT-39"/>
       <use xlink:href="#ArialMT-30" x="55.615234"/>
       <use xlink:href="#ArialMT-b0" x="111.230469"/>
      </g>
     </g>
    </g>
    <g id="xtick_4">
     <g id="line2d_4">
      <path d="M 111.06 108 
L 61.02866 57.96866 
" clip-path="url(#p6acbaa8fc4)" style="fill: none; stroke: #ffffff; stroke-linecap: round"/>
     </g>
     <g id="text_4">
      <!-- 135° -->
      <g style="fill: #262626" transform="translate(37.98671 49.14507) scale(0.11 -0.11)">
       <defs>
        <path id="ArialMT-31" d="M 2384 0 
L 1822 0 
L 1822 3584 
Q 1619 3391 1289 3197 
Q 959 3003 697 2906 
L 697 3450 
Q 1169 3672 1522 3987 
Q 1875 4303 2022 4600 
L 2384 4600 
L 2384 0 
z
" transform="scale(0.015625)"/>
        <path id="ArialMT-33" d="M 269 1209 
L 831 1284 
Q 928 806 1161 595 
Q 1394 384 1728 384 
Q 2125 384 2398 659 
Q 2672 934 2672 1341 
Q 2672 1728 2419 1979 
Q 2166 2231 1775 2231 
Q 1616 2231 1378 2169 
L 1441 2663 
Q 1497 2656 1531 2656 
Q 1891 2656 2178 2843 
Q 2466 3031 2466 3422 
Q 2466 3731 2256 3934 
Q 2047 4138 1716 4138 
Q 1388 4138 1169 3931 
Q 950 3725 888 3313 
L 325 3413 
Q 428 3978 793 4289 
Q 1159 4600 1703 4600 
Q 2078 4600 2393 4439 
Q 2709 4278 2876 4000 
Q 3044 3722 3044 3409 
Q 3044 3113 2884 2869 
Q 2725 2625 2413 2481 
Q 2819 2388 3044 2092 
Q 3269 1797 3269 1353 
Q 3269 753 2831 336 
Q 2394 -81 1725 -81 
Q 1122 -81 723 278 
Q 325 638 269 1209 
z
" transform="scale(0.015625)"/>
       </defs>
       <use xlink:href="#ArialMT-31"/>
       <use xlink:href="#ArialMT-33" x="55.615234"/>
       <use xlink:href="#ArialMT-35" x="111.230469"/>
       <use xlink:href="#ArialMT-b0" x="166.845703"/>
      </g>
     </g>
    </g>
    <g id="xtick_5">
     <g id="line2d_5">
      <path d="M 111.06 108 
L 40.305 108 
" clip-path="url(#p6acbaa8fc4)" style="fill: none; stroke: #ffffff; stroke-linecap: round"/>
     </g>
     <g id="text_5">
      <!-- 180° -->
      <g style="fill: #262626" transform="translate(12.430313 110.843672) scale(0.11 -0.11)">
       <defs>
        <path id="ArialMT-38" d="M 1131 2484 
Q 781 2613 612 2850 
Q 444 3088 444 3419 
Q 444 3919 803 4259 
Q 1163 4600 1759 4600 
Q 2359 4600 2725 4251 
Q 3091 3903 3091 3403 
Q 3091 3084 2923 2848 
Q 2756 2613 2416 2484 
Q 2838 2347 3058 2040 
Q 3278 1734 3278 1309 
Q 3278 722 2862 322 
Q 2447 -78 1769 -78 
Q 1091 -78 675 323 
Q 259 725 259 1325 
Q 259 1772 486 2073 
Q 713 2375 1131 2484 
z
M 1019 3438 
Q 1019 3113 1228 2906 
Q 1438 2700 1772 2700 
Q 2097 2700 2305 2904 
Q 2513 3109 2513 3406 
Q 2513 3716 2298 3927 
Q 2084 4138 1766 4138 
Q 1444 4138 1231 3931 
Q 1019 3725 1019 3438 
z
M 838 1322 
Q 838 1081 952 856 
Q 1066 631 1291 507 
Q 1516 384 1775 384 
Q 2178 384 2440 643 
Q 2703 903 2703 1303 
Q 2703 1709 2433 1975 
Q 2163 2241 1756 2241 
Q 1359 2241 1098 1978 
Q 838 1716 838 1322 
z
" transform="scale(0.015625)"/>
       </defs>
       <use xlink:href="#ArialMT-31"/>
       <use xlink:href="#ArialMT-38" x="55.615234"/>
       <use xlink:href="#ArialMT-30" x="111.230469"/>
       <use xlink:href="#ArialMT-b0" x="166.845703"/>
      </g>
     </g>
    </g>
    <g id="xtick_6">
     <g id="line2d_6">
      <path d="M 111.06 108 
L 61.02866 158.03134 
" clip-path="url(#p6acbaa8fc4)" style="fill: none; stroke: #ffffff; stroke-linecap: round"/>
     </g>
     <g id="text_6">
      <!-- 225° -->
      <g style="fill: #262626" transform="translate(37.98671 172.542274) scale(0.11 -0.11)">
       <defs>
        <path id="ArialMT-32" d="M 3222 541 
L 3222 0 
L 194 0 
Q 188 203 259 391 
Q 375 700 629 1000 
Q 884 1300 1366 1694 
Q 2113 2306 2375 2664 
Q 2638 3022 2638 3341 
Q 2638 3675 2398 3904 
Q 2159 4134 1775 4134 
Q 1369 4134 1125 3890 
Q 881 3647 878 3216 
L 300 3275 
Q 359 3922 746 4261 
Q 1134 4600 1788 4600 
Q 2447 4600 2831 4234 
Q 3216 3869 3216 3328 
Q 3216 3053 3103 2787 
Q 2991 2522 2730 2228 
Q 2469 1934 1863 1422 
Q 1356 997 1212 845 
Q 1069 694 975 541 
L 3222 541 
z
" transform="scale(0.015625)"/>
       </defs>
       <use xlink:href="#ArialMT-32"/>
       <use xlink:href="#ArialMT-32" x="55.615234"/>
       <use xlink:href="#ArialMT-35" x="111.230469"/>
       <use xlink:href="#ArialMT-b0" x="166.845703"/>
      </g>
     </g>
    </g>
    <g id="xtick_7">
     <g id="line2d_7">
      <path d="M 111.06 108 
L 111.06 178.755 
" clip-path="url(#p6acbaa8fc4)" style="fill: none; stroke: #ffffff; stroke-linecap: round"/>
     </g>
     <g id="text_7">
      <!-- 270° -->
      <g style="fill: #262626" transform="translate(99.685312 198.098672) scale(0.11 -0.11)">
       <defs>
        <path id="ArialMT-37" d="M 303 3981 
L 303 4522 
L 3269 4522 
L 3269 4084 
Q 2831 3619 2401 2847 
Q 1972 2075 1738 1259 
Q 1569 684 1522 0 
L 944 0 
Q 953 541 1156 1306 
Q 1359 2072 1739 2783 
Q 2119 3494 2547 3981 
L 303 3981 
z
" transform="scale(0.015625)"/>
       </defs>
       <use xlink:href="#ArialMT-32"/>
       <use xlink:href="#ArialMT-37" x="55.615234"/>
       <use xlink:href="#ArialMT-30" x="111.230469"/>
       <use xlink:href="#ArialMT-b0" x="166.845703"/>
      </g>
     </g>
    </g>
    <g id="xtick_8">
     <g id="line2d_8">
      <path d="M 111.06 108 
L 161.09134 158.03134 
" clip-path="url(#p6acbaa8fc4)" style="fill: none; stroke: #ffffff; stroke-linecap: round"/>
     </g>
     <g id="text_8">
      <!-- 315° -->
      <g style="fill: #262626" transform="translate(161.383915 172.542274) scale(0.11 -0.11)">
       <use xlink:href="#ArialMT-33"/>
       <use xlink:href="#ArialMT-31" x="55.615234"/>
       <use xlink:href="#ArialMT-35" x="111.230469"/>
       <use xlink:href="#ArialMT-b0" x="166.845703"/>
      </g>
     </g>
    </g>
   </g>
   <g id="matplotlib.axis_2">
    <g id="ytick_1">
     <g id="line2d_9">
      <path d="M 125.427956 108 
C 125.427956 106.113217 125.056301 104.244781 124.334261 102.501621 
C 123.61222 100.758461 122.553836 99.174478 121.219679 97.840321 
C 119.885522 96.506164 118.301539 95.44778 116.558379 94.725739 
C 114.815219 94.003699 112.946783 93.632044 111.06 93.632044 
C 109.173217 93.632044 107.304781 94.003699 105.561621 94.725739 
C 103.818461 95.44778 102.234478 96.506164 100.900321 97.840321 
C 99.566164 99.174478 98.50778 100.758461 97.785739 102.501621 
C 97.063699 104.244781 96.692044 106.113217 96.692044 108 
C 96.692044 109.886783 97.063699 111.755219 97.785739 113.498379 
C 98.50778 115.241539 99.566164 116.825522 100.900321 118.159679 
C 102.234478 119.493836 103.818461 120.55222 105.561621 121.274261 
C 107.304781 121.996301 109.173217 122.367956 111.06 122.367956 
C 112.946783 122.367956 114.815219 121.996301 116.558379 121.274261 
C 118.301539 120.55222 119.885522 119.493836 121.219679 118.159679 
C 122.553836 116.825522 123.61222 115.241539 124.334261 113.498379 
C 125.056301 111.755219 125.427956 109.886783 125.427956 108 
" clip-path="url(#p6acbaa8fc4)" style="fill: none; stroke: #ffffff; stroke-linecap: round"/>
     </g>
    </g>
    <g id="ytick_2">
     <g id="line2d_10">
      <path d="M 139.795912 108 
C 139.795912 104.226435 139.052602 100.489562 137.608521 97.003242 
C 136.16444 93.516923 134.047672 90.348955 131.379358 87.680642 
C 128.711045 85.012328 125.543077 82.89556 122.056758 81.451479 
C 118.570438 80.007398 114.833565 79.264088 111.06 79.264088 
C 107.286435 79.264088 103.549562 80.007398 100.063242 81.451479 
C 96.576923 82.89556 93.408955 85.012328 90.740642 87.680642 
C 88.072328 90.348955 85.95556 93.516923 84.511479 97.003242 
C 83.067398 100.489562 82.324088 104.226435 82.324088 108 
C 82.324088 111.773565 83.067398 115.510438 84.511479 118.996758 
C 85.95556 122.483077 88.072328 125.651045 90.740642 128.319358 
C 93.408955 130.987672 96.576923 133.10444 100.063242 134.548521 
C 103.549562 135.992602 107.286435 136.735912 111.06 136.735912 
C 114.833565 136.735912 118.570438 135.992602 122.056758 134.548521 
C 125.543077 133.10444 128.711045 130.987672 131.379358 128.319358 
C 134.047672 125.651045 136.16444 122.483077 137.608521 118.996758 
C 139.052602 115.510438 139.795912 111.773565 139.795912 108 
" clip-path="url(#p6acbaa8fc4)" style="fill: none; stroke: #ffffff; stroke-linecap: round"/>
     </g>
    </g>
    <g id="ytick_3">
     <g id="line2d_11">
      <path d="M 154.163868 108 
C 154.163868 102.339652 153.048903 96.734343 150.882782 91.504864 
C 148.71666 86.275384 145.541508 81.523433 141.539038 77.520962 
C 137.536567 73.518492 132.784616 70.34334 127.555136 68.177218 
C 122.325657 66.011097 116.720348 64.896132 111.06 64.896132 
C 105.399652 64.896132 99.794343 66.011097 94.564864 68.177218 
C 89.335384 70.34334 84.583433 73.518492 80.580962 77.520962 
C 76.578492 81.523433 73.40334 86.275384 71.237218 91.504864 
C 69.071097 96.734343 67.956132 102.339652 67.956132 108 
C 67.956132 113.660348 69.071097 119.265657 71.237218 124.495136 
C 73.40334 129.724616 76.578492 134.476567 80.580962 138.479038 
C 84.583433 142.481508 89.335384 145.65666 94.564864 147.822782 
C 99.794343 149.988903 105.399652 151.103868 111.06 151.103868 
C 116.720348 151.103868 122.325657 149.988903 127.555136 147.822782 
C 132.784616 145.65666 137.536567 142.481508 141.539038 138.479038 
C 145.541508 134.476567 148.71666 129.724616 150.882782 124.495136 
C 153.048903 119.265657 154.163868 113.660348 154.163868 108 
" clip-path="url(#p6acbaa8fc4)" style="fill: none; stroke: #ffffff; stroke-linecap: round"/>
     </g>
    </g>
    <g id="ytick_4">
     <g id="line2d_12">
      <path d="M 168.531825 108 
C 168.531825 100.452869 167.045204 92.979125 164.157042 86.006485 
C 161.26888 79.033845 157.035344 72.697911 151.698717 67.361283 
C 146.362089 62.024656 140.026155 57.79112 133.053515 54.902958 
C 126.080875 52.014796 118.607131 50.528175 111.06 50.528175 
C 103.512869 50.528175 96.039125 52.014796 89.066485 54.902958 
C 82.093845 57.79112 75.757911 62.024656 70.421283 67.361283 
C 65.084656 72.697911 60.85112 79.033845 57.962958 86.006485 
C 55.074796 92.979125 53.588175 100.452869 53.588175 108 
C 53.588175 115.547131 55.074796 123.020875 57.962958 129.993515 
C 60.85112 136.966155 65.084656 143.302089 70.421283 148.638717 
C 75.757911 153.975344 82.093845 158.20888 89.066485 161.097042 
C 96.039125 163.985204 103.512869 165.471825 111.06 165.471825 
C 118.607131 165.471825 126.080875 163.985204 133.053515 161.097042 
C 140.026155 158.20888 146.362089 153.975344 151.698717 148.638717 
C 157.035344 143.302089 161.26888 136.966155 164.157042 129.993515 
C 167.045204 123.020875 168.531825 115.547131 168.531825 108 
" clip-path="url(#p6acbaa8fc4)" style="fill: none; stroke: #ffffff; stroke-linecap: round"/>
     </g>
    </g>
   </g>
   <g id="patch_3">
    <path d="M 111.06 108 
C 111.06 108 111.06 108 111.06 108 
C 111.06 108 111.06 108 111.06 108 
L 102.457697 108.564024 
C 102.451795 108.474001 102.447306 108.383891 102.444232 108.293727 
C 102.441158 108.203563 102.4395 108.113356 102.439257 108.02314 
z
" clip-path="url(#p6acbaa8fc4)" style="fill: #4c72b0; stroke: #ffffff; stroke-linejoin: miter"/>
   </g>
   <g id="patch_4">
    <path d="M 111.06 108 
C 111.06 108 111.06 108 111.06 108 
C 111.06 108 111.06 108 111.06 108 
L 104.50503 108.845392 
C 104.496183 108.776794 104.488414 108.708062 104.481724 108.63922 
C 104.475035 108.570379 104.469426 108.501436 104.464901 108.432418 
z
" clip-path="url(#p6acbaa8fc4)" style="fill: #4c72b0; stroke: #ffffff; stroke-linejoin: miter"/>
   </g>
   <g id="patch_5">
    <path d="M 111.06 108 
C 111.06 108 111.06 108 111.06 108 
C 111.06 108 111.06 108 111.06 108 
L 101.467556 109.855268 
C 101.44814 109.754883 101.430302 109.654199 101.414047 109.553254 
C 101.397792 109.452309 101.383123 109.351116 101.370045 109.24971 
z
" clip-path="url(#p6acbaa8fc4)" style="fill: #4c72b0; stroke: #ffffff; stroke-linejoin: miter"/>
   </g>
   <g id="patch_6">
    <path d="M 111.06 108 
C 111.06 108 111.06 108 111.06 108 
C 111.06 108 111.06 108 111.06 108 
L 104.662531 109.65973 
C 104.645162 109.59278 104.628845 109.525562 104.613586 109.458101 
C 104.598327 109.390639 104.584127 109.322942 104.570994 109.255034 
z
" clip-path="url(#p6acbaa8fc4)" style="fill: #4c72b0; stroke: #ffffff; stroke-linejoin: miter"/>
   </g>
   <g id="patch_7">
    <path d="M 111.06 108 
C 111.06 108 111.06 108 111.06 108 
C 111.06 108 111.06 108 111.06 108 
L 100.68316 111.399983 
C 100.64758 111.291389 100.613706 111.182244 100.581551 111.072587 
C 100.549396 110.96293 100.518965 110.852775 100.490268 110.742162 
z
" clip-path="url(#p6acbaa8fc4)" style="fill: #4c72b0; stroke: #ffffff; stroke-linejoin: miter"/>
   </g>
   <g id="patch_8">
    <path d="M 111.06 108 
C 111.06 108 111.06 108 111.06 108 
C 111.06 108 111.06 108 111.06 108 
L 104.920785 110.447928 
C 104.895167 110.383682 104.87056 110.319036 104.846972 110.254017 
C 104.823383 110.188998 104.800817 110.123612 104.779281 110.057884 
z
" clip-path="url(#p6acbaa8fc4)" style="fill: #4c72b0; stroke: #ffffff; stroke-linejoin: miter"/>
   </g>
   <g id="patch_9">
    <path d="M 111.06 108 
C 111.06 108 111.06 108 111.06 108 
C 111.06 108 111.06 108 111.06 108 
L 104.696907 111.012781 
C 104.665378 110.946191 104.634897 110.879111 104.605474 110.811564 
C 104.576051 110.744017 104.54769 110.676013 104.520401 110.607576 
z
" clip-path="url(#p6acbaa8fc4)" style="fill: #4c72b0; stroke: #ffffff; stroke-linejoin: miter"/>
   </g>
   <g id="patch_10">
    <path d="M 111.06 108 
C 111.06 108 111.06 108 111.06 108 
C 111.06 108 111.06 108 111.06 108 
L 103.892529 111.962212 
C 103.851065 111.887205 103.81078 111.811551 103.771691 111.735278 
C 103.732601 111.659006 103.694711 111.582125 103.658035 111.504664 
z
" clip-path="url(#p6acbaa8fc4)" style="fill: #4c72b0; stroke: #ffffff; stroke-linejoin: miter"/>
   </g>
   <g id="patch_11">
    <path d="M 111.06 108 
C 111.06 108 111.06 108 111.06 108 
C 111.06 108 111.06 108 111.06 108 
L 105.245492 111.708754 
C 105.20668 111.647905 105.168826 111.586451 105.131943 111.524413 
C 105.09506 111.462376 105.059153 111.399764 105.024235 111.3366 
z
" clip-path="url(#p6acbaa8fc4)" style="fill: #4c72b0; stroke: #ffffff; stroke-linejoin: miter"/>
   </g>
   <g id="patch_12">
    <path d="M 111.06 108 
C 111.06 108 111.06 108 111.06 108 
C 111.06 108 111.06 108 111.06 108 
L 102.936595 113.930008 
C 102.874538 113.844997 102.813818 113.759016 102.75446 113.672099 
C 102.695101 113.585181 102.637111 113.497337 102.58051 113.408599 
z
" clip-path="url(#p6acbaa8fc4)" style="fill: #4c72b0; stroke: #ffffff; stroke-linejoin: miter"/>
   </g>
   <g id="patch_13">
    <path d="M 111.06 108 
C 111.06 108 111.06 108 111.06 108 
C 111.06 108 111.06 108 111.06 108 
L 105.092765 112.958778 
C 105.040872 112.896331 104.989962 112.833073 104.940054 112.769028 
C 104.890146 112.704983 104.841246 112.640158 104.793373 112.574578 
z
" clip-path="url(#p6acbaa8fc4)" style="fill: #4c72b0; stroke: #ffffff; stroke-linejoin: miter"/>
   </g>
   <g id="patch_14">
    <path d="M 111.06 108 
C 111.06 108 111.06 108 111.06 108 
C 111.06 108 111.06 108 111.06 108 
L 104.474954 114.210675 
C 104.40996 114.141762 104.346051 114.071834 104.283251 114.000915 
C 104.220451 113.929996 104.158769 113.858096 104.098226 113.785241 
z
" clip-path="url(#p6acbaa8fc4)" style="fill: #4c72b0; stroke: #ffffff; stroke-linejoin: miter"/>
   </g>
   <g id="patch_15">
    <path d="M 111.06 108 
C 111.06 108 111.06 108 111.06 108 
C 111.06 108 111.06 108 111.06 108 
L 106.055228 113.352273 
C 105.999217 113.299898 105.944031 113.246647 105.889691 113.19254 
C 105.835351 113.138432 105.781864 113.083475 105.729249 113.027689 
z
" clip-path="url(#p6acbaa8fc4)" style="fill: #4c72b0; stroke: #ffffff; stroke-linejoin: miter"/>
   </g>
   <g id="patch_16">
    <path d="M 111.06 108 
C 111.06 108 111.06 108 111.06 108 
C 111.06 108 111.06 108 111.06 108 
L 106.400932 113.655763 
C 106.341745 113.607006 106.283326 113.557322 106.225698 113.506731 
C 106.16807 113.45614 106.11124 113.404648 106.055228 113.352273 
z
" clip-path="url(#p6acbaa8fc4)" style="fill: #4c72b0; stroke: #ffffff; stroke-linejoin: miter"/>
   </g>
   <g id="patch_17">
    <path d="M 111.06 108 
C 111.06 108 111.06 108 111.06 108 
C 111.06 108 111.06 108 111.06 108 
L 105.754409 115.333895 
C 105.67766 115.278372 105.601787 115.221648 105.526819 115.163743 
C 105.45185 115.105838 105.377795 115.04676 105.304681 114.986531 
z
" clip-path="url(#p6acbaa8fc4)" style="fill: #4c72b0; stroke: #ffffff; stroke-linejoin: miter"/>
   </g>
   <g id="patch_18">
    <path d="M 111.06 108 
C 111.06 108 111.06 108 111.06 108 
C 111.06 108 111.06 108 111.06 108 
L 106.455284 115.287958 
C 106.379015 115.239769 106.303508 115.190387 106.228789 115.139828 
C 106.154071 115.089269 106.080151 115.037541 106.007056 114.984662 
z
" clip-path="url(#p6acbaa8fc4)" style="fill: #4c72b0; stroke: #ffffff; stroke-linejoin: miter"/>
   </g>
   <g id="patch_19">
    <path d="M 111.06 108 
C 111.06 108 111.06 108 111.06 108 
C 111.06 108 111.06 108 111.06 108 
L 106.231935 116.822952 
C 106.139603 116.772427 106.048069 116.720455 105.957369 116.667056 
C 105.866668 116.613657 105.776811 116.558837 105.687831 116.502617 
z
" clip-path="url(#p6acbaa8fc4)" style="fill: #4c72b0; stroke: #ffffff; stroke-linejoin: miter"/>
   </g>
   <g id="patch_20">
    <path d="M 111.06 108 
C 111.06 108 111.06 108 111.06 108 
C 111.06 108 111.06 108 111.06 108 
L 107.038778 116.588029 
C 106.948904 116.545946 106.859696 116.502456 106.771188 116.457574 
C 106.682679 116.412691 106.59488 116.366422 106.507824 116.318784 
z
" clip-path="url(#p6acbaa8fc4)" style="fill: #4c72b0; stroke: #ffffff; stroke-linejoin: miter"/>
   </g>
   <g id="patch_21">
    <path d="M 111.06 108 
C 111.06 108 111.06 108 111.06 108 
C 111.06 108 111.06 108 111.06 108 
L 108.217292 115.219167 
C 108.141743 115.189418 108.066666 115.158485 107.992089 115.12638 
C 107.917511 115.094274 107.843442 115.061 107.769909 115.026569 
z
" clip-path="url(#p6acbaa8fc4)" style="fill: #4c72b0; stroke: #ffffff; stroke-linejoin: miter"/>
   </g>
   <g id="patch_22">
    <path d="M 111.06 108 
C 111.06 108 111.06 108 111.06 108 
C 111.06 108 111.06 108 111.06 108 
L 107.483817 119.074972 
C 107.367918 119.037547 107.252613 118.998305 107.137945 118.957261 
C 107.023277 118.916216 106.909261 118.873375 106.795938 118.828751 
z
" clip-path="url(#p6acbaa8fc4)" style="fill: #4c72b0; stroke: #ffffff; stroke-linejoin: miter"/>
   </g>
   <g id="patch_23">
    <path d="M 111.06 108 
C 111.06 108 111.06 108 111.06 108 
C 111.06 108 111.06 108 111.06 108 
L 108.221275 119.138315 
C 108.104712 119.108608 107.988623 119.077073 107.873051 119.043721 
C 107.757478 119.01037 107.642436 118.975206 107.527968 118.938244 
z
" clip-path="url(#p6acbaa8fc4)" style="fill: #4c72b0; stroke: #ffffff; stroke-linejoin: miter"/>
   </g>
   <g id="patch_24">
    <path d="M 111.06 108 
C 111.06 108 111.06 108 111.06 108 
C 111.06 108 111.06 108 111.06 108 
L 109.379294 116.89441 
C 109.286214 116.876822 109.193416 116.857773 109.100934 116.837271 
C 109.008452 116.81677 108.916297 116.794818 108.824504 116.771423 
z
" clip-path="url(#p6acbaa8fc4)" style="fill: #4c72b0; stroke: #ffffff; stroke-linejoin: miter"/>
   </g>
   <g id="patch_25">
    <path d="M 111.06 108 
C 111.06 108 111.06 108 111.06 108 
C 111.06 108 111.06 108 111.06 108 
L 109.922941 117.12492 
C 109.827449 117.113021 109.732149 117.099623 109.637078 117.084732 
C 109.542006 117.069842 109.447174 117.053459 109.352616 117.035591 
z
" clip-path="url(#p6acbaa8fc4)" style="fill: #4c72b0; stroke: #ffffff; stroke-linejoin: miter"/>
   </g>
   <g id="patch_26">
    <path d="M 111.06 108 
C 111.06 108 111.06 108 111.06 108 
C 111.06 108 111.06 108 111.06 108 
L 110.515318 116.891465 
C 110.422269 116.885765 110.329315 116.878605 110.23649 116.869987 
C 110.143666 116.861369 110.050983 116.851294 109.958474 116.839766 
z
" clip-path="url(#p6acbaa8fc4)" style="fill: #4c72b0; stroke: #ffffff; stroke-linejoin: miter"/>
   </g>
   <g id="patch_27">
    <path d="M 111.06 108 
C 111.06 108 111.06 108 111.06 108 
C 111.06 108 111.06 108 111.06 108 
L 111.078463 119.49435 
C 110.958174 119.494543 110.83789 119.492848 110.717655 119.489266 
C 110.59742 119.485683 110.477248 119.480213 110.357185 119.472858 
z
" clip-path="url(#p6acbaa8fc4)" style="fill: #4c72b0; stroke: #ffffff; stroke-linejoin: miter"/>
   </g>
   <g id="patch_28">
    <path d="M 111.06 108 
C 111.06 108 111.06 108 111.06 108 
C 111.06 108 111.06 108 111.06 108 
L 111.642488 117.033051 
C 111.547957 117.039147 111.453337 117.043758 111.358661 117.046884 
C 111.263985 117.050009 111.169266 117.051649 111.074539 117.051801 
z
" clip-path="url(#p6acbaa8fc4)" style="fill: #4c72b0; stroke: #ffffff; stroke-linejoin: miter"/>
   </g>
   <g id="patch_29">
    <path d="M 111.06 108 
C 111.06 108 111.06 108 111.06 108 
C 111.06 108 111.06 108 111.06 108 
L 112.60908 120.114121 
C 112.482306 120.130332 112.355285 120.144552 112.228064 120.156776 
C 112.100844 120.169 111.973439 120.179226 111.845897 120.18745 
z
" clip-path="url(#p6acbaa8fc4)" style="fill: #4c72b0; stroke: #ffffff; stroke-linejoin: miter"/>
   </g>
   <g id="patch_30">
    <path d="M 111.06 108 
C 111.06 108 111.06 108 111.06 108 
C 111.06 108 111.06 108 111.06 108 
L 112.904927 117.594439 
C 112.804521 117.613746 112.703818 117.631476 112.602856 117.647622 
C 112.501893 117.663768 112.400684 117.678328 112.299264 117.691297 
z
" clip-path="url(#p6acbaa8fc4)" style="fill: #4c72b0; stroke: #ffffff; stroke-linejoin: miter"/>
   </g>
   <g id="patch_31">
    <path d="M 111.06 108 
C 111.06 108 111.06 108 111.06 108 
C 111.06 108 111.06 108 111.06 108 
L 114.114148 119.82471 
C 113.990402 119.856671 113.866162 119.886688 113.741474 119.91475 
C 113.616786 119.942812 113.491666 119.968914 113.366158 119.993048 
z
" clip-path="url(#p6acbaa8fc4)" style="fill: #4c72b0; stroke: #ffffff; stroke-linejoin: miter"/>
   </g>
   <g id="patch_32">
    <path d="M 111.06 108 
C 111.06 108 111.06 108 111.06 108 
C 111.06 108 111.06 108 111.06 108 
L 114.315027 117.970742 
C 114.210683 118.004806 114.105811 118.03723 114.000449 118.068002 
C 113.895088 118.098773 113.789249 118.127889 113.682974 118.155339 
z
" clip-path="url(#p6acbaa8fc4)" style="fill: #4c72b0; stroke: #ffffff; stroke-linejoin: miter"/>
   </g>
   <g id="patch_33">
    <path d="M 111.06 108 
C 111.06 108 111.06 108 111.06 108 
C 111.06 108 111.06 108 111.06 108 
L 115.093468 118.147405 
C 114.987275 118.189615 114.880426 118.230156 114.772961 118.269012 
C 114.665496 118.307868 114.557427 118.345035 114.448795 118.380499 
z
" clip-path="url(#p6acbaa8fc4)" style="fill: #4c72b0; stroke: #ffffff; stroke-linejoin: miter"/>
   </g>
   <g id="patch_34">
    <path d="M 111.06 108 
C 111.06 108 111.06 108 111.06 108 
C 111.06 108 111.06 108 111.06 108 
L 116.151661 118.783795 
C 116.038808 118.83708 115.925126 118.888589 115.810657 118.938305 
C 115.696187 118.98802 115.580945 119.035936 115.464971 119.082034 
z
" clip-path="url(#p6acbaa8fc4)" style="fill: #4c72b0; stroke: #ffffff; stroke-linejoin: miter"/>
   </g>
   <g id="patch_35">
    <path d="M 111.06 108 
C 111.06 108 111.06 108 111.06 108 
C 111.06 108 111.06 108 111.06 108 
L 117.165168 119.072156 
C 117.049298 119.136047 116.932432 119.198114 116.814613 119.258337 
C 116.696795 119.318559 116.578038 119.376927 116.458387 119.433422 
z
" clip-path="url(#p6acbaa8fc4)" style="fill: #4c72b0; stroke: #ffffff; stroke-linejoin: miter"/>
   </g>
   <g id="patch_36">
    <path d="M 111.06 108 
C 111.06 108 111.06 108 111.06 108 
C 111.06 108 111.06 108 111.06 108 
L 117.539347 118.182379 
C 117.432788 118.250185 117.325172 118.316314 117.216537 118.380743 
C 117.107903 118.445171 116.998264 118.50789 116.88766 118.568876 
z
" clip-path="url(#p6acbaa8fc4)" style="fill: #4c72b0; stroke: #ffffff; stroke-linejoin: miter"/>
   </g>
   <g id="patch_37">
    <path d="M 111.06 108 
C 111.06 108 111.06 108 111.06 108 
C 111.06 108 111.06 108 111.06 108 
L 118.503855 118.22031 
C 118.396899 118.29821 118.288727 118.374427 118.179379 118.448931 
C 118.070031 118.523435 117.95952 118.596218 117.847887 118.667254 
z
" clip-path="url(#p6acbaa8fc4)" style="fill: #4c72b0; stroke: #ffffff; stroke-linejoin: miter"/>
   </g>
   <g id="patch_38">
    <path d="M 111.06 108 
C 111.06 108 111.06 108 111.06 108 
C 111.06 108 111.06 108 111.06 108 
L 120.506136 119.392136 
C 120.386917 119.49099 120.266154 119.587967 120.143891 119.683029 
C 120.021628 119.778092 119.89788 119.87123 119.772693 119.962409 
z
" clip-path="url(#p6acbaa8fc4)" style="fill: #4c72b0; stroke: #ffffff; stroke-linejoin: miter"/>
   </g>
   <g id="patch_39">
    <path d="M 111.06 108 
C 111.06 108 111.06 108 111.06 108 
C 111.06 108 111.06 108 111.06 108 
L 119.33143 116.788982 
C 119.239454 116.875543 119.146124 116.960654 119.051475 117.044285 
C 118.956827 117.127916 118.860871 117.210056 118.763645 117.290674 
z
" clip-path="url(#p6acbaa8fc4)" style="fill: #4c72b0; stroke: #ffffff; stroke-linejoin: miter"/>
   </g>
   <g id="patch_40">
    <path d="M 111.06 108 
C 111.06 108 111.06 108 111.06 108 
C 111.06 108 111.06 108 111.06 108 
L 121.858591 118.119323 
C 121.752692 118.23233 121.645026 118.343668 121.535632 118.453295 
C 121.426238 118.562923 121.31513 118.670826 121.202349 118.776966 
z
" clip-path="url(#p6acbaa8fc4)" style="fill: #4c72b0; stroke: #ffffff; stroke-linejoin: miter"/>
   </g>
   <g id="patch_41">
    <path d="M 111.06 108 
C 111.06 108 111.06 108 111.06 108 
C 111.06 108 111.06 108 111.06 108 
L 122.139877 117.147376 
C 122.04415 117.263327 121.946608 117.377768 121.847288 117.490657 
C 121.747969 117.603546 121.646883 117.714869 121.544069 117.824585 
z
" clip-path="url(#p6acbaa8fc4)" style="fill: #4c72b0; stroke: #ffffff; stroke-linejoin: miter"/>
   </g>
   <g id="patch_42">
    <path d="M 111.06 108 
C 111.06 108 111.06 108 111.06 108 
C 111.06 108 111.06 108 111.06 108 
L 125.251062 118.289622 
C 125.143381 118.438131 125.033376 118.584941 124.921086 118.729998 
C 124.808797 118.875054 124.694237 119.018339 124.57745 119.159799 
z
" clip-path="url(#p6acbaa8fc4)" style="fill: #4c72b0; stroke: #ffffff; stroke-linejoin: miter"/>
   </g>
   <g id="patch_43">
    <path d="M 111.06 108 
C 111.06 108 111.06 108 111.06 108 
C 111.06 108 111.06 108 111.06 108 
L 125.625979 117.225139 
C 125.529438 117.377573 125.43051 117.528481 125.329232 117.677808 
C 125.227954 117.827136 125.124338 117.974864 125.018422 118.120939 
z
" clip-path="url(#p6acbaa8fc4)" style="fill: #4c72b0; stroke: #ffffff; stroke-linejoin: miter"/>
   </g>
   <g id="patch_44">
    <path d="M 111.06 108 
C 111.06 108 111.06 108 111.06 108 
C 111.06 108 111.06 108 111.06 108 
L 129.325324 118.020687 
C 129.220458 118.211833 129.112597 118.401322 129.001783 118.589083 
C 128.890968 118.776844 128.777212 118.962854 128.660559 119.147044 
z
" clip-path="url(#p6acbaa8fc4)" style="fill: #4c72b0; stroke: #ffffff; stroke-linejoin: miter"/>
   </g>
   <g id="patch_45">
    <path d="M 111.06 108 
C 111.06 108 111.06 108 111.06 108 
C 111.06 108 111.06 108 111.06 108 
L 130.828496 117.282312 
C 130.731356 117.489189 130.630975 117.694529 130.52739 117.898256 
C 130.423805 118.101982 130.317028 118.30407 130.207099 118.504444 
z
" clip-path="url(#p6acbaa8fc4)" style="fill: #4c72b0; stroke: #ffffff; stroke-linejoin: miter"/>
   </g>
   <g id="patch_46">
    <path d="M 111.06 108 
C 111.06 108 111.06 108 111.06 108 
C 111.06 108 111.06 108 111.06 108 
L 130.971088 115.865237 
C 130.888778 116.073606 130.803203 116.280671 130.714393 116.486354 
C 130.625583 116.692038 130.53355 116.896314 130.438328 117.099108 
z
" clip-path="url(#p6acbaa8fc4)" style="fill: #4c72b0; stroke: #ffffff; stroke-linejoin: miter"/>
   </g>
   <g id="patch_47">
    <path d="M 111.06 108 
C 111.06 108 111.06 108 111.06 108 
C 111.06 108 111.06 108 111.06 108 
L 132.792179 115.043345 
C 132.718471 115.270772 132.641197 115.497028 132.560385 115.72203 
C 132.479574 115.947032 132.395236 116.170751 132.307402 116.393105 
z
" clip-path="url(#p6acbaa8fc4)" style="fill: #4c72b0; stroke: #ffffff; stroke-linejoin: miter"/>
   </g>
   <g id="patch_48">
    <path d="M 111.06 108 
C 111.06 108 111.06 108 111.06 108 
C 111.06 108 111.06 108 111.06 108 
L 136.531881 114.521045 
C 136.463639 114.787608 136.391216 115.053084 136.314639 115.317374 
C 136.238063 115.581664 136.157343 115.844735 136.072508 116.106491 
z
" clip-path="url(#p6acbaa8fc4)" style="fill: #4c72b0; stroke: #ffffff; stroke-linejoin: miter"/>
   </g>
   <g id="patch_49">
    <path d="M 111.06 108 
C 111.06 108 111.06 108 111.06 108 
C 111.06 108 111.06 108 111.06 108 
L 145.642308 114.573361 
C 145.573517 114.935265 145.49905 115.296067 145.418934 115.655633 
C 145.338818 116.015199 145.253062 116.373486 145.161699 116.73036 
z
" clip-path="url(#p6acbaa8fc4)" style="fill: #4c72b0; stroke: #ffffff; stroke-linejoin: miter"/>
   </g>
   <g id="patch_50">
    <path d="M 111.06 108 
C 111.06 108 111.06 108 111.06 108 
C 111.06 108 111.06 108 111.06 108 
L 147.412199 112.569657 
C 147.364378 112.950083 147.310588 113.329735 147.250848 113.708472 
C 147.191109 114.087209 147.125428 114.464986 147.05383 114.841661 
z
" clip-path="url(#p6acbaa8fc4)" style="fill: #4c72b0; stroke: #ffffff; stroke-linejoin: miter"/>
   </g>
   <g id="patch_51">
    <path d="M 111.06 108 
C 111.06 108 111.06 108 111.06 108 
C 111.06 108 111.06 108 111.06 108 
L 154.367155 110.699812 
C 154.338901 111.153022 154.303535 111.60576 154.261069 112.057859 
C 154.218604 112.509959 154.169044 112.961364 154.112409 113.411907 
z
" clip-path="url(#p6acbaa8fc4)" style="fill: #4c72b0; stroke: #ffffff; stroke-linejoin: miter"/>
   </g>
   <g id="patch_52">
    <path d="M 111.06 108 
C 111.06 108 111.06 108 111.06 108 
C 111.06 108 111.06 108 111.06 108 
L 178.445705 107.964401 
C 178.446077 108.669593 178.43538 109.374747 178.413617 110.079603 
C 178.391854 110.784459 178.359028 111.488929 178.315151 112.192755 
z
" clip-path="url(#p6acbaa8fc4)" style="fill: #4c72b0; stroke: #ffffff; stroke-linejoin: miter"/>
   </g>
   <g id="patch_53">
    <path d="M 111.06 108 
C 111.06 108 111.06 108 111.06 108 
C 111.06 108 111.06 108 111.06 108 
L 172.575017 104.099839 
C 172.615832 104.743594 172.64654 105.38795 172.667128 106.032669 
C 172.687716 106.677388 172.698182 107.32239 172.698523 107.967437 
z
" clip-path="url(#p6acbaa8fc4)" style="fill: #4c72b0; stroke: #ffffff; stroke-linejoin: miter"/>
   </g>
   <g id="patch_54">
    <path d="M 111.06 108 
C 111.06 108 111.06 108 111.06 108 
C 111.06 108 111.06 108 111.06 108 
L 156.244746 102.271545 
C 156.304694 102.744404 156.357216 103.218174 156.402292 103.692682 
C 156.447368 104.167189 156.484993 104.642375 156.515153 105.118063 
z
" clip-path="url(#p6acbaa8fc4)" style="fill: #4c72b0; stroke: #ffffff; stroke-linejoin: miter"/>
   </g>
   <g id="patch_55">
    <path d="M 111.06 108 
C 111.06 108 111.06 108 111.06 108 
C 111.06 108 111.06 108 111.06 108 
L 144.365229 101.632917 
C 144.43186 101.981456 144.493016 102.33102 144.548675 102.681479 
C 144.604333 103.031938 144.654487 103.383249 144.699117 103.735283 
z
" clip-path="url(#p6acbaa8fc4)" style="fill: #4c72b0; stroke: #ffffff; stroke-linejoin: miter"/>
   </g>
   <g id="patch_56">
    <path d="M 111.06 108 
C 111.06 108 111.06 108 111.06 108 
C 111.06 108 111.06 108 111.06 108 
L 141.395328 100.199705 
C 141.476958 100.517165 141.5536 100.835886 141.625225 101.155751 
C 141.69685 101.475616 141.76345 101.796586 141.824999 102.118542 
z
" clip-path="url(#p6acbaa8fc4)" style="fill: #4c72b0; stroke: #ffffff; stroke-linejoin: miter"/>
   </g>
   <g id="patch_57">
    <path d="M 111.06 108 
C 111.06 108 111.06 108 111.06 108 
C 111.06 108 111.06 108 111.06 108 
L 138.250065 99.156012 
C 138.342617 99.440556 138.430698 99.726535 138.514273 100.013844 
C 138.597848 100.301153 138.676908 100.589757 138.751423 100.879547 
z
" clip-path="url(#p6acbaa8fc4)" style="fill: #4c72b0; stroke: #ffffff; stroke-linejoin: miter"/>
   </g>
   <g id="patch_58">
    <path d="M 111.06 108 
C 111.06 108 111.06 108 111.06 108 
C 111.06 108 111.06 108 111.06 108 
L 133.767854 99.002243 
C 133.862016 99.23988 133.952441 99.478982 134.039097 99.719458 
C 134.125753 99.959934 134.208629 100.201756 134.287694 100.444834 
z
" clip-path="url(#p6acbaa8fc4)" style="fill: #4c72b0; stroke: #ffffff; stroke-linejoin: miter"/>
   </g>
   <g id="patch_59">
    <path d="M 111.06 108 
C 111.06 108 111.06 108 111.06 108 
C 111.06 108 111.06 108 111.06 108 
L 128.998799 99.553679 
C 129.08719 99.741409 129.172628 99.930515 129.255083 100.120926 
C 129.337537 100.311338 129.416998 100.503032 129.493435 100.695938 
z
" clip-path="url(#p6acbaa8fc4)" style="fill: #4c72b0; stroke: #ffffff; stroke-linejoin: miter"/>
   </g>
   <g id="patch_60">
    <path d="M 111.06 108 
C 111.06 108 111.06 108 111.06 108 
C 111.06 108 111.06 108 111.06 108 
L 128.05578 98.652433 
C 128.153602 98.830294 128.248627 99.009679 128.340818 99.190523 
C 128.433009 99.371367 128.522356 99.553647 128.608825 99.737295 
z
" clip-path="url(#p6acbaa8fc4)" style="fill: #4c72b0; stroke: #ffffff; stroke-linejoin: miter"/>
   </g>
   <g id="patch_61">
    <path d="M 111.06 108 
C 111.06 108 111.06 108 111.06 108 
C 111.06 108 111.06 108 111.06 108 
L 127.435752 97.60441 
C 127.544542 97.775782 127.650635 97.948852 127.753992 98.123555 
C 127.857349 98.298257 127.957958 98.474572 128.05578 98.652433 
z
" clip-path="url(#p6acbaa8fc4)" style="fill: #4c72b0; stroke: #ffffff; stroke-linejoin: miter"/>
   </g>
   <g id="patch_62">
    <path d="M 111.06 108 
C 111.06 108 111.06 108 111.06 108 
C 111.06 108 111.06 108 111.06 108 
L 126.867417 96.512894 
C 126.987629 96.678319 127.105238 96.84562 127.220199 97.014737 
C 127.335159 97.183853 127.447458 97.354764 127.557054 97.527406 
z
" clip-path="url(#p6acbaa8fc4)" style="fill: #4c72b0; stroke: #ffffff; stroke-linejoin: miter"/>
   </g>
   <g id="patch_63">
    <path d="M 111.06 108 
C 111.06 108 111.06 108 111.06 108 
C 111.06 108 111.06 108 111.06 108 
L 124.344247 97.009107 
C 124.459267 97.148127 124.572097 97.288943 124.682697 97.431505 
C 124.793296 97.574066 124.901651 97.718355 125.007721 97.864318 
z
" clip-path="url(#p6acbaa8fc4)" style="fill: #4c72b0; stroke: #ffffff; stroke-linejoin: miter"/>
   </g>
   <g id="patch_64">
    <path d="M 111.06 108 
C 111.06 108 111.06 108 111.06 108 
C 111.06 108 111.06 108 111.06 108 
L 123.733156 96.098855 
C 123.857701 96.23148 123.980157 96.366052 124.100478 96.50252 
C 124.220799 96.638989 124.338971 96.777338 124.454949 96.917516 
z
" clip-path="url(#p6acbaa8fc4)" style="fill: #4c72b0; stroke: #ffffff; stroke-linejoin: miter"/>
   </g>
   <g id="patch_65">
    <path d="M 111.06 108 
C 111.06 108 111.06 108 111.06 108 
C 111.06 108 111.06 108 111.06 108 
L 121.190957 97.212324 
C 121.30385 97.318344 121.415072 97.42613 121.524581 97.535642 
C 121.634091 97.645154 121.741875 97.756378 121.847893 97.869274 
z
" clip-path="url(#p6acbaa8fc4)" style="fill: #4c72b0; stroke: #ffffff; stroke-linejoin: miter"/>
   </g>
   <g id="patch_66">
    <path d="M 111.06 108 
C 111.06 108 111.06 108 111.06 108 
C 111.06 108 111.06 108 111.06 108 
L 122.600736 94.051787 
C 122.746704 94.172561 122.890767 94.295619 123.032873 94.420915 
C 123.174978 94.546211 123.315107 94.67373 123.453209 94.803425 
z
" clip-path="url(#p6acbaa8fc4)" style="fill: #4c72b0; stroke: #ffffff; stroke-linejoin: miter"/>
   </g>
   <g id="patch_67">
    <path d="M 111.06 108 
C 111.06 108 111.06 108 111.06 108 
C 111.06 108 111.06 108 111.06 108 
L 118.999851 97.074455 
C 119.114187 97.157546 119.227211 97.242426 119.338883 97.329065 
C 119.450554 97.415703 119.560859 97.504089 119.669755 97.59419 
z
" clip-path="url(#p6acbaa8fc4)" style="fill: #4c72b0; stroke: #ffffff; stroke-linejoin: miter"/>
   </g>
   <g id="patch_68">
    <path d="M 111.06 108 
C 111.06 108 111.06 108 111.06 108 
C 111.06 108 111.06 108 111.06 108 
L 118.683689 95.991278 
C 118.809361 96.07106 118.933772 96.15281 119.056877 96.236497 
C 119.179982 96.320184 119.301766 96.405799 119.422183 96.493309 
z
" clip-path="url(#p6acbaa8fc4)" style="fill: #4c72b0; stroke: #ffffff; stroke-linejoin: miter"/>
   </g>
   <g id="patch_69">
    <path d="M 111.06 108 
C 111.06 108 111.06 108 111.06 108 
C 111.06 108 111.06 108 111.06 108 
L 117.153466 96.9214 
C 117.269404 96.985168 117.384333 97.050752 117.498212 97.118128 
C 117.612091 97.185504 117.724905 97.254663 117.836613 97.32558 
z
" clip-path="url(#p6acbaa8fc4)" style="fill: #4c72b0; stroke: #ffffff; stroke-linejoin: miter"/>
   </g>
   <g id="patch_70">
    <path d="M 111.06 108 
C 111.06 108 111.06 108 111.06 108 
C 111.06 108 111.06 108 111.06 108 
L 116.56872 96.300901 
C 116.691151 96.35855 116.81267 96.418117 116.933231 96.47958 
C 117.053792 96.541044 117.173381 96.604396 117.291954 96.669613 
z
" clip-path="url(#p6acbaa8fc4)" style="fill: #4c72b0; stroke: #ffffff; stroke-linejoin: miter"/>
   </g>
   <g id="patch_71">
    <path d="M 111.06 108 
C 111.06 108 111.06 108 111.06 108 
C 111.06 108 111.06 108 111.06 108 
L 115.506191 96.779743 
C 115.623611 96.826273 115.740293 96.874643 115.856195 96.924835 
C 115.972096 96.975027 116.087203 97.027035 116.201472 97.080841 
z
" clip-path="url(#p6acbaa8fc4)" style="fill: #4c72b0; stroke: #ffffff; stroke-linejoin: miter"/>
   </g>
   <g id="patch_72">
    <path d="M 111.06 108 
C 111.06 108 111.06 108 111.06 108 
C 111.06 108 111.06 108 111.06 108 
L 114.748941 96.659499 
C 114.86762 96.698104 114.985685 96.738569 115.103093 96.78088 
C 115.220501 96.823191 115.337238 96.867342 115.45326 96.913318 
z
" clip-path="url(#p6acbaa8fc4)" style="fill: #4c72b0; stroke: #ffffff; stroke-linejoin: miter"/>
   </g>
   <g id="patch_73">
    <path d="M 111.06 108 
C 111.06 108 111.06 108 111.06 108 
C 111.06 108 111.06 108 111.06 108 
L 114.101652 96.17207 
C 114.225432 96.203901 114.348704 96.237673 114.471423 96.273374 
C 114.594142 96.309074 114.716293 96.346699 114.837831 96.386234 
z
" clip-path="url(#p6acbaa8fc4)" style="fill: #4c72b0; stroke: #ffffff; stroke-linejoin: miter"/>
   </g>
   <g id="patch_74">
    <path d="M 111.06 108 
C 111.06 108 111.06 108 111.06 108 
C 111.06 108 111.06 108 111.06 108 
L 113.623307 94.593289 
C 113.763609 94.620114 113.90348 94.64914 114.04287 94.680356 
C 114.18226 94.711571 114.321152 94.744973 114.459494 94.780549 
z
" clip-path="url(#p6acbaa8fc4)" style="fill: #4c72b0; stroke: #ffffff; stroke-linejoin: miter"/>
   </g>
   <g id="patch_75">
    <path d="M 111.06 108 
C 111.06 108 111.06 108 111.06 108 
C 111.06 108 111.06 108 111.06 108 
L 112.361319 97.737246 
C 112.468719 97.750865 112.575899 97.766168 112.682818 97.783151 
C 112.789737 97.800134 112.896384 97.818794 113.002717 97.839124 
z
" clip-path="url(#p6acbaa8fc4)" style="fill: #4c72b0; stroke: #ffffff; stroke-linejoin: miter"/>
   </g>
   <g id="patch_76">
    <path d="M 111.06 108 
C 111.06 108 111.06 108 111.06 108 
C 111.06 108 111.06 108 111.06 108 
L 111.669321 98.392773 
C 111.769861 98.399149 111.870294 98.407103 111.970584 98.416633 
C 112.070874 98.426162 112.171009 98.437265 112.27095 98.449938 
z
" clip-path="url(#p6acbaa8fc4)" style="fill: #4c72b0; stroke: #ffffff; stroke-linejoin: miter"/>
   </g>
   <g id="patch_77">
    <path d="M 111.06 108 
C 111.06 108 111.06 108 111.06 108 
C 111.06 108 111.06 108 111.06 108 
L 111.066081 96.936675 
C 111.181859 96.936739 111.297628 96.93862 111.413347 96.942318 
C 111.529066 96.946016 111.644719 96.95153 111.760265 96.958858 
z
" clip-path="url(#p6acbaa8fc4)" style="fill: #4c72b0; stroke: #ffffff; stroke-linejoin: miter"/>
   </g>
   <g id="patch_78">
    <path d="M 111.06 108 
C 111.06 108 111.06 108 111.06 108 
C 111.06 108 111.06 108 111.06 108 
L 110.43443 97.961904 
C 110.539479 97.955358 110.644624 97.950461 110.749826 97.947215 
C 110.855029 97.943969 110.960276 97.942374 111.065528 97.942432 
z
" clip-path="url(#p6acbaa8fc4)" style="fill: #4c72b0; stroke: #ffffff; stroke-linejoin: miter"/>
   </g>
   <g id="patch_79">
    <path d="M 111.06 108 
C 111.06 108 111.06 108 111.06 108 
C 111.06 108 111.06 108 111.06 108 
L 109.877466 98.59117 
C 109.97593 98.578795 110.074582 98.567966 110.173385 98.558688 
C 110.272188 98.549409 110.371131 98.541682 110.470177 98.53551 
z
" clip-path="url(#p6acbaa8fc4)" style="fill: #4c72b0; stroke: #ffffff; stroke-linejoin: miter"/>
   </g>
   <g id="patch_80">
    <path d="M 111.06 108 
C 111.06 108 111.06 108 111.06 108 
C 111.06 108 111.06 108 111.06 108 
L 109.450378 99.530829 
C 109.539008 99.513984 109.627897 99.498532 109.717012 99.484478 
C 109.806127 99.470423 109.895457 99.457769 109.984969 99.446518 
z
" clip-path="url(#p6acbaa8fc4)" style="fill: #4c72b0; stroke: #ffffff; stroke-linejoin: miter"/>
   </g>
   <g id="patch_81">
    <path d="M 111.06 108 
C 111.06 108 111.06 108 111.06 108 
C 111.06 108 111.06 108 111.06 108 
L 108.316402 97.282264 
C 108.428563 97.253553 108.541168 97.226603 108.654175 97.201426 
C 108.767182 97.176249 108.880577 97.152848 108.994319 97.131231 
z
" clip-path="url(#p6acbaa8fc4)" style="fill: #4c72b0; stroke: #ffffff; stroke-linejoin: miter"/>
   </g>
   <g id="patch_82">
    <path d="M 111.06 108 
C 111.06 108 111.06 108 111.06 108 
C 111.06 108 111.06 108 111.06 108 
L 107.959361 98.432308 
C 108.059487 98.399859 108.160116 98.368985 108.261211 98.339696 
C 108.362306 98.310406 108.463855 98.282706 108.56582 98.256604 
z
" clip-path="url(#p6acbaa8fc4)" style="fill: #4c72b0; stroke: #ffffff; stroke-linejoin: miter"/>
   </g>
   <g id="patch_83">
    <path d="M 111.06 108 
C 111.06 108 111.06 108 111.06 108 
C 111.06 108 111.06 108 111.06 108 
L 107.47069 98.912984 
C 107.565786 98.875422 107.661465 98.839355 107.757693 98.804796 
C 107.853921 98.770237 107.950685 98.737191 108.047951 98.70567 
z
" clip-path="url(#p6acbaa8fc4)" style="fill: #4c72b0; stroke: #ffffff; stroke-linejoin: miter"/>
   </g>
   <g id="patch_84">
    <path d="M 111.06 108 
C 111.06 108 111.06 108 111.06 108 
C 111.06 108 111.06 108 111.06 108 
L 107.151836 99.676339 
C 107.238943 99.63544 107.326687 99.595911 107.415035 99.557767 
C 107.503383 99.519622 107.592324 99.482867 107.681826 99.447514 
z
" clip-path="url(#p6acbaa8fc4)" style="fill: #4c72b0; stroke: #ffffff; stroke-linejoin: miter"/>
   </g>
   <g id="patch_85">
    <path d="M 111.06 108 
C 111.06 108 111.06 108 111.06 108 
C 111.06 108 111.06 108 111.06 108 
L 107.190092 100.945723 
C 107.263916 100.905224 107.33837 100.865887 107.413428 100.827726 
C 107.488485 100.789564 107.564138 100.752584 107.640357 100.716797 
z
" clip-path="url(#p6acbaa8fc4)" style="fill: #4c72b0; stroke: #ffffff; stroke-linejoin: miter"/>
   </g>
   <g id="patch_86">
    <path d="M 111.06 108 
C 111.06 108 111.06 108 111.06 108 
C 111.06 108 111.06 108 111.06 108 
L 106.601333 100.959681 
C 106.67501 100.913021 106.749415 100.867521 106.82452 100.823196 
C 106.899625 100.778872 106.975422 100.73573 107.051881 100.693785 
z
" clip-path="url(#p6acbaa8fc4)" style="fill: #4c72b0; stroke: #ffffff; stroke-linejoin: miter"/>
   </g>
   <g id="patch_87">
    <path d="M 111.06 108 
C 111.06 108 111.06 108 111.06 108 
C 111.06 108 111.06 108 111.06 108 
L 106.758728 102.067579 
C 106.82081 102.022566 106.883596 101.97853 106.947061 101.935488 
C 107.010526 101.892447 107.074663 101.850404 107.139448 101.809375 
z
" clip-path="url(#p6acbaa8fc4)" style="fill: #4c72b0; stroke: #ffffff; stroke-linejoin: miter"/>
   </g>
   <g id="patch_88">
    <path d="M 111.06 108 
C 111.06 108 111.06 108 111.06 108 
C 111.06 108 111.06 108 111.06 108 
L 104.931417 100.576351 
C 105.009105 100.512216 105.087796 100.449304 105.167459 100.387638 
C 105.247123 100.325973 105.327749 100.265561 105.409309 100.206427 
z
" clip-path="url(#p6acbaa8fc4)" style="fill: #4c72b0; stroke: #ffffff; stroke-linejoin: miter"/>
   </g>
   <g id="patch_89">
    <path d="M 111.06 108 
C 111.06 108 111.06 108 111.06 108 
C 111.06 108 111.06 108 111.06 108 
L 103.888217 100.346477 
C 103.968311 100.271424 104.049578 100.197633 104.131989 100.125131 
C 104.214399 100.05263 104.297943 99.981426 104.382588 99.911547 
z
" clip-path="url(#p6acbaa8fc4)" style="fill: #4c72b0; stroke: #ffffff; stroke-linejoin: miter"/>
   </g>
   <g id="patch_90">
    <path d="M 111.06 108 
C 111.06 108 111.06 108 111.06 108 
C 111.06 108 111.06 108 111.06 108 
L 105.514682 102.781003 
C 105.569299 102.722971 105.624824 102.6658 105.681235 102.609511 
C 105.737647 102.553223 105.794938 102.497823 105.853089 102.443332 
z
" clip-path="url(#p6acbaa8fc4)" style="fill: #4c72b0; stroke: #ffffff; stroke-linejoin: miter"/>
   </g>
   <g id="patch_91">
    <path d="M 111.06 108 
C 111.06 108 111.06 108 111.06 108 
C 111.06 108 111.06 108 111.06 108 
L 103.649713 101.855268 
C 103.714017 101.777719 103.779535 101.701185 103.846242 101.625693 
C 103.912949 101.550201 103.980838 101.475761 104.049881 101.4024 
z
" clip-path="url(#p6acbaa8fc4)" style="fill: #4c72b0; stroke: #ffffff; stroke-linejoin: miter"/>
   </g>
   <g id="patch_92">
    <path d="M 111.06 108 
C 111.06 108 111.06 108 111.06 108 
C 111.06 108 111.06 108 111.06 108 
L 106.298339 104.531739 
C 106.334634 104.481908 106.371709 104.43265 106.409551 104.383983 
C 106.447393 104.335316 106.485996 104.287246 106.525346 104.239791 
z
" clip-path="url(#p6acbaa8fc4)" style="fill: #4c72b0; stroke: #ffffff; stroke-linejoin: miter"/>
   </g>
   <g id="patch_93">
    <path d="M 111.06 108 
C 111.06 108 111.06 108 111.06 108 
C 111.06 108 111.06 108 111.06 108 
L 104.635491 103.911703 
C 104.678275 103.844471 104.722112 103.777914 104.766986 103.712058 
C 104.811859 103.646201 104.857763 103.581053 104.904682 103.516638 
z
" clip-path="url(#p6acbaa8fc4)" style="fill: #4c72b0; stroke: #ffffff; stroke-linejoin: miter"/>
   </g>
   <g id="patch_94">
    <path d="M 111.06 108 
C 111.06 108 111.06 108 111.06 108 
C 111.06 108 111.06 108 111.06 108 
L 103.385073 103.767845 
C 103.429363 103.687526 103.47491 103.607909 103.521699 103.52902 
C 103.568488 103.450132 103.616512 103.371983 103.665754 103.294602 
z
" clip-path="url(#p6acbaa8fc4)" style="fill: #4c72b0; stroke: #ffffff; stroke-linejoin: miter"/>
   </g>
   <g id="patch_95">
    <path d="M 111.06 108 
C 111.06 108 111.06 108 111.06 108 
C 111.06 108 111.06 108 111.06 108 
L 103.13464 104.257767 
C 103.173803 104.174828 103.214265 104.092509 103.256011 104.01084 
C 103.297758 103.929171 103.340784 103.848163 103.385073 103.767845 
z
" clip-path="url(#p6acbaa8fc4)" style="fill: #4c72b0; stroke: #ffffff; stroke-linejoin: miter"/>
   </g>
   <g id="patch_96">
    <path d="M 111.06 108 
C 111.06 108 111.06 108 111.06 108 
C 111.06 108 111.06 108 111.06 108 
L 105.185237 105.664709 
C 105.209675 105.60323 105.235078 105.542138 105.261434 105.481456 
C 105.287791 105.420774 105.315099 105.360509 105.343347 105.300684 
z
" clip-path="url(#p6acbaa8fc4)" style="fill: #4c72b0; stroke: #ffffff; stroke-linejoin: miter"/>
   </g>
   <g id="patch_97">
    <path d="M 111.06 108 
C 111.06 108 111.06 108 111.06 108 
C 111.06 108 111.06 108 111.06 108 
L 104.094188 105.725791 
C 104.117987 105.652894 104.14293 105.580375 104.169006 105.50826 
C 104.195082 105.436146 104.222288 105.364446 104.250615 105.293185 
z
" clip-path="url(#p6acbaa8fc4)" style="fill: #4c72b0; stroke: #ffffff; stroke-linejoin: miter"/>
   </g>
   <g id="patch_98">
    <path d="M 111.06 108 
C 111.06 108 111.06 108 111.06 108 
C 111.06 108 111.06 108 111.06 108 
L 102.852306 105.879887 
C 102.874493 105.793993 102.898027 105.708453 102.922899 105.623299 
C 102.947771 105.538144 102.973978 105.453385 103.001511 105.369052 
z
" clip-path="url(#p6acbaa8fc4)" style="fill: #4c72b0; stroke: #ffffff; stroke-linejoin: miter"/>
   </g>
   <g id="patch_99">
    <path d="M 111.06 108 
C 111.06 108 111.06 108 111.06 108 
C 111.06 108 111.06 108 111.06 108 
L 106.403895 107.104568 
C 106.413265 107.055842 106.4234 107.007266 106.434296 106.958858 
C 106.445191 106.91045 106.456846 106.862216 106.469256 106.814174 
z
" clip-path="url(#p6acbaa8fc4)" style="fill: #4c72b0; stroke: #ffffff; stroke-linejoin: miter"/>
   </g>
   <g id="patch_100">
    <path d="M 111.06 108 
C 111.06 108 111.06 108 111.06 108 
C 111.06 108 111.06 108 111.06 108 
L 103.221473 106.997486 
C 103.231964 106.915456 103.243742 106.833596 103.256803 106.751935 
C 103.269864 106.670275 103.284206 106.588824 103.299824 106.507614 
z
" clip-path="url(#p6acbaa8fc4)" style="fill: #4c72b0; stroke: #ffffff; stroke-linejoin: miter"/>
   </g>
   <g id="patch_101">
    <path d="M 111.06 108 
C 111.06 108 111.06 108 111.06 108 
C 111.06 108 111.06 108 111.06 108 
L 103.604158 107.519057 
C 103.609192 107.441031 103.615449 107.36309 103.622929 107.285261 
C 103.630409 107.207432 103.63911 107.129725 103.649029 107.052169 
z
" clip-path="url(#p6acbaa8fc4)" style="fill: #4c72b0; stroke: #ffffff; stroke-linejoin: miter"/>
   </g>
   <g id="patch_102">
    <path d="M 111.06 108 
C 111.06 108 111.06 108 111.06 108 
C 111.06 108 111.06 108 111.06 108 
L 102.295558 107.985735 
C 102.295708 107.894015 102.297297 107.802303 102.300325 107.710633 
C 102.303353 107.618963 102.30782 107.527346 102.313724 107.435816 
z
" clip-path="url(#p6acbaa8fc4)" style="fill: #4c72b0; stroke: #ffffff; stroke-linejoin: miter"/>
   </g>
   <g id="patch_103">
    <path d="M 181.815 108 
C 181.815 98.708539 179.984785 89.507425 176.429096 80.923234 
C 172.873408 72.339043 167.661396 64.538715 161.09134 57.96866 
C 154.521285 51.398604 146.720957 46.186592 138.136766 42.630904 
C 129.552575 39.075215 120.351461 37.245 111.06 37.245 
C 101.768539 37.245 92.567425 39.075215 83.983234 42.630904 
C 75.399043 46.186592 67.598715 51.398604 61.02866 57.96866 
C 54.458604 64.538715 49.246592 72.339043 45.690904 80.923234 
C 42.135215 89.507425 40.305 98.708539 40.305 108 
C 40.305 117.291461 42.135215 126.492575 45.690904 135.076766 
C 49.246592 143.660957 54.458604 151.461285 61.02866 158.03134 
C 67.598715 164.601396 75.399043 169.813408 83.983234 173.369096 
C 92.567425 176.924785 101.768539 178.755 111.06 178.755 
C 120.351461 178.755 129.552575 176.924785 138.136766 173.369096 
C 146.720957 169.813408 154.521285 164.601396 161.09134 158.03134 
C 167.661396 151.461285 172.873408 143.660957 176.429096 135.076766 
C 179.984785 126.492575 181.815 117.291461 181.815 108 
" style="fill: none; stroke: #ffffff; stroke-width: 1.25; stroke-linejoin: miter; stroke-linecap: square"/>
   </g>
  </g>
 </g>
 <defs>
  <clipPath id="p6acbaa8fc4">
   <path d="M 181.815 108 
C 181.815 98.708539 179.984785 89.507425 176.429096 80.923234 
C 172.873408 72.339043 167.661396 64.538715 161.09134 57.96866 
C 154.521285 51.398604 146.720957 46.186592 138.136766 42.630904 
C 129.552575 39.075215 120.351461 37.245 111.06 37.245 
C 101.768539 37.245 92.567425 39.075215 83.983234 42.630904 
C 75.399043 46.186592 67.598715 51.398604 61.02866 57.96866 
C 54.458604 64.538715 49.246592 72.339043 45.690904 80.923234 
C 42.135215 89.507425 40.305 98.708539 40.305 108 
C 40.305 117.291461 42.135215 126.492575 45.690904 135.076766 
C 49.246592 143.660957 54.458604 151.461285 61.02866 158.03134 
C 67.598715 164.601396 75.399043 169.813408 83.983234 173.369096 
C 92.567425 176.924785 101.768539 178.755 111.06 178.755 
C 120.351461 178.755 129.552575 176.924785 138.136766 173.369096 
C 146.720957 169.813408 154.521285 164.601396 161.09134 158.03134 
C 167.661396 151.461285 172.873408 143.660957 176.429096 135.076766 
C 179.984785 126.492575 181.815 117.291461 181.815 108 
M 111.06 108 
C 111.06 108 111.06 108 111.06 108 
C 111.06 108 111.06 108 111.06 108 
C 111.06 108 111.06 108 111.06 108 
C 111.06 108 111.06 108 111.06 108 
C 111.06 108 111.06 108 111.06 108 
C 111.06 108 111.06 108 111.06 108 
C 111.06 108 111.06 108 111.06 108 
C 111.06 108 111.06 108 111.06 108 
C 111.06 108 111.06 108 111.06 108 
C 111.06 108 111.06 108 111.06 108 
C 111.06 108 111.06 108 111.06 108 
C 111.06 108 111.06 108 111.06 108 
C 111.06 108 111.06 108 111.06 108 
C 111.06 108 111.06 108 111.06 108 
C 111.06 108 111.06 108 111.06 108 
C 111.06 108 111.06 108 111.06 108 
z
"/>
  </clipPath>
 </defs>
</svg>
