<?xml version="1.0" standalone="no" ?>
<!DOCTYPE svg PUBLIC "-//W3C//DTD SVG 1.1//EN" "http://www.w3.org/Graphics/SVG/1.1/DTD/svg11.dtd">
<svg width="617px" height="170px" viewBox="0 0 617 170" style="background-color: #ffffff00" xmlns="http://www.w3.org/2000/svg" xmlns:xlink="http://www.w3.org/1999/xlink" version="1.1" >
<path stroke="none" fill="#ff0000" transform="matrix(0.1 0 0 0.1 -164.89 -580.3)" d="M 2749.12,6459.95 L 2749.12,6483.05 L 2234.5,6780.16 L 2224.5,6762.84 L 2749.12,6459.95 Z " />
<path stroke="none" fill="#ff0000" transform="matrix(0.1 0 0 0.1 -164.89 -580.3)" d="M 2744.12,6545.98 L 2754.12,6563.3 L 2270.5,6842.51 L 2260.5,6825.19 L 2744.12,6545.98 Z " />
<path stroke="none" fill="#ff0000" transform="matrix(0.1 0 0 0.1 -164.89 -580.3)" d="M 3268.73,6759.95 L 3268.73,6783.05 L 2749.12,6483.05 L 2749.12,6459.95 L 3268.73,6759.95 Z " />
<path stroke="none" fill="#ff0000" transform="matrix(0.1 0 0 0.1 -164.89 -580.3)" d="M 3788.35,6459.95 L 3788.35,6483.05 L 3268.73,6783.05 L 3268.73,6759.95 L 3788.35,6459.95 Z " />
<path stroke="none" fill="#ff0000" transform="matrix(0.1 0 0 0.1 -164.89 -580.3)" d="M 3747.35,6400.48 L 3757.35,6417.81 L 3273.73,6697.02 L 3263.73,6679.7 L 3747.35,6400.48 Z " />
<path stroke="none" fill="#ff0000" transform="matrix(0.1 0 0 0.1 -164.89 -580.3)" d="M 4312.96,6762.84 L 4302.96,6780.16 L 3788.35,6483.05 L 3788.35,6459.95 L 4312.96,6762.84 Z " />
<path stroke="none" fill="#0000ff" transform="matrix(0.1 0 0 0.1 -164.89 -580.3)" d="M 5814.12,6116.95 L 5814.12,6140.05 L 5299.5,6437.16 L 5289.5,6419.84 L 5814.12,6116.95 Z " />
<path stroke="none" fill="#0000ff" transform="matrix(0.1 0 0 0.1 -164.89 -580.3)" d="M 5809.12,6202.98 L 5819.12,6220.3 L 5335.5,6499.52 L 5325.5,6482.19 L 5809.12,6202.98 Z " />
<path stroke="none" fill="#0000ff" transform="matrix(0.1 0 0 0.1 -164.89 -580.3)" d="M 6343.73,6422.73 L 6323.73,6434.27 L 5814.12,6140.05 L 5814.12,6116.95 L 6343.73,6422.73 Z " />
<path stroke="none" fill="#0000ff" transform="matrix(0.1 0 0 0.1 -164.89 -580.3)" d="M 6830.35,6088.66 L 6840.35,6105.98 L 6302.73,6416.38 L 6292.73,6399.06 L 6830.35,6088.66 Z " />
<path stroke="none" fill="#0000ff" transform="matrix(0.1 0 0 0.1 -164.89 -580.3)" d="M 6866.35,6151.02 L 6876.35,6168.34 L 6338.73,6478.73 L 6328.73,6461.41 L 6866.35,6151.02 Z " />
<path stroke="none" fill="#0000ff" transform="matrix(0.1 0 0 0.1 -164.89 -580.3)" d="M 6343.73,7028.5 L 6323.73,7028.5 L 6323.73,6434.27 L 6343.73,6422.73 L 6343.73,7028.5 Z " />
<path stroke="#ff0000" stroke-width="16" fill="none" transform="matrix(0.1 0 0 0.1 -164.89 -580.3)" d="M 4397.46,6666.33 A 75,75 0 1 0 4547.46,6666.33A 75,75 0 1 0 4397.46,6666.33Z " />
<path stroke="none" fill="#ff0000" transform="matrix(0.1 0 0 0.1 -164.89 -580.3)" d="M 4428.79,6658 L 4515.46,6658 L 4515.46,6674 L 4428.79,6674 Z " />
<path stroke="none" fill="#ff0000" transform="matrix(0.1 0 0 0.1 -164.89 -580.3)" d="M 4480.13,6622.67 L 4480.13,6709.33 L 4464.13,6709.33 L 4464.13,6622.67 Z " />
<path stroke="#0000ff" stroke-width="16" fill="none" transform="matrix(0.1 0 0 0.1 -164.89 -580.3)" d="M 6433.56,7068 A 75,75 0 1 0 6583.56,7068A 75,75 0 1 0 6433.56,7068Z " />
<path stroke="none" fill="#0000ff" transform="matrix(0.1 0 0 0.1 -164.89 -580.3)" d="M 6464.9,7059.67 L 6551.56,7059.67 L 6551.56,7075.67 L 6464.9,7075.67 Z " />
<path stroke="none" fill="#0000ff" transform="matrix(0.1 0 0 0.1 -164.89 -580.3)" d="M 6516.23,7024.33 L 6516.23,7111 L 6500.23,7111 L 6500.23,7024.33 Z " />
<clipPath id="1" >
<path transform="matrix(0.1 0 0 0.1 -187 -502)" clip-rule="evenodd" d="M 1929.6,6467 C 1929.6,6467 1929.6,5196 1929.6,5196 C 1929.6,5129.76 1983.36,5076 2049.6,5076 C 2049.6,5076 7781.18,5076 7781.18,5076 C 7847.41,5076 7901.18,5129.76 7901.18,5196 C 7901.18,5196 7901.18,6467 7901.18,6467 C 7901.18,6533.24 7847.41,6587 7781.18,6587 C 7781.18,6587 2049.6,6587 2049.6,6587 C 1983.36,6587 1929.6,6533.24 1929.6,6467 M 2009.6,6547 C 2009.6,6547 2009.6,5276 2009.6,5276 C 2009.6,5209.76 2063.36,5156 2129.6,5156 C 2129.6,5156 7861.18,5156 7861.18,5156 C 7927.41,5156 7981.18,5209.76 7981.18,5276 C 7981.18,5276 7981.18,6547 7981.18,6547 C 7981.18,6613.24 7927.41,6667 7861.18,6667 C 7861.18,6667 2129.6,6667 2129.6,6667 C 2063.36,6667 2009.6,6613.24 2009.6,6547 " />
</clipPath>
<g clip-path="url(#1)" >
<path stroke="none" fill="#000000" transform="matrix(0.1 0 0 0.1 -186.9 -501.9)" fill-opacity="0.247059" d="M 2009.6,6547 C 2009.6,6547 2009.6,5276 2009.6,5276 C 2009.6,5209.76 2063.36,5156 2129.6,5156 C 2129.6,5156 7861.18,5156 7861.18,5156 C 7927.41,5156 7981.18,5209.76 7981.18,5276 C 7981.18,5276 7981.18,6547 7981.18,6547 C 7981.18,6613.24 7927.41,6667 7861.18,6667 C 7861.18,6667 2129.6,6667 2129.6,6667 C 2063.36,6667 2009.6,6613.24 2009.6,6547 " />
</g>
<path stroke="#000000" stroke-width="20" fill="none" transform="matrix(0.1 0 0 0.1 -164.89 -580.3)" d="M 1708.5,7250 C 1708.5,7250 1708.5,5979 1708.5,5979 C 1708.5,5912.76 1762.26,5859 1828.5,5859 C 1828.5,5859 7560.08,5859 7560.08,5859 C 7626.31,5859 7680.08,5912.76 7680.08,5979 C 7680.08,5979 7680.08,7250 7680.08,7250 C 7680.08,7316.24 7626.31,7370 7560.08,7370 C 7560.08,7370 1828.5,7370 1828.5,7370 C 1762.26,7370 1708.5,7316.24 1708.5,7250 " />
</svg>
