<?xml version="1.0" standalone="no" ?>
<!DOCTYPE svg PUBLIC "-//W3C//DTD SVG 1.1//EN" "http://www.w3.org/Graphics/SVG/1.1/DTD/svg11.dtd">
<svg width="607px" height="171px" viewBox="0 0 607 171" style="background-color: #ffffff00" xmlns="http://www.w3.org/2000/svg" xmlns:xlink="http://www.w3.org/1999/xlink" version="1.1" >
<path stroke="none" fill="#ff0000" transform="matrix(0.1 0 0 0.1 -164.89 -578.3)" d="M 2749.51,6472.69 L 2749.51,6505.43 L 2237.15,6801.24 L 2222.97,6776.69 L 2749.51,6472.69 Z " />
<path stroke="none" fill="#ff0000" transform="matrix(0.1 0 0 0.1 -164.89 -578.3)" d="M 2742.42,6559.9 L 2756.6,6584.45 L 2273.13,6863.57 L 2258.96,6839.03 L 2742.42,6559.9 Z " />
<path stroke="none" fill="#ff0000" transform="matrix(0.1 0 0 0.1 -164.89 -578.3)" d="M 3268.96,6772.6 L 3268.96,6805.33 L 2749.51,6505.43 L 2749.51,6472.69 L 3268.96,6772.6 Z " />
<path stroke="none" fill="#ff0000" transform="matrix(0.1 0 0 0.1 -164.89 -578.3)" d="M 3788.41,6472.69 L 3788.41,6505.43 L 3268.96,6805.33 L 3268.96,6772.6 L 3788.41,6472.69 Z " />
<path stroke="none" fill="#ff0000" transform="matrix(0.1 0 0 0.1 -164.89 -578.3)" d="M 3745.34,6414.45 L 3759.51,6439 L 3276.05,6718.13 L 3261.88,6693.58 L 3745.34,6414.45 Z " />
<path stroke="none" fill="#ff0000" transform="matrix(0.1 0 0 0.1 -164.89 -578.3)" d="M 4314.95,6776.69 L 4300.78,6801.24 L 3788.41,6505.43 L 3788.41,6472.69 L 4314.95,6776.69 Z " />
<path stroke="none" fill="#0000ff" transform="matrix(0.1 0 0 0.1 -164.89 -578.3)" d="M 5813.55,6115.75 L 5813.55,6148.48 L 5301.18,6444.29 L 5287.01,6419.74 L 5813.55,6115.75 Z " />
<path stroke="none" fill="#0000ff" transform="matrix(0.1 0 0 0.1 -164.89 -578.3)" d="M 5806.46,6202.95 L 5820.63,6227.5 L 5337.17,6506.63 L 5323,6482.08 L 5806.46,6202.95 Z " />
<path stroke="none" fill="#0000ff" transform="matrix(0.1 0 0 0.1 -164.89 -578.3)" d="M 6347.17,6423.84 L 6318.82,6440.2 L 5813.55,6148.48 L 5813.55,6115.75 L 6347.17,6423.84 Z " />
<path stroke="none" fill="#0000ff" transform="matrix(0.1 0 0 0.1 -164.89 -578.3)" d="M 6827.37,6088.67 L 6841.54,6113.22 L 6304.09,6423.51 L 6289.92,6398.97 L 6827.37,6088.67 Z " />
<path stroke="none" fill="#0000ff" transform="matrix(0.1 0 0 0.1 -164.89 -578.3)" d="M 6863.36,6151.01 L 6877.53,6175.55 L 6340.08,6485.85 L 6325.91,6461.3 L 6863.36,6151.01 Z " />
<path stroke="none" fill="#0000ff" transform="matrix(0.1 0 0 0.1 -164.89 -578.3)" d="M 6347.17,7031.83 L 6318.82,7031.83 L 6318.82,6440.2 L 6347.17,6423.84 L 6347.17,7031.83 Z " />
<path stroke="#ff0000" stroke-width="23" fill="none" transform="matrix(0.1 0 0 0.1 -164.89 -578.3)" d="M 4412.37,6708.8 A 78.3386,78.3386 0 1 0 4569.05,6708.8A 78.3386,78.3386 0 1 0 4412.37,6708.8Z " />
<path stroke="none" fill="#ff0000" transform="matrix(0.1 0 0 0.1 -164.89 -578.3)" d="M 4442.87,6696.97 L 4537.89,6696.97 L 4537.89,6719.97 L 4442.87,6719.97 Z " />
<path stroke="none" fill="#ff0000" transform="matrix(0.1 0 0 0.1 -164.89 -578.3)" d="M 4501.88,6660.96 L 4501.88,6755.97 L 4478.88,6755.97 L 4478.88,6660.96 Z " />
<path stroke="#0000ff" stroke-width="23" fill="none" transform="matrix(0.1 0 0 0.1 -164.89 -578.3)" d="M 6419.49,7094.68 A 78.3386,78.3386 0 1 0 6576.17,7094.68A 78.3386,78.3386 0 1 0 6419.49,7094.68Z " />
<path stroke="none" fill="#0000ff" transform="matrix(0.1 0 0 0.1 -164.89 -578.3)" d="M 6449.99,7082.84 L 6545,7082.84 L 6545,7105.84 L 6449.99,7105.84 Z " />
<path stroke="none" fill="#0000ff" transform="matrix(0.1 0 0 0.1 -164.89 -578.3)" d="M 6509,7046.84 L 6509,7141.85 L 6486,7141.85 L 6486,7046.84 Z " />
<clipPath id="1" >
<path transform="matrix(0.1 0 0 0.1 -187 -500)" clip-rule="evenodd" d="M 1929.6,6451.51 C 1929.6,6451.51 1929.6,5180.51 1929.6,5180.51 C 1929.6,5114.28 1983.36,5060.51 2049.6,5060.51 C 2049.6,5060.51 7679.43,5060.51 7679.43,5060.51 C 7745.67,5060.51 7799.43,5114.28 7799.43,5180.51 C 7799.43,5180.51 7799.43,6451.51 7799.43,6451.51 C 7799.43,6517.75 7745.67,6571.51 7679.43,6571.51 C 7679.43,6571.51 2049.6,6571.51 2049.6,6571.51 C 1983.36,6571.51 1929.6,6517.75 1929.6,6451.51 M 2009.6,6531.51 C 2009.6,6531.51 2009.6,5260.51 2009.6,5260.51 C 2009.6,5194.28 2063.36,5140.51 2129.6,5140.51 C 2129.6,5140.51 7759.43,5140.51 7759.43,5140.51 C 7825.67,5140.51 7879.43,5194.28 7879.43,5260.51 C 7879.43,5260.51 7879.43,6531.51 7879.43,6531.51 C 7879.43,6597.75 7825.67,6651.51 7759.43,6651.51 C 7759.43,6651.51 2129.6,6651.51 2129.6,6651.51 C 2063.36,6651.51 2009.6,6597.75 2009.6,6531.51 " />
</clipPath>
<g clip-path="url(#1)" >
<path stroke="none" fill="#000000" transform="matrix(0.1 0 0 0.1 -186.9 -499.9)" fill-opacity="0.247059" d="M 2009.6,6531.51 C 2009.6,6531.51 2009.6,5260.51 2009.6,5260.51 C 2009.6,5194.28 2063.36,5140.51 2129.6,5140.51 C 2129.6,5140.51 7759.43,5140.51 7759.43,5140.51 C 7825.67,5140.51 7879.43,5194.28 7879.43,5260.51 C 7879.43,5260.51 7879.43,6531.51 7879.43,6531.51 C 7879.43,6597.75 7825.67,6651.51 7759.43,6651.51 C 7759.43,6651.51 2129.6,6651.51 2129.6,6651.51 C 2063.36,6651.51 2009.6,6597.75 2009.6,6531.51 " />
</g>
<path stroke="#000000" stroke-width="20" fill="none" transform="matrix(0.1 0 0 0.1 -164.89 -578.3)" d="M 1708.5,7234.51 C 1708.5,7234.51 1708.5,5963.51 1708.5,5963.51 C 1708.5,5897.28 1762.26,5843.51 1828.5,5843.51 C 1828.5,5843.51 7458.33,5843.51 7458.33,5843.51 C 7524.57,5843.51 7578.33,5897.28 7578.33,5963.51 C 7578.33,5963.51 7578.33,7234.51 7578.33,7234.51 C 7578.33,7300.75 7524.57,7354.51 7458.33,7354.51 C 7458.33,7354.51 1828.5,7354.51 1828.5,7354.51 C 1762.26,7354.51 1708.5,7300.75 1708.5,7234.51 " />
</svg>
