<?xml version="1.0" encoding="utf-8" standalone="no"?>
<!DOCTYPE svg PUBLIC "-//W3C//DTD SVG 1.1//EN"
  "http://www.w3.org/Graphics/SVG/1.1/DTD/svg11.dtd">
<svg xmlns:xlink="http://www.w3.org/1999/xlink" width="600px" height="338.44px" viewBox="0 0 1843.2 1039.68" xmlns="http://www.w3.org/2000/svg" version="1.1">
 <metadata>
  <rdf:RDF xmlns:dc="http://purl.org/dc/elements/1.1/" xmlns:cc="http://creativecommons.org/ns#" xmlns:rdf="http://www.w3.org/1999/02/22-rdf-syntax-ns#">
   <cc:Work>
    <dc:type rdf:resource="http://purl.org/dc/dcmitype/StillImage"/>
    <dc:date>2023-07-27T20:17:57.335193</dc:date>
    <dc:format>image/svg+xml</dc:format>
    <dc:creator>
     <cc:Agent>
      <dc:title>Matplotlib v3.7.0, https://matplotlib.org/</dc:title>
     </cc:Agent>
    </dc:creator>
   </cc:Work>
  </rdf:RDF>
 </metadata>
 <defs>
  <style type="text/css">*{stroke-linejoin: round; stroke-linecap: butt}</style>
 </defs>
 <g id="figure_1">
  <g id="patch_1">
   <path d="M 0 1039.68 
L 1843.2 1039.68 
L 1843.2 0 
L 0 0 
z
" style="fill: #ffffff"/>
  </g>
  <g id="axes_1">
   <g id="line2d_1">
    <path d="M 744.095666 441.6474 
L 744.095666 608.4294 
M 744.095666 608.4294 
L 744.095666 441.6474 
M 888.533122 691.8204 
L 744.095666 608.4294 
M 744.095666 608.4294 
L 888.533122 691.8204 
M 888.533122 691.8204 
L 1032.970578 608.4294 
M 1032.970578 608.4294 
L 888.533122 691.8204 
M 1032.970578 608.4294 
L 1032.970578 441.6474 
M 1032.970578 441.6474 
L 1032.970578 608.4294 
M 744.095666 441.6474 
L 888.533122 358.2564 
M 1032.970578 441.6474 
L 888.533122 358.2564 
M 888.533122 358.2564 
L 744.095666 441.6474 
M 888.533122 358.2564 
L 1032.970578 441.6474 
M 1032.970578 608.4294 
L 1191.589754 659.967867 
M 1191.589754 659.967867 
L 1032.970578 608.4294 
M 1191.589754 659.967867 
L 1289.62179 525.0384 
M 1289.62179 525.0384 
L 1191.589754 659.967867 
M 1191.589754 390.108933 
L 1289.62179 525.0384 
M 1289.62179 525.0384 
L 1191.589754 390.108933 
M 1191.589754 390.108933 
L 1032.970578 441.6474 
M 1032.970578 441.6474 
L 1191.589754 390.108933 
M 888.533122 191.4744 
L 888.533122 358.2564 
M 888.533122 358.2564 
L 888.533122 191.4744 
M 744.095666 441.6474 
L 599.65821 358.2564 
M 599.65821 358.2564 
L 744.095666 441.6474 
M 744.095666 608.4294 
L 599.65821 691.8204 
M 599.65821 691.8204 
L 744.095666 608.4294 
M 888.533122 858.6024 
L 888.533122 691.8204 
M 888.533122 691.8204 
L 888.533122 858.6024 
M 1191.589754 390.108933 
L 1243.128239 231.489732 
M 1243.128239 231.489732 
L 1191.589754 390.108933 
" clip-path="url(#pd5f186fab2)" style="fill: none; stroke: #000000; stroke-width: 8; stroke-linecap: square"/>
   </g>
   <g id="PathCollection_1">
    <path d="M 744.095666 458.923684 
C 748.67739 458.923684 753.072075 457.103346 756.311844 453.863578 
C 759.551612 450.62381 761.37195 446.229124 761.37195 441.6474 
C 761.37195 437.065676 759.551612 432.67099 756.311844 429.431222 
C 753.072075 426.191454 748.67739 424.371116 744.095666 424.371116 
C 739.513942 424.371116 735.119256 426.191454 731.879488 429.431222 
C 728.63972 432.67099 726.819381 437.065676 726.819381 441.6474 
C 726.819381 446.229124 728.63972 450.62381 731.879488 453.863578 
C 735.119256 457.103346 739.513942 458.923684 744.095666 458.923684 
z
" clip-path="url(#pd5f186fab2)" style="fill: #e3d9d3; stroke: #000000; stroke-width: 5"/>
    <path d="M 744.095666 646.873905 
C 754.291268 646.873905 764.070657 642.82315 771.280036 635.613771 
C 778.489416 628.404391 782.540171 618.625002 782.540171 608.4294 
C 782.540171 598.233798 778.489416 588.454409 771.280036 581.245029 
C 764.070657 574.03565 754.291268 569.984895 744.095666 569.984895 
C 733.900064 569.984895 724.120675 574.03565 716.911295 581.245029 
C 709.701916 588.454409 705.65116 598.233798 705.65116 608.4294 
C 705.65116 618.625002 709.701916 628.404391 716.911295 635.613771 
C 724.120675 642.82315 733.900064 646.873905 744.095666 646.873905 
z
" clip-path="url(#pd5f186fab2)" style="fill: #b40426; stroke: #000000; stroke-width: 5"/>
    <path d="M 888.533122 707.13363 
C 892.594238 707.13363 896.489567 705.520131 899.36121 702.648488 
C 902.232853 699.776846 903.846351 695.881516 903.846351 691.8204 
C 903.846351 687.759284 902.232853 683.863954 899.36121 680.992312 
C 896.489567 678.120669 892.594238 676.50717 888.533122 676.50717 
C 884.472006 676.50717 880.576676 678.120669 877.705033 680.992312 
C 874.833391 683.863954 873.219892 687.759284 873.219892 691.8204 
C 873.219892 695.881516 874.833391 699.776846 877.705033 702.648488 
C 880.576676 705.520131 884.472006 707.13363 888.533122 707.13363 
z
" clip-path="url(#pd5f186fab2)" style="fill: #e7d7ce; stroke: #000000; stroke-width: 5"/>
    <path d="M 1032.970578 633.695385 
C 1039.671195 633.695385 1046.098275 631.033201 1050.836327 626.295149 
C 1055.574379 621.557097 1058.236563 615.130018 1058.236563 608.4294 
C 1058.236563 601.728782 1055.574379 595.301703 1050.836327 590.563651 
C 1046.098275 585.825599 1039.671195 583.163415 1032.970578 583.163415 
C 1026.26996 583.163415 1019.84288 585.825599 1015.104828 590.563651 
C 1010.366776 595.301703 1007.704593 601.728782 1007.704593 608.4294 
C 1007.704593 615.130018 1010.366776 621.557097 1015.104828 626.295149 
C 1019.84288 631.033201 1026.26996 633.695385 1032.970578 633.695385 
z
" clip-path="url(#pd5f186fab2)" style="fill: #f18f71; stroke: #000000; stroke-width: 5"/>
    <path d="M 1032.970578 456.689341 
C 1036.959747 456.689341 1040.786068 455.104428 1043.606836 452.283659 
C 1046.427605 449.46289 1048.012519 445.636569 1048.012519 441.6474 
C 1048.012519 437.658231 1046.427605 433.83191 1043.606836 431.011141 
C 1040.786068 428.190372 1036.959747 426.605459 1032.970578 426.605459 
C 1028.981408 426.605459 1025.155088 428.190372 1022.334319 431.011141 
C 1019.51355 433.83191 1017.928636 437.658231 1017.928636 441.6474 
C 1017.928636 445.636569 1019.51355 449.46289 1022.334319 452.283659 
C 1025.155088 455.104428 1028.981408 456.689341 1032.970578 456.689341 
z
" clip-path="url(#pd5f186fab2)" style="fill: #e8d6cc; stroke: #000000; stroke-width: 5"/>
    <path d="M 888.533122 390.512213 
C 897.087463 390.512213 905.292593 387.113537 911.341426 381.064704 
C 917.390259 375.015871 920.788935 366.810742 920.788935 358.2564 
C 920.788935 349.702058 917.390259 341.496929 911.341426 335.448096 
C 905.292593 329.399263 897.087463 326.000587 888.533122 326.000587 
C 879.97878 326.000587 871.77365 329.399263 865.724817 335.448096 
C 859.675984 341.496929 856.277308 349.702058 856.277308 358.2564 
C 856.277308 366.810742 859.675984 375.015871 865.724817 381.064704 
C 871.77365 387.113537 879.97878 390.512213 888.533122 390.512213 
z
" clip-path="url(#pd5f186fab2)" style="fill: #da5a49; stroke: #000000; stroke-width: 5"/>
    <path d="M 1191.589754 680.261339 
C 1196.971646 680.261339 1202.133834 678.123091 1205.939406 674.317519 
C 1209.744978 670.511946 1211.883226 665.349759 1211.883226 659.967867 
C 1211.883226 654.585975 1209.744978 649.423787 1205.939406 645.618215 
C 1202.133834 641.812643 1196.971646 639.674395 1191.589754 639.674395 
C 1186.207862 639.674395 1181.045675 641.812643 1177.240103 645.618215 
C 1173.43453 649.423787 1171.296282 654.585975 1171.296282 659.967867 
C 1171.296282 665.349759 1173.43453 670.511946 1177.240103 674.317519 
C 1181.045675 678.123091 1186.207862 680.261339 1191.589754 680.261339 
z
" clip-path="url(#pd5f186fab2)" style="fill: #f7a688; stroke: #000000; stroke-width: 5"/>
    <path d="M 1289.62179 540.964087 
C 1293.845332 540.964087 1297.896456 539.286056 1300.882951 536.299561 
C 1303.869446 533.313066 1305.547477 529.261942 1305.547477 525.0384 
C 1305.547477 520.814858 1303.869446 516.763734 1300.882951 513.777239 
C 1297.896456 510.790744 1293.845332 509.112713 1289.62179 509.112713 
C 1285.398249 509.112713 1281.347124 510.790744 1278.360629 513.777239 
C 1275.374134 516.763734 1273.696103 520.814858 1273.696103 525.0384 
C 1273.696103 529.261942 1275.374134 533.313066 1278.360629 536.299561 
C 1281.347124 539.286056 1285.398249 540.964087 1289.62179 540.964087 
z
" clip-path="url(#pd5f186fab2)" style="fill: #e6d7cf; stroke: #000000; stroke-width: 5"/>
    <path d="M 1191.589754 407.467072 
C 1196.193186 407.467072 1200.608694 405.638109 1203.863812 402.382991 
C 1207.11893 399.127873 1208.947893 394.712365 1208.947893 390.108933 
C 1208.947893 385.505501 1207.11893 381.089993 1203.863812 377.834875 
C 1200.608694 374.579757 1196.193186 372.750794 1191.589754 372.750794 
C 1186.986322 372.750794 1182.570814 374.579757 1179.315696 377.834875 
C 1176.060578 381.089993 1174.231615 385.505501 1174.231615 390.108933 
C 1174.231615 394.712365 1176.060578 399.127873 1179.315696 402.382991 
C 1182.570814 405.638109 1186.986322 407.467072 1191.589754 407.467072 
z
" clip-path="url(#pd5f186fab2)" style="fill: #e3d9d3; stroke: #000000; stroke-width: 5"/>
    <path d="M 888.533122 238.779051 
C 901.078462 238.779051 913.111666 233.794734 921.982561 224.923839 
C 930.853456 216.052944 935.837773 204.01974 935.837773 191.4744 
C 935.837773 178.92906 930.853456 166.895856 921.982561 158.024961 
C 913.111666 149.154066 901.078462 144.169749 888.533122 144.169749 
C 875.987782 144.169749 863.954577 149.154066 855.083682 158.024961 
C 846.212787 166.895856 841.228471 178.92906 841.228471 191.4744 
C 841.228471 204.01974 846.212787 216.052944 855.083682 224.923839 
C 863.954577 233.794734 875.987782 238.779051 888.533122 238.779051 
z
" clip-path="url(#pd5f186fab2)" style="fill: #3c4ec2; stroke: #000000; stroke-width: 5"/>
    <path d="M 599.65821 384.864388 
C 606.714731 384.864388 613.483185 382.060802 618.472898 377.071088 
C 623.462612 372.081375 626.266197 365.312921 626.266197 358.2564 
C 626.266197 351.199879 623.462612 344.431425 618.472898 339.441712 
C 613.483185 334.451998 606.714731 331.648412 599.65821 331.648412 
C 592.601689 331.648412 585.833235 334.451998 580.843521 339.441712 
C 575.853808 344.431425 573.050222 351.199879 573.050222 358.2564 
C 573.050222 365.312921 575.853808 372.081375 580.843521 377.071088 
C 585.833235 382.060802 592.601689 384.864388 599.65821 384.864388 
z
" clip-path="url(#pd5f186fab2)" style="fill: #ee8669; stroke: #000000; stroke-width: 5"/>
    <path d="M 599.65821 739.407294 
C 612.278402 739.407294 624.383402 734.393239 633.307225 725.469416 
C 642.231049 716.545592 647.245104 704.440592 647.245104 691.8204 
C 647.245104 679.200208 642.231049 667.095208 633.307225 658.171384 
C 624.383402 649.247561 612.278402 644.233506 599.65821 644.233506 
C 587.038018 644.233506 574.933017 649.247561 566.009194 658.171384 
C 557.085371 667.095208 552.071316 679.200208 552.071316 691.8204 
C 552.071316 704.440592 557.085371 716.545592 566.009194 725.469416 
C 574.933017 734.393239 587.038018 739.407294 599.65821 739.407294 
z
" clip-path="url(#pd5f186fab2)" style="fill: #3b4cc0; stroke: #000000; stroke-width: 5"/>
    <path d="M 888.533122 888.028664 
C 896.337058 888.028664 903.822416 884.928127 909.340632 879.409911 
C 914.858849 873.891694 917.959385 866.406336 917.959385 858.6024 
C 917.959385 850.798464 914.858849 843.313106 909.340632 837.794889 
C 903.822416 832.276673 896.337058 829.176136 888.533122 829.176136 
C 880.729185 829.176136 873.243827 832.276673 867.725611 837.794889 
C 862.207395 843.313106 859.106858 850.798464 859.106858 858.6024 
C 859.106858 866.406336 862.207395 873.891694 867.725611 879.409911 
C 873.243827 884.928127 880.729185 888.028664 888.533122 888.028664 
z
" clip-path="url(#pd5f186fab2)" style="fill: #e67259; stroke: #000000; stroke-width: 5"/>
    <path d="M 1243.128239 257.447824 
C 1250.012405 257.447824 1256.615541 254.712715 1261.483381 249.844875 
C 1266.351222 244.977034 1269.08633 238.373899 1269.08633 231.489732 
C 1269.08633 224.605566 1266.351222 218.002431 1261.483381 213.13459 
C 1256.615541 208.266749 1250.012405 205.531641 1243.128239 205.531641 
C 1236.244073 205.531641 1229.640937 208.266749 1224.773097 213.13459 
C 1219.905256 218.002431 1217.170148 224.605566 1217.170148 231.489732 
C 1217.170148 238.373899 1219.905256 244.977034 1224.773097 249.844875 
C 1229.640937 254.712715 1236.244073 257.447824 1243.128239 257.447824 
z
" clip-path="url(#pd5f186fab2)" style="fill: #f08b6e; stroke: #000000; stroke-width: 5"/>
   </g>
  </g>
 </g>
 <defs>
  <clipPath id="pd5f186fab2">
   <rect x="530.661852" y="124.7616" width="827.956296" height="800.5536"/>
  </clipPath>
 </defs>
</svg>
