<?xml version="1.0" encoding="utf-8" standalone="no"?>
<!DOCTYPE svg PUBLIC "-//W3C//DTD SVG 1.1//EN"
  "http://www.w3.org/Graphics/SVG/1.1/DTD/svg11.dtd">
<svg xmlns:xlink="http://www.w3.org/1999/xlink" width="1843.2pt" height="1039.68pt" viewBox="0 0 1843.2 1039.68" xmlns="http://www.w3.org/2000/svg" version="1.1">
 <metadata>
  <rdf:RDF xmlns:dc="http://purl.org/dc/elements/1.1/" xmlns:cc="http://creativecommons.org/ns#" xmlns:rdf="http://www.w3.org/1999/02/22-rdf-syntax-ns#">
   <cc:Work>
    <dc:type rdf:resource="http://purl.org/dc/dcmitype/StillImage"/>
    <dc:date>2023-07-27T17:15:06.532245</dc:date>
    <dc:format>image/svg+xml</dc:format>
    <dc:creator>
     <cc:Agent>
      <dc:title>Matplotlib v3.7.0, https://matplotlib.org/</dc:title>
     </cc:Agent>
    </dc:creator>
   </cc:Work>
  </rdf:RDF>
 </metadata>
 <defs>
  <style type="text/css">*{stroke-linejoin: round; stroke-linecap: butt}</style>
 </defs>
 <g id="figure_1">
  <g id="patch_1">
   <path d="M 0 1039.68 
L 1843.2 1039.68 
L 1843.2 0 
L 0 0 
z
" style="fill: #ffffff"/>
  </g>
  <g id="axes_1">
   <g id="line2d_1">
    <path d="M 506.195836 525.370266 
L 578.588566 650.758188 
M 578.588566 650.758188 
L 506.195836 525.370266 
M 578.588566 650.758188 
L 723.374068 650.758188 
M 723.374068 650.758188 
L 578.588566 650.758188 
M 795.766819 525.370266 
L 723.374068 650.758188 
M 723.374068 650.758188 
L 795.766819 525.370266 
M 723.374068 399.982339 
L 795.766819 525.370266 
M 795.766819 525.370266 
L 723.374068 399.982339 
M 506.195836 525.370266 
L 578.588566 399.982339 
M 723.374068 399.982339 
L 578.588566 399.982339 
M 578.588566 399.982339 
L 506.195836 525.370266 
M 578.588566 399.982339 
L 723.374068 399.982339 
M 723.374068 399.982339 
L 795.766819 274.59443 
M 795.766819 274.59443 
L 723.374068 399.982339 
M 481.708126 292.38566 
L 578.588566 399.982339 
M 578.588566 399.982339 
L 481.708126 292.38566 
M 349.44 351.275272 
L 481.708126 292.38566 
M 481.708126 292.38566 
L 349.44 351.275272 
M 364.574208 495.267695 
L 349.44 351.275272 
M 349.44 351.275272 
L 364.574208 495.267695 
M 364.574208 495.267695 
L 506.195836 525.370266 
M 506.195836 525.370266 
L 364.574208 495.267695 
M 795.766819 525.370266 
L 940.552311 525.370266 
M 940.552311 525.370266 
L 795.766819 525.370266 
M 723.374068 650.758188 
L 795.766819 776.146108 
M 795.766819 776.146108 
L 723.374068 650.758188 
M 795.766819 776.146108 
L 940.552311 776.146108 
M 940.552311 776.146108 
L 795.766819 776.146108 
M 1250.269018 524.70671 
L 1322.661768 650.094461 
M 1322.661768 650.094461 
L 1250.269018 524.70671 
M 1322.661768 650.094461 
L 1467.44727 650.094461 
M 1467.44727 650.094461 
L 1322.661768 650.094461 
M 1467.44727 650.094461 
L 1539.84 524.70671 
M 1539.84 524.70671 
L 1467.44727 650.094461 
M 1539.84 524.70671 
L 1467.44727 399.318612 
M 1467.44727 399.318612 
L 1539.84 524.70671 
M 1467.44727 399.318612 
L 1322.661768 399.318612 
M 1322.661768 399.318612 
L 1250.269018 524.70671 
M 1322.661768 399.318612 
L 1467.44727 399.318612 
M 1250.269018 524.70671 
L 1322.661768 399.318612 
M 1322.661768 399.318612 
L 1250.269018 273.930692 
M 1250.269018 273.930692 
L 1322.661768 399.318612 
M 1105.483516 273.930692 
L 1250.269018 273.930692 
M 1250.269018 273.930692 
L 1105.483516 273.930692 
M 1322.661768 650.094461 
L 1250.269018 775.48237 
M 1250.269018 775.48237 
L 1322.661768 650.094461 
L 1322.661768 650.094461 
" clip-path="url(#p7c63ce9c24)" style="fill: none; stroke: #000000; stroke-width: 5; stroke-linecap: square"/>
   </g>
   <g id="PathCollection_1">
    <path d="M 506.195836 538.318721 
C 509.629807 538.318721 512.923593 536.95439 515.351777 534.526207 
C 517.779961 532.098023 519.144292 528.804236 519.144292 525.370266 
C 519.144292 521.936295 517.779961 518.642509 515.351777 516.214325 
C 512.923593 513.786141 509.629807 512.42181 506.195836 512.42181 
C 502.761866 512.42181 499.468079 513.786141 497.039895 516.214325 
C 494.611712 518.642509 493.247381 521.936295 493.247381 525.370266 
C 493.247381 528.804236 494.611712 532.098023 497.039895 534.526207 
C 499.468079 536.95439 502.761866 538.318721 506.195836 538.318721 
z
" clip-path="url(#p7c63ce9c24)" style="fill: #f39778; stroke: #000000; stroke-width: 5"/>
    <path d="M 578.588566 675.588462 
C 585.173632 675.588462 591.489877 672.972188 596.146221 668.315843 
C 600.802566 663.659499 603.41884 657.343254 603.41884 650.758188 
C 603.41884 644.173123 600.802566 637.856878 596.146221 633.200533 
C 591.489877 628.544189 585.173632 625.927915 578.588566 625.927915 
C 572.0035 625.927915 565.687256 628.544189 561.030911 633.200533 
C 556.374566 637.856878 553.758292 644.173123 553.758292 650.758188 
C 553.758292 657.343254 556.374566 663.659499 561.030911 668.315843 
C 565.687256 672.972188 572.0035 675.588462 578.588566 675.588462 
z
" clip-path="url(#p7c63ce9c24)" style="fill: #5f7fe8; stroke: #000000; stroke-width: 5"/>
    <path d="M 723.374068 670.806505 
C 728.690943 670.806505 733.790769 668.694088 737.550368 664.934489 
C 741.309967 661.17489 743.422384 656.075064 743.422384 650.758188 
C 743.422384 645.441313 741.309967 640.341487 737.550368 636.581888 
C 733.790769 632.822289 728.690943 630.709872 723.374068 630.709872 
C 718.057192 630.709872 712.957366 632.822289 709.197767 636.581888 
C 705.438168 640.341487 703.325751 645.441313 703.325751 650.758188 
C 703.325751 656.075064 705.438168 661.17489 709.197767 664.934489 
C 712.957366 668.694088 718.057192 670.806505 723.374068 670.806505 
z
" clip-path="url(#p7c63ce9c24)" style="fill: #c83836; stroke: #000000; stroke-width: 5"/>
    <path d="M 795.766819 539.784322 
C 799.589471 539.784322 803.256072 538.265566 805.959095 535.562542 
C 808.662118 532.859519 810.180874 529.192918 810.180874 525.370266 
C 810.180874 521.547614 808.662118 517.881013 805.959095 515.177989 
C 803.256072 512.474966 799.589471 510.95621 795.766819 510.95621 
C 791.944166 510.95621 788.277565 512.474966 785.574542 515.177989 
C 782.871519 517.881013 781.352763 521.547614 781.352763 525.370266 
C 781.352763 529.192918 782.871519 532.859519 785.574542 535.562542 
C 788.277565 538.265566 791.944166 539.784322 795.766819 539.784322 
z
" clip-path="url(#p7c63ce9c24)" style="fill: #cfdaea; stroke: #000000; stroke-width: 5"/>
    <path d="M 723.374068 419.594389 
C 728.575244 419.594389 733.564094 417.527939 737.241881 413.850152 
C 740.919668 410.172365 742.986118 405.183515 742.986118 399.982339 
C 742.986118 394.781162 740.919668 389.792312 737.241881 386.114525 
C 733.564094 382.436738 728.575244 380.370289 723.374068 380.370289 
C 718.172891 380.370289 713.184041 382.436738 709.506254 386.114525 
C 705.828467 389.792312 703.762018 394.781162 703.762018 399.982339 
C 703.762018 405.183515 705.828467 410.172365 709.506254 413.850152 
C 713.184041 417.527939 718.172891 419.594389 723.374068 419.594389 
z
" clip-path="url(#p7c63ce9c24)" style="fill: #cc403a; stroke: #000000; stroke-width: 5"/>
    <path d="M 578.588566 409.716428 
C 581.170077 409.716428 583.646203 408.690783 585.471607 406.86538 
C 587.297011 405.039976 588.322656 402.56385 588.322656 399.982339 
C 588.322656 397.400828 587.297011 394.924702 585.471607 393.099298 
C 583.646203 391.273894 581.170077 390.248249 578.588566 390.248249 
C 576.007055 390.248249 573.530929 391.273894 571.705525 393.099298 
C 569.880122 394.924702 568.854476 397.400828 568.854476 399.982339 
C 568.854476 402.56385 569.880122 405.039976 571.705525 406.86538 
C 573.530929 408.690783 576.007055 409.716428 578.588566 409.716428 
z
" clip-path="url(#p7c63ce9c24)" style="fill: #e7d7ce; stroke: #000000; stroke-width: 5"/>
    <path d="M 795.766819 301.578267 
C 802.923016 301.578267 809.787077 298.73508 814.847273 293.674884 
C 819.907469 288.614689 822.750656 281.750627 822.750656 274.59443 
C 822.750656 267.438232 819.907469 260.574171 814.847273 255.513975 
C 809.787077 250.453779 802.923016 247.610592 795.766819 247.610592 
C 788.610621 247.610592 781.74656 250.453779 776.686364 255.513975 
C 771.626168 260.574171 768.782981 267.438232 768.782981 274.59443 
C 768.782981 281.750627 771.626168 288.614689 776.686364 293.674884 
C 781.74656 298.73508 788.610621 301.578267 795.766819 301.578267 
z
" clip-path="url(#p7c63ce9c24)" style="fill: #4358cb; stroke: #000000; stroke-width: 5"/>
    <path d="M 481.708126 314.531314 
C 487.581223 314.531314 493.214563 312.197909 497.367469 308.045002 
C 501.520375 303.892096 503.853781 298.258756 503.853781 292.38566 
C 503.853781 286.512564 501.520375 280.879224 497.367469 276.726318 
C 493.214563 272.573412 487.581223 270.240006 481.708126 270.240006 
C 475.83503 270.240006 470.20169 272.573412 466.048784 276.726318 
C 461.895878 280.879224 459.562472 286.512564 459.562472 292.38566 
C 459.562472 298.258756 461.895878 303.892096 466.048784 308.045002 
C 470.20169 312.197909 475.83503 314.531314 481.708126 314.531314 
z
" clip-path="url(#p7c63ce9c24)" style="fill: #82a6fb; stroke: #000000; stroke-width: 5"/>
    <path d="M 349.44 361.434505 
C 352.13426 361.434505 354.718533 360.364064 356.623662 358.458934 
C 358.528791 356.553805 359.599232 353.969532 359.599232 351.275272 
C 359.599232 348.581013 358.528791 345.99674 356.623662 344.09161 
C 354.718533 342.186481 352.13426 341.11604 349.44 341.11604 
C 346.74574 341.11604 344.161467 342.186481 342.256338 344.09161 
C 340.351209 345.99674 339.280768 348.581013 339.280768 351.275272 
C 339.280768 353.969532 340.351209 356.553805 342.256338 358.458934 
C 344.161467 360.364064 346.74574 361.434505 349.44 361.434505 
z
" clip-path="url(#p7c63ce9c24)" style="fill: #f7ac8e; stroke: #000000; stroke-width: 5"/>
    <path d="M 364.574208 507.868687 
C 367.91603 507.868687 371.12143 506.540967 373.484455 504.177942 
C 375.84748 501.814917 377.1752 498.609517 377.1752 495.267695 
C 377.1752 491.925873 375.84748 488.720473 373.484455 486.357448 
C 371.12143 483.994423 367.91603 482.666703 364.574208 482.666703 
C 361.232386 482.666703 358.026986 483.994423 355.663961 486.357448 
C 353.300936 488.720473 351.973216 491.925873 351.973216 495.267695 
C 351.973216 498.609517 353.300936 501.814917 355.663961 504.177942 
C 358.026986 506.540967 361.232386 507.868687 364.574208 507.868687 
z
" clip-path="url(#p7c63ce9c24)" style="fill: #dadce0; stroke: #000000; stroke-width: 5"/>
    <path d="M 940.552311 540.494336 
C 944.563261 540.494336 948.410473 538.900769 951.246643 536.064599 
C 954.082814 533.228428 955.676381 529.381216 955.676381 525.370266 
C 955.676381 521.359316 954.082814 517.512103 951.246643 514.675933 
C 948.410473 511.839763 944.563261 510.246196 940.552311 510.246196 
C 936.54136 510.246196 932.694148 511.839763 929.857978 514.675933 
C 927.021808 517.512103 925.428241 521.359316 925.428241 525.370266 
C 925.428241 529.381216 927.021808 533.228428 929.857978 536.064599 
C 932.694148 538.900769 936.54136 540.494336 940.552311 540.494336 
z
" clip-path="url(#p7c63ce9c24)" style="fill: #ed8366; stroke: #000000; stroke-width: 5"/>
    <path d="M 795.766819 795.881989 
C 801.000835 795.881989 806.021185 793.802492 809.722194 790.101483 
C 813.423203 786.400475 815.5027 781.380125 815.5027 776.146108 
C 815.5027 770.912091 813.423203 765.891742 809.722194 762.190733 
C 806.021185 758.489724 801.000835 756.410227 795.766819 756.410227 
C 790.532802 756.410227 785.512452 758.489724 781.811443 762.190733 
C 778.110434 765.891742 776.030938 770.912091 776.030938 776.146108 
C 776.030938 781.380125 778.110434 786.400475 781.811443 790.101483 
C 785.512452 793.802492 790.532802 795.881989 795.766819 795.881989 
z
" clip-path="url(#p7c63ce9c24)" style="fill: #9fbfff; stroke: #000000; stroke-width: 5"/>
    <path d="M 940.552311 791.852397 
C 944.717667 791.852397 948.712982 790.197483 951.658334 787.252131 
C 954.603686 784.306779 956.258599 780.311464 956.258599 776.146108 
C 956.258599 771.980752 954.603686 767.985437 951.658334 765.040085 
C 948.712982 762.094733 944.717667 760.43982 940.552311 760.43982 
C 936.386954 760.43982 932.391639 762.094733 929.446288 765.040085 
C 926.500936 767.985437 924.846022 771.980752 924.846022 776.146108 
C 924.846022 780.311464 926.500936 784.306779 929.446288 787.252131 
C 932.391639 790.197483 936.386954 791.852397 940.552311 791.852397 
z
" clip-path="url(#p7c63ce9c24)" style="fill: #ea7b60; stroke: #000000; stroke-width: 5"/>
    <path d="M 1250.269018 545.882403 
C 1255.884877 545.882403 1261.271482 543.651199 1265.242494 539.680186 
C 1269.213507 535.709174 1271.444711 530.322569 1271.444711 524.70671 
C 1271.444711 519.09085 1269.213507 513.704245 1265.242494 509.733233 
C 1261.271482 505.762221 1255.884877 503.531016 1250.269018 503.531016 
C 1244.653158 503.531016 1239.266553 505.762221 1235.295541 509.733233 
C 1231.324529 513.704245 1229.093324 519.09085 1229.093324 524.70671 
C 1229.093324 530.322569 1231.324529 535.709174 1235.295541 539.680186 
C 1239.266553 543.651199 1244.653158 545.882403 1250.269018 545.882403 
z
" clip-path="url(#p7c63ce9c24)" style="fill: #8fb1fe; stroke: #000000; stroke-width: 5"/>
    <path d="M 1322.661768 671.788066 
C 1328.41498 671.788066 1333.933329 669.502291 1338.001464 665.434156 
C 1342.069598 661.366022 1344.355373 655.847672 1344.355373 650.094461 
C 1344.355373 644.34125 1342.069598 638.822901 1338.001464 634.754766 
C 1333.933329 630.686631 1328.41498 628.400856 1322.661768 628.400856 
C 1316.908557 628.400856 1311.390208 630.686631 1307.322073 634.754766 
C 1303.253938 638.822901 1300.968163 644.34125 1300.968163 650.094461 
C 1300.968163 655.847672 1303.253938 661.366022 1307.322073 665.434156 
C 1311.390208 669.502291 1316.908557 671.788066 1322.661768 671.788066 
z
" clip-path="url(#p7c63ce9c24)" style="fill: #b40426; stroke: #000000; stroke-width: 5"/>
    <path d="M 1467.44727 662.35884 
C 1470.699821 662.35884 1473.819595 661.066588 1476.119496 658.766687 
C 1478.419397 656.466786 1479.711649 653.347013 1479.711649 650.094461 
C 1479.711649 646.84191 1478.419397 643.722137 1476.119496 641.422235 
C 1473.819595 639.122334 1470.699821 637.830082 1467.44727 637.830082 
C 1464.194719 637.830082 1461.074945 639.122334 1458.775044 641.422235 
C 1456.475143 643.722137 1455.182891 646.84191 1455.182891 650.094461 
C 1455.182891 653.347013 1456.475143 656.466786 1458.775044 658.766687 
C 1461.074945 661.066588 1464.194719 662.35884 1467.44727 662.35884 
z
" clip-path="url(#p7c63ce9c24)" style="fill: #dcdddd; stroke: #000000; stroke-width: 5"/>
    <path d="M 1539.84 534.964268 
C 1542.560336 534.964268 1545.169621 533.883467 1547.093189 531.959899 
C 1549.016757 530.03633 1550.097558 527.427046 1550.097558 524.70671 
C 1550.097558 521.986373 1549.016757 519.377089 1547.093189 517.453521 
C 1545.169621 515.529952 1542.560336 514.449151 1539.84 514.449151 
C 1537.119664 514.449151 1534.510379 515.529952 1532.586811 517.453521 
C 1530.663243 519.377089 1529.582442 521.986373 1529.582442 524.70671 
C 1529.582442 527.427046 1530.663243 530.03633 1532.586811 531.959899 
C 1534.510379 533.883467 1537.119664 534.964268 1539.84 534.964268 
z
" clip-path="url(#p7c63ce9c24)" style="fill: #f7aa8c; stroke: #000000; stroke-width: 5"/>
    <path d="M 1467.44727 414.180644 
C 1471.388727 414.180644 1475.169283 412.614686 1477.956314 409.827655 
C 1480.743345 407.040624 1482.309302 403.260069 1482.309302 399.318612 
C 1482.309302 395.377155 1480.743345 391.596599 1477.956314 388.809568 
C 1475.169283 386.022537 1471.388727 384.456579 1467.44727 384.456579 
C 1463.505813 384.456579 1459.725257 386.022537 1456.938226 388.809568 
C 1454.151195 391.596599 1452.585238 395.377155 1452.585238 399.318612 
C 1452.585238 403.260069 1454.151195 407.040624 1456.938226 409.827655 
C 1459.725257 412.614686 1463.505813 414.180644 1467.44727 414.180644 
z
" clip-path="url(#p7c63ce9c24)" style="fill: #ccd9ed; stroke: #000000; stroke-width: 5"/>
    <path d="M 1322.661768 417.229781 
C 1327.411866 417.229781 1331.968052 415.342547 1335.326878 411.983721 
C 1338.685704 408.624895 1340.572938 404.068709 1340.572938 399.318612 
C 1340.572938 394.568514 1338.685704 390.012328 1335.326878 386.653502 
C 1331.968052 383.294676 1327.411866 381.407442 1322.661768 381.407442 
C 1317.911671 381.407442 1313.355485 383.294676 1309.996659 386.653502 
C 1306.637833 390.012328 1304.750599 394.568514 1304.750599 399.318612 
C 1304.750599 404.068709 1306.637833 408.624895 1309.996659 411.983721 
C 1313.355485 415.342547 1317.911671 417.229781 1322.661768 417.229781 
z
" clip-path="url(#p7c63ce9c24)" style="fill: #dd5f4b; stroke: #000000; stroke-width: 5"/>
    <path d="M 1250.269018 291.627937 
C 1254.962382 291.627937 1259.46415 289.763244 1262.78286 286.444534 
C 1266.10157 283.125824 1267.966263 278.624056 1267.966263 273.930692 
C 1267.966263 269.237328 1266.10157 264.735559 1262.78286 261.41685 
C 1259.46415 258.09814 1254.962382 256.233446 1250.269018 256.233446 
C 1245.575653 256.233446 1241.073885 258.09814 1237.755175 261.41685 
C 1234.436465 264.735559 1232.571772 269.237328 1232.571772 273.930692 
C 1232.571772 278.624056 1234.436465 283.125824 1237.755175 286.444534 
C 1241.073885 289.763244 1245.575653 291.627937 1250.269018 291.627937 
z
" clip-path="url(#p7c63ce9c24)" style="fill: #b5cdfa; stroke: #000000; stroke-width: 5"/>
    <path d="M 1105.483516 289.953644 
C 1109.732853 289.953644 1113.808719 288.265365 1116.813454 285.26063 
C 1119.818189 282.255895 1121.506468 278.180029 1121.506468 273.930692 
C 1121.506468 269.681355 1119.818189 265.605488 1116.813454 262.600754 
C 1113.808719 259.596019 1109.732853 257.90774 1105.483516 257.90774 
C 1101.234179 257.90774 1097.158312 259.596019 1094.153578 262.600754 
C 1091.148843 265.605488 1089.460564 269.681355 1089.460564 273.930692 
C 1089.460564 278.180029 1091.148843 282.255895 1094.153578 285.26063 
C 1097.158312 288.265365 1101.234179 289.953644 1105.483516 289.953644 
z
" clip-path="url(#p7c63ce9c24)" style="fill: #e9785d; stroke: #000000; stroke-width: 5"/>
    <path d="M 1250.269018 803.134676 
C 1257.602495 803.134676 1264.636599 800.221054 1269.82215 795.035503 
C 1275.007702 789.849952 1277.921323 782.815847 1277.921323 775.48237 
C 1277.921323 768.148893 1275.007702 761.114789 1269.82215 755.929238 
C 1264.636599 750.743686 1257.602495 747.830065 1250.269018 747.830065 
C 1242.93554 747.830065 1235.901436 750.743686 1230.715885 755.929238 
C 1225.530333 761.114789 1222.616712 768.148893 1222.616712 775.48237 
C 1222.616712 782.815847 1225.530333 789.849952 1230.715885 795.035503 
C 1235.901436 800.221054 1242.93554 803.134676 1250.269018 803.134676 
z
" clip-path="url(#p7c63ce9c24)" style="fill: #3b4cc0; stroke: #000000; stroke-width: 5"/>
   </g>
  </g>
 </g>
 <defs>
  <clipPath id="p7c63ce9c24">
   <rect x="230.4" y="223.70915" width="1428.48" height="602.658499"/>
  </clipPath>
 </defs>
</svg>
