<?xml version="1.0" encoding="utf-8" standalone="no"?>
<!DOCTYPE svg PUBLIC "-//W3C//DTD SVG 1.1//EN"
  "http://www.w3.org/Graphics/SVG/1.1/DTD/svg11.dtd">
<svg xmlns:xlink="http://www.w3.org/1999/xlink" width="460.8pt" height="345.6pt" viewBox="0 0 460.8 345.6" xmlns="http://www.w3.org/2000/svg" version="1.1">
 <metadata>
  <rdf:RDF xmlns:dc="http://purl.org/dc/elements/1.1/" xmlns:cc="http://creativecommons.org/ns#" xmlns:rdf="http://www.w3.org/1999/02/22-rdf-syntax-ns#">
   <cc:Work>
    <dc:type rdf:resource="http://purl.org/dc/dcmitype/StillImage"/>
    <dc:date>2023-08-27T21:47:27.568568</dc:date>
    <dc:format>image/svg+xml</dc:format>
    <dc:creator>
     <cc:Agent>
      <dc:title>Matplotlib v3.7.0, https://matplotlib.org/</dc:title>
     </cc:Agent>
    </dc:creator>
   </cc:Work>
  </rdf:RDF>
 </metadata>
 <defs>
  <style type="text/css">*{stroke-linejoin: round; stroke-linecap: butt}</style>
 </defs>
 <g id="figure_1">
  <g id="patch_1">
   <path d="M 0 345.6 
L 460.8 345.6 
L 460.8 0 
L 0 0 
z
" style="fill: #ffffff"/>
  </g>
  <g id="axes_1">
   <g id="line2d_1">
    <path d="M 164.413093 133.104906 
L 164.413093 215.951094 
M 164.413093 215.951094 
L 164.413093 133.104906 
M 164.413093 215.951094 
L 236.16 257.374188 
M 236.16 257.374188 
L 164.413093 215.951094 
M 236.16 257.374188 
L 307.906907 215.951094 
M 307.906907 215.951094 
L 236.16 257.374188 
M 307.906907 215.951094 
L 307.906907 133.104906 
M 307.906907 133.104906 
L 307.906907 215.951094 
M 164.413093 133.104906 
L 236.16 91.681812 
M 307.906907 133.104906 
L 236.16 91.681812 
M 236.16 91.681812 
L 164.413093 133.104906 
M 236.16 91.681812 
L 307.906907 133.104906 
" clip-path="url(#p79502beed2)" style="fill: none; stroke: #000000; stroke-width: 8; stroke-linecap: square"/>
   </g>
   <g id="PathCollection_1">
    <defs>
     <path id="C0_0_38197d9d5e" d="M 0 19.364917 
C 5.135636 19.364917 10.061621 17.324507 13.693064 13.693064 
C 17.324507 10.061621 19.364917 5.135636 19.364917 -0 
C 19.364917 -5.135636 17.324507 -10.061621 13.693064 -13.693064 
C 10.061621 -17.324507 5.135636 -19.364917 0 -19.364917 
C -5.135636 -19.364917 -10.061621 -17.324507 -13.693064 -13.693064 
C -17.324507 -10.061621 -19.364917 -5.135636 -19.364917 0 
C -19.364917 5.135636 -17.324507 10.061621 -13.693064 13.693064 
C -10.061621 17.324507 -5.135636 19.364917 0 19.364917 
z
"/>
    </defs>
    <g clip-path="url(#p79502beed2)">
     <use xlink:href="#C0_0_38197d9d5e" x="164.413093" y="133.104906" style="fill: #e36b54; stroke: #000000; stroke-width: 5"/>
    </g>
    <g clip-path="url(#p79502beed2)">
     <use xlink:href="#C0_0_38197d9d5e" x="164.413093" y="215.951094" style="fill: #e36b54; stroke: #000000; stroke-width: 5"/>
    </g>
    <g clip-path="url(#p79502beed2)">
     <use xlink:href="#C0_0_38197d9d5e" x="236.16" y="257.374188" style="fill: #e36b54; stroke: #000000; stroke-width: 5"/>
    </g>
    <g clip-path="url(#p79502beed2)">
     <use xlink:href="#C0_0_38197d9d5e" x="307.906907" y="215.951094" style="fill: #e36b54; stroke: #000000; stroke-width: 5"/>
    </g>
    <g clip-path="url(#p79502beed2)">
     <use xlink:href="#C0_0_38197d9d5e" x="307.906907" y="133.104906" style="fill: #e36b54; stroke: #000000; stroke-width: 5"/>
    </g>
    <g clip-path="url(#p79502beed2)">
     <use xlink:href="#C0_0_38197d9d5e" x="236.16" y="91.681812" style="fill: #e36b54; stroke: #000000; stroke-width: 5"/>
    </g>
   </g>
  </g>
 </g>
 <defs>
  <clipPath id="p79502beed2">
   <rect x="114.203281" y="41.472" width="243.913438" height="266.112"/>
  </clipPath>
 </defs>
</svg>
