<svg viewBox="0 0 13.0 10.66" xmlns="http://www.w3.org/2000/svg">
  <circle cx="1.0" cy="1.0" r="0.94" fill="#323232" />
  <circle cx="3.0" cy="1.0" r="0.94" fill="#323232" />
  <circle cx="5.0" cy="1.0" r="0.94" fill="#323232" />
  <circle cx="7.0" cy="1.0" r="0.94" fill="#323232" />
  <circle cx="9.0" cy="1.0" r="0.94" fill="#323232" />
  <circle cx="11.0" cy="1.0" r="0.94" fill="#323232" />
  <circle cx="2.0" cy="2.73" r="0.94" fill="#323232" />
  <circle cx="4.0" cy="2.73" r="0.94" fill="#323232" />
  <circle cx="6.0" cy="2.73" r="0.94" fill="#323232" />
  <circle cx="8.0" cy="2.73" r="0.94" fill="#323232" />
  <circle cx="10.0" cy="2.73" r="0.94" fill="#323232" />
  <circle cx="12.0" cy="2.73" r="0.94" fill="#323232" />
  <circle cx="1.0" cy="4.46" r="0.94" fill="#323232" />
  <circle cx="3.0" cy="4.46" r="0.94" fill="#323232" />
  <circle cx="5.0" cy="4.46" r="0.94" fill="#323232" />
  <circle cx="7.0" cy="4.46" r="0.94" fill="#323232" />
  <circle cx="9.0" cy="4.46" r="0.94" fill="#323232" />
  <circle cx="11.0" cy="4.46" r="0.94" fill="#323232" />
  <circle cx="2.0" cy="6.2" r="0.94" fill="#323232" />
  <circle cx="4.0" cy="6.2" r="0.94" fill="#323232" />
  <circle cx="6.0" cy="6.2" r="0.94" fill="#323232" />
  <circle cx="8.0" cy="6.2" r="0.94" fill="#323232" />
  <circle cx="10.0" cy="6.2" r="0.94" fill="#323232" />
  <circle cx="12.0" cy="6.2" r="0.94" fill="#323232" />
  <circle cx="1.0" cy="7.93" r="0.94" fill="#323232" />
  <circle cx="3.0" cy="7.93" r="0.94" fill="#323232" />
  <circle cx="5.0" cy="7.93" r="0.94" fill="#323232" />
  <circle cx="7.0" cy="7.93" r="0.94" fill="#323232" />
  <circle cx="9.0" cy="7.93" r="0.94" fill="#323232" />
  <circle cx="11.0" cy="7.93" r="0.94" fill="#323232" />
  <circle cx="2.0" cy="9.66" r="0.94" fill="#323232" />
  <circle cx="4.0" cy="9.66" r="0.94" fill="#323232" />
  <circle cx="6.0" cy="9.66" r="0.94" fill="#323232" />
  <circle cx="8.0" cy="9.66" r="0.94" fill="#323232" />
  <circle cx="10.0" cy="9.66" r="0.94" fill="#323232" />
  <circle cx="12.0" cy="9.66" r="0.94" fill="#323232" />
</svg>