<svg viewBox="0 0 12 12" xmlns="http://www.w3.org/2000/svg">
  <circle cx="1" cy="1" r="0.94" fill="#323232" />
  <circle cx="3" cy="1" r="0.94" fill="#323232" />
  <circle cx="5" cy="1" r="0.94" fill="#323232" />
  <circle cx="7" cy="1" r="0.94" fill="#323232" />
  <circle cx="9" cy="1" r="0.94" fill="#323232" />
  <circle cx="11" cy="1" r="0.94" fill="#323232" />
  <circle cx="1" cy="3" r="0.94" fill="#323232" />
  <circle cx="3" cy="3" r="0.94" fill="#323232" />
  <circle cx="5" cy="3" r="0.94" fill="#323232" />
  <circle cx="7" cy="3" r="0.94" fill="#323232" />
  <circle cx="9" cy="3" r="0.94" fill="#323232" />
  <circle cx="11" cy="3" r="0.94" fill="#323232" />
  <circle cx="1" cy="5" r="0.94" fill="#323232" />
  <circle cx="3" cy="5" r="0.94" fill="#323232" />
  <circle cx="5" cy="5" r="0.94" fill="#323232" />
  <circle cx="7" cy="5" r="0.94" fill="#323232" />
  <circle cx="9" cy="5" r="0.94" fill="#323232" />
  <circle cx="11" cy="5" r="0.94" fill="#323232" />
  <circle cx="1" cy="7" r="0.94" fill="#323232" />
  <circle cx="3" cy="7" r="0.94" fill="#323232" />
  <circle cx="5" cy="7" r="0.94" fill="#323232" />
  <circle cx="7" cy="7" r="0.94" fill="#323232" />
  <circle cx="9" cy="7" r="0.94" fill="#323232" />
  <circle cx="11" cy="7" r="0.94" fill="#323232" />
  <circle cx="1" cy="9" r="0.94" fill="#323232" />
  <circle cx="3" cy="9" r="0.94" fill="#323232" />
  <circle cx="5" cy="9" r="0.94" fill="#323232" />
  <circle cx="7" cy="9" r="0.94" fill="#323232" />
  <circle cx="9" cy="9" r="0.94" fill="#323232" />
  <circle cx="11" cy="9" r="0.94" fill="#323232" />
  <circle cx="1" cy="11" r="0.94" fill="#323232" />
  <circle cx="3" cy="11" r="0.94" fill="#323232" />
  <circle cx="5" cy="11" r="0.94" fill="#323232" />
  <circle cx="7" cy="11" r="0.94" fill="#323232" />
  <circle cx="9" cy="11" r="0.94" fill="#323232" />
  <circle cx="11" cy="11" r="0.94" fill="#323232" />
</svg>